<svg width="80" height="120" viewBox="0 0 80 120" fill="none" xmlns="http://www.w3.org/2000/svg">
<g clip-path="url(#clip0_89_162)">
<mask id="mask0_89_162" style="mask-type:alpha" maskUnits="userSpaceOnUse" x="0" y="0" width="80" height="120">
<path d="M79.1753 0H0V120H79.1753V0Z" fill="#D9D9D9"/>
</mask>
<g mask="url(#mask0_89_162)">
<path d="M-7.7378 29.6081C-7.32341 29.6647 -7.32341 29.6647 -6.90069 29.7225C-6.13999 29.8272 -5.37982 29.935 -4.61978 30.0443C-3.79766 30.1616 -2.975 30.2749 -2.1524 30.3887C-0.543371 30.6119 1.0651 30.839 2.6734 31.0675C3.98101 31.2532 5.2888 31.4375 6.59676 31.6208C6.78319 31.6469 6.96966 31.673 7.16179 31.7C7.54059 31.753 7.91944 31.8061 8.29828 31.8592C11.847 32.3567 15.3951 32.8585 18.9431 33.3618C21.9845 33.7931 25.0265 34.2207 28.0688 34.6456C31.6055 35.1395 35.1418 35.6357 38.6777 36.1356C39.055 36.189 39.4323 36.2423 39.8097 36.2956C40.0881 36.335 40.0881 36.335 40.3722 36.3752C41.6777 36.5595 42.9836 36.7423 44.2892 36.9244C45.8818 37.1465 47.4735 37.3711 49.0653 37.599C49.8764 37.7151 50.688 37.83 51.4999 37.9419C52.3816 38.0634 53.262 38.1905 54.1428 38.3181C54.3977 38.3523 54.6525 38.3865 54.9148 38.4218C57.0694 38.7423 59.0232 39.3248 60.3671 41.1935C61.6838 43.2628 61.5869 45.1886 61.215 47.5703C61.1721 47.8748 61.1288 48.179 61.0847 48.4923C60.97 49.2953 60.85 50.0965 60.728 50.8978C60.6298 51.5507 60.5366 52.2036 60.4438 52.8569C59.6554 58.3994 59.6554 58.3994 59.1486 59.989C59.3181 60.0107 59.488 60.0323 59.6624 60.0548C61.269 60.2615 62.8752 60.4728 64.4806 60.6894C65.3057 60.8003 66.1309 60.9098 66.9568 61.0148C67.7556 61.1165 68.5535 61.2232 69.3511 61.3332C69.8001 61.3936 70.2496 61.4494 70.6991 61.5048C73.1329 61.8469 74.923 62.6153 76.4727 64.629C77.9012 66.8165 78.0781 68.8457 77.6608 71.4115C76.577 76.9661 72.5123 82.2707 68.1849 85.5332C64.2971 88.1878 59.8517 89.1194 55.2777 88.6411C50.9898 88.1982 47.2199 88.6378 43.4731 91.0353C43.2302 91.1907 43.2302 91.1907 42.982 91.3494C41.0673 92.7198 39.5703 94.7765 38.3435 96.8044C38.2098 97.0248 38.0761 97.2453 37.9384 97.4728C37.8373 97.6403 37.7363 97.8078 37.6321 97.9803C37.8383 98.0107 38.0446 98.0411 38.257 98.0728C40.2083 98.3615 42.1593 98.6536 44.1094 98.9494C45.1119 99.1011 46.1144 99.2519 47.1177 99.3994C48.0872 99.5423 49.0562 99.6886 50.0249 99.8369C50.3927 99.8928 50.761 99.9478 51.1296 100.001C53.7717 100.385 56.2026 100.747 57.9375 103.031C58.916 104.624 59.1263 106.295 58.836 108.143C58.3775 110.222 57.2579 111.439 55.6096 112.647C54.7622 113.197 53.9041 113.719 53.0348 114.231C52.3428 114.639 51.6632 115.064 50.9882 115.504C50.8096 115.619 50.6311 115.735 50.4472 115.854C50.1036 116.078 49.761 116.303 49.4191 116.529C47.8137 117.567 46.1304 118.375 44.2203 118.12C43.9981 118.091 43.7758 118.062 43.5469 118.032C43.182 117.982 43.182 117.982 42.8096 117.931C42.5527 117.897 42.2962 117.862 42.0319 117.827C41.181 117.714 40.3305 117.598 39.4801 117.482C39.1901 117.442 38.9 117.403 38.6011 117.362C37.3824 117.196 36.1637 117.029 34.9453 116.86C33.2001 116.618 31.4545 116.381 29.708 116.149C28.3313 115.965 26.9555 115.776 25.58 115.584C24.9949 115.503 24.4095 115.424 23.8239 115.347C23.0053 115.24 22.1879 115.125 21.3705 115.008C21.1277 114.978 20.8848 114.948 20.6347 114.917C18.9944 114.671 18.9944 114.671 18.2002 113.837C17.6831 112.791 17.8124 112.381 18.1279 111.254C18.6343 110.736 18.996 110.493 19.6608 110.257C19.9975 110.284 20.3329 110.327 20.6669 110.378C20.8777 110.409 21.0885 110.44 21.3057 110.472C21.5376 110.508 21.7695 110.543 22.0083 110.58C22.5141 110.655 23.0198 110.73 23.5256 110.805C23.7949 110.845 24.0642 110.885 24.3417 110.927C26.0679 111.182 27.796 111.424 29.5236 111.669C31.0409 111.884 32.5571 112.104 34.0723 112.334C35.5381 112.557 37.0053 112.766 38.474 112.967C39.0317 113.046 39.5888 113.129 40.1451 113.217C44.1185 113.874 44.1185 113.874 47.7321 112.31C48.0921 112.028 48.4455 111.737 48.7989 111.445C49.1931 111.189 49.5902 110.938 49.9931 110.697C50.3222 110.488 50.6513 110.278 50.9799 110.069C51.3148 109.856 51.6496 109.642 51.9845 109.429C52.137 109.332 52.2896 109.234 52.4467 109.134C52.8298 108.892 53.2195 108.663 53.6096 108.434C54.1997 108.104 54.1997 108.104 54.4719 107.405C54.5919 106.534 54.4764 106.136 54.0525 105.389C53.4187 105.064 52.9993 104.967 52.3069 104.869C52.081 104.836 51.855 104.803 51.622 104.769C51.3742 104.734 51.1263 104.699 50.8711 104.664C50.61 104.626 50.349 104.589 50.0801 104.55C49.5123 104.468 48.9445 104.387 48.3766 104.306C47.4785 104.178 46.5808 104.048 45.6834 103.917C45.3758 103.872 45.0686 103.827 44.761 103.783C44.6071 103.76 44.4533 103.738 44.2946 103.715C42.2051 103.41 40.1153 103.108 38.0247 102.811C36.4637 102.589 34.9034 102.362 33.3435 102.132C32.7481 102.045 32.1524 101.96 31.5565 101.877C30.7239 101.76 29.8925 101.638 29.061 101.514C28.8134 101.481 28.5658 101.448 28.3107 101.414C26.6516 101.158 26.6516 101.158 25.9711 100.509C25.6311 99.7044 25.6295 99.1207 25.735 98.2473C26.1037 97.6065 26.3679 97.2582 27.019 96.9415C27.7001 96.7711 28.2144 96.8428 28.9048 96.9473C29.1589 96.9844 29.4131 97.0219 29.6749 97.0603C29.9388 97.1015 30.2026 97.1428 30.4744 97.1852C30.8758 97.2448 30.8758 97.2448 31.2853 97.3061C31.9455 97.4048 32.6053 97.5057 33.2649 97.6082C33.29 97.4773 33.3151 97.3461 33.3409 97.2107C33.7319 95.3678 34.4025 93.6844 35.1201 91.9532C35.1825 91.8019 35.2449 91.6507 35.3092 91.4944C38.342 84.1519 42.2929 77.4411 47.6224 71.6528C50.5078 68.4886 52.6389 64.924 54.1874 60.8686C54.2439 60.7211 54.2999 60.574 54.3581 60.4223C54.7469 59.364 55.0579 58.2894 55.3601 57.2015C55.4418 56.9078 55.5234 56.614 55.608 56.3115C55.6698 56.0878 55.7317 55.864 55.7956 55.6336C55.4199 55.5819 55.4199 55.5819 55.0368 55.529C48.9457 54.6878 42.8554 53.8423 36.7658 52.9928C33.8208 52.5819 30.8757 52.1728 27.9301 51.7665C25.363 51.4123 22.7963 51.0557 20.23 50.6961C18.8708 50.5057 17.5116 50.3165 16.1519 50.1307C14.8723 49.9553 13.5933 49.7769 12.3146 49.5957C11.845 49.5298 11.3752 49.4653 10.9053 49.4019C10.2639 49.3153 9.62323 49.224 8.98257 49.1319C8.7963 49.1078 8.61008 49.084 8.41816 49.059C7.31078 48.894 6.58467 48.6211 5.70616 47.8553C5.29742 47.1557 5.38245 46.8315 5.52463 46.009C5.88315 45.0911 6.05317 44.8444 6.88294 44.3798C7.58661 44.3857 8.19849 44.4382 8.88781 44.5453C9.09086 44.5732 9.29387 44.6011 9.50307 44.6294C10.1847 44.724 10.8651 44.8248 11.5457 44.9261C12.0335 44.9948 12.5214 45.0636 13.0093 45.1315C14.3351 45.3182 15.6601 45.5103 16.985 45.7036C18.3692 45.9044 19.7541 46.0998 21.139 46.2961C23.7619 46.6682 26.3841 47.0453 29.0062 47.424C31.991 47.8548 34.9766 48.2807 37.9622 48.7057C44.1045 49.5803 50.2459 50.4619 56.3865 51.3478C56.5185 50.2536 56.6434 49.159 56.7667 48.064C56.8043 47.7532 56.8418 47.4423 56.8805 47.1223C56.93 46.674 56.93 46.674 56.9803 46.2165C57.0121 45.9415 57.0443 45.6665 57.0768 45.3828C57.0777 44.584 56.9799 44.2303 56.5247 43.6003C55.8847 43.2719 55.4562 43.1761 54.756 43.0765C54.4072 43.0261 54.4072 43.0261 54.0513 42.9744C53.7948 42.9386 53.5383 42.9028 53.2739 42.8657C53.0022 42.8269 52.7305 42.7878 52.4509 42.7478C51.695 42.6398 50.9395 42.5328 50.1836 42.4261C49.3692 42.3111 48.5552 42.1944 47.7408 42.0782C45.9593 41.8244 44.1779 41.5721 42.3964 41.3203C41.2847 41.1631 40.1726 41.0056 39.0607 40.848C35.9832 40.4118 32.9056 39.9762 29.8278 39.5421C29.6308 39.5143 29.4337 39.4865 29.2307 39.4579C29.0333 39.4301 28.8358 39.4022 28.6323 39.3735C28.2321 39.3171 27.8318 39.2606 27.4316 39.2042C27.2331 39.1762 27.0346 39.1482 26.83 39.1194C23.6121 38.6655 20.3947 38.2083 17.1774 37.7499C13.8756 37.2794 10.5735 36.8115 7.27098 36.3464C5.41618 36.0851 3.56157 35.8227 1.70734 35.5573C0.128681 35.3314 -1.45029 35.1079 -3.02973 34.8875C-3.83578 34.775 -4.64163 34.6614 -5.44708 34.5446C-6.31978 34.4181 -7.19318 34.2972 -8.06675 34.1768C-8.32188 34.1389 -8.57702 34.101 -8.83986 34.062C-9.19104 34.015 -9.19104 34.015 -9.54926 33.967C-9.85157 33.9243 -9.85157 33.9243 -10.16 33.8806C-10.8772 33.8918 -11.346 34.0956 -11.9794 34.4434C-12.3814 35.0511 -12.4224 35.605 -12.5456 36.3301C-12.595 36.6173 -12.6443 36.9045 -12.6951 37.2003C-12.7458 37.5017 -12.7965 37.803 -12.8487 38.1135C-12.9006 38.4166 -12.9524 38.7197 -13.0058 39.032C-13.134 39.7825 -13.2612 40.5332 -13.3876 41.2841C-13.0971 41.3212 -12.8066 41.3583 -12.5072 41.3965C-11.4265 41.5354 -10.3463 41.679 -9.26629 41.824C-8.79937 41.8861 -8.33227 41.9469 -7.86497 42.0065C-7.19215 42.0923 -6.52007 42.1828 -5.84799 42.2744C-5.63994 42.2998 -5.43194 42.3253 -5.21763 42.3515C-4.04092 42.5169 -3.22097 42.7257 -2.30782 43.5719C-1.86054 44.5453 -1.91174 44.9765 -2.17982 46.0169C-2.74032 46.6507 -3.16325 47.0278 -4.00772 47.0782C-4.64827 47.024 -5.27355 46.9315 -5.90753 46.8244C-6.13862 46.7903 -6.36968 46.7561 -6.60778 46.7207C-7.34382 46.6103 -8.07834 46.4915 -8.81306 46.3728C-9.3126 46.2965 -9.81223 46.2207 -10.3119 46.1453C-11.5351 45.9598 -12.7571 45.7673 -13.9785 45.5698C-13.9656 46.5273 -13.9521 47.4853 -13.9385 48.4428C-13.9349 48.7103 -13.9313 48.9778 -13.9276 49.2536C-13.9238 49.519 -13.9199 49.7848 -13.916 50.0586C-13.9122 50.324 -13.9084 50.589 -13.9046 50.8623C-13.8823 51.8369 -13.8319 52.8086 -13.7726 53.7807C-13.8013 54.6253 -14.1132 55.0744 -14.6728 55.6665C-15.55 56.1107 -15.8632 56.0844 -16.7916 55.8536C-17.4244 55.4244 -17.7723 55.1448 -18.0468 54.4028C-18.7527 49.9228 -18.2951 45.6173 -17.6708 41.1444C-17.5832 40.51 -17.4981 39.876 -17.4179 39.2406C-17.2996 38.3103 -17.1736 37.3814 -17.0455 36.4524C-17.0105 36.1711 -16.9756 35.8898 -16.9395 35.5999C-16.6052 33.3098 -15.828 31.7044 -14.0369 30.2855C-12.1804 28.9691 -9.82114 29.3015 -7.7378 29.6081ZM57.6451 64.1465C57.4488 64.5028 57.2521 64.8586 57.0558 65.2148C56.9461 65.4132 56.8368 65.6115 56.7238 65.8161C56.4496 66.3169 56.1791 66.8194 55.9119 67.3244C54.2026 70.5028 52.1041 73.2369 49.6777 75.8532C47.6517 78.0486 45.9618 80.4357 44.3387 82.9653C44.1935 83.1911 44.0488 83.4165 43.8995 83.6486C43.7655 83.8607 43.6315 84.0728 43.4937 84.2915C43.3737 84.4815 43.2537 84.6715 43.13 84.8673C42.8154 85.3769 42.8154 85.3769 42.761 86.0807C43.721 85.8515 44.6216 85.5223 45.5465 85.1682C48.3234 84.1461 51.0966 83.8744 54.0117 84.2082C58.6175 84.7219 62.9436 84.1965 66.7659 81.1778C70.0038 78.4319 72.9659 74.2469 73.7168 69.8673C73.7869 68.9573 73.6991 68.3357 73.222 67.5523C72.3107 66.4498 71.8208 66.1111 70.4426 65.9203C70.0179 65.8603 70.0179 65.8603 69.5849 65.7994C69.2744 65.7569 68.9643 65.7148 68.6537 65.6723C68.3375 65.6282 68.0208 65.584 67.7045 65.5398C66.8711 65.4232 66.0372 65.3082 65.2034 65.1936C64.3531 65.0765 63.5028 64.9578 62.6525 64.8394C60.9836 64.6069 59.3144 64.3765 57.6451 64.1465Z" fill="#C9A581" fill-opacity="0.14"/>
<path d="M19.5743 81.0424C22.32 84.2657 23.4862 88.5194 23.2297 92.7982C22.6966 99.7886 18.8436 105.964 13.9054 110.512C13.2051 111.113 12.4939 111.644 11.7225 112.139C11.1662 112.499 10.6365 112.889 10.1008 113.28C6.73715 115.618 2.8754 116.745 -1.07674 117.29C-1.27769 117.319 -1.47864 117.348 -1.68567 117.377C-5.94545 117.822 -10.4445 116.906 -13.9159 114.269C-17.4639 111.167 -19.1779 107.489 -19.6664 102.714C-19.732 96.2649 -16.8268 89.7774 -12.5553 85.1803C-8.0934 80.5199 -2.56522 77.3407 3.65685 76.2082C3.91244 76.1611 4.16804 76.114 4.43134 76.0657C9.94845 75.354 15.6188 76.9844 19.5743 81.0424ZM-7.32474 86.0769C-11.5389 89.844 -14.6314 94.8482 -15.3557 100.643C-15.4307 101.913 -15.2954 103.139 -15.1122 104.392C-14.9599 104.337 -14.8075 104.282 -14.6505 104.225C-12.9867 103.691 -11.4808 103.52 -9.75163 103.462C-6.60062 103.338 -4.1203 102.614 -1.86856 100.189C-0.77084 98.7519 -0.334312 97.0561 0.202971 95.3399C1.38029 91.6361 3.39062 88.8749 6.76804 87.0678C8.93505 86.0824 11.0541 85.8394 13.3845 85.869C14.6663 85.8707 15.6485 85.5886 16.8488 85.1036C16.8705 84.9465 16.8921 84.7894 16.9144 84.6274C10.5013 76.994 -0.687355 80.6499 -7.32474 86.0769ZM17.1735 89.489C15.7045 89.9561 14.2736 89.9378 12.753 89.9482C10.4283 90.0057 8.11464 90.6344 6.40507 92.3886C5.0054 93.9707 4.20824 95.444 3.65851 97.4919C2.68506 100.873 0.897163 103.856 -2.04331 105.746C-4.53741 107.086 -6.84293 107.522 -9.60347 107.558C-10.9412 107.585 -12.0583 107.792 -13.3233 108.284C-12.305 110.427 -10.3941 111.557 -8.30784 112.388C-3.103 113.984 2.00978 112.764 6.76127 110.198C12.603 106.772 16.5691 101.926 18.598 95.2474C19.0907 93.2886 19.1785 91.2557 18.833 89.2665C18.1122 89.1653 17.8462 89.2474 17.1735 89.489Z" fill="#C9A581" fill-opacity="0.14"/>
<path d="M41.9581 5.8706C42.4109 6.39339 42.6884 6.7921 42.9016 7.45977C42.7024 9.24393 42.0459 10.708 40.8765 12.0291C40.2036 12.5711 39.5235 13.0741 38.8086 13.5537C38.1953 14.0649 38.1953 14.0649 38.0576 14.9423C38.0326 15.9372 38.2177 16.2891 38.7856 17.0746C38.983 17.2777 39.1804 17.4807 39.3839 17.6898C40.3903 18.7955 40.8194 20.4782 40.8994 21.9839C40.77 24.1206 39.9334 25.8255 38.451 27.2891C38.0256 27.6474 38.0256 27.6474 37.2204 28.1105C36.3208 28.7716 36.1282 29.3696 35.7138 30.4006C35.3961 31.12 35.1403 31.4427 34.4362 31.7539C33.3128 31.7631 32.8544 31.7024 31.9863 30.9691C31.462 29.7416 31.615 28.7989 31.9958 27.5269C32.7702 25.7885 34.0058 24.7983 35.5135 23.7554C36.1787 23.1517 36.3322 22.7406 36.4993 21.85C36.291 20.9001 35.8041 20.3464 35.1895 19.648C34.1995 18.5021 33.8643 17.357 33.6043 15.8599C33.7385 13.475 34.2311 11.718 35.9037 10.0397C36.5765 9.4821 36.5765 9.4821 37.2594 9.06243C38.1458 8.50243 38.3673 7.9721 38.7669 6.98393C39.0979 6.25289 39.2372 5.95118 39.9049 5.58164C40.7618 5.41223 41.1614 5.52468 41.9581 5.8706Z" fill="#C9A581" fill-opacity="0.14"/>
<path d="M30.3237 4.23256C30.8649 4.78339 31.0804 5.10564 31.1732 5.89189C31.1611 7.69502 30.3333 9.10897 29.1627 10.3865C28.5469 10.9661 27.9055 11.3706 27.1873 11.8009C26.4904 12.6175 26.4285 13.0367 26.4027 14.1176C26.8186 14.9717 27.2891 15.6294 27.8489 16.3843C29.0257 18.0564 29.2582 19.4828 29.1008 21.5363C28.6746 23.6894 27.4139 25.0367 25.7309 26.2653C24.7048 27.0351 24.3551 27.5985 24.0086 28.8407C23.8456 29.2919 23.8456 29.2918 23.2625 29.8317C22.3771 30.1556 21.8736 30.1243 20.9768 29.8589C20.2797 29.3044 20.011 28.9781 19.8418 28.076C20.0641 26.2157 20.7738 24.7499 22.0912 23.4623C22.5037 23.1526 22.919 22.8471 23.3368 22.5454C24.3131 21.8068 24.3131 21.8068 24.8521 20.7259C24.8885 19.5451 24.054 18.7148 23.3804 17.8528C22.1879 16.3123 21.7813 14.7962 21.9242 12.8198C22.2108 10.9065 23.0519 9.55923 24.4202 8.25602C24.6856 8.07239 24.9565 7.89706 25.2335 7.73335C26.1015 7.16018 26.3891 6.62618 26.8673 5.68781C27.6122 4.23102 27.6122 4.23102 28.2299 3.81648C29.0263 3.74612 29.5874 3.92577 30.3237 4.23256Z" fill="#C9A581" fill-opacity="0.14"/>
<path d="M18.6901 2.59556C19.201 3.00122 19.201 3.00122 19.4713 3.6764C19.5619 5.53082 18.906 6.90016 17.8614 8.3687C17.225 9.10112 16.5642 9.59362 15.7376 10.0684C15.2137 10.4235 14.9787 10.6711 14.7052 11.2581C14.5862 12.2215 14.673 12.6187 15.1876 13.4317C15.3811 13.6702 15.5746 13.9086 15.7739 14.1542C17.1736 15.9892 17.6238 17.2717 17.4023 19.6323C16.9345 22.3417 15.649 23.5035 13.5564 25.0462C12.7899 25.7316 12.4895 26.3908 12.1796 27.3763C11.8751 28.0221 11.5721 28.1788 10.9401 28.4467C10.198 28.4528 9.78042 28.4543 9.11506 28.1898C8.34289 27.3852 8.34289 27.3852 8.17139 26.6007C8.26302 24.952 8.81992 23.4249 9.93572 22.2373C10.6039 21.6679 11.2851 21.132 11.9871 20.6089C12.6186 20.1207 12.787 19.8917 13.0393 19.1244C13.0337 17.7321 12.1425 16.7924 11.3713 15.7124C10.3765 14.237 10.1916 12.7956 10.2196 11.006C10.8807 8.46191 12.2323 6.93408 14.2932 5.49612C14.9702 4.88445 15.1229 4.41549 15.4116 3.55818C15.6793 2.92762 16.0753 2.6472 16.637 2.30657C17.4159 2.02963 17.9399 2.3051 18.6901 2.59556Z" fill="#C9A581" fill-opacity="0.14"/>
</g>
</g>
<defs>
<clipPath id="clip0_89_162">
<rect width="79.1753" height="120" fill="white"/>
</clipPath>
</defs>
</svg>
