<svg width="139" height="53" viewBox="0 0 139 53" fill="none" xmlns="http://www.w3.org/2000/svg">
<path d="M25.3689 37.352C26.5849 37.352 27.9289 36.376 29.4009 34.424C30.8729 32.472 32.2329 30.072 33.4809 27.224C34.7289 24.344 35.8809 21.384 36.9369 18.344C38.0249 15.304 38.8729 12.6 39.4809 10.232C40.0889 7.832 40.3929 6.408 40.3929 5.96C40.3929 5.512 40.3609 5.288 40.2969 5.288C40.0089 5.288 38.1849 7.064 34.8249 10.616C31.4649 14.136 28.7929 16.888 26.8089 18.872C24.8249 20.856 22.5049 23.064 19.8489 25.496C14.3449 30.488 8.07287 34.92 1.03287 38.792C0.840874 38.888 0.648874 38.936 0.456874 38.936C0.264874 38.936 0.168875 38.872 0.168875 38.744C0.168875 38.616 0.280874 38.504 0.504874 38.408C5.24087 35.976 9.92887 32.856 14.5689 29.048C19.3369 25.112 23.1929 21.656 26.1369 18.68C29.0809 15.672 31.3209 13.352 32.8569 11.72C34.3929 10.088 36.2169 8.136 38.3289 5.864C40.4729 3.592 42.1049 1.864 43.2249 0.679998C43.4169 0.487999 43.5769 0.391999 43.7049 0.391999C43.8329 0.391999 43.8969 0.487999 43.8969 0.679998C43.8969 1.672 43.5929 3.528 42.9849 6.248C42.3769 8.968 41.4809 12.136 40.2969 15.752C39.1129 19.336 37.7849 22.792 36.3129 26.12C34.8409 29.448 33.0969 32.264 31.0809 34.568C29.0649 36.84 27.0489 37.976 25.0329 37.976C23.7849 37.976 22.7929 37.32 22.0569 36.008C21.3529 34.728 21.0009 33.048 21.0009 30.968C21.0009 28.856 21.5129 26.92 22.5369 25.16C22.7929 24.712 23.0169 24.488 23.2089 24.488C23.3689 24.488 23.4809 24.616 23.5449 24.872C23.2249 25.416 22.9369 26.36 22.6809 27.704C22.4249 29.016 22.2969 30.344 22.2969 31.688C22.2969 35.464 23.3209 37.352 25.3689 37.352ZM48.5278 18.296C48.5278 18.776 48.7998 19.016 49.3438 19.016C49.8878 19.016 50.3838 18.776 50.8318 18.296C51.2798 17.784 51.5038 17.4 51.5038 17.144C51.5038 16.888 51.4078 16.664 51.2158 16.472C51.0558 16.28 50.7998 16.184 50.4478 16.184C50.1278 16.184 49.7278 16.408 49.2478 16.856C48.7678 17.304 48.5278 17.784 48.5278 18.296ZM37.1997 34.184C37.1997 34.312 37.2798 34.376 37.4398 34.376C38.0158 34.376 40.8798 32.68 46.0318 29.288L46.0798 29.912L44.1118 31.208C42.7998 32.072 41.3598 32.936 39.7918 33.8C38.2238 34.632 37.1837 35.048 36.6717 35.048C36.2877 35.048 36.0957 34.744 36.0957 34.136C36.0957 33.496 37.0558 31.88 38.9758 29.288C40.9278 26.664 42.9918 24.248 45.1678 22.04C45.3918 21.784 45.6318 21.656 45.8878 21.656L46.9918 21.752C47.2478 21.784 47.3758 21.864 47.3758 21.992C47.3758 22.088 47.2798 22.264 47.0878 22.52C45.8078 23.8 43.9198 25.864 41.4238 28.712C38.9598 31.56 37.5518 33.384 37.1997 34.184ZM52.6768 29.336C53.2208 28.92 54.2768 27.816 55.8448 26.024C57.4128 24.232 58.1968 23.192 58.1968 22.904C58.1968 22.776 58.0688 22.712 57.8128 22.712C55.5408 22.712 52.9488 24.056 50.0368 26.744C47.1248 29.4 45.6688 31.672 45.6688 33.56C45.6688 33.752 45.7648 33.848 45.9568 33.848C46.1488 33.848 46.4528 33.736 46.8688 33.512C47.3168 33.256 47.8448 32.92 48.4528 32.504C49.0928 32.056 49.6208 31.672 50.0368 31.352C51.6048 30.2 52.4848 29.528 52.6768 29.336ZM34.1487 51.512C34.5327 51.512 37.3167 48.408 42.5007 42.2L45.0928 39.128C45.0928 39.064 45.0608 39.032 44.9968 39.032C42.8207 40.6 40.7887 42.2 38.9007 43.832C37.0127 45.496 35.7327 46.888 35.0607 48.008C34.3567 49.128 34.0047 50.2 34.0047 51.224C34.0047 51.416 34.0527 51.512 34.1487 51.512ZM51.2368 34.376C51.7808 34.376 54.0368 33.112 58.0048 30.584L60.0208 29.336L60.0688 29.912C58.0208 31.32 56.1008 32.504 54.3088 33.464L49.9408 35.72C47.4128 39.144 44.2607 42.808 40.4847 46.712C36.6767 50.648 34.4367 52.616 33.7647 52.616C33.0927 52.616 32.7567 52.392 32.7567 51.944C32.7567 49.608 34.5167 46.904 38.0367 43.832C39.3167 42.712 40.9487 41.416 42.9327 39.944C44.9168 38.504 46.1328 37.608 46.5808 37.256C47.3168 36.36 48.0848 35.432 48.8848 34.472C50.6128 32.456 51.5408 31.352 51.6688 31.16C51.6688 31.096 51.6048 31.064 51.4768 31.064C51.3808 31.064 50.4528 31.704 48.6928 32.984C46.9648 34.264 45.8288 34.904 45.2848 34.904C44.7728 34.904 44.5168 34.424 44.5168 33.464C44.5168 30.808 46.0208 28.216 49.0288 25.688C52.0688 23.16 55.7168 21.896 59.9728 21.896C60.3248 21.896 60.5008 22.088 60.5008 22.472C54.6448 29.832 51.5568 33.8 51.2368 34.376ZM59.5404 30.296L59.3964 29.72L60.9804 28.712C63.3804 27.112 64.8844 25.992 65.4924 25.352C66.1004 24.68 66.4684 24.264 66.5964 24.104C67.4284 23.048 67.8924 22.456 67.9884 22.328C68.3724 22.456 68.5644 22.84 68.5644 23.48C67.9244 24.408 67.0604 25.528 65.9724 26.84C64.8844 28.12 63.9884 29.192 63.2844 30.056C62.5804 30.888 62.2284 31.368 62.2284 31.496C62.2284 31.624 62.2444 31.688 62.2764 31.688C62.3404 31.688 62.5804 31.528 62.9964 31.208C63.4444 30.856 64.6284 30.008 66.5484 28.664C70.4204 25.976 72.8844 24.28 73.9404 23.576C74.9964 22.84 75.6684 22.472 75.9564 22.472C76.2764 22.472 76.4364 22.792 76.4364 23.432C76.4364 24.04 75.9564 24.968 74.9964 26.216C74.0364 27.464 72.9804 28.616 71.8284 29.672C68.7564 32.488 67.2204 34.04 67.2204 34.328C67.2204 34.36 67.2844 34.376 67.4124 34.376C67.7964 34.376 69.9564 33.112 73.8924 30.584L75.8604 29.288L75.9084 29.912C70.7564 33.336 67.6204 35.048 66.5004 35.048C66.3084 35.048 66.2124 34.952 66.2124 34.76C66.2124 33.576 66.9484 32.184 68.4204 30.584C69.9244 28.952 71.4124 27.496 72.8844 26.216C74.3564 24.904 75.0924 24.04 75.0924 23.624C75.0924 23.56 75.0604 23.528 74.9964 23.528C74.0684 23.976 71.9084 25.4 68.5164 27.8C65.1564 30.168 63.1884 31.56 62.6124 31.976C61.1084 33.096 60.3084 33.688 60.2124 33.752C60.1484 33.784 59.9884 33.944 59.7324 34.232C59.1564 34.84 58.6284 35.144 58.1484 35.144C57.3804 35.08 56.9804 35.032 56.9484 35C56.9164 34.968 56.9004 34.936 56.9004 34.904C56.9004 34.872 57.1724 34.568 57.7164 33.992C58.2284 33.448 58.7404 32.904 59.2524 32.36C60.9484 30.472 62.1164 29.128 62.7564 28.328L59.5404 30.296ZM90.0264 29.288L90.0744 29.912C84.9224 33.336 81.7864 35.048 80.6664 35.048C80.4744 35.048 80.3784 34.936 80.3784 34.712C80.3784 34.04 80.6344 33.08 81.1464 31.832L81.3864 31.16C81.3864 31.096 81.3224 31.064 81.1944 31.064C81.0984 31.064 80.1704 31.704 78.4104 32.984C76.6824 34.264 75.5464 34.904 75.0024 34.904C74.4904 34.904 74.2344 34.424 74.2344 33.464C74.2344 30.808 75.7384 28.216 78.7464 25.688C81.7864 23.16 85.4344 21.896 89.6904 21.896C90.0744 21.896 90.2664 22.056 90.2664 22.376C90.2664 22.696 88.7624 24.568 85.7544 27.992C82.7464 31.384 81.2424 33.432 81.2424 34.136C81.2424 34.264 81.3384 34.328 81.5304 34.328C81.7224 34.328 82.5384 33.912 83.9784 33.08C85.4184 32.248 86.7784 31.416 88.0584 30.584L90.0264 29.288ZM82.3944 29.336C82.9384 28.92 83.9944 27.816 85.5624 26.024C87.1304 24.232 87.9144 23.192 87.9144 22.904C87.9144 22.776 87.7864 22.712 87.5304 22.712C86.0584 22.712 84.3464 23.4 82.3944 24.776C80.4424 26.12 78.7784 27.656 77.4024 29.384C76.0584 31.112 75.3864 32.504 75.3864 33.56C75.3864 33.752 75.4824 33.848 75.6744 33.848C75.8664 33.848 76.1704 33.736 76.5864 33.512C77.0344 33.256 77.5624 32.92 78.1704 32.504C78.8104 32.056 79.3544 31.672 79.8024 31.352C81.3384 30.2 82.2024 29.528 82.3944 29.336ZM97.0786 29.864C92.0546 33.288 88.8546 35 87.4786 35C87.1266 35 86.9506 34.888 86.9506 34.664C86.9506 33.768 88.1026 31.736 90.4066 28.568C92.7106 25.4 95.3666 22.04 98.3746 18.488C95.3026 18.424 93.4146 18.392 92.7106 18.392C92.0066 18.392 91.6546 18.216 91.6546 17.864C91.6546 17.736 91.7986 17.672 92.0866 17.672L98.9506 17.816C102.855 13.24 105.015 10.952 105.431 10.952C106.295 10.952 106.727 11.096 106.727 11.384C106.727 11.64 104.951 13.8 101.399 17.864L109.463 18.008C109.879 18.008 110.087 18.072 110.087 18.2C110.087 18.296 110.023 18.36 109.895 18.392C109.703 18.488 108.119 18.536 105.143 18.536H100.823C98.7426 20.904 97.2226 22.632 96.2626 23.72C95.3026 24.776 94.0546 26.2 92.5186 27.992C89.6706 31.32 88.2466 33.304 88.2466 33.944C88.2466 34.072 88.3586 34.136 88.5826 34.136C88.8386 34.136 89.6546 33.768 91.0306 33.032C92.4066 32.264 93.4466 31.624 94.1506 31.112L97.0306 29.336L97.0786 29.864ZM103.296 24.632C103.584 24.28 103.92 23.832 104.304 23.288C104.688 22.744 105.008 22.472 105.264 22.472C105.52 22.472 105.792 22.712 106.08 23.192C106.08 23.768 104.624 25.656 101.712 28.856C98.8321 32.056 97.3921 33.8 97.3921 34.088C97.3921 34.152 97.4881 34.184 97.6801 34.184C97.8721 34.184 98.9921 33.528 101.04 32.216C105.328 29.464 109.024 26.44 112.128 23.144C112.896 22.44 113.568 22.088 114.144 22.088C114.176 22.088 114.208 22.088 114.24 22.088C114.848 22.12 115.152 22.2 115.152 22.328L115.104 22.424C113.728 23.704 111.68 25.864 108.96 28.904C106.24 31.944 104.88 33.736 104.88 34.28C104.88 34.408 104.976 34.472 105.168 34.472C105.392 34.472 107.584 33.16 111.744 30.536L113.712 29.288L113.76 29.864C113.376 30.12 112.88 30.44 112.272 30.824C107.504 33.832 104.72 35.336 103.92 35.336C103.632 35.336 103.488 35.176 103.488 34.856C103.488 34.536 103.872 33.624 104.64 32.12C105.44 30.616 106.016 29.656 106.368 29.24L105.6 29.672C100.768 33.128 97.8721 34.856 96.9121 34.856C96.5281 34.856 96.3361 34.648 96.3361 34.232C96.3361 33.784 96.5121 33.224 96.8641 32.552C97.2161 31.848 97.5361 31.288 97.8241 30.872C98.1441 30.456 98.6081 29.896 99.2161 29.192C99.8241 28.456 100.144 28.072 100.176 28.04L96.4321 30.248L96.2881 29.72L97.9201 28.712C100.704 26.92 102.496 25.56 103.296 24.632ZM128.24 27.848L128.624 28.28C127.152 29.176 125.952 29.928 125.024 30.536C124.096 31.144 123.392 31.448 122.912 31.448C122.208 31.448 121.856 31.144 121.856 30.536C121.856 30.088 122.096 29.208 122.576 27.896C123.088 26.552 123.44 25.608 123.632 25.064L123.488 24.92C123.36 24.92 123.216 24.984 123.056 25.112C119.824 27.704 117.728 29.448 116.768 30.344C115.84 31.24 114.928 32.2 114.032 33.224C113.168 34.248 112.688 34.808 112.592 34.904C112.528 35 112.48 35.064 112.448 35.096C112.352 35.192 112.032 35.24 111.488 35.24C110.912 35.24 110.624 35.192 110.624 35.096C110.688 35 111.088 34.552 111.824 33.752C113.616 31.8 115.232 29.928 116.672 28.136L115.28 28.952C113.808 29.848 112.736 30.52 112.064 30.968L111.872 30.44L114.896 28.52C115.984 27.816 116.912 27.08 117.68 26.312C118.48 25.544 119.024 24.92 119.312 24.44C119.6 23.96 119.856 23.56 120.08 23.24C120.304 22.92 120.512 22.76 120.704 22.76C120.896 22.76 121.2 22.872 121.616 23.096C121.616 23.416 121.36 23.976 120.848 24.776C120.336 25.576 119.824 26.296 119.312 26.936L118.544 27.848C118.544 27.912 118.56 27.944 118.592 27.944C118.688 27.944 118.8 27.896 118.928 27.8C119.056 27.672 119.584 27.224 120.512 26.456C121.472 25.656 122.304 24.984 123.008 24.44C123.712 23.864 124.512 23.32 125.408 22.808C126.336 22.296 127.008 22.04 127.424 22.04C127.84 22.04 128.048 22.136 128.048 22.328C128.048 22.584 127.264 23.128 125.696 23.96C125.344 24.152 124.8 25.08 124.064 26.744C123.36 28.376 123.008 29.576 123.008 30.344C123.008 30.504 123.152 30.584 123.44 30.584C123.76 30.584 124.368 30.296 125.264 29.72L128.24 27.848ZM136.346 22.664C136.346 22.568 136.282 22.52 136.154 22.52C135.29 22.52 133.946 23.272 132.122 24.776C130.298 26.28 128.714 27.928 127.37 29.72C128.97 29.208 130.858 28.056 133.034 26.264C135.242 24.472 136.346 23.272 136.346 22.664ZM125.258 33.992C125.258 34.408 125.418 34.616 125.738 34.616C126.122 34.616 126.986 34.36 128.33 33.848C129.674 33.304 130.778 32.776 131.642 32.264L136.346 29.288L136.394 29.912C133.034 32.152 130.522 33.576 128.858 34.184C127.226 34.792 126.138 35.096 125.594 35.096C124.698 35.096 124.25 34.536 124.25 33.416C124.25 31.912 124.794 30.408 125.882 28.904C126.97 27.4 128.234 26.168 129.674 25.208C131.146 24.248 132.554 23.464 133.898 22.856C135.274 22.248 136.314 21.944 137.018 21.944C137.722 21.944 138.074 22.184 138.074 22.664C138.074 23.848 136.666 25.288 133.85 26.984C131.066 28.68 128.746 29.8 126.89 30.344C125.802 31.912 125.258 33.128 125.258 33.992Z" fill="white"/>
</svg>
