<svg width="192" height="80" viewBox="0 0 192 80" fill="none" xmlns="http://www.w3.org/2000/svg">
<circle cx="40" cy="40" r="40" fill="#C9A581"/>
<g clip-path="url(#clip0_93_2052)">
<path d="M30.2826 25.0306C29.4452 24.1931 29.4452 22.8379 30.2826 22.0004C30.7402 21.5428 30.7402 20.8009 30.2826 20.3432C29.825 19.8856 29.083 19.8856 28.6254 20.3432C26.8762 22.0925 26.8762 24.9386 28.6254 26.6878C29.4628 27.5252 29.4628 28.8804 28.6254 29.7179C28.1677 30.1756 28.1677 30.9175 28.6254 31.3751C29.083 31.8328 29.825 31.8328 30.2826 31.3751C32.0318 29.6259 32.0318 26.7798 30.2826 25.0306Z" fill="#121D23"/>
<path d="M37.3138 25.0306C36.4764 24.1931 36.4764 22.8379 37.3138 22.0004C37.7715 21.5428 37.7715 20.8009 37.3138 20.3432C36.8563 19.8856 36.1143 19.8856 35.6566 20.3432C33.9074 22.0925 33.9074 24.9386 35.6566 26.6878C36.4941 27.5252 36.4941 28.8804 35.6566 29.7179C35.199 30.1756 35.199 30.9175 35.6566 31.3751C36.1142 31.8328 36.8563 31.8328 37.3138 31.3751C39.063 29.6259 39.063 26.7798 37.3138 25.0306Z" fill="#121D23"/>
<path d="M44.3446 25.0306C43.5072 24.1931 43.5072 22.8379 44.3446 22.0004C44.8022 21.5428 44.8022 20.8009 44.3446 20.3432C43.887 19.8856 43.145 19.8856 42.6874 20.3432C40.9382 22.0925 40.9382 24.9386 42.6874 26.6878C43.5248 27.5252 43.5248 28.8804 42.6874 29.7179C42.2297 30.1756 42.2297 30.9175 42.6874 31.3751C43.145 31.8328 43.8871 31.8328 44.3446 31.3751C46.0939 29.6259 46.0939 26.7798 44.3446 25.0306Z" fill="#121D23"/>
<path d="M49.4534 50.5465C55.2688 50.5465 60 45.8152 60 39.9999C60 38.0615 58.4229 36.4844 56.4844 36.4844H52.9463C52.9612 36.0948 52.9689 35.7041 52.9689 35.3125C52.9689 34.6653 52.4442 34.1406 51.797 34.1406H21.1731C20.5259 34.1406 20.0012 34.6653 20.0012 35.3125C20.0012 41.7181 22.0569 48.4379 26.3411 52.9682H21.1731C20.3041 52.9682 19.7355 53.8852 20.1249 54.6641C20.9269 56.2679 22.1578 57.6143 23.6847 58.5576C25.2112 59.5007 26.9661 59.9991 28.7594 59.9991H44.2108C47.8654 59.9991 51.2092 57.936 52.8453 54.664C53.2339 53.8867 52.6681 52.9681 51.7971 52.9681H46.6289C47.3233 52.2339 47.9736 51.4243 48.5733 50.5463H49.4534V50.5465ZM52.7653 38.828H56.4845C57.1307 38.828 57.6564 39.3537 57.6564 39.9999C57.6564 44.3465 54.2579 47.9137 49.9788 48.1855C51.4437 45.3508 52.3784 42.1502 52.7653 38.828ZM49.5813 55.2963C48.2211 56.7746 46.2947 57.6556 44.2107 57.6556H28.7594C26.6754 57.6556 24.7491 56.7746 23.3889 55.2963C24.4215 55.2963 49.0226 55.2963 49.5813 55.2963ZM43.1376 52.9683H29.8326C25.517 49.7034 22.6629 43.3516 22.3698 36.4688L50.6003 36.4845C50.3414 42.566 47.9169 49.3525 43.1376 52.9683Z" fill="#121D23"/>
</g>
<path d="M101.05 40.22H105.58L112.42 50H107.35L101.05 40.22ZM96.28 29H100.57V50H96.28V29ZM98.89 32.66V29H103.33C104.99 29 106.4 29.28 107.56 29.84C108.72 30.4 109.61 31.18 110.23 32.18C110.85 33.18 111.16 34.35 111.16 35.69C111.16 37.01 110.85 38.18 110.23 39.2C109.61 40.2 108.72 40.98 107.56 41.54C106.4 42.1 104.99 42.38 103.33 42.38H98.89V38.96H103.06C103.82 38.96 104.47 38.84 105.01 38.6C105.57 38.34 106 37.98 106.3 37.52C106.6 37.04 106.75 36.47 106.75 35.81C106.75 35.15 106.6 34.59 106.3 34.13C106 33.65 105.57 33.29 105.01 33.05C104.47 32.79 103.82 32.66 103.06 32.66H98.89ZM118.214 39.5C118.214 40.84 118.494 42.03 119.054 43.07C119.614 44.11 120.384 44.93 121.364 45.53C122.344 46.13 123.484 46.43 124.784 46.43C126.084 46.43 127.224 46.13 128.204 45.53C129.184 44.93 129.944 44.11 130.484 43.07C131.044 42.03 131.324 40.84 131.324 39.5C131.324 38.16 131.054 36.97 130.514 35.93C129.974 34.89 129.214 34.07 128.234 33.47C127.254 32.87 126.104 32.57 124.784 32.57C123.484 32.57 122.344 32.87 121.364 33.47C120.384 34.07 119.614 34.89 119.054 35.93C118.494 36.97 118.214 38.16 118.214 39.5ZM113.684 39.5C113.684 37.9 113.964 36.44 114.524 35.12C115.084 33.78 115.864 32.62 116.864 31.64C117.864 30.66 119.034 29.91 120.374 29.39C121.734 28.85 123.204 28.58 124.784 28.58C126.384 28.58 127.854 28.85 129.194 29.39C130.534 29.91 131.704 30.66 132.704 31.64C133.724 32.62 134.504 33.78 135.044 35.12C135.604 36.44 135.884 37.9 135.884 39.5C135.884 41.08 135.604 42.55 135.044 43.91C134.504 45.25 133.734 46.42 132.734 47.42C131.754 48.42 130.584 49.2 129.224 49.76C127.884 50.3 126.404 50.57 124.784 50.57C123.164 50.57 121.674 50.3 120.314 49.76C118.974 49.2 117.804 48.42 116.804 47.42C115.804 46.42 115.034 45.25 114.494 43.91C113.954 42.55 113.684 41.08 113.684 39.5ZM141.202 45.23L141.712 41.84H151.792L152.302 45.23H141.202ZM146.692 35.81L143.542 43.04L143.632 44L140.872 50H136.042L146.692 27.77L157.342 50H152.482L149.782 44.18L149.842 43.1L146.692 35.81ZM161.45 42.95C161.89 43.73 162.37 44.41 162.89 44.99C163.43 45.57 164.02 46.02 164.66 46.34C165.3 46.66 165.99 46.82 166.73 46.82C167.59 46.82 168.29 46.6 168.83 46.16C169.37 45.72 169.64 45.12 169.64 44.36C169.64 43.7 169.47 43.17 169.13 42.77C168.81 42.37 168.32 42.02 167.66 41.72C167.02 41.4 166.23 41.06 165.29 40.7C164.79 40.52 164.21 40.28 163.55 39.98C162.91 39.66 162.3 39.26 161.72 38.78C161.14 38.28 160.66 37.68 160.28 36.98C159.9 36.26 159.71 35.4 159.71 34.4C159.71 33.2 160.01 32.17 160.61 31.31C161.23 30.43 162.06 29.76 163.1 29.3C164.16 28.82 165.34 28.58 166.64 28.58C167.98 28.58 169.13 28.81 170.09 29.27C171.07 29.71 171.88 30.28 172.52 30.98C173.18 31.66 173.69 32.37 174.05 33.11L170.69 34.97C170.41 34.47 170.07 34.02 169.67 33.62C169.29 33.2 168.85 32.87 168.35 32.63C167.85 32.37 167.28 32.24 166.64 32.24C165.8 32.24 165.17 32.44 164.75 32.84C164.33 33.22 164.12 33.67 164.12 34.19C164.12 34.71 164.29 35.17 164.63 35.57C164.97 35.95 165.49 36.32 166.19 36.68C166.89 37.02 167.77 37.37 168.83 37.73C169.51 37.97 170.16 38.27 170.78 38.63C171.42 38.99 171.99 39.43 172.49 39.95C173.01 40.45 173.41 41.05 173.69 41.75C173.99 42.43 174.14 43.22 174.14 44.12C174.14 45.14 173.94 46.05 173.54 46.85C173.14 47.65 172.59 48.33 171.89 48.89C171.19 49.43 170.4 49.84 169.52 50.12C168.66 50.42 167.75 50.57 166.79 50.57C165.51 50.57 164.31 50.33 163.19 49.85C162.09 49.35 161.13 48.68 160.31 47.84C159.49 47 158.85 46.09 158.39 45.11L161.45 42.95ZM175.537 32.87V29H191.137V32.87H185.467V50H181.177V32.87H175.537Z" fill="#C9A581"/>
<defs>
<clipPath id="clip0_93_2052">
<rect width="40" height="40" fill="white" transform="translate(20 20)"/>
</clipPath>
</defs>
</svg>
