<svg width="30" height="30" viewBox="0 0 30 30" fill="none" xmlns="http://www.w3.org/2000/svg">
<path d="M24.375 7.03125H19.6875V5.15625C19.6875 5.03193 19.6381 4.9127 19.5502 4.82479C19.4623 4.73689 19.3431 4.6875 19.2188 4.6875H16.4062V1.40625C16.4062 1.28193 16.3569 1.1627 16.269 1.07479C16.181 0.986886 16.0618 0.9375 15.9375 0.9375H14.0625C13.9382 0.9375 13.819 0.986886 13.731 1.07479C13.6431 1.1627 13.5938 1.28193 13.5938 1.40625V4.6875H10.7812C10.6569 4.6875 10.5377 4.73689 10.4498 4.82479C10.3619 4.9127 10.3125 5.03193 10.3125 5.15625V7.03125H5.625C5.50068 7.03125 5.38145 7.08064 5.29354 7.16854C5.20564 7.25645 5.15625 7.37568 5.15625 7.5V10.3125C5.15625 10.4368 5.20564 10.556 5.29354 10.644C5.38145 10.7319 5.50068 10.7812 5.625 10.7812H6.58594L7.5 28.6172C7.5068 28.7371 7.55907 28.85 7.64616 28.9327C7.73326 29.0154 7.84862 29.0619 7.96875 29.0625H22.0312C22.1514 29.0619 22.2667 29.0154 22.3538 28.9327C22.4409 28.85 22.4932 28.7371 22.5 28.6172L23.4141 10.7812H24.375C24.4993 10.7812 24.6185 10.7319 24.7065 10.644C24.7944 10.556 24.8438 10.4368 24.8438 10.3125V7.5C24.8438 7.37568 24.7944 7.25645 24.7065 7.16854C24.6185 7.08064 24.4993 7.03125 24.375 7.03125ZM14.5312 1.875H15.4688V4.6875H14.5312V1.875ZM11.25 5.625H18.75V7.03125H11.25V5.625ZM7.52344 10.7812H13.5938V15.9375H7.79063L7.52344 10.7812ZM21.5859 28.125H8.41406L7.8375 16.875H13.5938V24.8438C13.5938 24.9681 13.6431 25.0873 13.731 25.1752C13.819 25.2631 13.9382 25.3125 14.0625 25.3125H15.9375C16.0618 25.3125 16.181 25.2631 16.269 25.1752C16.3569 25.0873 16.4062 24.9681 16.4062 24.8438V16.875H22.1625L21.5859 28.125ZM15.4688 16.875V24.375H14.5312V16.875H15.4688ZM14.5312 15.9375V10.7812H15.4688V15.9375H14.5312ZM22.2094 15.9375H16.4062V10.7812H22.4766L22.2094 15.9375ZM23.9062 9.84375H6.09375V7.96875H23.9062V9.84375Z" fill="#C9A581"/>
</svg>
