<svg width="31" height="30" viewBox="0 0 31 30" fill="none" xmlns="http://www.w3.org/2000/svg">
<path d="M25.4111 23.4773H4.92371C4.25778 23.4765 3.61936 23.2116 3.1485 22.7407C2.67764 22.2698 2.41281 21.6313 2.41211 20.9654V8.31262C2.41281 7.6467 2.67764 7.00824 3.1485 6.53734C3.61936 6.06644 4.25778 5.80154 4.92371 5.80078H25.4111C26.077 5.80154 26.7154 6.06644 27.1863 6.53734C27.6571 7.00824 27.922 7.6467 27.9227 8.31262V20.9654C27.922 21.6313 27.6571 22.2698 27.1863 22.7407C26.7154 23.2116 26.077 23.4765 25.4111 23.4773ZM4.92371 6.76078C4.51229 6.76123 4.11786 6.92487 3.82697 7.21581C3.53608 7.50675 3.37249 7.90121 3.37211 8.31262V20.9654C3.37249 21.3768 3.53608 21.7713 3.82697 22.0622C4.11786 22.3532 4.51229 22.5168 4.92371 22.5173H25.4111C25.8225 22.5168 26.2169 22.3532 26.5078 22.0622C26.7987 21.7713 26.9623 21.3768 26.9627 20.9654V8.31262C26.9623 7.90121 26.7987 7.50675 26.5078 7.21581C26.2169 6.92487 25.8225 6.76123 25.4111 6.76078H4.92371Z" fill="#121D23"/>
<path d="M15.167 17.4636C15.05 17.4637 14.937 17.421 14.8493 17.3436L3.28125 7.13211L3.91653 6.41211L15.167 16.3443L26.418 6.41331L27.0533 7.13331L15.4853 17.3448C15.3973 17.422 15.284 17.4643 15.167 17.4636Z" fill="#121D23"/>
<path d="M3.02148 21.9697L10.7927 13.1152L11.5147 13.7488L3.7434 22.6033L3.02148 21.9697Z" fill="#121D23"/>
<path d="M18.8457 13.7393L19.5676 13.1057L27.339 21.9604L26.6171 22.594L18.8457 13.7393Z" fill="#121D23"/>
</svg>
