<svg width="50" height="50" viewBox="0 0 50 50" fill="none" xmlns="http://www.w3.org/2000/svg">
<path d="M6.86667 39.2083C4.45 36.55 3 33.65 3 28.8167C3 20.3583 9.04167 12.8667 17.5 9L19.675 12.1417C11.7 16.4917 10.0083 22.05 9.525 25.675C10.7333 24.95 12.425 24.7083 14.1167 24.95C18.4667 25.4333 21.85 28.8167 21.85 33.4083C21.85 35.5833 20.8833 37.7583 19.4333 39.45C17.7417 41.1417 15.8083 41.8667 13.3917 41.8667C10.7333 41.8667 8.31667 40.6583 6.86667 39.2083ZM31.0333 39.2083C28.6167 36.55 27.1667 33.65 27.1667 28.8167C27.1667 20.3583 33.2083 12.8667 41.6667 9L43.8417 12.1417C35.8667 16.4917 34.175 22.05 33.6917 25.675C34.9 24.95 36.5917 24.7083 38.2833 24.95C42.6333 25.4333 46.0167 28.8167 46.0167 33.4083C46.0167 35.5833 45.05 37.7583 43.6 39.45C42.15 41.1417 39.975 41.8667 37.5583 41.8667C34.9 41.8667 32.4833 40.6583 31.0333 39.2083Z" fill="url(#paint0_linear_580_25)"/>
<defs>
<linearGradient id="paint0_linear_580_25" x1="24.5083" y1="9" x2="24.5083" y2="41.8667" gradientUnits="userSpaceOnUse">
<stop stop-color="#C9A581"/>
<stop offset="1" stop-color="#E4CCB4"/>
</linearGradient>
</defs>
</svg>
