<svg width="30" height="30" viewBox="0 0 30 30" fill="none" xmlns="http://www.w3.org/2000/svg">
<path d="M24.375 3.75003H23.2594L21.9797 1.19534C21.9417 1.11724 21.8824 1.05153 21.8085 1.00589C21.7346 0.96024 21.6493 0.936533 21.5625 0.93753H8.4375C8.35067 0.936533 8.26535 0.96024 8.19149 1.00589C8.11762 1.05153 8.05826 1.11724 8.02031 1.19534L6.74063 3.75003H5.625C5.50068 3.75003 5.38145 3.79942 5.29354 3.88732C5.20564 3.97523 5.15625 4.09446 5.15625 4.21878V7.50003C5.15625 7.62435 5.20564 7.74358 5.29354 7.83149C5.38145 7.91939 5.50068 7.96878 5.625 7.96878H6.58125L7.5 28.6125C7.50485 28.7336 7.55636 28.848 7.64375 28.9319C7.73114 29.0158 7.84761 29.0626 7.96875 29.0625H22.0312C22.1524 29.0626 22.2689 29.0158 22.3562 28.9319C22.4436 28.848 22.4952 28.7336 22.5 28.6125L23.4187 7.96878H24.375C24.4993 7.96878 24.6185 7.91939 24.7065 7.83149C24.7944 7.74358 24.8438 7.62435 24.8438 7.50003V4.21878C24.8438 4.09446 24.7944 3.97523 24.7065 3.88732C24.6185 3.79942 24.4993 3.75003 24.375 3.75003ZM8.72813 1.87503H21.2719L22.2094 3.75003H7.79063L8.72813 1.87503ZM21.5813 28.125H8.41875L8.16563 22.5H21.8344L21.5813 28.125ZM21.8766 21.5625H8.12344L7.6875 11.7188H22.3125L21.8766 21.5625ZM22.3547 10.7813H7.64531L7.52344 7.96878H22.4766L22.3547 10.7813ZM23.9062 7.03128H6.09375V4.68753H23.9062V7.03128Z" fill="#C9A581"/>
<path d="M19.9922 14.7891C19.7928 14.5105 19.5402 14.2743 19.2489 14.0941C18.9577 13.9138 18.6335 13.7932 18.2953 13.7391C17.3799 13.5959 16.4449 13.82 15.6937 14.3625C15.4896 14.5029 15.301 14.6648 15.1312 14.8453C14.9264 14.3519 14.5843 13.9277 14.1457 13.6227C13.707 13.3178 13.1901 13.1451 12.6562 13.125C11.1047 13.125 9.84375 14.5969 9.84375 16.4062C9.84375 18.2156 11.1047 19.6875 12.6562 19.6875C13.0536 19.6802 13.4443 19.5832 13.799 19.4038C14.1536 19.2244 14.4633 18.9673 14.7047 18.6516C15.1039 19.1542 15.6749 19.4915 16.3078 19.5984C16.4877 19.6266 16.6695 19.6407 16.8516 19.6406C17.5916 19.6342 18.3117 19.4002 18.9141 18.9703C19.6042 18.5035 20.1073 17.8079 20.3344 17.0062C20.4469 16.6346 20.4745 16.2425 20.4153 15.8588C20.3561 15.475 20.2115 15.1095 19.9922 14.7891ZM12.2531 18.0375C12.1462 18.2123 12.0611 18.3997 12 18.5953C11.6134 18.3799 11.2945 18.0609 11.0792 17.6742C10.8639 17.2875 10.7607 16.8484 10.7812 16.4062C10.7812 15.2391 11.4656 14.2781 12.3609 14.1C12.3281 14.1609 12.2953 14.2219 12.2531 14.2875C12.0267 14.639 11.9063 15.0483 11.9063 15.4664C11.9063 15.8845 12.0267 16.2938 12.2531 16.6453C12.4013 16.8474 12.4772 17.0933 12.4688 17.3438C12.4772 17.5927 12.4012 17.8372 12.2531 18.0375ZM12.9516 18.7125C12.9844 18.6516 13.0172 18.5906 13.0594 18.5203C13.2858 18.1688 13.4062 17.7595 13.4062 17.3414C13.4062 16.9233 13.2858 16.514 13.0594 16.1625C12.9189 15.9575 12.8438 15.7149 12.8438 15.4664C12.8438 15.2179 12.9189 14.9753 13.0594 14.7703C13.1673 14.5976 13.2524 14.4117 13.3125 14.2172C13.6991 14.4326 14.018 14.7516 14.2333 15.1383C14.4486 15.525 14.5518 15.9641 14.5312 16.4062C14.5312 17.5734 13.8469 18.5344 12.9516 18.7125ZM15.4406 15.9703C15.6421 15.639 15.9103 15.3533 16.2281 15.1312C16.7761 14.7305 17.4599 14.5621 18.1313 14.6625C18.4588 14.7147 18.7645 14.8595 19.0125 15.0797C18.9323 15.1003 18.8509 15.1159 18.7688 15.1266C18.3724 15.1745 17.9948 15.323 17.6719 15.5578C17.3404 15.7791 17.0723 16.0828 16.8938 16.4391C16.7858 16.6716 16.6154 16.8696 16.4016 17.0109C16.1972 17.1648 15.9534 17.2574 15.6984 17.2781C15.5906 17.2969 15.4734 17.3203 15.3469 17.3531C15.4283 17.0441 15.4693 16.7258 15.4688 16.4062C15.4689 16.2605 15.4595 16.1149 15.4406 15.9703ZM19.4297 16.7625C19.2397 17.3778 18.8392 17.9066 18.2984 18.2563C17.7576 18.606 17.111 18.7542 16.4719 18.675C16.1453 18.6212 15.8411 18.4747 15.5953 18.2531C15.675 18.2344 15.7547 18.2203 15.8391 18.2063C16.2354 18.1612 16.6133 18.0142 16.9359 17.7797C17.2668 17.5557 17.5347 17.2507 17.7141 16.8938C17.8314 16.6674 18.0019 16.4728 18.2109 16.3266C18.4199 16.1805 18.6611 16.0872 18.9141 16.0547C19.1027 16.0291 19.2882 15.9836 19.4672 15.9187C19.5197 16.1991 19.5069 16.4879 19.4297 16.7625Z" fill="#C9A581"/>
</svg>
