<svg width="50" height="50" viewBox="0 0 50 50" fill="none" xmlns="http://www.w3.org/2000/svg">
<path d="M22.4715 4.15077C22.6153 4.15055 22.6153 4.15055 22.762 4.15034C22.9632 4.1505 23.1645 4.15161 23.3657 4.15365C23.6719 4.15648 23.9779 4.15566 24.2841 4.15439C24.4807 4.155 24.6773 4.15582 24.874 4.15687C25.0097 4.15644 25.0097 4.15644 25.1482 4.156C25.803 4.16539 26.3939 4.22569 26.9101 4.63427C27.3234 5.04818 27.4969 5.47194 27.6518 6.01234C27.7034 6.17219 27.7554 6.33196 27.8076 6.49165C27.887 6.74 27.9642 6.98834 28.0363 7.23864C28.2783 8.18196 28.2783 8.18196 28.8923 8.92004C29.3625 9.14959 29.8547 9.25766 30.3667 9.37499C30.636 9.49668 30.636 9.49668 30.8472 9.61303C31.2611 9.79314 31.3867 9.77041 31.8212 9.66796C32.0651 9.56525 32.2961 9.45968 32.5309 9.34142C32.6667 9.2754 32.8024 9.20941 32.9382 9.14344C33.1491 9.03979 33.3597 8.93571 33.57 8.83097C34.4611 8.38884 35.1907 8.03551 36.23 8.14208C37.182 8.55026 37.939 9.43864 38.6767 10.1263C38.7779 10.2203 38.8795 10.3138 38.9816 10.4069C40.274 11.5859 40.274 11.5859 40.2882 12.4206C40.2482 13.2268 39.7996 13.9236 39.3974 14.6164C39.3117 14.7655 39.3117 14.7655 39.2242 14.9177C39.1078 15.1188 38.9894 15.3189 38.8689 15.5178C38.5467 16.0384 38.5467 16.0384 38.5147 16.6176C38.5686 16.709 38.6224 16.8004 38.6779 16.8945C38.7378 17.0273 38.7963 17.1606 38.8536 17.2943C38.9509 17.5104 39.0487 17.7262 39.1476 17.9417C39.3269 18.3418 39.4555 18.7051 39.509 19.1406C39.634 19.164 39.7589 19.1874 39.8876 19.2116C40.5615 19.3527 41.2115 19.5585 41.866 19.7632C42.0525 19.8198 42.0525 19.8198 42.2428 19.8776C43.1038 20.146 43.7554 20.3707 44.2879 21.0937C44.3861 21.3707 44.4071 21.5503 44.4119 21.8379C44.4144 21.9748 44.4144 21.9748 44.4169 22.1145C44.4216 22.5326 44.4258 22.9506 44.4282 23.3686C44.4299 23.5886 44.4327 23.8087 44.4367 24.0287C44.4424 24.3467 44.4447 24.6647 44.4462 24.9828C44.4486 25.0804 44.4509 25.178 44.4533 25.2785C44.4513 25.919 44.3458 26.3773 43.8724 26.8555C43.4216 27.1916 42.8728 27.3545 42.3315 27.5192C42.2569 27.5425 42.1823 27.5658 42.1055 27.5898C41.9494 27.6384 41.7932 27.6866 41.6369 27.7345C41.3971 27.808 41.1576 27.8827 40.9182 27.9575C40.766 28.0048 40.6137 28.0519 40.4615 28.0991C40.3898 28.1213 40.3182 28.1436 40.2444 28.1665C39.741 28.3203 39.741 28.3203 39.509 28.3203C39.4995 28.3991 39.49 28.4779 39.4802 28.5591C39.3868 28.9907 39.2188 29.3693 39.035 29.7729C38.9837 29.8878 38.9837 29.8878 38.9313 30.0049C38.8474 30.1923 38.7627 30.3794 38.6779 30.5664C38.8421 30.5058 38.8421 30.5058 39.0097 30.444C39.4183 30.2934 39.827 30.1431 40.2359 29.993C40.4123 29.9281 40.5888 29.8632 40.7651 29.7981C41.0196 29.7042 41.2741 29.6107 41.5288 29.5174C41.6068 29.4885 41.6849 29.4596 41.7653 29.4298C42.7589 29.0665 43.7741 28.7895 44.8333 29.1077C45.608 29.4347 46.1352 29.9732 46.4789 30.6961C46.7702 31.4997 46.729 32.2331 46.3657 33.0078C46.0855 33.4999 45.6884 33.8457 45.2359 34.1999C45.0955 34.3113 44.9586 34.4267 44.8269 34.547C44.0684 35.2327 43.1661 35.7307 42.2819 36.2584C41.8338 36.5268 41.389 36.7999 40.944 37.0727C40.0882 37.5959 39.2314 38.1174 38.3742 38.6384C38.0817 38.8162 37.7893 38.994 37.4969 39.1719C37.3493 39.2617 37.2017 39.3514 37.0541 39.4412C36.6885 39.6634 36.3231 39.8859 35.9581 40.1089C35.5148 40.3795 35.0706 40.6489 34.6262 40.918C34.5472 40.966 34.4681 41.014 34.3867 41.0634C33.2102 41.7765 32.0188 42.4492 30.7823 43.0664C30.7109 43.1022 30.6396 43.1379 30.566 43.1747C28.7815 44.0614 26.8009 44.8394 24.7567 44.9219C24.6203 44.9294 24.6203 44.9294 24.4811 44.9371C22.7584 44.9871 21.0614 44.6239 19.3869 44.2871C16.3626 43.6793 13.3408 43.5494 10.2576 43.4997C10.0104 43.4955 9.76316 43.4913 9.51595 43.487C8.9169 43.4766 8.31784 43.4667 7.71878 43.457C7.72134 43.5295 7.7239 43.6021 7.72654 43.6768C7.72853 43.7726 7.73052 43.8684 7.73258 43.967C7.73514 44.0617 7.7377 44.1564 7.74034 44.2539C7.70613 44.6939 7.50923 44.99 7.19933 45.3125C6.71282 45.6765 6.32825 45.8103 5.71637 45.8181C5.62964 45.8193 5.54292 45.8206 5.45357 45.8219C5.31412 45.8229 5.31412 45.8229 5.17186 45.824C5.07526 45.8248 4.97867 45.8256 4.87914 45.8264C4.67481 45.8278 4.47046 45.8288 4.26612 45.8296C4.05796 45.8307 3.84981 45.8327 3.64167 45.8356C3.34007 45.8398 3.03857 45.8414 2.73695 45.8424C2.64482 45.8441 2.5527 45.8458 2.45779 45.8475C1.77602 45.8453 1.22473 45.7097 0.703458 45.2792C0.0568319 44.616 0.104284 43.8265 0.106302 42.9817C0.105771 42.8667 0.10524 42.7516 0.104693 42.6331C0.1035 42.3191 0.10324 42.0052 0.103504 41.6912C0.103615 41.4284 0.103108 41.1656 0.102611 40.9028C0.101461 40.2824 0.101411 39.6621 0.102041 39.0417C0.102668 38.4033 0.101388 37.7649 0.0991762 37.1264C0.0973423 36.5768 0.096724 36.0272 0.0970615 35.4775C0.0972493 35.1499 0.0968433 34.8223 0.0955318 34.4947C0.094248 34.1291 0.0949531 33.7636 0.0961564 33.3981C0.0953623 33.2906 0.0945682 33.183 0.09375 33.0722C0.0990916 32.3368 0.173541 31.7574 0.68675 31.1706C1.3375 30.6727 1.86313 30.6203 2.67364 30.6251C2.77735 30.6249 2.88106 30.6246 2.98792 30.6243C3.20656 30.6241 3.42521 30.6246 3.64385 30.6259C3.97765 30.6274 4.31131 30.6259 4.64511 30.624C4.85803 30.6242 5.07095 30.6246 5.28387 30.6251C5.38323 30.6246 5.48259 30.624 5.58496 30.6234C6.22503 30.6297 6.69601 30.7008 7.18513 31.1249C7.23481 31.1823 7.2845 31.2397 7.33569 31.2988C7.38671 31.3562 7.43773 31.4136 7.4903 31.4728C7.61489 31.6406 7.61489 31.6406 7.71878 31.9336C8.06873 31.9391 8.06873 31.9391 8.44601 31.8359C8.65315 31.633 8.7842 31.424 8.86156 31.1523C8.80835 30.8205 8.71236 30.5342 8.56938 30.2277C8.53268 30.1477 8.49599 30.0678 8.45818 29.9854C8.41988 29.9032 8.38158 29.821 8.34212 29.7363C8.2659 29.5727 8.19013 29.409 8.11486 29.245C8.08124 29.1729 8.04763 29.1009 8.013 29.0266C7.92039 28.793 7.8681 28.5655 7.82267 28.3203C7.75614 28.304 7.68962 28.2878 7.62108 28.271C6.83858 28.0756 6.07033 27.8497 5.30335 27.6062C5.12697 27.5527 5.12697 27.5527 4.94704 27.498C3.64715 27.0838 3.64715 27.0838 3.25152 26.5625C2.95872 25.966 2.89247 25.4691 2.89481 24.8173C2.89427 24.7273 2.89372 24.6372 2.89316 24.5445C2.8925 24.3552 2.89263 24.1658 2.89352 23.9765C2.8944 23.6889 2.89141 23.4014 2.88811 23.1138C2.88795 22.9289 2.88801 22.7439 2.88832 22.559C2.88657 22.4317 2.88657 22.4317 2.88478 22.3018C2.89287 21.625 3.05089 21.0213 3.54255 20.5076C4.22429 20.1066 4.95604 19.8762 5.71982 19.6557C5.94187 19.5916 6.16317 19.5256 6.38445 19.4591C7.45859 19.1406 7.45859 19.1406 7.82267 19.1406C7.83673 19.0801 7.85079 19.0195 7.86528 18.9571C8.03667 18.2944 8.29238 17.7126 8.62784 17.111C8.83585 16.7219 8.88665 16.5277 8.75768 16.1133C8.64811 15.8924 8.53146 15.6745 8.41029 15.4591C8.34003 15.3316 8.26982 15.2041 8.19967 15.0766C8.08959 14.8781 7.97901 14.6798 7.86726 14.4821C6.92071 12.8018 6.92071 12.8018 7.17985 11.8164C7.39665 11.3506 7.79516 11.0314 8.18182 10.6869C8.40412 10.4869 8.60492 10.2853 8.80313 10.0647C10.4283 8.29145 10.4283 8.29145 11.4848 8.10546C12.6605 8.04306 13.8114 8.82486 14.7961 9.342C14.9061 9.39783 15.0161 9.45366 15.1294 9.51118C15.2277 9.56239 15.326 9.6136 15.4272 9.66636C15.9293 9.83759 16.3447 9.68658 16.816 9.49096C16.9007 9.45647 16.9854 9.42198 17.0727 9.38644C17.1593 9.35043 17.2459 9.31443 17.3351 9.27734C17.5081 9.2057 17.6814 9.13447 17.8549 9.06371C17.9309 9.03212 18.0069 9.00052 18.0852 8.96797C18.3331 8.8805 18.5745 8.83165 18.835 8.78906C18.8725 8.61269 18.8725 8.61269 18.9109 8.43276C19.0604 7.80204 19.2754 7.19269 19.4908 6.57958C19.5301 6.46352 19.5694 6.34745 19.6099 6.22787C20.1066 4.81199 20.1066 4.81199 20.6933 4.4783C21.3003 4.21181 21.8058 4.14268 22.4715 4.15077ZM21.5361 5.66406C21.2674 6.20869 21.0355 6.74967 20.8482 7.32345C20.8 7.46614 20.7516 7.60881 20.7032 7.75146C20.6287 7.97238 20.5548 8.19342 20.4824 8.41493C20.4112 8.63148 20.3377 8.84722 20.2639 9.06295C20.2428 9.12917 20.2218 9.1954 20.2002 9.26363C20.0926 9.57228 20.0073 9.7442 19.7309 9.94462C19.4777 10.0505 19.2272 10.1518 18.9669 10.2409C18.8288 10.2891 18.8288 10.2891 18.6879 10.3382C18.498 10.4034 18.308 10.4685 18.1181 10.5335C17.5483 10.7323 17.0169 10.9558 16.4864 11.2355C16.1103 11.3756 15.8064 11.3981 15.423 11.2584C15.2033 11.1585 14.99 11.051 14.7764 10.9402C14.6151 10.8596 14.4537 10.7791 14.2924 10.6985C14.0403 10.5707 13.7885 10.4424 13.5367 10.314C13.2926 10.1899 13.0476 10.0676 12.8025 9.94529C12.7276 9.90634 12.6527 9.86738 12.5755 9.82725C12.2838 9.68212 12.0415 9.57265 11.7088 9.56034C11.3389 9.71957 11.0751 9.96712 10.7908 10.2337C10.7291 10.2907 10.6673 10.3477 10.6036 10.4064C10.4737 10.527 10.3443 10.6481 10.2155 10.7697C10.0178 10.9554 9.81726 11.138 9.61639 11.3207C9.4904 11.4383 9.36459 11.5561 9.23898 11.6741C9.17871 11.7285 9.11845 11.7828 9.05636 11.8388C8.78996 12.0951 8.65445 12.2348 8.65097 12.6005C8.76354 12.9066 8.89196 13.1872 9.04865 13.4758C9.13673 13.6395 9.13673 13.6395 9.2266 13.8065C9.28827 13.9192 9.34994 14.0319 9.41348 14.1479C9.47394 14.2599 9.53441 14.3718 9.59671 14.4871C9.68539 14.6512 9.68539 14.6512 9.77588 14.8186C9.83287 14.9244 9.88987 15.0302 9.9486 15.1393C10.0449 15.3145 10.144 15.4885 10.248 15.6598C10.5208 16.1175 10.5713 16.3885 10.4199 16.8945C10.3047 17.1625 10.17 17.4184 10.0303 17.6758C9.67727 18.3468 9.41382 19.0098 9.19434 19.7288C9.04985 20.0649 8.97814 20.1267 8.65379 20.3125C8.36841 20.42 8.07693 20.5053 7.7833 20.5906C7.69931 20.6157 7.61532 20.6409 7.52878 20.6667C7.2612 20.7467 6.9933 20.8257 6.72533 20.9045C6.45703 20.9838 6.18882 21.0633 5.92077 21.1434C5.75421 21.1931 5.58748 21.2423 5.42059 21.2911C5.07652 21.3935 4.80047 21.4903 4.4982 21.6797C4.37243 22.0343 4.37548 22.3623 4.37321 22.7318C4.37262 22.8061 4.37202 22.8804 4.37141 22.9569C4.37043 23.114 4.36975 23.2711 4.36935 23.4282C4.36834 23.6679 4.36512 23.9074 4.36185 24.147C4.36117 24.2999 4.36062 24.4527 4.36022 24.6056C4.35894 24.6769 4.35766 24.7482 4.35634 24.8217C4.35835 25.2576 4.39054 25.5511 4.70598 25.8789C4.98783 26.0006 5.24227 26.0919 5.53628 26.1761C5.6583 26.2134 5.6583 26.2134 5.78277 26.2514C6.04232 26.3303 6.3026 26.4068 6.56301 26.4831C6.82246 26.5611 7.08174 26.6396 7.34102 26.718C7.50217 26.7666 7.66347 26.8148 7.82492 26.8625C8.03242 26.924 8.23921 26.9872 8.44601 27.0508C8.54514 27.0797 8.64428 27.1087 8.74641 27.1386C9.02818 27.2769 9.07076 27.3826 9.17242 27.6623C9.20456 27.7467 9.2367 27.8312 9.26982 27.9182C9.30223 28.0086 9.33464 28.099 9.36803 28.1921C9.43867 28.379 9.50983 28.5656 9.58149 28.7521C9.61694 28.8445 9.6524 28.9368 9.68893 29.0319C9.88844 29.523 10.1402 29.9883 10.3939 30.4562C10.5308 30.7782 10.5502 31.0044 10.5238 31.3477C11.2413 31.1476 11.8916 30.8694 12.5561 30.5481C12.651 30.5028 12.7459 30.4576 12.8437 30.411C13.0749 30.3005 13.3059 30.1896 13.5366 30.0781C13.397 29.7267 13.2264 29.398 13.0414 29.0659C11.5733 26.4135 11.1523 23.2992 12.0821 20.4102C12.6843 18.6471 13.5986 17.1336 14.9911 15.8203C15.0782 15.7377 15.1654 15.6551 15.2552 15.5701C17.6032 13.3805 20.6711 12.3628 23.9463 12.3728C27.2078 12.4267 30.2019 13.6881 32.4959 15.8606C34.7316 18.0767 35.8433 21.109 35.7667 24.139C35.6173 27.3675 34.096 30.2021 31.5822 32.3755C30.8998 32.9322 30.123 33.3892 29.3278 33.7891C29.6979 33.913 29.9006 33.8603 30.2617 33.7278C30.3648 33.6906 30.4679 33.6534 30.5742 33.615C30.7409 33.5529 30.7409 33.5529 30.9109 33.4896C31.0844 33.4265 31.0844 33.4265 31.2613 33.362C31.6323 33.2266 32.0027 33.0898 32.3731 32.9529C32.6182 32.8632 32.8634 32.7736 33.1086 32.6841C33.5788 32.5124 34.0485 32.3393 34.5177 32.1651C34.8981 32.024 35.2792 31.8859 35.6628 31.7528C35.7368 31.7266 35.8108 31.7005 35.8871 31.6735C36.0745 31.6074 36.2624 31.5427 36.4504 31.4781C36.7193 31.3725 36.7193 31.3725 36.7895 31.1488C36.7986 31.0539 36.7986 31.0539 36.8079 30.957C37.0629 30.292 37.377 29.6476 37.6834 29.0024C37.9065 28.5279 38.0928 28.0502 38.2502 27.5524C38.5267 27.0553 39.2102 26.9345 39.7436 26.7761C39.9109 26.725 40.0782 26.6739 40.2456 26.6228C40.5079 26.5434 40.7703 26.4644 41.0328 26.3856C41.2873 26.309 41.5413 26.2313 41.7954 26.1536C41.874 26.1304 41.9525 26.1072 42.0335 26.0832C42.5706 25.9406 42.5706 25.9406 42.9374 25.5859C42.9696 25.3033 42.9835 25.0421 42.9824 24.7593C42.983 24.6783 42.9835 24.5972 42.9841 24.5138C42.9847 24.3424 42.9846 24.1711 42.9837 23.9998C42.9828 23.7378 42.9858 23.4761 42.9891 23.2141C42.9893 23.0476 42.9892 22.8811 42.9889 22.7146C42.9907 22.5973 42.9907 22.5973 42.9924 22.4775C42.9881 22.1535 42.9694 21.9228 42.7836 21.6457C42.4122 21.4168 42.0295 21.3076 41.6059 21.1891C41.424 21.1353 41.2421 21.0813 41.0602 21.0274C40.7744 20.9441 40.4883 20.8615 40.2019 20.78C39.9246 20.7006 39.6485 20.6185 39.3722 20.536C39.2865 20.5125 39.2008 20.489 39.1125 20.4648C38.6899 20.337 38.5154 20.2799 38.2651 19.9202C38.2299 19.8241 38.1947 19.7279 38.1584 19.6289C38.1205 19.5317 38.0826 19.4345 38.0436 19.3344C38.0065 19.2302 37.9694 19.1259 37.9312 19.0185C37.7794 18.6019 37.6164 18.208 37.4097 17.8127C37.3704 17.7363 37.3311 17.6598 37.2907 17.5811C37.2129 17.4318 37.1327 17.2836 37.0497 17.1369C36.8476 16.7451 36.7692 16.4943 36.9097 16.0713C36.9755 15.9209 37.0457 15.7721 37.1195 15.625C37.1573 15.548 37.1951 15.4709 37.234 15.3916C37.3581 15.1476 37.4879 14.9071 37.6195 14.6667C37.6651 14.5816 37.7106 14.4965 37.7576 14.4088C37.9574 14.0363 38.1596 13.6661 38.376 13.3018C38.4349 13.2004 38.4938 13.0989 38.5545 12.9944C38.6066 12.9089 38.6587 12.8234 38.7124 12.7354C38.8125 12.4968 38.8125 12.4968 38.6663 12.2777C38.4365 11.9661 38.1746 11.6968 37.8934 11.4265C37.8377 11.3728 37.782 11.3191 37.7246 11.2637C37.6071 11.151 37.4893 11.0386 37.3712 10.9264C37.1909 10.7544 37.0134 10.5801 36.8357 10.4057C36.7209 10.2962 36.606 10.1869 36.4909 10.0777C36.4383 10.0253 36.3857 9.97291 36.3315 9.91895C36.0776 9.6832 35.936 9.57161 35.5733 9.56413C35.1735 9.69234 34.8109 9.85539 34.4379 10.0407C34.2818 10.116 34.1257 10.1914 33.9696 10.2667C33.7259 10.3855 33.4824 10.5046 33.2392 10.6242C33.003 10.7399 32.766 10.8542 32.5289 10.9684C32.4208 11.0224 32.4208 11.0224 32.3105 11.0775C31.8884 11.2799 31.5788 11.384 31.0939 11.3281C30.8684 11.2567 30.8684 11.2567 30.6597 11.1565C30.5811 11.1199 30.5025 11.0833 30.4216 11.0455C30.3392 11.0059 30.2568 10.9662 30.1719 10.9253C29.4248 10.5716 29.4248 10.5716 28.6396 10.305C28.5276 10.2728 28.5276 10.2728 28.4135 10.2398C28.211 10.1842 28.0069 10.1342 27.8028 10.0845C27.4246 9.91364 27.3324 9.65545 27.1823 9.29832C27.0979 9.06442 27.0167 8.82948 26.9384 8.59374C26.8973 8.47603 26.8563 8.35831 26.8141 8.23702C26.6477 7.75482 26.488 7.27078 26.3286 6.78653C26.2894 6.66952 26.2503 6.55251 26.2099 6.43195C26.1751 6.3265 26.1404 6.22105 26.1045 6.1124C26.02 5.84813 26.02 5.84813 25.7956 5.66406C25.475 5.64691 25.164 5.64148 24.8435 5.64498C24.7493 5.64526 24.655 5.64554 24.5579 5.64582C24.2562 5.64692 23.9545 5.64937 23.6529 5.65185C23.4486 5.65283 23.2443 5.65372 23.0401 5.65452C22.5387 5.65668 22.0374 5.66005 21.5361 5.66406ZM16.8611 16.0156C16.7865 16.07 16.7119 16.1244 16.635 16.1804C14.5969 17.7436 13.3426 20.2736 13.0366 22.699C13.0277 22.8474 13.0212 22.9959 13.0171 23.1445C13.0093 23.2699 13.0093 23.2699 13.0013 23.3978C12.9245 25.5006 13.5805 27.8327 14.9911 29.4922C15.0642 29.4781 15.1373 29.464 15.2126 29.4495C16.3298 29.252 17.3596 29.1971 18.4683 29.4662C18.5401 29.4836 18.6119 29.501 18.6859 29.519C19.4584 29.7086 20.2234 29.9217 20.9874 30.1392C21.1368 30.1815 21.2862 30.2238 21.4355 30.266C21.745 30.3538 22.0544 30.4418 22.3637 30.53C22.7579 30.6423 23.1524 30.7537 23.547 30.8648C23.8541 30.9515 24.161 31.0387 24.4679 31.1262C24.6132 31.1676 24.7587 31.2087 24.9042 31.2495C26.977 31.8325 26.977 31.8325 27.7175 32.7026C27.871 32.8362 27.871 32.8362 28.097 32.7942C28.4747 32.6929 28.7927 32.5259 29.1265 32.3364C29.1948 32.2978 29.263 32.2591 29.3333 32.2193C30.0352 31.8079 30.6117 31.3062 31.1978 30.7617C31.2734 30.6978 31.3489 30.6338 31.4267 30.5679C33.2421 28.9958 34.215 26.4592 34.3409 24.1867C34.4437 21.3814 33.38 18.8006 31.3501 16.7519C30.5894 16.0007 29.7687 15.4498 28.8084 14.9414C28.709 14.888 28.6096 14.8346 28.5073 14.7797C24.7069 12.8614 20.1688 13.5841 16.8611 16.0156ZM42.1099 30.806C42.0132 30.8419 41.9165 30.8777 41.8168 30.9147C41.4992 31.033 41.1827 31.1537 40.8661 31.2744C40.6421 31.3582 40.418 31.4418 40.1939 31.5252C39.7225 31.7006 39.2515 31.8768 38.7807 32.0535C37.7027 32.4567 36.6194 32.847 35.5361 33.2374C35.2021 33.3579 34.8682 33.4787 34.5343 33.5996C33.9074 33.8265 33.2799 34.0521 32.6523 34.2773C32.5405 34.3176 32.4286 34.3578 32.3134 34.3993C31.9756 34.5206 31.6375 34.6413 31.2993 34.7618C31.1972 34.7986 31.0951 34.8353 30.9898 34.8732C30.1215 35.1812 29.2611 35.4111 28.3307 35.4748C27.8949 35.5637 27.7897 35.6885 27.5227 36.0168C26.9991 36.6048 26.4093 36.9325 25.5878 37.0117C24.9404 37.0355 24.3749 36.9548 23.745 36.8195C23.5484 36.7793 23.3517 36.7393 23.1551 36.6993C22.8505 36.6364 22.546 36.573 22.2418 36.5083C20.0935 36.0542 18.213 35.9543 16.1079 36.6321C15.7521 36.74 15.4664 36.7517 15.0949 36.7187C14.8937 36.6089 14.8937 36.6089 14.7833 36.4258C14.7168 35.9258 14.7168 35.9258 14.8989 35.6903C16.0776 34.8278 18.4453 34.6404 19.8739 34.7656C21.2236 34.9282 22.5572 35.1743 23.8754 35.4907C24.6013 35.658 25.353 35.8037 26.0423 35.4797C26.5324 35.0992 26.5324 35.0992 26.7704 34.5631C26.7996 34.0224 26.6958 33.6139 26.315 33.2031C25.545 32.7701 24.6811 32.5659 23.8265 32.3292C23.6657 32.284 23.5048 32.2389 23.344 32.1936C22.9228 32.0753 22.5014 31.9579 22.0799 31.8407C21.7356 31.7448 21.3914 31.6482 21.0473 31.5517C20.3361 31.3521 19.6248 31.1529 18.9132 30.9549C18.7874 30.9198 18.6617 30.8848 18.5321 30.8487C18.0168 30.7088 17.5769 30.6405 17.0364 30.6274C16.9039 30.6227 16.7715 30.6179 16.635 30.6129C15.4511 30.6743 14.2954 31.2554 13.2505 31.7401C11.9563 32.3374 10.6802 32.7863 9.27712 33.1055C8.76287 33.2344 8.24862 33.3633 7.71878 33.4961C7.71878 36.332 7.71878 39.168 7.71878 42.0898C8.713 42.0898 9.70723 42.0898 10.7316 42.0898C14.2394 42.1327 17.6035 42.461 21.037 43.1312C23.9585 43.6998 26.315 43.4694 29.0162 42.2851C29.0871 42.2544 29.158 42.2237 29.2311 42.1921C31.2188 41.323 33.0437 40.1681 34.8701 39.0374C35.2615 38.7956 35.6547 38.5565 36.0482 38.3179C36.683 37.9323 37.3171 37.5456 37.9507 37.1582C38.5974 36.7629 39.2444 36.368 39.8921 35.9741C39.9633 35.9308 40.0345 35.8874 40.1078 35.8428C40.4773 35.618 40.8472 35.394 41.2179 35.1711C41.6544 34.9084 42.089 34.643 42.5218 34.375C42.6265 34.3102 42.7313 34.2453 42.8392 34.1785C43.6073 33.6794 44.6921 32.9316 45.119 32.1289C45.1719 31.5325 45.1271 31.2373 44.7035 30.7617C44.2945 30.4147 43.982 30.4231 43.4489 30.4379C42.9676 30.4868 42.5548 30.6327 42.1099 30.806ZM1.82689 32.1499C1.64999 32.3805 1.65425 32.5236 1.6543 32.8067C1.65357 32.9063 1.65285 33.0058 1.65209 33.1084C1.65289 33.2175 1.65368 33.3266 1.6545 33.4391C1.65412 33.5541 1.65374 33.669 1.65335 33.7875C1.65265 34.1029 1.65335 34.4182 1.65474 34.7336C1.65591 35.0633 1.65549 35.3931 1.65528 35.7229C1.65519 36.2766 1.65634 36.8304 1.65825 37.3841C1.66045 38.0248 1.66082 38.6654 1.66017 39.3061C1.65958 39.9219 1.66017 40.5378 1.66133 41.1536C1.66181 41.4159 1.6619 41.6782 1.66169 41.9406C1.66165 42.3065 1.66295 42.6724 1.66465 43.0384C1.66439 43.1477 1.66413 43.257 1.66387 43.3697C1.6646 43.469 1.66534 43.5682 1.6661 43.6705C1.66631 43.7571 1.66652 43.8437 1.66674 43.9329C1.67276 44.1617 1.67276 44.1617 1.90096 44.3359C2.21153 44.3567 2.51224 44.3656 2.82298 44.3653C2.91443 44.3657 3.00588 44.3661 3.1001 44.3666C3.29363 44.3671 3.48715 44.3672 3.68068 44.3668C3.97758 44.3665 4.27436 44.3687 4.57125 44.3712C4.75901 44.3714 4.94677 44.3715 5.13452 44.3714C5.26829 44.3728 5.26829 44.3728 5.40475 44.3741C5.68057 44.3755 5.68057 44.3755 6.05654 44.3359C6.28158 44.0186 6.2905 43.9313 6.29141 43.5648C6.29251 43.4169 6.29251 43.4169 6.29364 43.2661C6.29338 43.158 6.29312 43.0499 6.29286 42.9386C6.29339 42.8247 6.29392 42.7109 6.29447 42.5935C6.29591 42.2161 6.29581 41.8386 6.29557 41.4612C6.29587 41.2656 6.29618 41.0701 6.29655 40.8746C6.2977 40.2598 6.29775 39.645 6.29712 39.0302C6.29649 38.3956 6.29777 37.7611 6.29998 37.1265C6.30181 36.5819 6.30244 36.0372 6.3021 35.4926C6.30191 35.1672 6.30232 34.8419 6.30363 34.5165C6.3049 34.1538 6.30421 33.7912 6.303 33.4286C6.3038 33.3205 6.30459 33.2124 6.30541 33.1011C6.30432 32.9532 6.30432 32.9532 6.3032 32.8024C6.30323 32.6737 6.30323 32.6737 6.30325 32.5425C6.28101 32.3188 6.28101 32.3188 6.13061 32.1502C5.81779 31.9411 5.43981 31.9897 5.06959 31.9923C4.93993 31.9919 4.93993 31.9919 4.80764 31.9915C4.62495 31.9913 4.44226 31.9918 4.25958 31.993C3.97978 31.9946 3.70014 31.9931 3.42035 31.9912C3.24287 31.9914 3.06539 31.9918 2.88791 31.9923C2.80414 31.9917 2.72038 31.9911 2.63407 31.9905C2.20568 31.987 2.20568 31.987 1.82689 32.1499Z" fill="#C9A581"/>
<path d="M28.4198 18.3429C28.4946 18.3426 28.5694 18.3423 28.6465 18.342C28.8049 18.3415 28.9633 18.3412 29.1217 18.3413C29.3637 18.341 29.6055 18.3393 29.8475 18.3374C30.0014 18.3371 30.1553 18.3369 30.3093 18.3368C30.3815 18.3361 30.4537 18.3354 30.528 18.3347C30.9044 18.3364 31.1942 18.3487 31.5081 18.5547C31.6742 18.8669 31.6311 19.2061 31.6331 19.5492C31.6336 19.6284 31.6342 19.7076 31.6348 19.7892C31.6358 19.957 31.6365 20.1247 31.6369 20.2924C31.6379 20.5492 31.6411 20.8059 31.6444 21.0626C31.6451 21.2255 31.6456 21.3883 31.646 21.5511C31.6473 21.628 31.6486 21.7049 31.6499 21.7842C31.6476 22.3121 31.6476 22.3121 31.4763 22.5578C31.1706 22.7287 30.9176 22.696 30.5731 22.6562C30.2569 22.437 30.1676 22.3162 30.0942 21.9497C30.0894 21.8364 30.0845 21.7232 30.0796 21.6064C30.0737 21.4921 30.0678 21.3778 30.0617 21.26C30.0577 21.1294 30.0577 21.1294 30.0536 20.9961C29.9734 21.0717 29.8931 21.1473 29.8105 21.2253C29.0556 21.9369 28.3004 22.6482 27.5449 23.3593C27.1565 23.7249 26.7682 24.0906 26.3801 24.4565C26.0058 24.8094 25.6312 25.1621 25.2565 25.5146C25.1133 25.6494 24.9703 25.7842 24.8273 25.9191C24.6275 26.1076 24.4275 26.2958 24.2273 26.4839C24.1678 26.5401 24.1084 26.5964 24.0471 26.6544C23.5338 27.1355 23.5338 27.1355 23.0623 27.1826C22.5831 27.14 22.4582 27.0226 22.1292 26.6998C22.0818 26.6543 22.0344 26.6088 21.9856 26.5619C21.8356 26.4171 21.6884 26.2702 21.5412 26.123C21.4395 26.0241 21.3377 25.9253 21.2358 25.8266C20.9874 25.5851 20.7409 25.3421 20.4958 25.0976C20.1852 25.2283 19.9736 25.3708 19.7377 25.6004C19.641 25.6938 19.641 25.6938 19.5422 25.789C19.4393 25.8896 19.4393 25.8896 19.3343 25.9922C19.187 26.1336 19.0397 26.2749 18.8924 26.4162C18.6611 26.639 18.4303 26.8622 18.2003 27.0862C17.9778 27.3024 17.7536 27.5171 17.5292 27.7317C17.4269 27.8325 17.4269 27.8325 17.3226 27.9354C17.0212 28.2218 16.8303 28.3967 16.4144 28.5154C16.04 28.5157 15.8832 28.4692 15.6129 28.2226C15.5417 27.8935 15.5192 27.7526 15.6129 27.4414C15.7502 27.2575 15.7502 27.2575 15.9292 27.0744C15.9952 27.0065 16.0612 26.9387 16.1292 26.8688C16.4735 26.5282 16.8226 26.1927 17.1766 25.861C17.2534 25.7886 17.3303 25.7162 17.4095 25.6417C17.5705 25.4903 17.7316 25.3391 17.8928 25.188C18.1403 24.9559 18.3872 24.7232 18.6341 24.4905C18.791 24.3431 18.948 24.1956 19.105 24.0482C19.1789 23.9785 19.2528 23.9089 19.329 23.8371C19.4315 23.7412 19.4315 23.7412 19.5361 23.6433C19.5962 23.5869 19.6563 23.5305 19.7182 23.4724C19.9285 23.2916 20.0713 23.2437 20.3529 23.1933C20.8967 23.2691 21.1531 23.5688 21.5347 23.9258C21.5939 23.9807 21.653 24.0357 21.714 24.0923C22.1419 24.4899 22.5664 24.8905 22.9891 25.2929C23.3894 25.1391 23.6589 24.885 23.9573 24.6003C24.0379 24.5246 24.0379 24.5246 24.1202 24.4473C24.2972 24.2808 24.4735 24.1136 24.6497 23.9464C24.7725 23.8305 24.8954 23.7148 25.0183 23.5991C25.3412 23.2948 25.6635 22.9899 25.9856 22.6849C26.3147 22.3736 26.6443 22.0629 26.9738 21.7521C27.6201 21.1426 28.2657 20.5324 28.9108 19.9218C28.8181 19.9193 28.7255 19.9168 28.63 19.9142C28.4476 19.9059 28.4476 19.9059 28.2615 19.8974C28.141 19.8929 28.0205 19.8884 27.8963 19.8837C27.5065 19.8147 27.378 19.7307 27.1447 19.4336C27.0682 18.848 27.0682 18.848 27.2875 18.5669C27.6575 18.3261 27.984 18.3436 28.4198 18.3429Z" fill="#C9A581"/>
</svg>
