<svg width="30" height="30" viewBox="0 0 30 30" fill="none" xmlns="http://www.w3.org/2000/svg">
<g clip-path="url(#clip0_89_1426)">
<path d="M28.9547 24.075C28.9108 24.0219 28.8556 23.9792 28.7932 23.95C28.7308 23.9208 28.6627 23.9059 28.5938 23.9062H26.7047C27.0163 23.5036 27.1861 23.0092 27.1875 22.5V1.40625C27.1875 1.28193 27.1381 1.1627 27.0502 1.07479C26.9623 0.986886 26.8431 0.9375 26.7188 0.9375H7.03125C6.90693 0.9375 6.7877 0.986886 6.69979 1.07479C6.61189 1.1627 6.5625 1.28193 6.5625 1.40625V4.6875H4.21875C3.34881 4.68849 2.51479 5.03451 1.89965 5.64965C1.28451 6.26479 0.938493 7.09881 0.9375 7.96875V15C0.938493 15.8699 1.28451 16.704 1.89965 17.3191C2.51479 17.9342 3.34881 18.2803 4.21875 18.2812H6.5625V22.5C6.56392 23.0092 6.73367 23.5036 7.04531 23.9062H5.15625C5.08734 23.9059 5.01921 23.9208 4.95679 23.95C4.89437 23.9792 4.83921 24.0219 4.79531 24.075C4.75133 24.1286 4.7197 24.1913 4.70269 24.2585C4.68567 24.3258 4.68369 24.396 4.69688 24.4641L5.15625 26.8078C5.17691 26.9146 5.23403 27.0108 5.31783 27.0801C5.40163 27.1493 5.5069 27.1873 5.61562 27.1875H5.9625L6.34219 28.7063C6.36731 28.8079 6.42573 28.8982 6.50814 28.9627C6.59054 29.0273 6.69219 29.0624 6.79688 29.0625H26.9531C27.0578 29.0624 27.1595 29.0273 27.2419 28.9627C27.3243 28.8982 27.3827 28.8079 27.4078 28.7063L27.7875 27.1875H28.1344C28.2431 27.1873 28.3484 27.1493 28.4322 27.0801C28.516 27.0108 28.5731 26.9146 28.5938 26.8078L29.0531 24.4641C29.0663 24.396 29.0643 24.3258 29.0473 24.2585C29.0303 24.1913 28.9987 24.1286 28.9547 24.075ZM6.5625 15H4.6875C4.56318 15 4.44395 14.9506 4.35604 14.8627C4.26814 14.7748 4.21875 14.6556 4.21875 14.5312V8.4375C4.21875 8.31318 4.26814 8.19395 4.35604 8.10604C4.44395 8.01814 4.56318 7.96875 4.6875 7.96875H6.5625V15ZM6.5625 7.03125H4.6875C4.31488 7.03236 3.95784 7.18088 3.69436 7.44436C3.43088 7.70784 3.28236 8.06488 3.28125 8.4375V14.5312C3.28236 14.9039 3.43088 15.2609 3.69436 15.5244C3.95784 15.7879 4.31488 15.9364 4.6875 15.9375H6.5625V17.3438H4.21875C3.59715 17.3438 3.00101 17.0968 2.56147 16.6573C2.12193 16.2177 1.875 15.6216 1.875 15V7.96875C1.875 7.34715 2.12193 6.75101 2.56147 6.31147C3.00101 5.87193 3.59715 5.625 4.21875 5.625H6.5625V7.03125ZM7.5 1.875H26.25V12.6562H7.5V1.875ZM7.5 13.5938H26.25V18.2812H7.5V13.5938ZM7.5 19.2188H26.25V22.5C26.2489 22.8726 26.1004 23.2297 25.8369 23.4931C25.5734 23.7566 25.2164 23.9051 24.8438 23.9062H8.90625C8.53363 23.9051 8.17659 23.7566 7.91311 23.4931C7.64963 23.2297 7.50111 22.8726 7.5 22.5V19.2188ZM26.5875 28.125H7.1625L6.92812 27.1875H26.8219L26.5875 28.125ZM27.75 26.25H6L5.72344 24.8438H28.0266L27.75 26.25Z" fill="#C9A581"/>
</g>
<defs>
<clipPath id="clip0_89_1426">
<rect width="30" height="30" fill="white"/>
</clipPath>
</defs>
</svg>
