<svg width="30" height="30" viewBox="0 0 30 30" fill="none" xmlns="http://www.w3.org/2000/svg">
<g clip-path="url(#clip0_146_177)">
<path d="M6.56278 -0.015189C6.65421 -0.0158088 6.65421 -0.0158088 6.7475 -0.0164411C6.81468 -0.0162999 6.88187 -0.0161586 6.9511 -0.0160131C7.0223 -0.0163194 7.0935 -0.0166256 7.16687 -0.0169411C7.36488 -0.0176684 7.56288 -0.0178676 7.76089 -0.0178419C7.9743 -0.0179381 8.18771 -0.018702 8.40112 -0.0193736C8.86793 -0.020711 9.33474 -0.0211732 9.80155 -0.0214687C10.093 -0.0216591 10.3844 -0.0220405 10.6758 -0.022463C11.4823 -0.0236073 12.2889 -0.0245666 13.0955 -0.0247365C13.173 -0.0247529 13.173 -0.0247529 13.252 -0.0247697C13.3567 -0.0247911 13.4614 -0.0248124 13.566 -0.0248335C13.618 -0.0248442 13.67 -0.0248549 13.7235 -0.0248659C13.7755 -0.0248765 13.8276 -0.024887 13.8812 -0.0248979C14.7243 -0.0251051 15.5675 -0.0266854 16.4107 -0.0288716C17.2761 -0.0310975 18.1415 -0.032231 19.0069 -0.0322487C19.4929 -0.0322829 19.9789 -0.0327813 20.4649 -0.0344708C20.8787 -0.0359027 21.2925 -0.0363314 21.7063 -0.0354505C21.9175 -0.0350306 22.1286 -0.0350842 22.3398 -0.0364102C22.5687 -0.0378337 22.7975 -0.0369941 23.0264 -0.0359299C23.0932 -0.0367018 23.16 -0.0374737 23.2288 -0.038269C23.7298 -0.0329319 23.7298 -0.0329319 23.9454 0.13937C24.4097 0.659899 24.6093 1.94869 24.6093 2.6316C24.6601 2.63037 24.7109 2.62915 24.7632 2.62789C24.9537 2.62387 25.1441 2.62095 25.3346 2.61875C25.4166 2.61758 25.4987 2.61599 25.5807 2.61395C26.4394 2.59317 26.4394 2.59317 26.8358 2.86552C26.9565 2.98248 26.9565 2.98248 27.0373 3.09943C27.065 3.13803 27.0927 3.17663 27.1213 3.21639C27.2305 3.40953 27.2533 3.59242 27.2564 3.81187C27.2571 3.85951 27.2579 3.90716 27.2586 3.95625C27.2593 4.03283 27.2593 4.03283 27.26 4.11095C27.2604 4.16402 27.2609 4.2171 27.2614 4.27178C27.2622 4.38405 27.2628 4.49632 27.2633 4.60859C27.264 4.72293 27.2652 4.83727 27.2669 4.95159C27.2694 5.1173 27.2703 5.28295 27.2709 5.44867C27.272 5.49924 27.273 5.54982 27.2741 5.60193C27.2726 6.00014 27.1707 6.30343 26.9114 6.60958C26.8631 6.6487 26.8631 6.6487 26.8139 6.68862C26.782 6.7156 26.7501 6.74259 26.7173 6.7704C26.4361 6.94453 26.1727 6.97303 25.8471 6.96639C25.7795 6.96534 25.712 6.96428 25.6425 6.9632C25.5915 6.96184 25.5406 6.96048 25.4882 6.95908C25.4854 7.00007 25.4825 7.04106 25.4796 7.0833C25.4438 7.55738 25.3811 8.02439 25.3087 8.49417C25.2924 8.60238 25.2924 8.60238 25.2757 8.71278C25.2491 8.88848 25.2222 9.06415 25.1952 9.23979C25.2312 9.25577 25.2671 9.27175 25.3042 9.28821C25.5083 9.39977 25.594 9.5521 25.664 9.7661C25.746 10.5153 25.58 11.2886 25.4731 12.0276C25.4526 12.1726 25.4321 12.3176 25.4116 12.4627C25.362 12.814 25.3118 13.1652 25.2613 13.5164C25.2203 13.8019 25.1795 14.0875 25.1389 14.3731C25.1302 14.4343 25.1302 14.4343 25.1213 14.4967C25.1095 14.5797 25.0977 14.6626 25.0859 14.7455C24.9756 15.5208 24.8646 16.296 24.7534 17.0712C24.6581 17.7354 24.5634 18.3998 24.4691 19.0642C24.3593 19.8373 24.2492 20.6104 24.1386 21.3835C24.1268 21.466 24.115 21.5485 24.1032 21.631C24.0974 21.6715 24.0916 21.7121 24.0856 21.7539C24.0448 22.0391 24.0043 22.3243 23.9638 22.6095C23.9093 22.9935 23.8543 23.3774 23.7989 23.7613C23.7787 23.9021 23.7586 24.0428 23.7388 24.1836C23.7116 24.376 23.6838 24.5684 23.6558 24.7607C23.6481 24.8161 23.6404 24.8716 23.6325 24.9288C23.5595 25.4228 23.4878 25.8679 23.0858 26.1988C22.9101 26.3158 22.9101 26.3158 22.7343 26.3158C22.7257 26.4043 22.7257 26.4043 22.7169 26.4947C22.6614 27.0408 22.5928 27.5854 22.5146 28.1287C22.5068 28.1893 22.499 28.25 22.491 28.3124C22.4165 28.8073 22.2437 29.1946 21.8938 29.5578C21.8313 29.603 21.8313 29.603 21.7675 29.6491C21.7049 29.6962 21.7049 29.6962 21.6411 29.7442C21.3198 29.9323 21.0132 29.9588 20.6476 29.958C20.5725 29.9585 20.5725 29.9585 20.4959 29.959C20.3286 29.96 20.1613 29.9602 19.994 29.9604C19.8738 29.9609 19.7537 29.9615 19.6335 29.9621C19.3074 29.9637 18.9812 29.9644 18.6551 29.965C18.4511 29.9653 18.2472 29.9658 18.0433 29.9663C17.4047 29.9679 16.7661 29.969 16.1275 29.9695C15.3912 29.97 14.655 29.9721 13.9188 29.9754C13.3491 29.978 12.7795 29.9792 12.2098 29.9793C11.8698 29.9794 11.5299 29.9801 11.1899 29.9822C10.8699 29.9841 10.5499 29.9844 10.2299 29.9834C10.1128 29.9833 9.99578 29.9838 9.87873 29.9849C9.16767 29.9916 8.59702 29.9744 8.02875 29.4926C7.51902 28.989 7.48534 28.1555 7.39737 27.4854C7.38438 27.3912 7.37134 27.297 7.35823 27.2028C7.26553 26.5282 7.26553 26.5282 7.26553 26.3158C7.21477 26.305 7.16402 26.2941 7.11172 26.2829C6.83971 26.1673 6.70867 26.0453 6.56241 25.7895C6.35378 25.0517 6.28623 24.2612 6.17841 23.5042C6.1582 23.3636 6.13797 23.2229 6.11772 23.0823C6.06879 22.742 6.02008 22.4017 5.97151 22.0613C5.932 21.7845 5.89242 21.5076 5.85278 21.2308C5.7401 20.4438 5.62764 19.6567 5.51544 18.8696C5.50941 18.8274 5.50338 18.7851 5.49718 18.7415C5.49114 18.6992 5.48511 18.6569 5.47889 18.6133C5.381 17.9267 5.28259 17.2401 5.18395 16.5536C5.08237 15.8466 4.98119 15.1396 4.88042 14.4325C4.82396 14.0363 4.76733 13.6402 4.71027 13.2441C4.65663 12.8718 4.60355 12.4994 4.55083 12.127C4.53146 11.9907 4.51191 11.8545 4.49216 11.7183C4.232 9.92225 4.232 9.92225 4.43838 9.52122C4.56419 9.36426 4.62793 9.31794 4.80459 9.23979C4.79128 9.14862 4.79128 9.14862 4.7777 9.05561C4.74477 8.82981 4.71207 8.60399 4.67942 8.37815C4.66527 8.28047 4.65106 8.18279 4.63679 8.08513C4.61628 7.94463 4.59597 7.80411 4.57571 7.66358C4.5693 7.62002 4.5629 7.57645 4.55629 7.53157C4.52851 7.33758 4.51163 7.15561 4.51163 6.95908C4.46208 6.96112 4.41253 6.96315 4.36148 6.96525C3.50203 6.98572 3.50203 6.98572 3.1658 6.67811C2.8118 6.29439 2.73526 5.98905 2.73207 5.47814C2.73154 5.42542 2.73101 5.3727 2.73047 5.31839C2.72962 5.20696 2.7291 5.09553 2.72888 4.9841C2.72818 4.81517 2.7253 4.64637 2.72234 4.47747C2.71265 3.38695 2.71265 3.38695 3.04678 2.98248C3.35454 2.69594 3.62138 2.62415 4.03441 2.62589C4.09256 2.62601 4.09256 2.62601 4.15188 2.62614C4.27546 2.62647 4.39904 2.6272 4.52261 2.62794C4.6065 2.62824 4.69038 2.6285 4.77427 2.62874C4.97969 2.62939 5.18511 2.6304 5.39053 2.6316C5.39849 2.58714 5.40644 2.54267 5.41464 2.49686C5.45147 2.29196 5.48875 2.08715 5.52603 1.88233C5.53853 1.81241 5.55103 1.74249 5.56391 1.67046C5.7953 0.405446 5.7953 0.405446 6.09366 0.116978C6.2856 -0.0107345 6.34041 -0.0147084 6.56278 -0.015189ZM6.73819 0.877212C6.63634 1.18216 6.562 1.47416 6.49649 1.7873C6.48584 1.83626 6.47519 1.88522 6.46422 1.93567C6.45417 1.98327 6.44412 2.03088 6.43377 2.07993C6.4247 2.12271 6.41563 2.1655 6.40628 2.20958C6.3847 2.35191 6.38337 2.48785 6.38663 2.6316C6.43718 2.63276 6.48773 2.63392 6.53982 2.63511C6.72755 2.63968 6.91525 2.64475 7.10295 2.65016C7.18416 2.6524 7.26538 2.65443 7.3466 2.65627C7.4634 2.65894 7.58019 2.66239 7.69697 2.66586C7.76724 2.6677 7.83751 2.66954 7.90991 2.67143C8.08584 2.69008 8.08584 2.69008 8.26163 2.80704C8.31267 3.03628 8.34241 3.22635 8.26163 3.45031C8.04738 3.51718 7.8451 3.51685 7.62154 3.51801C7.58121 3.51831 7.54089 3.51861 7.49934 3.51891C7.41202 3.51954 7.32471 3.52004 7.2374 3.52044C7.09925 3.52113 6.96111 3.52227 6.82296 3.52355C6.43027 3.52715 6.03759 3.53032 5.64489 3.53226C5.4045 3.53349 5.16414 3.53555 4.92376 3.53816C4.83216 3.53898 4.74056 3.53949 4.64896 3.53968C4.52102 3.53997 4.39314 3.54132 4.26522 3.54291C4.15601 3.54362 4.15601 3.54362 4.04459 3.54435C3.8694 3.55333 3.8694 3.55333 3.7558 3.64336C3.64359 3.81623 3.66514 4.01471 3.66591 4.2142C3.6656 4.26026 3.66529 4.30633 3.66498 4.35379C3.6646 4.45112 3.66468 4.54845 3.66518 4.64577C3.66568 4.79482 3.66399 4.94373 3.66213 5.09276C3.66204 5.18734 3.66207 5.28191 3.66224 5.37648C3.66159 5.42108 3.66093 5.46567 3.66025 5.51162C3.66 5.75279 3.66 5.75279 3.78689 5.94746C3.96765 6.04637 4.09487 6.0454 4.30085 6.04549C4.35742 6.04587 4.35742 6.04587 4.41513 6.04626C4.54202 6.0469 4.66887 6.04629 4.79575 6.04569C4.88743 6.04589 4.97911 6.04617 5.07078 6.04652C5.32311 6.04725 5.57543 6.04689 5.82776 6.04635C6.09972 6.04595 6.37169 6.04656 6.64365 6.04704C7.17657 6.04782 7.70948 6.04765 8.2424 6.04715C8.67536 6.04675 9.10833 6.0467 9.54129 6.04689C9.60284 6.04691 9.66439 6.04694 9.72781 6.04697C9.85283 6.04703 9.97786 6.04708 10.1029 6.04714C11.276 6.04764 12.4492 6.04706 13.6223 6.04612C14.6297 6.04534 15.6371 6.04547 16.6445 6.04628C17.8134 6.04722 18.9823 6.04759 20.1513 6.04705C20.2758 6.047 20.4004 6.04694 20.525 6.04689C20.5862 6.04686 20.6475 6.04683 20.7107 6.04681C21.1433 6.04665 21.576 6.04691 22.0086 6.04732C22.5356 6.04781 23.0626 6.04768 23.5895 6.04675C23.8586 6.04628 24.1276 6.04611 24.3966 6.04669C24.6427 6.04721 24.8887 6.04692 25.1347 6.04599C25.2239 6.04579 25.3132 6.04589 25.4025 6.04632C25.5233 6.04685 25.6441 6.04631 25.7649 6.04549C25.8322 6.04546 25.8995 6.04543 25.9688 6.0454C26.1321 6.03617 26.1321 6.03617 26.2422 5.94746C26.357 5.77523 26.3334 5.57651 26.3318 5.37648C26.332 5.33042 26.3322 5.28435 26.3324 5.23689C26.3325 5.13956 26.3322 5.04223 26.3314 4.94491C26.3305 4.79588 26.3314 4.64694 26.3325 4.49792C26.3324 4.40335 26.3322 4.30877 26.3318 4.2142C26.3324 4.14731 26.3324 4.14731 26.3329 4.07907C26.3337 3.84701 26.3337 3.84701 26.2364 3.64323C26.102 3.5448 26.0233 3.54526 25.8574 3.5451C25.8004 3.54462 25.7435 3.54414 25.6848 3.54364C25.5907 3.54418 25.5907 3.54418 25.4948 3.54474C25.4283 3.54443 25.3618 3.54413 25.2932 3.54381C25.0692 3.54299 24.8452 3.54342 24.6212 3.54384C24.4611 3.5436 24.3009 3.5431 24.1408 3.54261C23.7954 3.54167 23.45 3.54136 23.1046 3.54147C22.605 3.54161 22.1053 3.54067 21.6057 3.53945C20.7948 3.53749 19.9838 3.53622 19.1729 3.53548C19.1243 3.53543 19.0758 3.53539 19.0258 3.53534C18.829 3.53516 18.6323 3.53498 18.4356 3.5348C17.8941 3.5343 17.3526 3.53366 16.8111 3.53296C16.7626 3.5329 16.7142 3.53284 16.6642 3.53277C15.8564 3.53172 15.0486 3.5302 14.2409 3.52839C13.7424 3.52731 13.2439 3.52667 12.7454 3.52661C12.4039 3.52654 12.0625 3.52608 11.721 3.5253C11.5239 3.52486 11.3267 3.52469 11.1296 3.5249C10.9161 3.52509 10.7026 3.52459 10.4891 3.5239C10.3952 3.52425 10.3952 3.52424 10.2994 3.5246C10.2138 3.52411 10.2138 3.52411 10.1264 3.52361C10.0771 3.52357 10.0278 3.52353 9.97701 3.52349C9.82898 3.50717 9.73492 3.47082 9.60928 3.39183C9.51993 3.21348 9.53688 3.06187 9.55069 2.86552C9.63906 2.74664 9.69117 2.69711 9.83772 2.66791C9.88001 2.6678 9.92231 2.66769 9.96589 2.66758C10.0148 2.66702 10.0637 2.66647 10.1142 2.6659C10.1679 2.66618 10.2216 2.66647 10.277 2.66676C10.3341 2.66637 10.3912 2.66598 10.45 2.66558C10.6422 2.66449 10.8344 2.66465 11.0266 2.66479C11.164 2.66427 11.3014 2.66366 11.4388 2.66299C11.8126 2.66137 12.1864 2.66083 12.5603 2.66048C12.9111 2.65999 13.262 2.65869 13.6128 2.6574C14.3078 2.65487 15.0028 2.65312 15.6978 2.65186C16.373 2.65063 17.0482 2.64903 17.7234 2.64695C17.7858 2.64675 17.7858 2.64675 17.8494 2.64656C18.0582 2.64591 18.2669 2.64525 18.4756 2.6446C20.2077 2.63914 21.9397 2.63501 23.6718 2.6316C23.5558 2.05265 23.4398 1.4737 23.3202 0.877212C17.8481 0.877212 12.3761 0.877212 6.73819 0.877212ZM5.44913 6.95908C5.5458 7.65382 5.64248 8.34856 5.74209 9.06435C11.8522 9.06435 17.9624 9.06435 24.2577 9.06435C24.4574 8.01571 24.4574 8.01571 24.5507 6.95908C18.2472 6.95908 11.9437 6.95908 5.44913 6.95908ZM5.27334 10C5.27117 10.3832 5.27117 10.3832 5.30596 10.7549C5.31323 10.807 5.32051 10.8592 5.32801 10.9129C5.33613 10.9687 5.34426 11.0245 5.35264 11.082C5.36117 11.1424 5.3697 11.2028 5.37849 11.2651C5.40705 11.4668 5.43608 11.6684 5.46512 11.8701C5.48574 12.0149 5.50633 12.1598 5.52689 12.3047C5.57696 12.6569 5.62734 13.009 5.67788 13.3611C5.71894 13.6472 5.75988 13.9333 5.80073 14.2195C5.80946 14.2807 5.80946 14.2807 5.81836 14.343C5.83019 14.4259 5.84201 14.5087 5.85384 14.5915C5.96462 15.3674 6.07582 16.1433 6.18715 16.9191C6.28902 17.6291 6.3904 18.3391 6.49155 19.0491C6.59545 19.7785 6.69966 20.5078 6.8042 21.237C6.81602 21.3195 6.82784 21.4019 6.83965 21.4844C6.84547 21.5249 6.85128 21.5655 6.85727 21.6073C6.89823 21.8932 6.939 22.1791 6.97968 22.4651C7.03441 22.8497 7.08957 23.2343 7.14502 23.6188C7.16534 23.7601 7.18551 23.9015 7.20554 24.0428C7.23283 24.2354 7.26062 24.4278 7.28855 24.6202C7.29641 24.6766 7.30428 24.7329 7.31238 24.791C7.31996 24.8425 7.32755 24.894 7.33536 24.9471C7.3449 25.0137 7.3449 25.0137 7.35464 25.0817C7.38491 25.2143 7.43438 25.3198 7.49991 25.4386C7.54529 25.4388 7.59067 25.4389 7.63743 25.439C8.74114 25.4425 9.84484 25.4469 10.9485 25.4524C11.4823 25.455 12.016 25.4573 12.5498 25.4589C13.0149 25.4602 13.4801 25.4622 13.9452 25.4649C14.1915 25.4663 14.4379 25.4674 14.6842 25.4677C14.916 25.4681 15.1478 25.4692 15.3796 25.471C15.4648 25.4715 15.5499 25.4718 15.635 25.4717C15.7512 25.4716 15.8673 25.4726 15.9835 25.4738C16.0485 25.474 16.1135 25.4743 16.1805 25.4746C16.3669 25.4997 16.4481 25.5428 16.5819 25.6725C16.611 25.7858 16.611 25.7858 16.6076 25.9065C16.6075 25.9662 16.6075 25.9662 16.6073 26.0271C16.5738 26.1768 16.5279 26.2224 16.4062 26.3158C16.2573 26.3383 16.2573 26.3383 16.0758 26.3391C16.007 26.3399 15.9383 26.3406 15.8674 26.3413C15.7919 26.3413 15.7164 26.3412 15.6386 26.3411C15.5583 26.3416 15.478 26.3422 15.3978 26.3429C15.1797 26.3445 14.9617 26.3451 14.7437 26.3454C14.5159 26.346 14.2881 26.3475 14.0603 26.3489C13.6289 26.3515 13.1975 26.3531 12.7661 26.3545C12.2749 26.3561 11.7838 26.3586 11.2927 26.3613C10.2823 26.3667 9.27198 26.3709 8.26163 26.3743C8.27056 26.5041 8.2796 26.6339 8.28868 26.7637C8.2937 26.836 8.29872 26.9082 8.30389 26.9827C8.32517 27.2568 8.35741 27.5278 8.39712 27.7997C8.40328 27.8479 8.40943 27.8961 8.41578 27.9457C8.46871 28.31 8.54555 28.6889 8.85122 28.923C9.07268 29.0296 9.26937 29.0304 9.51 29.0285C9.55881 29.0289 9.60762 29.0292 9.65792 29.0295C9.82138 29.0303 9.98482 29.0299 10.1483 29.0295C10.2655 29.0298 10.3828 29.0302 10.5 29.0307C10.8184 29.0318 11.1368 29.0317 11.4552 29.0314C11.7209 29.0312 11.9866 29.0315 12.2524 29.0319C12.8793 29.0327 13.5062 29.0326 14.1331 29.032C14.7799 29.0313 15.4268 29.0321 16.0736 29.0337C16.6289 29.035 17.1842 29.0354 17.7395 29.035C18.0712 29.0348 18.4029 29.035 18.7346 29.036C19.0465 29.0369 19.3583 29.0366 19.6702 29.0355C19.7847 29.0353 19.8992 29.0355 20.0136 29.0361C20.1699 29.0369 20.3261 29.0362 20.4824 29.0352C20.5277 29.0357 20.5729 29.0363 20.6196 29.0369C20.9225 29.0328 21.0954 28.9641 21.328 28.7719C21.4995 28.5103 21.546 28.2441 21.5851 27.9391C21.5913 27.8941 21.5976 27.8492 21.604 27.8029C21.6237 27.6606 21.6425 27.5182 21.6613 27.3757C21.6745 27.2787 21.6879 27.1817 21.7012 27.0847C21.7337 26.848 21.7655 26.6112 21.7968 26.3743C21.7502 26.3737 21.7036 26.3731 21.6556 26.3725C21.2168 26.3667 20.7779 26.3607 20.3391 26.3544C20.1135 26.3512 19.8878 26.3481 19.6622 26.3452C19.4445 26.3424 19.2268 26.3394 19.0091 26.3361C18.926 26.3349 18.8429 26.3338 18.7598 26.3328C18.6436 26.3314 18.5273 26.3296 18.411 26.3278C18.3116 26.3265 18.3116 26.3265 18.2103 26.3251C18.0468 26.3158 18.0468 26.3158 17.871 26.2573C17.8264 26.0049 17.803 25.8044 17.871 25.5556C18.0919 25.4856 18.3114 25.487 18.5408 25.4851C18.5842 25.4845 18.6277 25.4839 18.6725 25.4833C18.8158 25.4815 18.9591 25.48 19.1024 25.4786C19.2019 25.4774 19.3014 25.4762 19.4009 25.4749C19.6625 25.4717 19.9241 25.4688 20.1858 25.466C20.4528 25.463 20.7199 25.4598 20.987 25.4565C21.5108 25.4503 22.0347 25.4444 22.5585 25.4386C22.7055 24.6472 22.8237 23.8528 22.9371 23.056C22.9568 22.9189 22.9764 22.7818 22.9961 22.6448C23.049 22.2755 23.1017 21.9061 23.1544 21.5368C23.1873 21.3058 23.2203 21.0747 23.2534 20.8437C23.3627 20.0785 23.4719 19.3134 23.581 18.5481C23.5868 18.5071 23.5927 18.466 23.5987 18.4237C23.6046 18.3826 23.6104 18.3415 23.6164 18.2991C23.7117 17.6311 23.8072 16.9631 23.9029 16.2951C24.0014 15.6073 24.0996 14.9195 24.1977 14.2316C24.2526 13.8462 24.3076 13.4607 24.3629 13.0753C24.4148 12.7135 24.4664 12.3516 24.5177 11.9897C24.5366 11.857 24.5556 11.7243 24.5747 11.5917C24.6008 11.4105 24.6264 11.2293 24.652 11.048C24.6597 10.9957 24.6673 10.9433 24.6751 10.8894C24.682 10.8404 24.6888 10.7914 24.6958 10.7409C24.7018 10.6992 24.7078 10.6574 24.7139 10.6144C24.7314 10.4103 24.7265 10.2049 24.7265 10C18.3069 10 11.8874 10 5.27334 10Z" fill="#C9A581"/>
<path d="M17.2267 13.3333C17.284 13.3569 17.3413 13.3804 17.4004 13.4046C18.0441 13.6962 18.517 14.1258 18.8673 14.7368C18.8894 14.7726 18.9116 14.8083 18.9344 14.8451C19.3934 15.6516 19.3731 16.7053 19.1584 17.5811C18.8837 18.533 18.4514 19.3017 17.754 20C17.6789 20.0754 17.6789 20.0754 17.6023 20.1524C17.5557 20.1986 17.5091 20.2448 17.4611 20.2924C17.428 20.3253 17.3949 20.3581 17.3608 20.392C16.3966 21.2865 15.1254 21.7218 13.8194 21.6931C12.9065 21.6425 12.128 21.2569 11.4991 20.6031C10.8593 19.8551 10.646 18.9286 10.7101 17.9589C10.8394 16.7056 11.4364 15.6294 12.3048 14.7368C12.337 14.7011 12.3692 14.6654 12.4023 14.6286C13.5167 13.4287 15.6564 12.6692 17.2267 13.3333ZM12.715 15.6725C12.0534 16.5384 11.5336 17.5327 11.6603 18.655C11.7313 19.0675 11.8393 19.4161 12.0704 19.7661C13.3718 19.1633 14.5543 17.9548 15.0587 16.6301C15.2049 16.2471 15.3854 15.9321 15.6446 15.614C15.6824 15.5662 15.7202 15.5183 15.7591 15.469C16.0697 15.0987 16.4227 14.8323 16.82 14.5632C16.9903 14.4534 16.9903 14.4534 17.1095 14.3275C17.0466 14.2997 16.9838 14.272 16.9191 14.2434C16.8837 14.2278 16.8484 14.2122 16.8119 14.1961C15.349 13.6234 13.6475 14.5951 12.715 15.6725ZM16.5357 15.9485C16.1743 16.3213 15.9727 16.704 15.7948 17.1857C15.2603 18.631 14.0566 19.5498 12.8321 20.4094C13.2153 20.6643 13.6196 20.7333 14.0736 20.7273C14.122 20.7269 14.1703 20.7264 14.2201 20.7259C15.4311 20.693 16.4163 20.0329 17.2363 19.1861C17.9488 18.3796 18.398 17.3438 18.359 16.2594C18.31 15.8016 18.179 15.4152 17.9298 15.0292C17.4674 15.0292 16.8603 15.6428 16.5357 15.9485Z" fill="#C9A581"/>
</g>
<defs>
<clipPath id="clip0_146_177">
<rect width="30" height="30" fill="white"/>
</clipPath>
</defs>
</svg>
