<svg width="26" height="26" viewBox="0 0 26 26" fill="none" xmlns="http://www.w3.org/2000/svg">
<g clip-path="url(#clip0_582_20)">
<path d="M13.3543 21.8021H6.00645C4.48729 21.8021 3.25102 20.6173 3.25102 19.1615V4.19792C3.25102 2.74205 4.48729 1.55729 6.00645 1.55729H17.0282C18.5474 1.55729 19.7836 2.74205 19.7836 4.19792V8.65177C19.7836 9.13765 20.1942 9.53198 20.7021 9.53198C21.21 9.53198 21.6206 9.13765 21.6206 8.65177V4.19792C21.6206 1.77118 19.5604 -0.203125 17.0282 -0.203125H6.00645C3.47421 -0.203125 1.41406 1.77118 1.41406 4.19792V19.1615C1.41406 21.5882 3.47421 23.5625 6.00645 23.5625H13.3543C13.8622 23.5625 14.2728 23.1682 14.2728 22.6823C14.2728 22.1964 13.8622 21.8021 13.3543 21.8021Z" fill="#C9A581"/>
<path d="M6.92238 6.83854H13.3517C13.8597 6.83854 14.2702 6.44421 14.2702 5.95833C14.2702 5.47246 13.8597 5.07812 13.3517 5.07812H6.92238C6.41447 5.07812 6.00391 5.47246 6.00391 5.95833C6.00391 6.44421 6.41447 6.83854 6.92238 6.83854Z" fill="#C9A581"/>
<path d="M15.5193 10.3607C15.5193 9.8748 15.1088 9.48047 14.6009 9.48047H6.92238C6.41447 9.48047 6.00391 9.8748 6.00391 10.3607C6.00391 10.8466 6.41447 11.2409 6.92238 11.2409H14.6009C15.1088 11.2409 15.5193 10.8466 15.5193 10.3607Z" fill="#C9A581"/>
<path d="M12.9109 13.8802C12.9109 13.3943 12.5003 13 11.9924 13H6.92238C6.41447 13 6.00391 13.3943 6.00391 13.8802C6.00391 14.3661 6.41447 14.7604 6.92238 14.7604H11.9924C12.5003 14.7604 12.9109 14.3661 12.9109 13.8802Z" fill="#C9A581"/>
<path d="M6.92238 16.5195C6.41447 16.5195 6.00391 16.9139 6.00391 17.3997C6.00391 17.8856 6.41447 18.2799 6.92238 18.2799H11.5699C12.0778 18.2799 12.4884 17.8856 12.4884 17.3997C12.4884 16.9139 12.0778 16.5195 11.5699 16.5195H6.92238Z" fill="#C9A581"/>
<path d="M25.2952 16.5195C25.2952 13.6069 22.8236 11.2383 19.7843 11.2383C16.7451 11.2383 14.2734 13.6069 14.2734 16.5195C14.2734 18.0784 14.9862 19.477 16.1104 20.4453V24.8789C16.1104 25.3665 16.3905 25.8137 16.8397 26.0443C17.2916 26.2766 17.8316 26.2511 18.2578 25.9791L19.7843 24.9968L21.3145 25.9809C21.5441 26.1279 21.8086 26.2009 22.075 26.2009C22.2982 26.2009 22.5232 26.149 22.7289 26.0434C23.1781 25.8128 23.4582 25.3656 23.4582 24.878V20.4444C24.5824 19.477 25.2952 18.0793 25.2952 16.5195ZM21.6213 24.0576L20.2968 23.2056C19.9864 23.0058 19.5832 23.0058 19.2727 23.2056L17.9483 24.0576V21.4927C18.5242 21.689 19.1405 21.8008 19.7852 21.8008C20.43 21.8008 21.0463 21.6881 21.6222 21.4927L21.6213 24.0576ZM19.7843 20.0404C17.7581 20.0404 16.1104 18.4613 16.1104 16.5195C16.1104 14.5778 17.7581 12.9987 19.7843 12.9987C21.8105 12.9987 23.4582 14.5778 23.4582 16.5195C23.4582 18.4613 21.8105 20.0404 19.7843 20.0404Z" fill="#C9A581"/>
</g>
<defs>
<clipPath id="clip0_582_20">
<rect width="26" height="26" fill="white"/>
</clipPath>
</defs>
</svg>
