<svg width="30" height="30" viewBox="0 0 30 30" fill="none" xmlns="http://www.w3.org/2000/svg">
<g clip-path="url(#clip0_398_12)">
<path d="M6.96512 12.856C10.2197 12.856 12.858 10.2177 12.858 6.96317C12.858 3.70863 10.2197 1.07031 6.96512 1.07031C3.71059 1.07031 1.07227 3.70863 1.07227 6.96317C1.07227 10.2177 3.71059 12.856 6.96512 12.856Z" stroke="#C9A581" stroke-width="2" stroke-linecap="round" stroke-linejoin="round"/>
<path d="M23.0374 12.856C26.2919 12.856 28.9302 10.2177 28.9302 6.96317C28.9302 3.70863 26.2919 1.07031 23.0374 1.07031C19.7829 1.07031 17.1445 3.70863 17.1445 6.96317C17.1445 10.2177 19.7829 12.856 23.0374 12.856Z" stroke="#C9A581" stroke-width="2" stroke-linecap="round" stroke-linejoin="round"/>
<path d="M6.96512 28.9263C10.2197 28.9263 12.858 26.288 12.858 23.0335C12.858 19.7789 10.2197 17.1406 6.96512 17.1406C3.71059 17.1406 1.07227 19.7789 1.07227 23.0335C1.07227 26.288 3.71059 28.9263 6.96512 28.9263Z" stroke="#C9A581" stroke-width="2" stroke-linecap="round" stroke-linejoin="round"/>
<path d="M23.0374 28.9263C26.2919 28.9263 28.9302 26.288 28.9302 23.0335C28.9302 19.7789 26.2919 17.1406 23.0374 17.1406C19.7829 17.1406 17.1445 19.7789 17.1445 23.0335C17.1445 26.288 19.7829 28.9263 23.0374 28.9263Z" stroke="#C9A581" stroke-width="2" stroke-linecap="round" stroke-linejoin="round"/>
</g>
<defs>
<clipPath id="clip0_398_12">
<rect width="30" height="30" fill="white"/>
</clipPath>
</defs>
</svg>
