<svg width="50" height="50" viewBox="0 0 50 50" fill="none" xmlns="http://www.w3.org/2000/svg">
<path d="M14.051 1.83027C14.8986 2.3357 15.3151 2.97899 15.6242 3.90623C15.6242 4.67966 15.6242 5.4531 15.6242 6.24998C17.6867 6.24998 19.7492 6.24998 21.8742 6.24998C21.8742 5.47654 21.8742 4.7031 21.8742 3.90623C22.2915 2.8629 22.6383 2.24548 23.632 1.75779C24.4441 1.4309 25.4971 1.41646 26.3236 1.72117C27.061 2.07498 27.5686 2.58624 27.9289 3.32029C28.1242 3.90623 28.1242 3.90623 28.1242 6.24998C30.1867 6.24998 32.2492 6.24998 34.3742 6.24998C34.3742 5.47654 34.3742 4.7031 34.3742 3.90623C34.7915 2.8629 35.1383 2.24548 36.132 1.75779C36.9441 1.4309 37.9971 1.41646 38.8236 1.72117C39.6553 2.12027 40.1587 2.71738 40.5321 3.5507C40.6671 4.07206 40.6446 4.57873 40.6364 5.11472C40.6355 5.22386 40.6346 5.33301 40.6337 5.44546C40.6314 5.71365 40.6282 5.9818 40.6242 6.24998C40.6817 6.24911 40.7393 6.24824 40.7986 6.24735C41.4023 6.23865 42.0059 6.23279 42.6096 6.22852C42.8344 6.22656 43.0591 6.22391 43.2839 6.22051C43.6085 6.21572 43.933 6.21354 44.2577 6.21183C44.3568 6.20981 44.4559 6.2078 44.5581 6.20572C45.6641 6.20538 46.5611 6.55923 47.3625 7.32419C48.5049 8.52094 48.4938 9.81233 48.4872 11.3742C48.4878 11.5864 48.4884 11.7985 48.4893 12.0107C48.4911 12.5843 48.4904 13.1578 48.4891 13.7314C48.4882 14.3322 48.4891 14.933 48.4897 15.5338C48.4904 16.5418 48.4895 17.5497 48.4876 18.5577C48.4855 19.7236 48.4862 20.8895 48.4883 22.0554C48.4901 23.0569 48.4903 24.0585 48.4893 25.06C48.4887 25.658 48.4886 26.256 48.4899 26.854C48.491 27.4155 48.4903 27.977 48.488 28.5385C48.4875 28.7447 48.4876 28.951 48.4885 29.1573C48.4896 29.4383 48.4882 29.7193 48.4863 30.0003C48.4876 30.1234 48.4876 30.1234 48.4889 30.2491C48.4841 30.6072 48.4701 30.8153 48.2505 31.1051C48.0292 31.2619 47.9237 31.303 47.6554 31.2988C47.5587 31.3003 47.5587 31.3003 47.4601 31.3019C47.2648 31.25 47.2648 31.25 46.8742 30.8594C46.8742 26.3476 46.8742 21.8359 46.8742 17.1875C32.4367 17.1875 17.9992 17.1875 3.12418 17.1875C3.13626 21.1654 3.14835 25.1434 3.1608 29.2419C3.16412 30.4983 3.16744 31.7547 3.17086 33.0492C3.17476 34.1747 3.17476 34.1747 3.17891 35.3002C3.18075 35.8018 3.18207 36.3033 3.18303 36.8049C3.18426 37.4448 3.18648 38.0847 3.18934 38.7246C3.19023 38.9594 3.19079 39.1942 3.191 39.429C3.19132 39.7464 3.19283 40.0637 3.19464 40.3811C3.19445 40.4727 3.19426 40.5644 3.19407 40.6588C3.20159 41.5472 3.28628 42.3539 3.94624 43.0084C4.66928 43.6478 5.46169 43.667 6.38105 43.6651C6.4722 43.6654 6.56335 43.6656 6.65726 43.6658C6.96223 43.6664 7.26719 43.6663 7.57216 43.6662C7.79098 43.6665 8.00979 43.6668 8.22861 43.6672C8.69955 43.668 9.1705 43.6685 9.64144 43.6688C10.3857 43.6694 11.13 43.671 11.8743 43.6728C12.1291 43.6734 12.3839 43.6741 12.6387 43.6747C12.7663 43.675 12.8938 43.6753 13.0253 43.6756C13.6847 43.6772 14.3441 43.6786 15.0036 43.68C15.0697 43.6801 15.1359 43.6802 15.204 43.6804C16.2773 43.6825 17.3505 43.6836 18.4238 43.6843C19.526 43.6851 20.6282 43.6874 21.7304 43.6909C22.3492 43.6929 22.9679 43.6941 23.5867 43.6936C24.1681 43.6931 24.7495 43.6945 25.331 43.6972C25.5447 43.6979 25.7584 43.6979 25.9721 43.6972C26.2632 43.6963 26.5541 43.6978 26.8452 43.7C26.9303 43.6991 27.0154 43.6983 27.1031 43.6975C27.674 43.7052 27.674 43.7052 27.9811 43.9362C28.1359 44.1574 28.1772 44.2641 28.173 44.5312C28.174 44.5957 28.175 44.6601 28.1761 44.7265C28.0964 45.0265 27.9835 45.1259 27.7336 45.3125C27.428 45.3717 27.1256 45.3651 26.8152 45.3621C26.7211 45.3627 26.627 45.3633 26.53 45.3639C26.2139 45.3655 25.8978 45.3642 25.5817 45.363C25.3553 45.3635 25.129 45.3642 24.9026 45.3651C24.287 45.3669 23.6714 45.3662 23.0558 45.3649C22.4768 45.3641 21.8978 45.3647 21.3188 45.3653C20.1014 45.3664 18.8839 45.3651 17.6665 45.363C16.6233 45.3613 15.5802 45.3616 14.537 45.3634C13.325 45.3655 12.1129 45.3663 10.9008 45.3651C10.2595 45.3645 9.61824 45.3644 8.97693 45.3657C8.37327 45.3668 7.76964 45.3661 7.16599 45.3638C6.94487 45.3633 6.72375 45.3634 6.50263 45.3643C4.99569 45.3696 3.7823 45.3326 2.6359 44.2383C1.70242 43.2604 1.50285 42.2285 1.51207 40.9101C1.51162 40.7738 1.511 40.6375 1.51023 40.5011C1.50861 40.1293 1.5094 39.7575 1.51061 39.3856C1.5115 38.9835 1.51013 38.5815 1.50906 38.1794C1.50732 37.3928 1.50769 36.6062 1.50883 35.8196C1.50971 35.1801 1.50983 34.5406 1.50941 33.9011C1.50935 33.8099 1.50929 33.7188 1.50922 33.6248C1.5091 33.4396 1.50897 33.2544 1.50884 33.0693C1.50773 31.3342 1.50901 29.5992 1.51111 27.8642C1.51286 26.3767 1.51255 24.8893 1.51075 23.4018C1.50866 21.6728 1.50784 19.9439 1.50904 18.2149C1.50916 18.0304 1.50928 17.8459 1.50941 17.6614C1.50947 17.5706 1.50953 17.4798 1.50959 17.3863C1.50993 16.7479 1.50936 16.1094 1.50844 15.471C1.50734 14.6925 1.50764 13.914 1.50972 13.1356C1.51074 12.7387 1.51115 12.3418 1.50986 11.9449C1.50869 11.5811 1.50934 11.2173 1.51141 10.8534C1.51205 10.6606 1.51078 10.4677 1.50943 10.2749C1.5197 9.10153 1.81785 8.18112 2.6359 7.32419C3.53773 6.46328 4.51442 6.18689 5.74068 6.21183C5.84537 6.21238 5.95006 6.21293 6.05793 6.2135C6.38824 6.21567 6.71845 6.22057 7.04874 6.22556C7.27438 6.22752 7.50002 6.22931 7.72566 6.2309C8.2752 6.23518 8.82468 6.2417 9.37418 6.24998C9.37111 6.15115 9.37111 6.15115 9.36798 6.05032C9.35977 5.74661 9.35475 5.44292 9.34976 5.13914C9.34649 5.03553 9.34322 4.93193 9.33984 4.82519C9.32832 3.88567 9.53128 3.09493 10.1844 2.39561C11.2193 1.46518 12.786 1.22324 14.051 1.83027ZM11.425 3.61326C11.0285 4.11681 10.9262 4.53015 10.9209 5.15926C10.92 5.25023 10.9191 5.34121 10.9181 5.43494C10.9177 5.53219 10.9173 5.62945 10.9168 5.72965C10.9163 5.83092 10.9157 5.93219 10.9152 6.03653C10.9142 6.2506 10.9136 6.46467 10.9132 6.67875C10.9123 7.00429 10.9092 7.32978 10.9062 7.65531C10.9055 7.86385 10.905 8.07238 10.9046 8.28092C10.9034 8.37739 10.9022 8.47385 10.901 8.57324C10.903 9.20498 10.9292 9.91782 11.3715 10.4125C11.835 10.8085 12.1472 10.8746 12.7395 10.8669C13.107 10.8268 13.3017 10.695 13.5734 10.4492C13.9698 9.94564 14.0721 9.5323 14.0774 8.90319C14.0784 8.81222 14.0793 8.72125 14.0803 8.62752C14.0809 8.48163 14.0809 8.48163 14.0815 8.3328C14.0821 8.23153 14.0826 8.13026 14.0832 8.02593C14.0841 7.81185 14.0848 7.59778 14.0851 7.3837C14.0861 7.05816 14.0891 6.73267 14.0922 6.40714C14.0928 6.1986 14.0933 5.99007 14.0937 5.78153C14.0949 5.68507 14.0961 5.5886 14.0974 5.48921C14.0954 4.85747 14.0692 4.14463 13.6269 3.64996C13.1634 3.25395 12.8511 3.18787 12.2589 3.19555C11.8913 3.23569 11.6966 3.36744 11.425 3.61326ZM23.925 3.61326C23.5285 4.11681 23.4262 4.53015 23.4209 5.15926C23.42 5.25023 23.4191 5.34121 23.4181 5.43494C23.4177 5.53219 23.4173 5.62945 23.4168 5.72965C23.4163 5.83092 23.4157 5.93219 23.4152 6.03653C23.4142 6.2506 23.4136 6.46467 23.4132 6.67875C23.4123 7.00429 23.4092 7.32978 23.4062 7.65531C23.4055 7.86385 23.405 8.07238 23.4046 8.28092C23.4034 8.37739 23.4022 8.47385 23.401 8.57324C23.403 9.20498 23.4292 9.91782 23.8715 10.4125C24.335 10.8085 24.6472 10.8746 25.2395 10.8669C25.607 10.8268 25.8017 10.695 26.0734 10.4492C26.4698 9.94564 26.5721 9.5323 26.5774 8.90319C26.5784 8.81222 26.5793 8.72125 26.5803 8.62752C26.5809 8.48163 26.5809 8.48163 26.5815 8.3328C26.5821 8.23153 26.5826 8.13026 26.5832 8.02593C26.5841 7.81185 26.5848 7.59778 26.5851 7.3837C26.5861 7.05816 26.5891 6.73267 26.5922 6.40714C26.5928 6.1986 26.5933 5.99007 26.5937 5.78153C26.5949 5.68507 26.5961 5.5886 26.5974 5.48921C26.5954 4.85747 26.5692 4.14463 26.1269 3.64996C25.6634 3.25395 25.3511 3.18787 24.7589 3.19555C24.3913 3.23569 24.1966 3.36744 23.925 3.61326ZM36.425 3.61326C36.0285 4.11681 35.9262 4.53015 35.9209 5.15926C35.92 5.25023 35.9191 5.34121 35.9181 5.43494C35.9177 5.53219 35.9173 5.62945 35.9168 5.72965C35.9163 5.83092 35.9157 5.93219 35.9152 6.03653C35.9142 6.2506 35.9136 6.46467 35.9132 6.67875C35.9123 7.00429 35.9092 7.32978 35.9062 7.65531C35.9055 7.86385 35.905 8.07238 35.9046 8.28092C35.9034 8.37739 35.9022 8.47385 35.901 8.57324C35.903 9.20498 35.9292 9.91782 36.3715 10.4125C36.835 10.8085 37.1472 10.8746 37.7395 10.8669C38.107 10.8268 38.3017 10.695 38.5734 10.4492C38.9698 9.94564 39.0721 9.5323 39.0774 8.90319C39.0784 8.81222 39.0793 8.72125 39.0803 8.62752C39.0809 8.48163 39.0809 8.48163 39.0815 8.3328C39.0821 8.23153 39.0826 8.13026 39.0832 8.02593C39.0841 7.81185 39.0848 7.59778 39.0851 7.3837C39.0861 7.05816 39.0891 6.73267 39.0922 6.40714C39.0928 6.1986 39.0933 5.99007 39.0937 5.78153C39.0949 5.68507 39.0961 5.5886 39.0974 5.48921C39.0954 4.85747 39.0692 4.14463 38.6269 3.64996C38.1634 3.25395 37.8511 3.18787 37.2589 3.19555C36.8913 3.23569 36.6966 3.36744 36.425 3.61326ZM3.6857 8.73411C2.3109 10.4212 3.12418 14.5849 3.12418 15.625C17.5617 15.625 31.9992 15.625 46.8742 15.625C47.2631 12.4946 47.2631 12.4946 46.2882 8.69138C45.5645 7.97277 44.8747 7.80132 43.8685 7.80141C43.7448 7.80217 43.7448 7.80217 43.6187 7.80294C43.4899 7.80315 43.4899 7.80315 43.3585 7.80336C43.0859 7.8039 42.8133 7.80513 42.5407 7.80637C42.3552 7.80686 42.1696 7.80731 41.9841 7.80771C41.5308 7.80878 41.0775 7.81046 40.6242 7.81248C40.6228 7.9113 40.6228 7.9113 40.6214 8.01213C40.6161 8.31592 40.608 8.61958 40.5998 8.92332C40.5984 9.02692 40.597 9.13052 40.5956 9.23726C40.566 10.2 40.3496 11.0327 39.6476 11.7187C38.7452 12.3894 37.8156 12.5164 36.7179 12.4023C35.9239 12.2145 35.3359 11.8222 34.8869 11.1389C34.2405 10.0895 34.4282 9.11014 34.3742 7.81248C32.3117 7.81248 30.2492 7.81248 28.1242 7.81248C28.092 8.58591 28.0597 9.35935 28.0265 10.1562C27.6224 11.1666 27.3207 11.7307 26.3664 12.207C25.5508 12.536 24.4966 12.5483 23.6686 12.2375C22.9689 11.9012 22.5145 11.4381 22.1671 10.7422C21.9718 10.1562 21.9718 10.1562 21.8742 7.81248C19.8117 7.81248 17.7492 7.81248 15.6242 7.81248C15.592 8.58591 15.5597 9.35935 15.5265 10.1562C15.1224 11.1666 14.8207 11.7307 13.8664 12.207C13.0508 12.536 11.9966 12.5483 11.1686 12.2375C10.3743 11.8557 9.91426 11.2986 9.55957 10.4999C9.42847 9.98634 9.42573 9.47589 9.4108 8.94773C9.40702 8.83859 9.40324 8.72944 9.39935 8.61699C9.39019 8.34884 9.38182 8.08068 9.37418 7.81248C8.83396 7.80762 8.29376 7.80409 7.75353 7.80175C7.57007 7.80077 7.38661 7.79944 7.20316 7.79774C6.93819 7.79535 6.67323 7.79426 6.40825 7.7934C6.32734 7.79239 6.24643 7.79139 6.16307 7.79035C5.15712 7.79016 4.38152 7.96283 3.6857 8.73411Z" fill="#C9A581"/>
<path d="M44.3002 29.9641C46.4655 31.6204 47.887 33.8431 48.3964 36.5303C48.5692 38.1555 48.5547 39.8433 48.0466 41.4063C48.016 41.501 48.016 41.501 47.9847 41.5977C47.4701 43.1282 46.634 44.3678 45.5075 45.5078C45.4447 45.5777 45.3819 45.6476 45.3172 45.7196C43.8737 47.2883 41.4727 48.34 39.3539 48.4533C35.9783 48.498 33.3729 47.7901 30.9079 45.4041C28.89 43.383 28.097 40.7852 28.0938 37.9791C28.1041 36.9921 28.2102 36.0947 28.5153 35.1563C28.5459 35.0615 28.5459 35.0615 28.5772 34.9649C29.0918 33.4343 29.9279 32.1947 31.0544 31.0547C31.1172 30.9848 31.18 30.915 31.2447 30.843C34.5339 27.2685 40.5098 27.3305 44.3002 29.9641ZM32.5192 31.9336C32.4463 31.9967 32.3735 32.0598 32.2984 32.1247C30.8083 33.5153 29.8451 35.5943 29.7479 37.6202C29.676 40.236 30.4033 42.3131 32.1347 44.2707C33.6446 45.8628 35.8537 46.7978 38.0353 46.8815C40.3506 46.8378 42.4164 46.0977 44.1403 44.5313C44.202 44.4775 44.2637 44.4238 44.3272 44.3684C45.7934 43.0127 46.7093 40.9257 46.8175 38.9527C46.8995 36.4429 46.2498 34.2877 44.5309 32.4219C44.4773 32.3605 44.4237 32.299 44.3684 32.2357C42.9469 30.6952 40.7379 29.8021 38.6693 29.6906C36.3382 29.6661 34.2752 30.4085 32.5192 31.9336Z" fill="#C9A581"/>
<path d="M43.7493 34.7656C43.9934 34.9121 43.9934 34.9121 44.1399 35.1562C44.2085 35.5307 44.2469 35.7755 44.0332 36.099C43.3947 36.8002 42.7216 37.4676 42.0506 38.1374C41.9141 38.274 41.7776 38.4106 41.6411 38.5472C41.3565 38.8319 41.0718 39.1165 40.7869 39.4009C40.4213 39.7659 40.0561 40.1314 39.6911 40.497C39.41 40.7785 39.1287 41.0596 38.8474 41.3407C38.7125 41.4755 38.5778 41.6103 38.4431 41.7453C38.2557 41.9329 38.0679 42.1203 37.88 42.3076C37.8243 42.3636 37.7685 42.4195 37.7111 42.4772C37.3785 42.808 37.2249 42.9527 36.7546 43.0176C35.8167 42.9938 34.9107 41.6644 34.2826 41.0343C34.0858 40.8371 33.8886 40.6403 33.6912 40.4436C33.566 40.3183 33.4408 40.193 33.3157 40.0677C33.2567 40.0089 33.1977 39.9501 33.1369 39.8895C32.626 39.3756 32.626 39.3756 32.5859 38.8794C32.5917 38.5908 32.61 38.4872 32.7629 38.2324C33.0389 38.0668 33.2591 38.0123 33.5819 38.0307C34.372 38.242 35.0857 39.2745 35.6438 39.8376C35.739 39.9333 35.8343 40.029 35.9295 40.1247C36.16 40.3563 36.3903 40.5882 36.6204 40.8203C37.0196 40.662 37.2858 40.3757 37.5811 40.0755C37.6371 40.0194 37.693 39.9633 37.7507 39.9056C37.9351 39.7205 38.1189 39.5347 38.3026 39.349C38.4307 39.2203 38.5589 39.0916 38.6871 38.963C39.0243 38.6245 39.3609 38.2855 39.6973 37.9464C40.2365 37.403 40.7763 36.8603 41.3164 36.3179C41.5052 36.1281 41.6937 35.938 41.8821 35.7478C41.9974 35.6319 42.1126 35.516 42.2278 35.4002C42.2804 35.3469 42.3329 35.2937 42.3871 35.2389C42.8239 34.8007 43.1245 34.6804 43.7493 34.7656Z" fill="#C9A581"/>
<path d="M19.1402 35.1044C19.2334 35.104 19.3265 35.1036 19.4225 35.1033C19.6188 35.103 19.8152 35.1037 20.0115 35.1053C20.3111 35.1074 20.6106 35.1054 20.9102 35.1029C21.1015 35.1031 21.2927 35.1036 21.484 35.1044C21.6177 35.1032 21.6177 35.1032 21.754 35.102C22.2965 35.1099 22.6259 35.1717 23.0465 35.5469C23.4289 35.9935 23.4952 36.3673 23.489 36.9385C23.4895 37.0522 23.4895 37.0522 23.4901 37.1682C23.4904 37.3278 23.4897 37.4873 23.488 37.6469C23.4859 37.89 23.488 38.1328 23.4905 38.3759C23.4902 38.5315 23.4897 38.6872 23.489 38.8428C23.4898 38.9148 23.4906 38.9869 23.4914 39.0611C23.4823 39.5653 23.3735 39.8525 23.0465 40.2344C22.5492 40.678 22.1188 40.6825 21.484 40.6769C21.3442 40.6775 21.3442 40.6775 21.2017 40.678C21.0053 40.6783 20.809 40.6776 20.6127 40.6759C20.313 40.6739 20.0136 40.6759 19.7139 40.6784C19.5227 40.6782 19.3315 40.6777 19.1402 40.6769C19.0065 40.6781 19.0065 40.6781 18.8701 40.6793C18.3276 40.6713 17.9983 40.6096 17.5777 40.2344C17.1952 39.7878 17.1289 39.414 17.1352 38.8428C17.1348 38.767 17.1345 38.6912 17.1341 38.613C17.1338 38.4535 17.1345 38.2939 17.1362 38.1344C17.1383 37.8913 17.1362 37.6485 17.1337 37.4054C17.1339 37.2498 17.1344 37.0941 17.1352 36.9385C17.1344 36.8665 17.1336 36.7944 17.1328 36.7202C17.1419 36.216 17.2506 35.9288 17.5777 35.5469C18.075 35.1033 18.5054 35.0988 19.1402 35.1044ZM18.7496 36.7188C18.7496 37.4922 18.7496 38.2656 18.7496 39.0625C19.7808 39.0625 20.8121 39.0625 21.8746 39.0625C21.8746 38.2891 21.8746 37.5156 21.8746 36.7188C20.8433 36.7188 19.8121 36.7188 18.7496 36.7188Z" fill="#C9A581"/>
<path d="M9.76521 35.1044C9.85837 35.104 9.95152 35.1036 10.0475 35.1033C10.2438 35.103 10.4402 35.1037 10.6365 35.1053C10.9361 35.1074 11.2356 35.1054 11.5352 35.1029C11.7265 35.1031 11.9177 35.1036 12.109 35.1044C12.2427 35.1032 12.2427 35.1032 12.379 35.102C12.9215 35.1099 13.2509 35.1717 13.6715 35.5469C14.0539 35.9935 14.1202 36.3673 14.114 36.9385C14.1145 37.0522 14.1145 37.0522 14.1151 37.1682C14.1154 37.3278 14.1147 37.4873 14.113 37.6469C14.1109 37.89 14.113 38.1328 14.1155 38.3759C14.1152 38.5315 14.1147 38.6872 14.114 38.8428C14.1148 38.9148 14.1156 38.9869 14.1164 39.0611C14.1073 39.5653 13.9985 39.8525 13.6715 40.2344C13.1742 40.678 12.7438 40.6825 12.109 40.6769C11.9692 40.6775 11.9692 40.6775 11.8267 40.678C11.6303 40.6783 11.434 40.6776 11.2377 40.6759C10.938 40.6739 10.6386 40.6759 10.3389 40.6784C10.1477 40.6782 9.95646 40.6777 9.76521 40.6769C9.63152 40.6781 9.63152 40.6781 9.49513 40.6793C8.95264 40.6713 8.62328 40.6096 8.20271 40.2344C7.82025 39.7878 7.75394 39.414 7.76021 38.8428C7.75983 38.767 7.75946 38.6912 7.75908 38.613C7.75881 38.4535 7.75952 38.2939 7.76116 38.1344C7.76325 37.8913 7.76118 37.6485 7.75868 37.4054C7.75894 37.2498 7.75944 37.0941 7.76021 36.9385C7.75942 36.8665 7.75863 36.7944 7.75781 36.7202C7.76688 36.216 7.87564 35.9288 8.20271 35.5469C8.7 35.1033 9.13042 35.0988 9.76521 35.1044ZM9.37459 36.7188C9.37459 37.4922 9.37459 38.2656 9.37459 39.0625C10.4058 39.0625 11.4371 39.0625 12.4996 39.0625C12.4996 38.2891 12.4996 37.5156 12.4996 36.7188C11.4683 36.7188 10.4371 36.7188 9.37459 36.7188Z" fill="#C9A581"/>
<path d="M19.1402 28.0731C19.2334 28.0728 19.3265 28.0724 19.4225 28.072C19.6188 28.0717 19.8152 28.0725 20.0115 28.0741C20.3111 28.0762 20.6106 28.0741 20.9102 28.0716C21.1015 28.0719 21.2927 28.0724 21.484 28.0731C21.6177 28.0719 21.6177 28.0719 21.754 28.0707C22.2965 28.0787 22.6259 28.1404 23.0465 28.5156C23.4289 28.9622 23.4952 29.336 23.489 29.9072C23.4895 30.021 23.4895 30.021 23.4901 30.137C23.4904 30.2965 23.4897 30.4561 23.488 30.6156C23.4859 30.8587 23.488 31.1015 23.4905 31.3446C23.4902 31.5003 23.4897 31.6559 23.489 31.8115C23.4898 31.8836 23.4906 31.9556 23.4914 32.0298C23.4823 32.5341 23.3735 32.8212 23.0465 33.2031C22.5492 33.6468 22.1188 33.6513 21.484 33.6456C21.3442 33.6462 21.3442 33.6462 21.2017 33.6468C21.0053 33.647 20.809 33.6463 20.6127 33.6447C20.313 33.6426 20.0136 33.6447 19.7139 33.6472C19.5227 33.6469 19.3315 33.6464 19.1402 33.6456C19.0065 33.6468 19.0065 33.6468 18.8701 33.648C18.3276 33.6401 17.9983 33.5783 17.5777 33.2031C17.1952 32.7566 17.1289 32.3828 17.1352 31.8115C17.1348 31.7357 17.1345 31.6599 17.1341 31.5818C17.1338 31.4222 17.1345 31.2627 17.1362 31.1031C17.1383 30.8601 17.1362 30.6172 17.1337 30.3742C17.1339 30.2185 17.1344 30.0629 17.1352 29.9072C17.1344 29.8352 17.1336 29.7632 17.1328 29.6889C17.1419 29.1847 17.2506 28.8975 17.5777 28.5156C18.075 28.072 18.5054 28.0675 19.1402 28.0731ZM18.7496 29.6875C18.7496 30.461 18.7496 31.2344 18.7496 32.0313C19.7808 32.0313 20.8121 32.0313 21.8746 32.0313C21.8746 31.2578 21.8746 30.4844 21.8746 29.6875C20.8433 29.6875 19.8121 29.6875 18.7496 29.6875Z" fill="#C9A581"/>
<path d="M9.76521 28.0731C9.85837 28.0728 9.95152 28.0724 10.0475 28.072C10.2438 28.0717 10.4402 28.0725 10.6365 28.0741C10.9361 28.0762 11.2356 28.0741 11.5352 28.0716C11.7265 28.0719 11.9177 28.0724 12.109 28.0731C12.2427 28.0719 12.2427 28.0719 12.379 28.0707C12.9215 28.0787 13.2509 28.1404 13.6715 28.5156C14.0539 28.9622 14.1202 29.336 14.114 29.9072C14.1145 30.021 14.1145 30.021 14.1151 30.137C14.1154 30.2965 14.1147 30.4561 14.113 30.6156C14.1109 30.8587 14.113 31.1015 14.1155 31.3446C14.1152 31.5003 14.1147 31.6559 14.114 31.8115C14.1148 31.8836 14.1156 31.9556 14.1164 32.0298C14.1073 32.5341 13.9985 32.8212 13.6715 33.2031C13.1742 33.6468 12.7438 33.6513 12.109 33.6456C11.9692 33.6462 11.9692 33.6462 11.8267 33.6468C11.6303 33.647 11.434 33.6463 11.2377 33.6447C10.938 33.6426 10.6386 33.6447 10.3389 33.6472C10.1477 33.6469 9.95646 33.6464 9.76521 33.6456C9.63152 33.6468 9.63152 33.6468 9.49513 33.648C8.95264 33.6401 8.62328 33.5783 8.20271 33.2031C7.82025 32.7566 7.75394 32.3828 7.76021 31.8115C7.75983 31.7357 7.75946 31.6599 7.75908 31.5818C7.75881 31.4222 7.75952 31.2627 7.76116 31.1031C7.76325 30.8601 7.76118 30.6172 7.75868 30.3742C7.75894 30.2185 7.75944 30.0629 7.76021 29.9072C7.75942 29.8352 7.75863 29.7632 7.75781 29.6889C7.76688 29.1847 7.87564 28.8975 8.20271 28.5156C8.7 28.072 9.13042 28.0675 9.76521 28.0731ZM9.37459 29.6875C9.37459 30.461 9.37459 31.2344 9.37459 32.0313C10.4058 32.0313 11.4371 32.0313 12.4996 32.0313C12.4996 31.2578 12.4996 30.4844 12.4996 29.6875C11.4683 29.6875 10.4371 29.6875 9.37459 29.6875Z" fill="#C9A581"/>
<path d="M37.8902 21.0419C37.9834 21.0415 38.0765 21.0411 38.1725 21.0408C38.3688 21.0405 38.5652 21.0412 38.7615 21.0428C39.0611 21.0449 39.3606 21.0429 39.6602 21.0404C39.8515 21.0406 40.0427 21.0411 40.234 21.0419C40.3677 21.0407 40.3677 21.0407 40.504 21.0395C41.0465 21.0474 41.3759 21.1092 41.7965 21.4844C42.1789 21.931 42.2452 22.3048 42.239 22.876C42.2395 22.9897 42.2395 22.9897 42.2401 23.1057C42.2404 23.2653 42.2397 23.4248 42.238 23.5844C42.2359 23.8275 42.238 24.0703 42.2405 24.3134C42.2402 24.469 42.2397 24.6247 42.239 24.7803C42.2398 24.8523 42.2406 24.9244 42.2414 24.9986C42.2323 25.5028 42.1235 25.79 41.7965 26.1719C41.2992 26.6155 40.8688 26.62 40.234 26.6144C40.0942 26.615 40.0942 26.615 39.9517 26.6155C39.7553 26.6158 39.559 26.6151 39.3627 26.6134C39.063 26.6114 38.7636 26.6134 38.4639 26.6159C38.2727 26.6157 38.0815 26.6152 37.8902 26.6144C37.7565 26.6156 37.7565 26.6156 37.6201 26.6168C37.0776 26.6088 36.7483 26.5471 36.3277 26.1719C35.9452 25.7253 35.8789 25.3515 35.8852 24.7803C35.8848 24.7045 35.8845 24.6287 35.8841 24.5505C35.8838 24.391 35.8845 24.2314 35.8862 24.0719C35.8883 23.8288 35.8862 23.586 35.8837 23.3429C35.8839 23.1873 35.8844 23.0316 35.8852 22.876C35.8844 22.804 35.8836 22.7319 35.8828 22.6577C35.8919 22.1535 36.0006 21.8663 36.3277 21.4844C36.825 21.0408 37.2554 21.0363 37.8902 21.0419ZM37.4996 22.6563C37.4996 23.4297 37.4996 24.2031 37.4996 25C38.5308 25 39.5621 25 40.6246 25C40.6246 24.2266 40.6246 23.4531 40.6246 22.6563C39.5933 22.6563 38.5621 22.6563 37.4996 22.6563Z" fill="#C9A581"/>
<path d="M28.5152 21.0419C28.6084 21.0415 28.7015 21.0411 28.7975 21.0408C28.9938 21.0405 29.1902 21.0412 29.3865 21.0428C29.6861 21.0449 29.9856 21.0429 30.2852 21.0404C30.4765 21.0406 30.6677 21.0411 30.859 21.0419C30.9927 21.0407 30.9927 21.0407 31.129 21.0395C31.6715 21.0474 32.0009 21.1092 32.4215 21.4844C32.8039 21.931 32.8702 22.3048 32.864 22.876C32.8645 22.9897 32.8645 22.9897 32.8651 23.1057C32.8654 23.2653 32.8647 23.4248 32.863 23.5844C32.8609 23.8275 32.863 24.0703 32.8655 24.3134C32.8652 24.469 32.8647 24.6247 32.864 24.7803C32.8648 24.8523 32.8656 24.9244 32.8664 24.9986C32.8573 25.5028 32.7485 25.79 32.4215 26.1719C31.9242 26.6155 31.4938 26.62 30.859 26.6144C30.7192 26.615 30.7192 26.615 30.5767 26.6155C30.3803 26.6158 30.184 26.6151 29.9877 26.6134C29.688 26.6114 29.3886 26.6134 29.0889 26.6159C28.8977 26.6157 28.7065 26.6152 28.5152 26.6144C28.3815 26.6156 28.3815 26.6156 28.2451 26.6168C27.7026 26.6088 27.3733 26.5471 26.9527 26.1719C26.5702 25.7253 26.5039 25.3515 26.5102 24.7803C26.5098 24.7045 26.5095 24.6287 26.5091 24.5505C26.5088 24.391 26.5095 24.2314 26.5112 24.0719C26.5133 23.8288 26.5112 23.586 26.5087 23.3429C26.5089 23.1873 26.5094 23.0316 26.5102 22.876C26.5094 22.804 26.5086 22.7319 26.5078 22.6577C26.5169 22.1535 26.6256 21.8663 26.9527 21.4844C27.45 21.0408 27.8804 21.0363 28.5152 21.0419ZM28.1246 22.6563C28.1246 23.4297 28.1246 24.2031 28.1246 25C29.1558 25 30.1871 25 31.2496 25C31.2496 24.2266 31.2496 23.4531 31.2496 22.6563C30.2183 22.6563 29.1871 22.6563 28.1246 22.6563Z" fill="#C9A581"/>
<path d="M19.1402 21.0419C19.2334 21.0415 19.3265 21.0411 19.4225 21.0408C19.6188 21.0405 19.8152 21.0412 20.0115 21.0428C20.3111 21.0449 20.6106 21.0429 20.9102 21.0404C21.1015 21.0406 21.2927 21.0411 21.484 21.0419C21.6177 21.0407 21.6177 21.0407 21.754 21.0395C22.2965 21.0474 22.6259 21.1092 23.0465 21.4844C23.4289 21.931 23.4952 22.3048 23.489 22.876C23.4895 22.9897 23.4895 22.9897 23.4901 23.1057C23.4904 23.2653 23.4897 23.4248 23.488 23.5844C23.4859 23.8275 23.488 24.0703 23.4905 24.3134C23.4902 24.469 23.4897 24.6247 23.489 24.7803C23.4898 24.8523 23.4906 24.9244 23.4914 24.9986C23.4823 25.5028 23.3735 25.79 23.0465 26.1719C22.5492 26.6155 22.1188 26.62 21.484 26.6144C21.3442 26.615 21.3442 26.615 21.2017 26.6155C21.0053 26.6158 20.809 26.6151 20.6127 26.6134C20.313 26.6114 20.0136 26.6134 19.7139 26.6159C19.5227 26.6157 19.3315 26.6152 19.1402 26.6144C19.0065 26.6156 19.0065 26.6156 18.8701 26.6168C18.3276 26.6088 17.9983 26.5471 17.5777 26.1719C17.1952 25.7253 17.1289 25.3515 17.1352 24.7803C17.1348 24.7045 17.1345 24.6287 17.1341 24.5505C17.1338 24.391 17.1345 24.2314 17.1362 24.0719C17.1383 23.8288 17.1362 23.586 17.1337 23.3429C17.1339 23.1873 17.1344 23.0316 17.1352 22.876C17.1344 22.804 17.1336 22.7319 17.1328 22.6577C17.1419 22.1535 17.2506 21.8663 17.5777 21.4844C18.075 21.0408 18.5054 21.0363 19.1402 21.0419ZM18.7496 22.6563C18.7496 23.4297 18.7496 24.2031 18.7496 25C19.7808 25 20.8121 25 21.8746 25C21.8746 24.2266 21.8746 23.4531 21.8746 22.6563C20.8433 22.6563 19.8121 22.6563 18.7496 22.6563Z" fill="#C9A581"/>
<path d="M9.76521 21.0419C9.85837 21.0415 9.95152 21.0411 10.0475 21.0408C10.2438 21.0405 10.4402 21.0412 10.6365 21.0428C10.9361 21.0449 11.2356 21.0429 11.5352 21.0404C11.7265 21.0406 11.9177 21.0411 12.109 21.0419C12.2427 21.0407 12.2427 21.0407 12.379 21.0395C12.9215 21.0474 13.2509 21.1092 13.6715 21.4844C14.0539 21.931 14.1202 22.3048 14.114 22.876C14.1145 22.9897 14.1145 22.9897 14.1151 23.1057C14.1154 23.2653 14.1147 23.4248 14.113 23.5844C14.1109 23.8275 14.113 24.0703 14.1155 24.3134C14.1152 24.469 14.1147 24.6247 14.114 24.7803C14.1148 24.8523 14.1156 24.9244 14.1164 24.9986C14.1073 25.5028 13.9985 25.79 13.6715 26.1719C13.1742 26.6155 12.7438 26.62 12.109 26.6144C11.9692 26.615 11.9692 26.615 11.8267 26.6155C11.6303 26.6158 11.434 26.6151 11.2377 26.6134C10.938 26.6114 10.6386 26.6134 10.3389 26.6159C10.1477 26.6157 9.95646 26.6152 9.76521 26.6144C9.63152 26.6156 9.63152 26.6156 9.49513 26.6168C8.95264 26.6088 8.62328 26.5471 8.20271 26.1719C7.82025 25.7253 7.75394 25.3515 7.76021 24.7803C7.75983 24.7045 7.75946 24.6287 7.75908 24.5505C7.75881 24.391 7.75952 24.2314 7.76116 24.0719C7.76325 23.8288 7.76118 23.586 7.75868 23.3429C7.75894 23.1873 7.75944 23.0316 7.76021 22.876C7.75942 22.804 7.75863 22.7319 7.75781 22.6577C7.76688 22.1535 7.87564 21.8663 8.20271 21.4844C8.7 21.0408 9.13042 21.0363 9.76521 21.0419ZM9.37459 22.6563C9.37459 23.4297 9.37459 24.2031 9.37459 25C10.4058 25 11.4371 25 12.4996 25C12.4996 24.2266 12.4996 23.4531 12.4996 22.6563C11.4683 22.6563 10.4371 22.6563 9.37459 22.6563Z" fill="#C9A581"/>
<path d="M28.4794 28.0731C28.5686 28.0728 28.6579 28.0724 28.7499 28.072C28.9379 28.0717 29.1258 28.0725 29.3138 28.0741C29.6014 28.0762 29.8889 28.0741 30.1765 28.0716C30.3595 28.0719 30.5425 28.0724 30.7254 28.0731C30.8113 28.0723 30.8972 28.0716 30.9856 28.0707C31.5798 28.0799 31.5798 28.0799 31.8895 28.3114C32.0424 28.5323 32.0838 28.6402 32.0797 28.9063C32.0807 28.9707 32.0817 29.0352 32.0827 29.1016C32.0043 29.397 31.883 29.5018 31.6402 29.6875C31.358 29.7216 31.1142 29.7332 30.833 29.7257C30.7555 29.7251 30.6781 29.7246 30.5982 29.724C30.3514 29.7218 30.1048 29.7169 29.858 29.7119C29.6904 29.71 29.5228 29.7082 29.3552 29.7066C28.9449 29.7026 28.5349 29.695 28.1246 29.6875C28.1246 30.461 28.1246 31.2344 28.1246 32.0313C28.3179 32.0635 28.5113 32.0957 28.7105 32.1289C28.9515 32.4904 28.9699 32.7839 28.9058 33.2031C28.7716 33.4473 28.7716 33.4473 28.5152 33.5938C28.0299 33.6735 27.6538 33.6492 27.2091 33.4351C26.8091 33.0732 26.5839 32.781 26.5115 32.2373C26.509 32.0954 26.5087 31.9534 26.5102 31.8115C26.5098 31.7357 26.5095 31.6599 26.5091 31.5818C26.5088 31.4222 26.5095 31.2627 26.5112 31.1031C26.5133 30.8601 26.5112 30.6172 26.5087 30.3742C26.5089 30.2185 26.5094 30.0629 26.5102 29.9072C26.5094 29.8352 26.5086 29.7632 26.5078 29.6889C26.5169 29.1847 26.6256 28.8975 26.9527 28.5156C27.4433 28.0817 27.8548 28.0674 28.4794 28.0731Z" fill="#C9A581"/>
</svg>
