<svg width="30" height="30" viewBox="0 0 30 30" fill="none" xmlns="http://www.w3.org/2000/svg">
<path d="M5.15625 19.2188C5.15625 19.0944 5.10686 18.9752 5.01896 18.8873C4.93105 18.7994 4.81182 18.75 4.6875 18.75H3.98438C3.54925 18.75 3.13195 18.9229 2.82428 19.2305C2.5166 19.5382 2.34375 19.9555 2.34375 20.3906C2.34375 20.8257 2.5166 21.243 2.82428 21.5507C3.13195 21.8584 3.54925 22.0312 3.98438 22.0312H5.09625C5.17129 22.0313 5.24523 22.0133 5.31188 21.9788C5.37852 21.9443 5.43591 21.8944 5.47922 21.8331C5.52253 21.7718 5.55051 21.701 5.56078 21.6267C5.57106 21.5524 5.56334 21.4767 5.53828 21.4059C5.28711 20.704 5.1579 19.9643 5.15625 19.2188ZM3.98438 21.0938C3.79789 21.0938 3.61905 21.0197 3.48719 20.8878C3.35533 20.7559 3.28125 20.5771 3.28125 20.3906C3.28125 20.2041 3.35533 20.0253 3.48719 19.8934C3.61905 19.7616 3.79789 19.6875 3.98438 19.6875H4.23375C4.26474 20.1625 4.34118 20.6334 4.46203 21.0938H3.98438Z" fill="#C9A581"/>
<path d="M28.5938 25.7813H21.9328C23.8811 24.9521 25.5683 23.6105 26.8152 21.8992C28.062 20.1879 28.822 18.1707 29.0141 16.062C29.2063 13.9534 28.8236 11.8321 27.9066 9.92353C26.9897 8.01499 25.5728 6.39054 23.8065 5.22283C22.0402 4.05511 19.9905 3.38777 17.8753 3.29173C15.7601 3.19568 13.6584 3.67452 11.7935 4.67735C9.9287 5.68018 8.3704 7.16954 7.28425 8.98712C6.19811 10.8047 5.62471 12.8826 5.625 15C5.62744 15.4702 5.65875 15.9399 5.71875 16.4063H5.09531C4.99841 16.4066 4.90402 16.437 4.82511 16.4933C4.7462 16.5495 4.68666 16.6288 4.65469 16.7203C4.58438 16.9172 4.52344 17.1234 4.46719 17.3438H3.98438C3.17629 17.3438 2.40131 17.6648 1.82991 18.2362C1.25851 18.8076 0.9375 19.5825 0.9375 20.3906C0.9375 21.1987 1.25851 21.9737 1.82991 22.5451C2.40131 23.1165 3.17629 23.4375 3.98438 23.4375H5.52656C6.18768 24.4072 7.06556 25.2097 8.09063 25.7813H1.40625C1.28193 25.7813 1.1627 25.8306 1.07479 25.9185C0.986886 26.0065 0.9375 26.1257 0.9375 26.25V27.6563C0.938613 28.0289 1.08713 28.3859 1.35061 28.6494C1.61409 28.9129 1.97113 29.0614 2.34375 29.0625H27.6562C28.0289 29.0614 28.3859 28.9129 28.6494 28.6494C28.9129 28.3859 29.0614 28.0289 29.0625 27.6563V26.25C29.0625 26.1257 29.0131 26.0065 28.9252 25.9185C28.8373 25.8306 28.7181 25.7813 28.5938 25.7813ZM17.3438 4.21875C20.2031 4.21875 22.9454 5.35463 24.9672 7.37651C26.9891 9.39839 28.125 12.1406 28.125 15C28.125 17.8594 26.9891 20.6016 24.9672 22.6235C22.9454 24.6454 20.2031 25.7813 17.3438 25.7813C16.7546 25.781 16.1666 25.7308 15.5859 25.6313C16.2818 25.214 16.9041 24.6851 17.4281 24.0656C18.2109 24.0281 18.8203 23.4609 19.3594 22.9547C19.6413 22.6551 19.9688 22.402 20.3297 22.2047C20.7413 22.0807 21.1703 22.0237 21.6 22.0359C22.35 22.0078 23.2031 21.975 23.7609 21.4172C24.3187 20.8594 24.3516 20.0063 24.3797 19.2563C24.3675 18.8265 24.4244 18.3976 24.5484 17.9859C24.7458 17.625 24.9989 17.2975 25.2984 17.0156C25.8234 16.4578 26.4188 15.825 26.4188 15C26.4188 14.175 25.8234 13.5422 25.2984 12.9844C24.9989 12.7025 24.7458 12.375 24.5484 12.0141C24.4244 11.6024 24.3675 11.1735 24.3797 10.7438C24.3516 9.99375 24.3187 9.14063 23.7609 8.58282C23.2031 8.025 22.35 7.99219 21.6 7.96407C21.1703 7.9763 20.7413 7.91932 20.3297 7.79532C19.9688 7.598 19.6413 7.34488 19.3594 7.04532C18.8016 6.52032 18.1688 5.925 17.3438 5.925C16.5188 5.925 15.8859 6.52032 15.3281 7.04532C15.0462 7.34488 14.7187 7.598 14.3578 7.79532C13.9462 7.91932 13.5172 7.9763 13.0875 7.96407C12.3375 7.99219 11.4844 8.025 10.9266 8.58282C10.3687 9.14063 10.3359 9.99375 10.3078 10.7438C10.32 11.1735 10.2631 11.6024 10.1391 12.0141C9.94175 12.375 9.68862 12.7025 9.38906 12.9844C8.86406 13.5422 8.26875 14.175 8.26875 15C8.29549 15.5215 8.5007 16.018 8.85 16.4063H6.66563C6.59995 15.9403 6.5655 15.4705 6.5625 15C6.5661 12.1417 7.70313 9.40158 9.72423 7.38048C11.7453 5.35939 14.4855 4.22235 17.3438 4.21875ZM12.8812 16.4063H10.1016L10.0734 16.3781C9.62813 15.9 9.20625 15.4547 9.20625 15C9.20625 14.5453 9.62813 14.1 10.0734 13.6266C10.4541 13.2655 10.7682 12.8402 11.0016 12.3703C11.1761 11.8592 11.2586 11.3212 11.2453 10.7813C11.2688 10.1438 11.2922 9.54375 11.5922 9.24375C11.8922 8.94375 12.4875 8.925 13.125 8.90157C13.6649 8.91485 14.2029 8.83232 14.7141 8.65782C15.184 8.42448 15.6092 8.11032 15.9703 7.72969C16.4437 7.28438 16.8938 6.8625 17.3438 6.8625C17.7938 6.8625 18.2437 7.28438 18.7172 7.72969C19.0783 8.11032 19.5035 8.42448 19.9734 8.65782C20.4846 8.83232 21.0226 8.91485 21.5625 8.90157C22.2 8.925 22.8 8.94844 23.0953 9.24844C23.3906 9.54844 23.4187 10.1438 23.4422 10.7813C23.4289 11.3212 23.5114 11.8592 23.6859 12.3703C23.9193 12.8402 24.2334 13.2655 24.6141 13.6266C25.0594 14.1 25.4813 14.55 25.4813 15C25.4813 15.45 25.0594 15.9 24.6141 16.3734C24.2334 16.7345 23.9193 17.1598 23.6859 17.6297C23.5114 18.1408 23.4289 18.6788 23.4422 19.2188C23.4187 19.8563 23.3953 20.4563 23.0953 20.7563C22.7953 21.0563 22.2 21.075 21.5625 21.0984C21.0226 21.0852 20.4846 21.1677 19.9734 21.3422C19.5035 21.5755 19.0783 21.8897 18.7172 22.2703C18.6234 22.3594 18.5297 22.4484 18.4359 22.5328C18.9388 21.5265 19.2049 20.4186 19.2141 19.2938C19.9894 18.9564 20.659 18.4156 21.152 17.7287C21.645 17.0418 21.943 16.2343 22.0145 15.3918C22.0859 14.5493 21.9282 13.7032 21.558 12.9431C21.1878 12.1829 20.6188 11.537 19.9115 11.0739C19.2041 10.6107 18.3846 10.3475 17.5398 10.3122C16.6951 10.2768 15.8565 10.4706 15.1128 10.873C14.3692 11.2754 13.7483 11.8714 13.3158 12.598C12.8833 13.3245 12.6554 14.1545 12.6562 15C12.6581 15.4776 12.734 15.9519 12.8812 16.4063ZM17.3438 11.25C18.1746 11.2513 18.9815 11.5286 19.6377 12.0382C20.2939 12.5477 20.7623 13.2608 20.9694 14.0654C21.1764 14.8701 21.1104 15.7207 20.7817 16.4837C20.4529 17.2468 19.8801 17.879 19.1531 18.2813C19.0849 17.7494 18.9607 17.2262 18.7828 16.7203C18.7508 16.6288 18.6913 16.5495 18.6124 16.4933C18.5335 16.437 18.4391 16.4066 18.3422 16.4063H13.875C13.6907 15.9603 13.5951 15.4826 13.5938 15C13.5951 14.0059 13.9906 13.0528 14.6936 12.3499C15.3966 11.6469 16.3496 11.2514 17.3438 11.25ZM6.17344 22.7156C6.1308 22.6499 6.0725 22.5958 6.00378 22.5581C5.93505 22.5205 5.85804 22.5005 5.77969 22.5H3.98438C3.42493 22.5 2.88841 22.2778 2.49282 21.8822C2.09724 21.4866 1.875 20.9501 1.875 20.3906C1.875 19.8312 2.09724 19.2947 2.49282 18.8991C2.88841 18.5035 3.42493 18.2813 3.98438 18.2813H4.8375C4.94584 18.2824 5.05114 18.2454 5.13508 18.1769C5.21901 18.1084 5.27626 18.0126 5.29688 17.9063C5.33906 17.7047 5.38594 17.5172 5.4375 17.3438H18C18.1856 17.9515 18.2804 18.5833 18.2812 19.2188C18.2824 20.6414 17.8208 22.0259 16.9662 23.1633C16.1116 24.3006 14.9102 25.1292 13.5434 25.5239C12.1766 25.9187 10.7184 25.8582 9.38902 25.3516C8.05959 24.8451 6.93096 23.9199 6.17344 22.7156ZM28.125 27.6563C28.125 27.7806 28.0756 27.8998 27.9877 27.9877C27.8998 28.0756 27.7806 28.125 27.6562 28.125H2.34375C2.21943 28.125 2.1002 28.0756 2.01229 27.9877C1.92439 27.8998 1.875 27.7806 1.875 27.6563V26.7188H28.125V27.6563Z" fill="#C9A581"/>
</svg>
