<svg width="50" height="50" viewBox="0 0 50 50" fill="none" xmlns="http://www.w3.org/2000/svg">
<g clip-path="url(#clip0_149_417)">
<path d="M23.9489 -0.0232232C24.0245 -0.0241752 24.1001 -0.0251272 24.178 -0.026108C25.824 -0.0425649 27.4023 -0.0298678 29.0053 0.390671C29.0789 0.408956 29.1526 0.427241 29.2285 0.44608C33.3147 1.47317 37.0309 4.19842 39.2046 7.81064C39.4294 8.19609 39.6405 8.58792 39.8451 8.98442C39.8919 9.07501 39.8919 9.07501 39.9397 9.16743C40.9531 11.1603 41.6092 13.4223 41.6228 15.6666C41.6234 15.7429 41.6241 15.8192 41.6248 15.8977C41.647 19.063 41.647 19.063 41.31 20.4102C41.2911 20.4893 41.2722 20.5685 41.2527 20.65C40.2037 24.9522 37.5355 28.5917 34.8234 32.0061C34.5733 32.3211 34.3279 32.6396 34.0834 32.959C33.5196 33.6945 32.9461 34.4222 32.372 35.1496C32.2722 35.2761 32.1725 35.4025 32.0728 35.529C31.979 35.648 31.8852 35.767 31.7912 35.8858C31.6017 36.1263 31.4213 36.3662 31.2514 36.6211C31.6632 36.7476 32.0742 36.8486 32.4961 36.9362C34.5904 37.3713 36.601 37.919 38.4779 38.9649C38.5696 39.0139 38.6612 39.0628 38.7556 39.1133C39.9405 39.777 41.1252 40.8445 41.5621 42.1639C41.7576 43.2126 41.6516 44.2155 41.0868 45.1237C40.9434 45.3278 40.7899 45.5148 40.6264 45.7032C40.5416 45.8051 40.5416 45.8051 40.4551 45.9092C37.5672 49.0966 31.8587 49.7523 27.8334 50C27.4122 50.0143 26.9914 50.0182 26.57 50.0199C26.4536 50.0206 26.3373 50.0213 26.2175 50.022C25.8447 50.0237 25.4719 50.0243 25.099 50.0245C24.9081 50.0246 24.9081 50.0246 24.7133 50.0247C22.9015 50.0232 21.1294 49.9938 19.3373 49.7071C19.2257 49.6903 19.114 49.6736 18.999 49.6563C15.4838 49.1214 11.3868 48.2159 9.03456 45.3064C8.40473 44.3803 8.29071 43.4782 8.3998 42.3829C8.56073 41.6957 8.91844 41.1525 9.37636 40.625C9.46114 40.5231 9.46114 40.5231 9.54764 40.4191C11.7475 37.991 15.5955 37.2747 18.6537 36.7188C18.6537 36.3147 18.4899 36.2033 18.2265 35.9009C18.1355 35.7948 18.0447 35.6885 17.9541 35.582C17.9076 35.5274 17.8611 35.4729 17.8132 35.4166C17.5636 35.1183 17.3295 34.8082 17.0936 34.499C17.0525 34.4451 17.0115 34.3912 16.9691 34.3358C16.9263 34.2796 16.8835 34.2235 16.8394 34.1657C16.5753 33.821 16.3082 33.4786 16.0414 33.136C15.9836 33.0617 15.9258 32.9873 15.8662 32.9107C15.5739 32.5349 15.2809 32.1596 14.9866 31.7852C11.8136 27.7423 8.43126 23.0796 8.37653 17.7208C8.37557 17.6432 8.37461 17.5656 8.37363 17.4856C8.35732 15.8192 8.363 14.2197 8.79042 12.5977C8.80927 12.5194 8.82812 12.441 8.84755 12.3603C9.45166 9.86949 10.7271 7.58821 12.4037 5.66411C12.5253 5.52287 12.5253 5.52287 12.6494 5.37877C15.4119 2.23024 19.7227 0.0209064 23.9489 -0.0232232ZM14.4545 6.44536C11.5653 9.38364 10.3904 13.2692 10.4144 17.3047C10.446 19.83 11.2169 22.1111 12.4037 24.3165C12.4377 24.3805 12.4716 24.4445 12.5067 24.5105C13.9741 27.2635 16.0092 29.7175 17.9366 32.1581C18.1599 32.441 18.3823 32.7244 18.6049 33.0079C18.8744 33.351 19.1439 33.694 19.414 34.0367C19.9626 34.7332 20.5076 35.4324 21.0462 36.1366C21.1526 36.2757 21.2591 36.4147 21.3656 36.5537C22.5676 38.1222 23.7452 39.7077 24.9037 41.3086C25.2799 41.1832 25.3934 40.9641 25.6056 40.6495C26.0408 40.022 26.4962 39.4123 26.9606 38.8062C27.0968 38.6283 27.233 38.4504 27.3691 38.2725C27.4329 38.1892 27.4968 38.1059 27.5625 38.02C27.7728 37.7444 27.9804 37.4669 28.1874 37.1888C28.7152 36.4826 29.2594 35.7892 29.8018 35.0942C30.0384 34.7908 30.2744 34.4869 30.5105 34.183C30.9675 33.5948 31.4254 33.0073 31.8861 32.4219C32.0178 32.2544 32.1495 32.0869 32.2811 31.9193C32.3808 31.7924 32.4805 31.6655 32.5803 31.5387C35.3246 28.0455 38.1498 24.3976 39.2592 20.0196C39.2767 19.9523 39.2942 19.8851 39.3122 19.8158C40.1851 16.2949 39.4487 12.2385 37.6078 9.15561C37.0923 8.32678 36.5106 7.56571 35.842 6.85391C35.6459 6.64067 35.6459 6.64067 35.4464 6.3889C33.5213 4.0066 29.9465 2.4494 26.98 2.08096C26.8749 2.07102 26.7698 2.06107 26.6615 2.05083C26.5997 2.04442 26.5378 2.03802 26.4741 2.03142C21.9649 1.58595 17.6525 3.29066 14.4545 6.44536ZM11.2318 41.6993C10.6799 42.2731 10.4115 42.5975 10.4243 43.406C10.4639 43.7772 10.5973 43.9579 10.8412 44.2383C10.889 44.2971 10.9369 44.3559 10.9862 44.4165C13.4573 47.1992 18.8189 47.6962 22.267 47.9493C27.2642 48.2274 34.6162 48.3062 38.6427 44.7571C39.1286 44.2981 39.5597 43.8893 39.5949 43.2007C39.5872 42.6109 39.3681 42.3077 38.9662 41.8946C38.8846 41.809 38.8846 41.809 38.8014 41.7218C36.7417 39.7553 33.4025 39.1323 30.6982 38.7089C30.5482 38.6846 30.3987 38.6567 30.25 38.6249C30.0208 38.5758 30.0208 38.5758 29.6889 38.5743C29.446 38.7385 29.446 38.7385 29.2738 39.0076C29.1635 39.1568 29.1635 39.1568 29.051 39.309C29.0123 39.3638 28.9735 39.4187 28.9335 39.4752C28.8053 39.6551 28.6726 39.8308 28.5383 40.0063C27.948 40.7797 27.3787 41.568 26.8108 42.3579C25.6176 44.0145 25.6176 44.0145 25.281 44.0896C24.9227 44.1104 24.6338 44.127 24.3311 43.9164C24.1449 43.7084 23.9879 43.4917 23.8295 43.2618C23.7599 43.1657 23.6903 43.0697 23.6185 42.9707C23.4549 42.7447 23.2935 42.5173 23.1329 42.289C22.7634 41.7657 22.3816 41.2514 22.0004 40.7366C21.72 40.3577 21.441 39.9781 21.1664 39.5951C21.1172 39.5267 21.0679 39.4582 21.0171 39.3877C20.9246 39.2591 20.8326 39.1301 20.7411 39.0008C20.636 38.8551 20.5244 38.7141 20.4115 38.5743C17.5313 38.5743 13.377 39.7055 11.2318 41.6993Z" fill="#C9A581"/>
<path d="M29.0784 10.9684C29.4352 11.2612 29.7572 11.582 30.0774 11.914C30.1422 11.9759 30.207 12.0377 30.2738 12.1014C31.5437 13.394 31.8839 15.1782 31.8691 16.9155C31.8234 18.8419 31.0588 20.3564 29.6868 21.6797C29.6249 21.7445 29.5631 21.8093 29.4994 21.8761C28.2068 23.146 26.4226 23.4862 24.6853 23.4714C22.7589 23.4257 21.2444 22.6611 19.9211 21.289C19.8563 21.2272 19.7915 21.1654 19.7247 21.1017C18.4548 19.8091 18.1146 18.0249 18.1294 16.2876C18.1751 14.3612 18.9397 12.8467 20.3118 11.5234C20.3736 11.4586 20.4354 11.3938 20.4991 11.327C22.6898 9.17488 26.6874 9.19015 29.0784 10.9684ZM22.9485 12.207C22.8648 12.2496 22.781 12.2921 22.6948 12.336C21.7378 12.8643 21.0975 13.5813 20.6047 14.5508C20.5642 14.6274 20.5236 14.7041 20.4819 14.7831C20.0384 15.774 20.025 17.1504 20.3728 18.1763C20.4449 18.3374 20.5222 18.4963 20.6047 18.6523C20.6685 18.7779 20.6685 18.7779 20.7337 18.906C21.4094 20.1302 22.444 20.8737 23.7583 21.3131C25.0313 21.6676 26.2649 21.4284 27.4147 20.8057C28.604 20.0589 29.3573 19.0347 29.7388 17.6874C29.963 16.6707 29.8731 15.4707 29.3938 14.5508C29.3512 14.4669 29.3087 14.3831 29.2648 14.2967C28.7359 13.3401 28.0196 12.6998 27.05 12.207C26.9734 12.1665 26.8967 12.1259 26.8177 12.0842C25.6635 11.5676 24.0616 11.6185 22.9485 12.207Z" fill="#C9A581"/>
<path d="M29.3954 4.58984C32.4968 5.65596 35.0714 8.05615 36.5174 10.9775C37.2872 12.6252 37.7083 14.3657 37.745 16.1804C37.748 16.2727 37.751 16.3651 37.7541 16.4602C37.7542 16.9041 37.7433 17.1215 37.4795 17.4908C37.114 17.7398 36.8939 17.7459 36.4636 17.7235C36.1007 17.649 35.9494 17.487 35.7431 17.1875C35.6356 16.7996 35.6182 16.4012 35.5873 16.0016C35.3648 13.2114 34.3194 10.8466 32.3251 8.88671C32.2508 8.81256 32.1765 8.73842 32.1 8.66203C31.1458 7.76201 29.9497 7.17416 28.7683 6.62917C28.0867 6.30828 28.0867 6.30828 27.9306 5.95702C27.8786 5.48946 27.8597 5.28671 28.1137 4.88891C28.4984 4.51551 28.8822 4.50863 29.3954 4.58984Z" fill="#C9A581"/>
<path d="M25.5859 3.90625C25.8911 4.08935 25.8911 4.08935 26.0742 4.39453C26.1708 4.88537 26.1501 5.24464 25.8911 5.67626C25.4612 5.93419 25.0985 5.95896 24.6094 5.85937C24.276 5.62802 24.1559 5.47119 24.0234 5.09033C24.0234 4.69696 24.1309 4.44602 24.3164 4.10156C24.7324 3.82426 25.098 3.83399 25.5859 3.90625Z" fill="#C9A581"/>
</g>
<defs>
<clipPath id="clip0_149_417">
<rect width="50" height="50" fill="white"/>
</clipPath>
</defs>
</svg>
