<svg width="30" height="30" viewBox="0 0 30 30" fill="none" xmlns="http://www.w3.org/2000/svg">
<g clip-path="url(#clip0_146_163)">
<path d="M0.817055 10.2435C0.865179 10.2432 0.913303 10.2428 0.962885 10.2424C1.12253 10.2412 1.28218 10.2405 1.44183 10.24C1.49631 10.2397 1.55078 10.2395 1.6069 10.2392C1.89522 10.238 2.18353 10.2372 2.47184 10.2366C2.76976 10.236 3.06766 10.234 3.36557 10.2316C3.59453 10.2301 3.82349 10.2296 4.05246 10.2294C4.16228 10.2291 4.2721 10.2284 4.38192 10.2273C4.53566 10.2259 4.68934 10.226 4.84309 10.2264C4.88842 10.2256 4.93375 10.2249 4.98046 10.2241C5.19806 10.2262 5.32024 10.2466 5.50504 10.3655C5.70272 10.5684 5.70628 10.7262 5.70407 11.0003C5.67074 11.2123 5.55717 11.3016 5.39027 11.4258C5.18927 11.4928 5.03541 11.4914 4.8234 11.491C4.78394 11.491 4.74448 11.4911 4.70383 11.4911C4.57353 11.491 4.44323 11.4906 4.31292 11.4901C4.22253 11.49 4.13214 11.4899 4.04175 11.4899C3.80391 11.4896 3.56608 11.4891 3.32825 11.4884C3.08553 11.4878 2.84281 11.4875 2.60009 11.4872C2.1239 11.4866 1.64771 11.4856 1.17152 11.4844C1.17654 12.0377 1.18212 12.591 1.18837 13.1443C1.19126 13.4014 1.19397 13.6585 1.19624 13.9156C1.20871 15.374 1.20871 15.374 1.28299 16.8304C1.28735 16.8911 1.29172 16.9517 1.29622 17.0142C1.5041 19.5436 2.68228 21.8361 4.39418 23.6719C4.45785 23.7413 4.45785 23.7413 4.52281 23.8122C4.91898 24.2278 5.36408 24.5822 5.83204 24.9141C5.92972 24.9855 6.02483 25.0606 6.11727 25.1387C6.65568 25.5585 7.12111 25.5554 7.78071 25.5489C7.89051 25.5496 8.00031 25.5504 8.11011 25.5514C8.40649 25.5536 8.70279 25.5527 8.99917 25.5513C9.3104 25.5501 9.62161 25.5512 9.93283 25.5519C10.4553 25.5528 10.9778 25.5516 11.5003 25.5494C12.103 25.5469 12.7056 25.5477 13.3084 25.5503C13.8273 25.5524 14.3462 25.5527 14.8652 25.5515C15.1745 25.5507 15.4837 25.5506 15.793 25.5522C16.0839 25.5535 16.3748 25.5526 16.6657 25.5499C16.7719 25.5493 16.8782 25.5494 16.9845 25.5505C17.6803 25.5567 18.0865 25.4831 18.6325 25.0195C18.7023 24.9686 18.7724 24.9181 18.843 24.8682C19.2835 24.5302 19.6952 24.1718 20.0973 23.7891C20.1416 23.7485 20.186 23.708 20.2317 23.6662C22.4095 21.6074 23.3038 18.5804 23.3869 15.6713C23.4026 15.0358 23.4081 14.4002 23.4138 13.7646C23.4162 13.5064 23.4191 13.2482 23.422 12.9901C23.4276 12.4882 23.4326 11.9863 23.4371 11.4844C23.3434 11.4846 23.3434 11.4846 23.2478 11.4849C21.7279 11.4888 20.2081 11.4917 18.6882 11.4935C17.9532 11.4944 17.2182 11.4956 16.4832 11.4976C15.8427 11.4994 15.2021 11.5005 14.5616 11.5009C14.2223 11.5012 13.8831 11.5017 13.5439 11.503C13.2247 11.5042 12.9054 11.5045 12.5862 11.5043C12.469 11.5043 12.3518 11.5047 12.2346 11.5053C12.0746 11.5062 11.9146 11.506 11.7546 11.5055C11.685 11.5063 11.685 11.5063 11.614 11.5071C11.3335 11.5048 11.1405 11.4647 10.8981 11.3086C10.7411 11.0731 10.7401 10.8823 10.7809 10.6055C10.886 10.4373 10.9557 10.3423 11.1325 10.2539C11.303 10.2478 11.4722 10.2453 11.6429 10.2453C11.6963 10.2451 11.7498 10.2449 11.8049 10.2446C11.9853 10.244 12.1656 10.2438 12.3459 10.2435C12.4748 10.2432 12.6036 10.2428 12.7325 10.2424C13.0833 10.2414 13.4342 10.2407 13.785 10.2403C14.004 10.24 14.223 10.2396 14.4421 10.2392C15.0875 10.2382 15.7329 10.2373 16.3784 10.2369C16.4965 10.2368 16.6147 10.2367 16.7328 10.2366C16.7915 10.2366 16.7915 10.2366 16.8513 10.2365C17.485 10.236 18.1187 10.2346 18.7524 10.2327C19.4028 10.2307 20.0532 10.2297 20.7036 10.2295C21.0689 10.2293 21.4341 10.2288 21.7994 10.2273C22.1429 10.226 22.4864 10.2257 22.8299 10.2263C22.9562 10.2264 23.0824 10.226 23.2086 10.2252C23.3806 10.2242 23.5527 10.2246 23.7247 10.2253C23.7999 10.2244 23.7999 10.2244 23.8767 10.2234C24.1131 10.226 24.2291 10.2359 24.4336 10.3656C24.6192 10.5605 24.6161 10.6737 24.6147 10.9374C24.6146 11.0031 24.6144 11.0688 24.6142 11.1365C24.6137 11.2054 24.6132 11.2743 24.6127 11.3452C24.6124 11.4146 24.6122 11.4839 24.6119 11.5553C24.6112 11.727 24.6102 11.8987 24.609 12.0703C24.6706 12.0698 24.7323 12.0693 24.7957 12.0687C25.3768 12.064 25.9579 12.0605 26.5389 12.0582C26.8377 12.057 27.1364 12.0553 27.4351 12.0526C27.7234 12.0501 28.0118 12.0487 28.3002 12.0481C28.4101 12.0477 28.52 12.0468 28.63 12.0455C28.7841 12.0438 28.9382 12.0436 29.0924 12.0437C29.1604 12.0424 29.1604 12.0424 29.2297 12.0412C29.5338 12.0435 29.7074 12.1113 29.9411 12.3047C30.0346 12.4917 30.0088 12.6945 30.0091 12.8999C30.0094 12.9494 30.0097 12.9989 30.01 13.0499C30.0108 13.2143 30.0112 13.3787 30.0115 13.5432C30.0119 13.6578 30.0122 13.7725 30.0126 13.8871C30.0132 14.1282 30.0135 14.3693 30.0137 14.6105C30.014 14.9173 30.0154 15.224 30.0171 15.5308C30.0182 15.7682 30.0185 16.0055 30.0186 16.2428C30.0188 16.3557 30.0192 16.4687 30.02 16.5816C30.0303 18.1962 29.6103 19.6467 28.4574 20.8216C28.4056 20.8728 28.3538 20.9239 28.3004 20.9766C28.2571 21.0199 28.2137 21.0631 28.1691 21.1077C26.92 22.2858 25.3286 22.5834 23.6788 22.5659C23.581 22.5653 23.4831 22.5648 23.3852 22.5643C23.1486 22.5631 22.912 22.561 22.6754 22.5586C22.6496 22.6263 22.6496 22.6263 22.6233 22.6954C22.1834 23.751 21.0147 24.7758 20.1559 25.4883C20.225 25.4884 20.2941 25.4885 20.3652 25.4885C21.0162 25.4895 21.6671 25.492 22.318 25.496C22.6527 25.498 22.9873 25.4995 23.322 25.4997C23.6449 25.5 23.9678 25.5017 24.2908 25.5043C24.414 25.5051 24.5372 25.5053 24.6605 25.5051C24.833 25.5048 25.0055 25.5063 25.1781 25.5082C25.2546 25.5075 25.2546 25.5075 25.3326 25.5067C25.5871 25.5115 25.692 25.5238 25.9006 25.6827C26.1521 26.0274 26.0452 26.5588 25.9894 26.9662C25.7739 27.973 25.1619 28.8248 24.3286 29.4157C23.5698 29.8813 22.8655 30.0179 21.991 30.0153C21.9103 30.0155 21.8296 30.0157 21.7489 30.016C21.5284 30.0166 21.3078 30.0164 21.0872 30.0162C20.8488 30.016 20.6105 30.0166 20.3722 30.017C19.9057 30.0178 19.4392 30.0179 18.9726 30.0177C18.5933 30.0176 18.214 30.0177 17.8347 30.018C17.7536 30.018 17.7536 30.018 17.6709 30.0181C17.5611 30.0182 17.4513 30.0182 17.3415 30.0183C16.3124 30.0189 15.2833 30.0188 14.2542 30.0184C13.3135 30.0181 12.3729 30.0188 11.4322 30.0199C10.4655 30.0211 9.49878 30.0215 8.53207 30.0213C7.98967 30.0212 7.44727 30.0213 6.90487 30.0222C6.44308 30.0229 5.9813 30.023 5.51951 30.0222C5.2841 30.0219 5.0487 30.0218 4.81328 30.0225C4.59739 30.0232 4.38152 30.023 4.16562 30.0222C4.05136 30.0219 3.93709 30.0226 3.82282 30.0232C2.71215 30.0165 1.78373 29.6072 0.99574 28.8281C0.343865 28.1039 0.00336513 27.26 -0.0259883 26.294C-0.0280182 26.2537 -0.0300481 26.2135 -0.0321395 26.1721C-0.0338717 25.9573 -0.010682 25.8531 0.12223 25.6823C0.333399 25.5145 0.440398 25.5097 0.707764 25.5082C0.748383 25.5076 0.789002 25.507 0.830852 25.5064C0.964348 25.5047 1.09775 25.5051 1.23126 25.5055C1.32411 25.5047 1.41697 25.5038 1.50982 25.5028C1.75363 25.5004 1.99741 25.4998 2.24122 25.4996C2.49025 25.4991 2.73926 25.4969 2.98827 25.4948C3.47644 25.491 3.96459 25.4891 4.45277 25.4883C4.42776 25.465 4.40274 25.4417 4.37697 25.4176C4.26215 25.3106 4.14735 25.2035 4.03254 25.0964C3.9932 25.0598 3.95386 25.0231 3.91333 24.9853C1.7164 22.9359 0.11472 20.0144 -0.00633932 16.9583C-0.00914157 16.7912 -0.0102745 16.6242 -0.0107248 16.4571C-0.0111098 16.3941 -0.0114948 16.331 -0.0118915 16.2661C-0.0130388 16.0592 -0.0137287 15.8523 -0.0143154 15.6455C-0.0145542 15.5746 -0.014793 15.5036 -0.015039 15.4306C-0.0162569 15.056 -0.0170971 14.6815 -0.0176485 14.3069C-0.0182996 13.92 -0.0203197 13.5331 -0.022639 13.1462C-0.0241681 12.8485 -0.0246613 12.5507 -0.024872 12.2529C-0.0251577 12.1102 -0.0258398 11.9675 -0.026925 11.8248C-0.0283468 11.6257 -0.028299 11.4266 -0.0278909 11.2274C-0.0286415 11.1685 -0.0293921 11.1095 -0.0301654 11.0488C-0.0282428 10.7919 -0.0255573 10.6465 0.111231 10.4238C0.33371 10.2222 0.530115 10.2445 0.817055 10.2435ZM24.609 13.3008C24.609 13.6682 24.609 14.0356 24.609 14.4141C24.6874 14.4149 24.7657 14.4158 24.8464 14.4167C25.1374 14.4201 25.4284 14.4246 25.7195 14.4294C25.8453 14.4314 25.9712 14.433 26.0971 14.4344C26.2782 14.4363 26.4593 14.4394 26.6404 14.4427C26.6965 14.4431 26.7527 14.4434 26.8105 14.4438C27.0982 14.4501 27.3078 14.4565 27.5387 14.6484C27.6067 14.7843 27.6061 14.8664 27.6086 15.0178C27.6095 15.0701 27.6105 15.1224 27.6115 15.1762C27.6141 15.4184 27.6165 15.6606 27.6178 15.9028C27.6188 16.0296 27.6204 16.1563 27.6226 16.2831C27.641 17.3237 27.5747 18.147 26.8942 18.9844C26.841 19.0566 26.841 19.0566 26.7868 19.1302C26.2124 19.7957 25.3459 20.1031 24.4939 20.1762C24.2785 20.1917 24.063 20.2039 23.8473 20.2149C23.7787 20.3783 23.7104 20.5419 23.6422 20.7056C23.6227 20.7521 23.6031 20.7986 23.5829 20.8466C23.5644 20.8911 23.5459 20.9357 23.5269 20.9816C23.5097 21.0227 23.4925 21.0638 23.4748 21.1062C23.4305 21.2108 23.4305 21.2108 23.4371 21.3281C24.9604 21.3692 26.2134 21.1652 27.4071 20.1341C28.3911 19.1981 28.7982 18.0134 28.8329 16.6797C28.8345 16.4632 28.8344 16.2467 28.8335 16.0302C28.8334 15.9606 28.8334 15.891 28.8333 15.8193C28.833 15.562 28.8322 15.3048 28.8314 15.0476C28.8296 14.1829 28.8296 14.1829 28.8278 13.3008C27.4356 13.3008 26.0434 13.3008 24.609 13.3008ZM24.609 15.6445C24.6042 15.8548 24.5994 16.0651 24.5944 16.2817C24.5686 17.0772 24.4527 17.8499 24.3161 18.6328C24.2965 18.75 24.2769 18.8672 24.2575 18.9844C24.8436 18.9821 25.3279 18.8101 25.7772 18.4277C25.8171 18.3794 25.857 18.3311 25.8981 18.2813C25.9476 18.2293 25.9972 18.1773 26.0482 18.1238C26.4921 17.5792 26.4936 16.8975 26.4877 16.2305C26.4865 16.0371 26.4853 15.8438 26.484 15.6445C25.8653 15.6445 25.2465 15.6445 24.609 15.6445ZM1.28871 26.7188C1.39982 27.3854 1.75824 27.883 2.2848 28.3008C3.03215 28.7784 3.77408 28.8464 4.64734 28.843C4.7221 28.8432 4.79687 28.8434 4.8739 28.8436C5.07914 28.8441 5.28438 28.8438 5.48963 28.8435C5.71187 28.8432 5.9341 28.8436 6.15634 28.8439C6.5908 28.8444 7.02526 28.8443 7.45972 28.844C7.81303 28.8437 8.16634 28.8437 8.51965 28.8438C8.59527 28.8438 8.59527 28.8438 8.67242 28.8439C8.77485 28.8439 8.87729 28.8439 8.97973 28.844C9.93875 28.8443 10.8978 28.8439 11.8568 28.8433C12.6785 28.8428 13.5002 28.8429 14.3219 28.8434C15.2776 28.844 16.2334 28.8443 17.1891 28.8439C17.2912 28.8439 17.3932 28.8439 17.4953 28.8438C17.5706 28.8438 17.5706 28.8438 17.6474 28.8438C18 28.8437 18.3526 28.8438 18.7052 28.8441C19.1353 28.8444 19.5654 28.8443 19.9955 28.8437C20.2147 28.8434 20.4339 28.8433 20.653 28.8437C20.8912 28.8441 21.1294 28.8436 21.3676 28.843C21.4702 28.8434 21.4702 28.8434 21.5748 28.8438C22.5215 28.8393 23.3306 28.6939 24.0487 28.0335C24.3559 27.7034 24.7262 27.1827 24.7262 26.7188C16.9918 26.7188 9.25746 26.7188 1.28871 26.7188Z" fill="#C9A581"/>
<path d="M15.527 1.28906C15.8539 1.47409 15.8539 1.47409 15.9372 1.64062C15.9927 2.01589 15.9138 2.26375 15.714 2.58132C15.5279 2.88527 15.556 3.23038 15.5856 3.57421C15.6663 3.89478 15.8335 4.12558 16.0434 4.37621C16.7143 5.18009 16.901 6.06691 16.8161 7.08984C16.6805 7.85934 16.2604 8.54241 15.7028 9.08203C15.5132 9.17681 15.3218 9.17445 15.1169 9.14062C14.9223 9.04021 14.793 8.91331 14.7067 8.70849C14.7067 8.3352 14.8135 8.14521 15.051 7.86621C15.4383 7.39923 15.5519 6.95421 15.5582 6.35353C15.4776 5.83278 15.2183 5.43429 14.9118 5.01708C14.3827 4.26343 14.1989 3.61314 14.2966 2.69531C14.3894 2.20752 14.6062 1.77489 14.9411 1.40624C15.1431 1.28243 15.29 1.26061 15.527 1.28906Z" fill="#C9A581"/>
<path d="M12.3638 -6.74836e-06C12.5483 0.0884003 12.6252 0.153178 12.6995 0.344689C12.777 0.714044 12.6413 0.950154 12.4484 1.2609C12.2808 1.5487 12.2713 1.84172 12.3052 2.16796C12.4292 2.55074 12.6461 2.85839 12.8874 3.17504C13.4424 3.93129 13.6974 4.76204 13.5672 5.70304C13.4252 6.4608 13.1084 7.04377 12.5981 7.61718C12.5692 7.65049 12.5403 7.6838 12.5105 7.71812C12.3523 7.8525 12.1533 7.85781 11.9536 7.85156C11.7081 7.75337 11.5912 7.62345 11.4849 7.38281C11.4462 7.19404 11.4569 7.08113 11.5515 6.91222C11.644 6.77427 11.7402 6.6393 11.8364 6.5039C12.1697 5.99222 12.3762 5.54392 12.3052 4.92187C12.2037 4.47833 11.9943 4.14857 11.7208 3.79051C11.2144 3.11823 10.9572 2.4276 11.0161 1.58202C11.1025 1.0204 11.3062 0.510138 11.6789 0.0768975C11.9103 -0.036067 12.1115 -0.0434206 12.3638 -6.74836e-06Z" fill="#C9A581"/>
<path d="M9.02387 1.28908C9.35076 1.47411 9.35076 1.47411 9.43402 1.64064C9.47449 1.99903 9.43453 2.1929 9.25824 2.50856C9.06322 2.87312 9.01012 3.1658 9.08246 3.57423C9.2201 4.00287 9.50507 4.33457 9.77666 4.68614C10.1747 5.24532 10.3337 5.8442 10.3312 6.52223C10.3322 6.57416 10.3331 6.62609 10.3341 6.67959C10.3347 7.5677 9.90908 8.32227 9.31684 8.96486C9.12415 9.13416 8.99082 9.1712 8.72907 9.16193C8.54769 9.12846 8.44663 9.03597 8.32074 8.90627C8.22435 8.71348 8.22463 8.52791 8.26215 8.32033C8.3605 8.13077 8.48804 7.96517 8.61371 7.79298C8.67967 7.69002 8.7444 7.58626 8.8078 7.4817C8.83658 7.4348 8.86536 7.3879 8.89501 7.33957C9.111 6.93221 9.0795 6.37554 8.99205 5.93263C8.87028 5.58503 8.64943 5.31316 8.42171 5.02906C7.86252 4.32659 7.69979 3.57548 7.7934 2.69533C7.88489 2.22591 8.08652 1.7406 8.43793 1.40626C8.64245 1.28586 8.78556 1.26048 9.02387 1.28908Z" fill="#C9A581"/>
<path d="M21.3555 15.3147C21.5834 15.3712 21.6615 15.4526 21.797 15.6445C21.8376 15.8554 21.833 16.0603 21.8263 16.2744C21.8252 16.3347 21.8241 16.395 21.8229 16.4571C21.8078 16.9815 21.7462 17.4793 21.6212 17.9883C21.6096 18.0361 21.598 18.084 21.586 18.1333C21.1615 19.8309 20.3619 21.2892 19.1603 22.5586C19.12 22.6015 19.0798 22.6444 19.0383 22.6886C18.8833 22.8325 18.7847 22.8474 18.5744 22.8515C18.3253 22.7798 18.2004 22.7256 18.047 22.5146C17.9708 22.2669 17.9641 22.1629 18.047 21.914C18.162 21.7707 18.287 21.6404 18.4139 21.5076C19.7064 20.1105 20.4654 18.176 20.5383 16.2845C20.5541 15.9725 20.6038 15.7125 20.7716 15.4468C20.9683 15.3189 21.125 15.3208 21.3555 15.3147Z" fill="#C9A581"/>
<path d="M16.9339 23.0859C17.145 23.1908 17.2651 23.3238 17.3477 23.5474C17.3429 23.7878 17.2897 23.933 17.1683 24.1406C16.9686 24.2858 16.8548 24.3164 16.608 24.3164C16.358 24.2437 16.2615 24.1799 16.1136 23.9648C16.0571 23.6914 16.075 23.4993 16.2235 23.2617C16.4376 23.0601 16.6484 23.0393 16.9339 23.0859Z" fill="#C9A581"/>
<path d="M8.6135 10.2539C8.84818 10.3973 8.94561 10.4839 9.02731 10.7483C9.02304 10.9917 8.98795 11.1098 8.84787 11.3086C8.64793 11.4495 8.53252 11.4844 8.28757 11.4844C8.03754 11.4116 7.94105 11.3479 7.79318 11.1328C7.75205 10.9482 7.75042 10.7899 7.79318 10.6055C8.04015 10.2935 8.21852 10.2144 8.6135 10.2539Z" fill="#C9A581"/>
</g>
<defs>
<clipPath id="clip0_146_163">
<rect width="30" height="30" fill="white"/>
</clipPath>
</defs>
</svg>
