<svg width="30" height="30" viewBox="0 0 30 30" fill="none" xmlns="http://www.w3.org/2000/svg">
<g clip-path="url(#clip0_144_157)">
<path d="M9.08228 0.703133C9.1415 0.721501 9.1415 0.721501 9.20192 0.74024C10.3731 1.11374 11.3593 1.79583 12.2463 2.63673C12.3018 2.68839 12.3572 2.74005 12.4143 2.79328C13.6039 3.92465 14.4552 5.43259 15.0002 6.97266C15.0002 7.01134 15.0002 7.05001 15.0002 7.08985C15.0655 7.07656 15.1308 7.06326 15.198 7.04957C15.5739 7.00358 15.9482 7.10841 16.2527 7.33521C16.5939 7.70077 16.6943 8.13594 16.802 8.61329C17.433 11.2433 18.6805 13.552 20.4495 15.5859C20.4928 15.6359 20.5362 15.6859 20.5808 15.7375C21.1362 16.366 21.7242 16.9416 22.3831 17.4609C22.4452 17.5127 22.5072 17.5646 22.5691 17.6166C23.2307 18.167 23.9475 18.6328 24.6682 19.1016C24.6749 19.0237 24.6749 19.0237 24.5597 18.9279C24.5089 18.8774 24.4581 18.8269 24.4058 18.7748C24.3639 18.7331 24.3639 18.7331 24.3212 18.6905C24.2603 18.6298 24.1992 18.5691 24.1382 18.5085C24.0412 18.4123 23.9444 18.3159 23.8477 18.2194C23.6069 17.9795 23.3658 17.7398 23.1248 17.5002C22.9218 17.2983 22.719 17.0964 22.5163 16.8943C22.4215 16.7999 22.3266 16.7057 22.2317 16.6116C21.918 16.2995 21.6143 15.9826 21.3284 15.6445C21.252 15.5578 21.252 15.5578 21.1741 15.4692C20.1926 14.3338 19.3881 13.0765 18.7502 11.7188C18.7316 11.6801 18.7129 11.6414 18.6936 11.6015C18.126 10.4225 17.7633 9.17842 17.4575 7.91016C17.4458 7.86237 17.4341 7.81458 17.422 7.76533C17.08 6.35997 17.08 6.35997 17.4026 5.80079C17.64 5.43171 17.9193 5.26863 18.3401 5.15626C18.6313 5.12353 18.9188 5.12286 19.2117 5.12696C19.2516 5.12727 19.2916 5.12757 19.3327 5.12789C20.0184 5.13401 20.6669 5.20519 21.3284 5.39063C21.4368 5.41941 21.4368 5.41941 21.5474 5.44877C22.9802 5.87782 24.2665 6.68168 25.3713 7.67579C25.4321 7.72944 25.4929 7.78307 25.5538 7.83669C27.61 9.66727 29.1002 12.3849 29.4729 15.1172C29.4889 15.2314 29.4889 15.2314 29.5052 15.3479C29.5487 15.7565 29.5458 16.1679 29.5461 16.5784C29.5462 16.6215 29.5462 16.6646 29.5463 16.709C29.5453 17.3649 29.5168 17.9946 29.3557 18.6328C29.346 18.6735 29.3362 18.7141 29.3262 18.756C28.9157 20.4309 27.9534 21.8577 26.4773 22.771C24.9805 23.6644 23.1634 23.8062 21.488 23.4008C19.7247 22.9451 19.7247 22.9451 19.3655 22.511C19.3131 22.2819 19.3392 22.0652 19.4607 21.8628C19.6363 21.7574 19.7757 21.7486 19.9807 21.7383C20.1734 21.7918 20.3516 21.8726 20.5337 21.9544C22.1203 22.6248 23.769 22.7629 25.3896 22.1301C26.6958 21.5467 27.5742 20.4991 28.0923 19.1801C28.3882 18.3425 28.5105 17.5181 28.5024 16.6333C28.5023 16.5916 28.5021 16.5498 28.5019 16.5068C28.4973 15.7708 28.426 15.0695 28.2424 14.3555C28.2299 14.3058 28.2173 14.2561 28.2044 14.2049C28.0161 13.48 27.751 12.8009 27.4221 12.1289C27.4016 12.0869 27.3812 12.0448 27.3601 12.0015C26.1713 9.58839 24.0724 7.46215 21.4939 6.57739C20.7381 6.33135 20.0212 6.19092 19.2227 6.19996C19.1577 6.2 19.0927 6.20003 19.0257 6.20007C18.6491 6.19885 18.6491 6.19885 18.2815 6.26954C18.2482 6.74614 18.369 7.19382 18.4792 7.65382C18.4947 7.71909 18.4947 7.71909 18.5105 7.78568C19.2061 10.702 20.5197 13.4562 22.7062 15.556C22.8204 15.6714 22.925 15.7874 23.0301 15.9107C23.2854 16.2035 23.5599 16.475 23.8362 16.7477C23.9184 16.8293 24.0005 16.9109 24.0826 16.9925C24.2832 17.1918 24.4841 17.3907 24.6852 17.5895C24.7988 17.7018 24.9122 17.8143 25.0255 17.9269C25.1317 18.0326 25.2382 18.138 25.3449 18.2431C25.4168 18.3147 25.4168 18.3147 25.4902 18.3877C25.5324 18.4295 25.5746 18.4713 25.6181 18.5144C25.863 18.7913 25.8654 19.0364 25.8584 19.3957C25.824 19.7233 25.6973 19.8976 25.4519 20.1196C25.1947 20.2435 24.9539 20.2965 24.6682 20.2734C24.3885 20.1652 24.1492 20.0374 23.8987 19.8704C23.8662 19.8488 23.8337 19.8272 23.8003 19.805C23.6962 19.7357 23.5926 19.6659 23.489 19.596C23.4535 19.5721 23.4181 19.5483 23.3815 19.5238C22.8783 19.1857 22.3815 18.8445 21.9143 18.457C21.8828 18.431 21.8513 18.405 21.8188 18.3781C20.7553 17.495 19.7793 16.5501 18.9415 15.4487C18.8725 15.3582 18.8026 15.2683 18.7326 15.1785C17.2801 13.29 16.205 11.0407 15.7427 8.698C15.6861 8.42704 15.6402 8.26276 15.4104 8.08595C14.976 8.22684 14.8205 8.61757 14.6157 9.00147C14.2015 9.86587 14.008 10.7991 13.9636 11.7529C13.9442 11.9052 13.9113 12.0001 13.8284 12.1289C13.6086 12.2754 13.5027 12.2775 13.2424 12.2461C13.0703 12.1509 13.0703 12.1509 12.9495 11.9531C12.7744 10.751 13.2424 9.05877 13.9259 8.06077C13.9541 8.02315 13.9824 7.98554 14.0115 7.94679C14.0944 7.81994 14.1228 7.76169 14.1145 7.60941C14.0713 7.44801 14.0119 7.30188 13.9456 7.14845C13.918 7.07956 13.8904 7.01068 13.862 6.93971C13.3545 5.70003 12.6448 4.60129 11.719 3.63282C11.6798 3.58992 11.6406 3.54702 11.6002 3.50282C10.5765 2.42002 9.04144 1.5666 7.53275 1.50376C6.15353 1.48162 5.06917 1.82915 3.98462 2.69532C3.94905 2.7213 3.91347 2.74729 3.87682 2.77406C2.45776 3.86923 1.77609 5.97139 1.54772 7.67419C1.41903 8.9516 1.46715 10.2941 1.75806 11.543C1.77498 11.6178 1.77498 11.6178 1.79225 11.6942C2.06132 12.8617 2.49352 14.0334 3.13867 15.0476C3.23947 15.2093 3.28205 15.2959 3.31812 15.4871C3.26821 15.7017 3.21816 15.7957 3.04712 15.9375C2.86121 15.9836 2.70246 15.9976 2.51978 15.9375C2.23708 15.6594 2.06701 15.3168 1.88623 14.967C1.85548 14.9076 1.82473 14.8481 1.79305 14.7868C0.564879 12.3642 0.0388575 9.35749 0.644777 6.6797C0.656107 6.62857 0.667437 6.57745 0.67911 6.52477C1.00062 5.12339 1.57202 3.78817 2.51978 2.69532C2.58005 2.62338 2.58005 2.62338 2.64154 2.54998C3.43621 1.6281 4.41198 1.0066 5.56665 0.644539C5.6273 0.624599 5.68795 0.604659 5.75044 0.584114C6.80169 0.299209 8.04967 0.374623 9.08228 0.703133Z" fill="#C9A581"/>
<path d="M16.76 14.5317C17.0435 14.8197 17.1528 15.1477 17.1768 15.5479C17.1542 15.9401 17.017 16.2941 16.743 16.5784C16.4278 16.8215 16.0505 16.8808 15.6696 16.9612C14.091 17.3047 12.4762 17.8135 11.0939 18.671C10.9147 18.7743 10.8094 18.7797 10.6053 18.75C10.4247 18.6416 10.3335 18.5706 10.2574 18.3728C10.2529 18.1884 10.2802 18.0906 10.371 17.9297C11.6231 16.8293 14.3647 15.8203 16.0546 15.8203C16.0962 15.6703 16.1251 15.5652 16.0777 15.4145C15.6992 14.8516 14.718 14.5615 14.0953 14.3738C14.0367 14.356 14.0367 14.356 13.9768 14.3378C13.3121 14.1467 12.6527 14.0969 11.964 14.0991C11.9216 14.0992 11.8792 14.0993 11.8356 14.0994C9.20288 14.1127 6.71357 15.2138 4.74596 16.9336C4.70916 16.9657 4.67236 16.9978 4.63444 17.0309C4.17662 17.4346 3.76869 17.8527 3.39831 18.3398C3.35586 18.3931 3.31341 18.4463 3.26968 18.5012C1.9751 20.1589 1.32689 22.1308 1.53901 24.2381C1.7095 25.3883 2.40131 26.5543 3.31849 27.2615C3.82114 27.6315 4.33476 27.9096 4.92175 28.125C5.01057 28.1582 5.01057 28.1582 5.10119 28.192C7.40562 28.9768 9.99563 28.4421 12.1256 27.3994C12.7229 27.0978 13.28 26.7502 13.828 26.3672C14.047 26.2212 14.1546 26.2232 14.4139 26.25C14.5861 26.3379 14.5861 26.3379 14.7069 26.4844C14.7565 26.7966 14.7565 26.7966 14.7069 26.9531C13.3374 28.5293 10.554 29.3307 8.55456 29.5312C8.21301 29.5524 7.87127 29.5541 7.52917 29.5532C7.48302 29.5532 7.43687 29.5531 7.38933 29.5531C5.3572 29.5467 3.55876 28.9345 2.06896 27.5281C0.823901 26.2413 0.425369 24.6013 0.45031 22.8557C0.467879 22.3088 0.556035 21.7955 0.702995 21.2695C0.715241 21.2253 0.727486 21.1812 0.740103 21.1357C1.13122 19.7713 1.82707 18.5341 2.75378 17.4609C2.79237 17.4159 2.83097 17.3709 2.87074 17.3245C3.00484 17.1719 3.14207 17.0231 3.28112 16.875C3.30995 16.8442 3.33879 16.8133 3.3685 16.7816C3.89877 16.2193 4.46958 15.7425 5.09753 15.293C5.15198 15.2536 5.15198 15.2536 5.20753 15.2134C6.19725 14.5034 7.28706 13.9858 8.43737 13.5937C8.47991 13.5791 8.52246 13.5645 8.56629 13.5494C11.1307 12.685 14.5902 12.6791 16.76 14.5317Z" fill="#C9A581"/>
<path d="M18.3372 17.6136C18.6436 17.8231 18.8697 18.081 18.9627 18.4454C19.314 20.5666 18.4347 22.7901 17.2263 24.4922C17.0237 24.7572 16.8041 25.0055 16.5817 25.2539C16.529 25.3181 16.4764 25.3824 16.424 25.4468C16.2602 25.6389 16.2262 25.6579 15.9775 25.686C15.7614 25.6641 15.7614 25.6641 15.5893 25.5432C15.4359 25.3247 15.4373 25.2241 15.4684 24.9609C15.5614 24.8243 15.6453 24.7195 15.7578 24.602C15.8175 24.5355 15.877 24.4688 15.9363 24.4018C15.9662 24.3681 15.996 24.3345 16.0268 24.2998C17.187 22.9451 17.9351 21.133 17.944 19.3506C17.9452 19.2896 17.9464 19.2287 17.9477 19.1659C17.948 19.1075 17.9483 19.0491 17.9486 18.9889C17.9494 18.9096 17.9494 18.9096 17.9503 18.8286C17.9391 18.6893 17.9391 18.6893 17.8572 18.5846C17.5724 18.395 17.0711 18.5786 16.7599 18.6402C16.54 18.6853 16.321 18.7338 16.102 18.783C16.0555 18.7933 16.009 18.8037 15.9612 18.8144C13.6163 19.3414 11.3555 20.3153 9.49188 21.8555C9.4597 21.882 9.42751 21.9086 9.39435 21.9359C8.69134 22.5198 8.02174 23.1421 7.38045 23.7929C7.26993 23.9017 7.15608 24.0032 7.03827 24.104C6.84077 24.2732 6.65684 24.4537 6.4743 24.6387C6.25383 24.8618 6.03001 25.0774 5.78995 25.2795C5.68217 25.3698 5.68217 25.3698 5.58395 25.47C5.3173 25.7279 5.06023 25.8307 4.68719 25.8398C4.3187 25.7924 4.09977 25.6426 3.87238 25.3546C3.75596 25.1717 3.73894 25.0076 3.73505 24.7961C3.73354 24.7474 3.73203 24.6987 3.73047 24.6485C3.77689 24.2711 4.03897 23.9656 4.25507 23.6645C4.28632 23.6207 4.31758 23.5768 4.34978 23.5316C4.91612 22.7397 5.50722 21.9773 6.17058 21.264C6.31234 21.1105 6.45024 20.9544 6.58783 20.7971C8.18694 19.0228 8.18694 19.0228 8.90228 18.9661C9.05486 18.9711 9.14116 18.9847 9.28314 19.0466C9.42114 19.2177 9.42955 19.3532 9.43329 19.5703C9.30276 19.867 9.07098 20.029 8.82172 20.2222C8.40291 20.5549 8.00262 20.8984 7.61688 21.2695C7.58349 21.3016 7.55009 21.3337 7.51569 21.3668C7.06843 21.7996 6.64989 22.2408 6.26923 22.7344C6.20964 22.8105 6.15006 22.8867 6.09047 22.9628C5.65958 23.5169 5.2543 24.0853 4.86298 24.668C5.12872 24.4462 5.37943 24.2162 5.62103 23.9685C5.81222 23.7747 6.00302 23.5846 6.21063 23.4082C6.45007 23.2047 6.66789 22.9818 6.88852 22.7585C7.08774 22.5577 7.29308 22.3687 7.50862 22.1855C7.6249 22.0828 7.73221 21.9741 7.84027 21.8628C8.11773 21.5821 8.42091 21.3384 8.73016 21.0937C8.814 21.026 8.814 21.026 8.89954 20.9569C11.0668 19.2397 13.5754 18.2125 16.2729 17.6765C16.5338 17.6223 16.7924 17.5599 17.0512 17.4963C17.4957 17.4064 17.9279 17.403 18.3372 17.6136Z" fill="#C9A581"/>
<path d="M6.55498 3.35084C6.60317 3.35409 6.65136 3.35734 6.70101 3.36068C7.12251 3.46387 7.33226 3.77179 7.56572 4.1089C7.59857 4.15547 7.63142 4.20204 7.66526 4.25002C7.76718 4.3953 7.868 4.54128 7.96855 4.68751C7.9993 4.7319 8.03004 4.77628 8.06171 4.82201C9.25818 6.55544 11.3675 9.69366 11.074 11.8945C10.952 12.1141 10.881 12.1755 10.6382 12.2461C10.3983 12.2461 10.3214 12.2195 10.1365 12.0703C10.0806 11.9267 10.0446 11.8019 10.012 11.6528C9.44316 9.39172 8.50953 7.28764 7.14824 5.39064C7.09137 5.31063 7.03453 5.2306 6.97773 5.15054C6.8399 4.95666 6.70133 4.76334 6.5623 4.57033C6.74607 5.0546 6.96127 5.52319 7.17821 5.99318C7.2835 6.2215 7.38809 6.45015 7.49271 6.67878C7.5135 6.72422 7.5343 6.76966 7.55572 6.81647C8.15044 8.11672 8.7109 9.40322 9.07817 10.7886C9.09545 10.8532 9.11273 10.9177 9.13053 10.9843C9.40516 12.0646 9.40516 12.0646 9.22466 12.4329C9.04992 12.5628 8.94818 12.5977 8.73027 12.5977C8.51962 12.5193 8.45281 12.4524 8.35079 12.2516C8.2309 11.9571 8.17237 11.6475 8.10405 11.3379C7.78975 9.98769 7.25994 8.75423 6.67949 7.50001C6.63713 7.40833 6.59478 7.31664 6.55243 7.22495C6.53061 7.17769 6.50878 7.13043 6.48629 7.08174C6.41915 6.93628 6.35207 6.79078 6.285 6.64528C6.1986 6.45786 6.11179 6.27064 6.02468 6.08355C5.2933 4.50758 5.2933 4.50758 5.44902 3.98439C5.59127 3.6999 5.75911 3.55362 6.03496 3.39845C6.215 3.33943 6.36669 3.3353 6.55498 3.35084Z" fill="#C9A581"/>
</g>
<defs>
<clipPath id="clip0_144_157">
<rect width="30" height="30" fill="white"/>
</clipPath>
</defs>
</svg>
