<svg width="30" height="30" viewBox="0 0 30 30" fill="none" xmlns="http://www.w3.org/2000/svg">
<path d="M12.714 13.1168C12.7623 13.1166 12.8105 13.1164 12.8602 13.1163C13.0224 13.1157 13.1846 13.1157 13.3468 13.1156C13.4629 13.1153 13.5789 13.115 13.695 13.1147C14.0107 13.1139 14.3265 13.1135 14.6422 13.1133C14.8394 13.1131 15.0365 13.1129 15.2337 13.1126C15.8504 13.1118 16.4671 13.1112 17.0838 13.111C17.7961 13.1108 18.5084 13.1097 19.2207 13.108C19.771 13.1068 20.3214 13.1062 20.8717 13.1061C21.2005 13.106 21.5293 13.1057 21.8581 13.1046C22.1674 13.1037 22.4767 13.1035 22.7859 13.1041C22.8995 13.1041 23.013 13.1038 23.1265 13.1033C23.2815 13.1025 23.4364 13.1029 23.5914 13.1035C23.6363 13.103 23.6812 13.1025 23.7275 13.1021C24.0057 13.1046 24.1977 13.152 24.4334 13.3008C24.5713 13.5291 24.5684 13.7573 24.5749 14.0197C24.5766 14.0796 24.5766 14.0796 24.5783 14.1406C24.5818 14.2672 24.5845 14.3937 24.5872 14.5203C24.5895 14.6065 24.5918 14.6926 24.5941 14.7788C24.5997 14.9892 24.6046 15.1997 24.6092 15.4102C24.6454 15.3904 24.6816 15.3706 24.7188 15.3502C25.261 15.0647 25.7251 14.9795 26.3341 14.9817C26.3854 14.9808 26.4368 14.9798 26.4898 14.9788C27.1171 14.9784 27.6162 15.1411 28.0662 15.586C28.4606 16.0563 28.5529 16.5285 28.5511 17.1271C28.5515 17.2057 28.5515 17.2057 28.552 17.2858C28.5528 17.4576 28.5527 17.6295 28.5526 17.8013C28.5528 17.9215 28.5531 18.0418 28.5534 18.162C28.5538 18.4135 28.5538 18.6651 28.5535 18.9166C28.5531 19.238 28.5541 19.5594 28.5555 19.8808C28.5564 20.1289 28.5564 20.3771 28.5562 20.6253C28.5562 20.7437 28.5566 20.8622 28.5571 20.9807C28.5579 21.1467 28.5575 21.3126 28.5568 21.4786C28.5572 21.5269 28.5577 21.5753 28.5582 21.625C28.5532 22.1762 28.371 22.6684 28.0076 23.086C27.344 23.6337 26.6046 23.6701 25.7742 23.5973C25.4617 23.5543 25.1957 23.4794 24.9099 23.3448C24.8532 23.3183 24.7965 23.2918 24.7381 23.2645C24.6743 23.2341 24.6743 23.2341 24.6092 23.2031C24.6085 23.2638 24.6085 23.2638 24.6078 23.3256C24.6032 23.7091 24.598 24.0926 24.5924 24.4761C24.5894 24.6732 24.5867 24.8703 24.5845 25.0674C24.5818 25.2948 24.5784 25.5221 24.5749 25.7494C24.5742 25.8192 24.5735 25.8889 24.5728 25.9607C24.5588 26.7641 24.4464 27.3905 23.9061 28.0078C23.7587 28.122 23.7587 28.122 23.5985 28.2239C23.5462 28.258 23.4939 28.292 23.4401 28.3271C22.948 28.5775 22.4371 28.5523 21.899 28.5513C21.8087 28.5515 21.7184 28.5518 21.6281 28.5522C21.3837 28.553 21.1394 28.553 20.8951 28.5528C20.6907 28.5528 20.4863 28.5531 20.2819 28.5533C19.7993 28.554 19.3168 28.554 18.8343 28.5537C18.3375 28.5533 17.8408 28.554 17.3441 28.5553C16.9166 28.5563 16.4892 28.5567 16.0617 28.5565C15.8068 28.5564 15.552 28.5565 15.2971 28.5573C15.0573 28.5581 14.8175 28.558 14.5777 28.5572C14.4901 28.5571 14.4025 28.5572 14.3148 28.5577C13.5544 28.5616 12.9467 28.4703 12.3631 27.9492C11.963 27.48 11.8089 26.9907 11.813 26.3845C11.8127 26.329 11.8124 26.2735 11.8121 26.2163C11.8113 26.0312 11.8117 25.8462 11.8121 25.6612C11.8118 25.5281 11.8113 25.3951 11.8109 25.262C11.8098 24.9014 11.8099 24.5408 11.8102 24.1802C11.8104 23.8792 11.81 23.5782 11.8097 23.2772C11.8088 22.5268 11.809 21.7765 11.8097 21.0261C11.8103 20.3744 11.8096 19.7227 11.8082 19.071C11.8067 18.4015 11.8062 17.7319 11.8066 17.0624C11.8068 16.6866 11.8066 16.3109 11.8056 15.9351C11.8047 15.5821 11.8049 15.2291 11.806 14.8761C11.8063 14.7464 11.8061 14.6166 11.8055 14.4869C11.8047 14.3102 11.8054 14.1336 11.8064 13.9569C11.8058 13.9052 11.8053 13.8535 11.8047 13.8003C11.8089 13.4546 11.8089 13.4546 11.9438 13.2708C12.1895 13.1012 12.4273 13.1165 12.714 13.1168ZM12.8319 14.1797C12.8279 15.8085 12.8246 17.4373 12.8227 19.0662C12.8218 19.8224 12.8206 20.5787 12.8186 21.335C12.8168 21.9941 12.8157 22.6532 12.8153 23.3123C12.8151 23.6613 12.8145 24.0104 12.8133 24.3594C12.8121 24.6879 12.8117 25.0163 12.812 25.3448C12.8119 25.4654 12.8116 25.586 12.8109 25.7066C12.81 25.8713 12.8102 26.0358 12.8107 26.2005C12.8102 26.2482 12.8097 26.296 12.8092 26.3452C12.812 26.7081 12.9033 26.9422 13.1358 27.2278C13.5821 27.5947 14.0709 27.5644 14.6219 27.5618C14.7078 27.5621 14.7937 27.5624 14.8796 27.5628C15.1118 27.5636 15.344 27.5632 15.5762 27.5627C15.8198 27.5622 16.0634 27.5627 16.307 27.5629C16.716 27.5633 17.1251 27.5628 17.5341 27.562C18.0062 27.561 18.4782 27.5613 18.9503 27.5623C19.3565 27.5631 19.7627 27.5632 20.1688 27.5628C20.411 27.5625 20.6533 27.5625 20.8955 27.563C21.1233 27.5635 21.351 27.5632 21.5788 27.5622C21.6621 27.5619 21.7455 27.562 21.8288 27.5624C22.5613 27.5669 22.5613 27.5669 23.192 27.2278C23.4672 26.8896 23.5216 26.6219 23.5171 26.2005C23.5172 26.149 23.5174 26.0974 23.5175 26.0444C23.5178 25.8722 23.5168 25.7 23.5159 25.5278C23.5158 25.4042 23.5159 25.2806 23.516 25.157C23.516 24.8217 23.515 24.4864 23.5137 24.1511C23.5126 23.8006 23.5125 23.4501 23.5123 23.0996C23.5118 22.436 23.5103 21.7724 23.5086 21.1088C23.5062 20.2119 23.5053 19.3151 23.5043 18.4183C23.5026 17.0054 23.4991 15.5926 23.4959 14.1797C21.2336 14.1797 18.9713 14.1797 16.6404 14.1797C16.6404 15.4945 16.6404 16.8094 16.6404 18.1641C16.8918 18.1834 17.1432 18.2027 17.4022 18.2227C18.014 18.8345 18.1572 19.5994 18.1599 20.44C18.1586 20.57 18.1565 20.7001 18.1535 20.8301C18.1492 21.0305 18.1487 21.2305 18.1488 21.4309C18.1476 21.5589 18.1463 21.6868 18.1447 21.8147C18.1444 21.8743 18.1441 21.9339 18.1439 21.9952C18.1424 22.0505 18.1409 22.1057 18.1393 22.1626C18.138 22.2351 18.138 22.2351 18.1366 22.3091C18.0929 22.4937 18.0221 22.5631 17.8709 22.6758C17.7131 22.7052 17.7131 22.7052 17.5307 22.7052C17.4622 22.7057 17.3938 22.7063 17.3233 22.7069C17.2128 22.7059 17.2128 22.7059 17.1 22.7049C17.0242 22.7049 16.9484 22.705 16.8702 22.7051C16.7098 22.7052 16.5495 22.7045 16.3891 22.7031C16.1838 22.7015 15.9785 22.7016 15.7732 22.7024C15.5771 22.7029 15.3809 22.702 15.1848 22.7012C15.1111 22.7014 15.0374 22.7015 14.9615 22.7017C14.8931 22.701 14.8246 22.7002 14.7541 22.6995C14.6939 22.6992 14.6337 22.6988 14.5717 22.6985C14.3876 22.672 14.3072 22.6349 14.1795 22.5C14.1478 22.3733 14.1478 22.3733 14.1445 22.2243C14.1428 22.1683 14.1412 22.1123 14.1394 22.0545C14.139 21.9938 14.1385 21.933 14.1381 21.8704C14.1372 21.8071 14.1362 21.7438 14.1353 21.6785C14.1339 21.5438 14.1331 21.4091 14.1329 21.2744C14.1319 21.0722 14.1269 20.8705 14.1217 20.6684C14.1111 19.8002 14.2356 19.0835 14.7069 18.3399C14.824 18.2227 14.824 18.2227 15.6444 18.1641C15.6444 16.8492 15.6444 15.5344 15.6444 14.1797C14.7162 14.1797 13.7881 14.1797 12.8319 14.1797ZM24.7999 16.6384C24.6016 16.9607 24.5285 17.2192 24.526 17.5979C24.5255 17.6387 24.525 17.6796 24.5245 17.7216C24.5231 17.8555 24.5231 17.9893 24.5231 18.1231C24.5227 18.217 24.5223 18.3109 24.5218 18.4048C24.521 18.6013 24.5209 18.7978 24.5212 18.9942C24.5216 19.2446 24.5198 19.495 24.5174 19.7454C24.5159 19.9393 24.5158 20.1331 24.516 20.327C24.5159 20.4193 24.5153 20.5115 24.5143 20.6038C24.5084 21.1843 24.5336 21.6905 24.9447 22.1425C25.3341 22.5204 25.7914 22.5886 26.3121 22.5842C26.3624 22.5854 26.4128 22.5866 26.4646 22.5878C26.8134 22.5875 27.023 22.5341 27.3045 22.3242C27.5142 22.0625 27.5057 21.8239 27.504 21.5034C27.5046 21.4244 27.5046 21.4244 27.5052 21.3439C27.5063 21.1702 27.506 20.9966 27.5057 20.823C27.506 20.7021 27.5063 20.5812 27.5066 20.4603C27.5072 20.2069 27.507 19.9536 27.5064 19.7003C27.5058 19.3759 27.5069 19.0516 27.5086 18.7272C27.5097 18.4775 27.5097 18.2279 27.5094 17.9782C27.5094 17.8586 27.5097 17.739 27.5104 17.6194C27.5113 17.4521 27.5107 17.2849 27.5097 17.1175C27.5105 17.0437 27.5105 17.0437 27.5114 16.9683C27.5075 16.6556 27.4515 16.4797 27.2459 16.2305C26.9798 15.9948 26.6644 16.0232 26.3267 16.0254C26.2688 16.0257 26.2108 16.0261 26.1511 16.0264C25.5657 16.0408 25.1777 16.1805 24.7999 16.6384ZM15.41 19.1602C15.1352 19.7268 15.1352 19.7268 15.0884 20.2906C15.0891 20.3675 15.0899 20.4444 15.0906 20.5237C15.0933 20.6187 15.096 20.7138 15.0987 20.8118C15.1047 21.1175 15.1108 21.4233 15.117 21.7383C15.7938 21.7383 16.4705 21.7383 17.1678 21.7383C17.1738 21.4325 17.1799 21.1268 17.1861 20.8118C17.1888 20.7167 17.1914 20.6216 17.1942 20.5237C17.1949 20.4468 17.1956 20.3699 17.1964 20.2906C17.1979 20.2522 17.1994 20.2137 17.2009 20.1741C17.2013 19.755 17.0715 19.5928 16.8748 19.1602C16.3914 19.1602 15.908 19.1602 15.41 19.1602Z" fill="#C9A581"/>
<path d="M3.58905 1.44783C3.64808 1.44743 3.70712 1.44704 3.76794 1.44663C3.96235 1.44552 4.15675 1.44529 4.35117 1.44517C4.48698 1.44479 4.62278 1.4444 4.75859 1.44398C5.04308 1.44328 5.32756 1.44307 5.61205 1.44313C5.97542 1.44315 6.33875 1.44155 6.70211 1.43953C6.98261 1.43822 7.2631 1.43799 7.5436 1.43805C7.6775 1.43791 7.8114 1.4374 7.9453 1.43649C8.13317 1.43533 8.32099 1.43568 8.50887 1.43638C8.59072 1.43539 8.59072 1.43539 8.67422 1.43439C9.27289 1.44004 9.76952 1.62741 10.2021 2.0414C10.5213 2.40836 10.6144 2.80336 10.6191 3.27874C10.6196 3.32448 10.62 3.37021 10.6205 3.41734C10.6213 3.51412 10.622 3.6109 10.6224 3.70768C10.6231 3.80639 10.6243 3.9051 10.626 4.00379C10.6285 4.14664 10.6295 4.28943 10.6301 4.4323C10.6311 4.47608 10.6321 4.51985 10.6332 4.56495C10.6319 4.86971 10.5612 5.038 10.3708 5.27344C10.1528 5.48552 9.95819 5.54734 9.66764 5.62501C9.74692 5.81058 9.82629 5.99612 9.90568 6.18165C9.93825 6.2579 9.93825 6.2579 9.97148 6.33568C9.99395 6.38818 10.0164 6.44067 10.0396 6.49476C10.0736 6.57739 10.0736 6.57739 10.1083 6.66169C10.1907 6.85583 10.1907 6.85583 10.2981 7.02974C10.7247 7.8145 10.6626 8.66561 10.6562 9.53373C10.6549 9.76998 10.656 10.0062 10.6567 10.2425C10.6579 10.704 10.6568 11.1655 10.655 11.627C10.653 12.165 10.6531 12.703 10.6533 13.241C10.6536 14.201 10.6518 15.161 10.649 16.121C10.6462 17.0516 10.6449 17.9823 10.6454 18.913C10.6459 20.0901 10.645 21.2673 10.6431 22.4444C10.6425 22.8191 10.6424 23.1939 10.6425 23.5686C10.6425 24.0252 10.6417 24.4817 10.6397 24.9383C10.6388 25.171 10.6382 25.4038 10.6386 25.6366C10.639 25.8499 10.6382 26.0631 10.6367 26.2764C10.6361 26.3896 10.6367 26.5029 10.6373 26.6162C10.631 27.214 10.4859 27.6386 10.0776 28.0785C9.61222 28.4965 9.14694 28.5438 8.54712 28.5455C8.48753 28.5459 8.42795 28.5463 8.36655 28.5467C8.1696 28.5479 7.97265 28.5485 7.7757 28.5491C7.70825 28.5494 7.6408 28.5496 7.57131 28.5498C7.21421 28.5511 6.8571 28.5519 6.5 28.5525C6.13217 28.5531 5.76436 28.5551 5.39653 28.5574C5.11282 28.559 4.82911 28.5595 4.54539 28.5597C4.40985 28.56 4.27432 28.5606 4.13879 28.5617C3.94852 28.5632 3.7583 28.5631 3.56802 28.5627C3.48507 28.5638 3.48507 28.5638 3.40045 28.565C2.86923 28.5609 2.3547 28.4223 1.96233 28.0488C1.49159 27.5141 1.447 26.9912 1.44569 26.302C1.44513 26.2235 1.44453 26.145 1.44388 26.0665C1.44226 25.8514 1.44137 25.6362 1.4406 25.4211C1.43986 25.2364 1.43868 25.0517 1.43749 24.867C1.43359 24.2583 1.43106 23.6496 1.42891 23.041C1.42835 22.8822 1.42777 22.7234 1.42718 22.5647C1.42355 21.5769 1.42042 20.589 1.41846 19.6012C1.41799 19.3725 1.41753 19.1438 1.41705 18.9151C1.41693 18.8583 1.41681 18.8015 1.41669 18.7429C1.4147 17.8248 1.40989 16.9067 1.40392 15.9886C1.39783 15.0438 1.39444 14.099 1.39359 13.1542C1.39305 12.6246 1.39135 12.0951 1.38659 11.5655C1.38253 11.1139 1.38095 10.6624 1.38242 10.2108C1.3831 9.98104 1.38271 9.75143 1.37912 9.52169C1.36189 8.35654 1.52881 7.48395 2.07886 6.44466C2.22354 6.15927 2.34228 5.86351 2.46061 5.56641C2.39051 5.56279 2.32042 5.55916 2.2482 5.55543C1.97376 5.51997 1.83126 5.41914 1.64029 5.21485C1.49072 4.9218 1.44207 4.70674 1.44117 4.37302C1.441 4.33324 1.44083 4.29345 1.44066 4.25246C1.44054 4.16885 1.44086 4.08524 1.4416 4.00163C1.44253 3.87522 1.4416 3.74892 1.44048 3.62252C1.43942 2.98345 1.51518 2.49662 1.93189 1.99288C2.39274 1.5347 2.96812 1.44723 3.58905 1.44783ZM2.70597 2.70997C2.27504 3.25171 2.46061 3.88295 2.46061 4.57032C4.81959 4.57032 7.17858 4.57032 9.60905 4.57032C9.74989 3.18772 9.74989 3.18772 9.37467 2.69532C9.07244 2.40316 8.64376 2.45222 8.24973 2.45243C8.19662 2.45224 8.1435 2.45204 8.08878 2.45184C7.91385 2.45128 7.73892 2.45116 7.56399 2.4511C7.44198 2.45091 7.31998 2.45072 7.19798 2.45051C6.9425 2.45016 6.68703 2.45005 6.43155 2.45009C6.10462 2.45009 5.7777 2.44929 5.45078 2.44828C5.19889 2.44763 4.947 2.44751 4.69512 2.44754C4.5746 2.44747 4.45408 2.44722 4.33356 2.44676C4.16487 2.44619 3.9962 2.44636 3.8275 2.44671C3.77803 2.44638 3.72855 2.44605 3.67758 2.44571C3.31063 2.44766 3.00201 2.47313 2.70597 2.70997ZM3.57389 5.62501C3.13207 6.55017 3.13207 6.55017 2.75358 7.50001C4.9192 7.50001 7.08483 7.50001 9.31608 7.50001C9.07118 6.86328 8.7878 6.24153 8.49576 5.62501C6.87154 5.62501 5.24733 5.62501 3.57389 5.62501ZM2.46061 8.4961C2.45673 10.817 2.45349 13.138 2.45163 15.4589C2.45141 15.7329 2.45118 16.0069 2.45095 16.2809C2.4509 16.3355 2.45086 16.39 2.45081 16.4462C2.45005 17.3295 2.44866 18.2128 2.44704 19.0961C2.4454 20.0024 2.44442 20.9087 2.44407 21.815C2.44383 22.3742 2.44306 22.9335 2.44164 23.4927C2.44071 23.8762 2.44043 24.2597 2.44066 24.6432C2.44077 24.8644 2.4406 25.0857 2.43965 25.307C2.43864 25.547 2.43899 25.7869 2.43947 26.027C2.4387 26.1316 2.4387 26.1316 2.43792 26.2384C2.43996 26.6155 2.46781 26.9059 2.63639 27.2461C2.90108 27.4657 3.12545 27.5459 3.46352 27.5473C3.51107 27.5476 3.55863 27.548 3.60762 27.5483C3.65928 27.5484 3.71094 27.5484 3.76416 27.5485C3.81897 27.5488 3.87378 27.5491 3.93025 27.5494C4.11153 27.5502 4.2928 27.5506 4.47408 27.551C4.60019 27.5513 4.7263 27.5516 4.85241 27.552C5.11686 27.5526 5.38132 27.5529 5.64577 27.5531C5.98426 27.5535 6.32274 27.5549 6.66123 27.5565C6.92176 27.5576 7.18229 27.5579 7.44283 27.558C7.5676 27.5582 7.69237 27.5587 7.81714 27.5594C7.99188 27.5604 8.16659 27.5603 8.34134 27.56C8.39264 27.5605 8.44395 27.561 8.4968 27.5616C8.81414 27.5594 9.03519 27.5143 9.31608 27.3633C9.54098 27.1206 9.61638 26.9767 9.61625 26.6505C9.61637 26.5859 9.61649 26.5214 9.61661 26.4549C9.61644 26.3835 9.61627 26.312 9.61609 26.2383C9.61614 26.1629 9.61619 26.0874 9.61624 26.0096C9.61637 25.7995 9.61614 25.5893 9.61585 25.3791C9.61559 25.1527 9.61568 24.9263 9.61572 24.7C9.61575 24.3075 9.61557 23.915 9.61524 23.5226C9.61476 22.9551 9.61461 22.3877 9.61454 21.8203C9.61441 20.8997 9.61402 19.9792 9.61347 19.0586C9.61293 18.1642 9.61251 17.2698 9.61226 16.3754C9.61224 16.2927 9.61224 16.2927 9.61222 16.2084C9.61214 15.932 9.61207 15.6556 9.61199 15.3791C9.61139 13.0848 9.61031 10.7905 9.60905 8.4961C7.25006 8.4961 4.89108 8.4961 2.46061 8.4961Z" fill="#C9A581"/>
<path d="M4.0375 9.51392C4.24108 9.57495 4.32302 9.67714 4.45338 9.84373C4.4966 10.0363 4.49268 10.2252 4.49019 10.422C4.49081 10.51 4.49081 10.51 4.49145 10.5998C4.49248 10.7966 4.49141 10.9933 4.49036 11.1901C4.49066 11.3311 4.49108 11.4721 4.49163 11.6131C4.4926 11.9565 4.49221 12.2998 4.49115 12.6432C4.49033 12.9222 4.4901 13.2013 4.4903 13.4803C4.49033 13.52 4.49036 13.5597 4.49039 13.6007C4.49045 13.6814 4.49051 13.762 4.49057 13.8427C4.49107 14.5562 4.4901 15.2696 4.48835 15.9831C4.48666 16.6753 4.48625 17.3676 4.48715 18.0599C4.48813 18.8137 4.48837 19.5676 4.48735 20.3215C4.48724 20.4018 4.48713 20.4822 4.48702 20.5626C4.48697 20.6022 4.48692 20.6417 4.48686 20.6825C4.48653 20.9612 4.48673 21.2399 4.48711 21.5186C4.48761 21.8937 4.48685 22.2689 4.48525 22.644C4.48484 22.7818 4.48484 22.9196 4.48526 23.0575C4.48577 23.2453 4.48484 23.4331 4.48353 23.621C4.48426 23.7032 4.48426 23.7032 4.485 23.787C4.48188 24.0301 4.47342 24.1655 4.34689 24.3782C4.16897 24.5368 4.04485 24.5508 3.80885 24.5508C3.63614 24.4719 3.54267 24.4286 3.45728 24.2578C3.45166 24.178 3.44961 24.098 3.44942 24.018C3.44916 23.9675 3.4489 23.917 3.44863 23.865C3.44864 23.8092 3.44865 23.7533 3.44866 23.6958C3.44845 23.6368 3.44823 23.5778 3.44801 23.517C3.44736 23.3179 3.44714 23.1188 3.44691 22.9197C3.44655 22.7774 3.44616 22.6352 3.44575 22.493C3.44462 22.0653 3.444 21.6376 3.44348 21.2099C3.44322 21.0086 3.44291 20.8074 3.4426 20.6061C3.4416 19.9371 3.44075 19.2682 3.44033 18.5993C3.44022 18.4257 3.4401 18.2521 3.43999 18.0784C3.43996 18.0353 3.43993 17.9921 3.4399 17.9477C3.43942 17.2482 3.43793 16.5487 3.43603 15.8493C3.43409 15.1315 3.43304 14.4138 3.43285 13.696C3.43272 13.2929 3.43221 12.8898 3.43071 12.4866C3.42931 12.1075 3.4291 11.7285 3.4297 11.3494C3.42973 11.2101 3.42936 11.0707 3.42856 10.9313C3.42753 10.7415 3.42793 10.5518 3.42871 10.362C3.42806 10.3064 3.42742 10.2509 3.42676 10.1936C3.43042 9.82399 3.43042 9.82399 3.56184 9.63396C3.718 9.53388 3.85363 9.52013 4.0375 9.51392Z" fill="#C9A581"/>
<path d="M17.402 4.98047C17.5654 5.12706 17.6275 5.2176 17.662 5.43457C17.634 5.64301 17.5774 5.82397 17.5048 6.02074C17.2723 6.7135 17.4158 7.43873 17.5778 8.12988C17.8133 9.14727 17.8136 9.89962 17.2862 10.8298C17.0956 11.1286 16.874 11.3943 16.6403 11.6602C16.6005 11.7071 16.5607 11.754 16.5197 11.8023C16.1963 12.1808 16.1963 12.1808 15.8859 12.2058C15.7008 12.2038 15.656 12.1963 15.5014 12.0813C15.3436 11.8605 15.3353 11.6482 15.3073 11.3841C15.2479 10.8939 15.1035 10.4473 14.9411 9.98291C14.5876 8.96671 14.3022 7.90501 14.7781 6.87698C15.187 6.15235 15.7867 5.67118 16.4645 5.21484C16.5171 5.17927 16.5697 5.14369 16.6238 5.10704C16.8973 4.93797 17.0822 4.86758 17.402 4.98047ZM16.2887 6.67969C15.9684 7.04293 15.633 7.47103 15.5856 7.96875C15.5819 8.00742 15.5782 8.04609 15.5744 8.08594C15.5336 8.88672 15.8997 9.68934 16.1716 10.4297C16.2102 10.4297 16.2489 10.4297 16.2887 10.4297C16.7722 9.54578 16.7057 8.88052 16.491 7.9203C16.401 7.50675 16.3612 7.10322 16.3473 6.67969C16.328 6.67969 16.3087 6.67969 16.2887 6.67969Z" fill="#C9A581"/>
<path d="M21.445 4.98046C21.5842 5.07201 21.5842 5.07201 21.6794 5.21483C21.7129 5.49211 21.6826 5.69136 21.5952 5.95458C21.3569 6.71072 21.4752 7.36615 21.6469 8.1184C21.8857 9.17157 21.8501 10.0122 21.2766 10.9515C20.961 11.411 20.6038 11.8519 20.1559 12.1875C19.9472 12.2241 19.9472 12.2241 19.7458 12.1875C19.5618 12.04 19.4652 11.9498 19.413 11.7169C19.4092 11.6498 19.4054 11.5828 19.4016 11.5137C19.3418 10.8378 19.0787 10.211 18.8506 9.57709C18.5574 8.74153 18.445 7.85191 18.7875 7.0111C19.1382 6.32381 20.5188 4.64366 21.445 4.98046ZM20.2573 6.81151C19.8734 7.24695 19.6725 7.67736 19.6286 8.26171C19.6716 8.76207 19.8177 9.23202 19.9802 9.70458C20.001 9.7675 20.0219 9.83042 20.0433 9.89524C20.1405 10.2195 20.1405 10.2195 20.3317 10.4883C20.3894 10.3761 20.4467 10.2638 20.5038 10.1514C20.5518 10.0575 20.5518 10.0575 20.6007 9.96184C20.9121 9.29588 20.7232 8.55869 20.5583 7.87712C20.4675 7.49759 20.4153 7.12775 20.3903 6.73827C20.3213 6.73142 20.3213 6.73142 20.2573 6.81151Z" fill="#C9A581"/>
</svg>
