<svg width="30" height="30" viewBox="0 0 30 30" fill="none" xmlns="http://www.w3.org/2000/svg">
<g clip-path="url(#clip0_124_258)">
<path d="M28.5938 25.7813H24.4734C26.3462 24.8218 27.7925 23.1969 28.5285 21.2257C29.2645 19.2544 29.2369 17.0792 28.4512 15.1272C27.6655 13.1752 26.1784 11.5875 24.2819 10.6759C22.3855 9.7642 20.2167 9.59448 18.2016 10.2L18.2719 7.50002H19.2188C19.3431 7.50002 19.4623 7.45063 19.5502 7.36272C19.6381 7.27482 19.6875 7.15559 19.6875 7.03127V4.21877C19.6875 4.09445 19.6381 3.97522 19.5502 3.88731C19.4623 3.7994 19.3431 3.75002 19.2188 3.75002H18.1781L16.9688 1.20471C16.9316 1.1243 16.872 1.05632 16.7972 1.00893C16.7224 0.961539 16.6354 0.936743 16.5469 0.937518H4.07812C3.98955 0.936743 3.90264 0.961539 3.82781 1.00893C3.75298 1.05632 3.69341 1.1243 3.65625 1.20471L2.44687 3.75002H1.40625C1.28193 3.75002 1.1627 3.7994 1.07479 3.88731C0.986886 3.97522 0.9375 4.09445 0.9375 4.21877V7.03127C0.9375 7.15559 0.986886 7.27482 1.07479 7.36272C1.1627 7.45063 1.28193 7.50002 1.40625 7.50002H2.35312L2.80313 25.7813H1.40625C1.28193 25.7813 1.1627 25.8307 1.07479 25.9186C0.986886 26.0065 0.9375 26.1257 0.9375 26.25V27.6563C0.938613 28.0289 1.08713 28.3859 1.35061 28.6494C1.61409 28.9129 1.97113 29.0614 2.34375 29.0625H27.6562C28.0289 29.0614 28.3859 28.9129 28.6494 28.6494C28.9129 28.3859 29.0614 28.0289 29.0625 27.6563V26.25C29.0625 26.1257 29.0131 26.0065 28.9252 25.9186C28.8373 25.8307 28.7181 25.7813 28.5938 25.7813ZM20.625 10.7813C22.1084 10.7813 23.5584 11.2211 24.7918 12.0452C26.0251 12.8694 26.9864 14.0407 27.5541 15.4111C28.1218 16.7816 28.2703 18.2896 27.9809 19.7444C27.6915 21.1993 26.9772 22.5357 25.9283 23.5846C24.8794 24.6335 23.543 25.3478 22.0882 25.6372C20.6333 25.9265 19.1253 25.778 17.7549 25.2104C16.3844 24.6427 15.2131 23.6814 14.389 22.448C13.5649 21.2147 13.125 19.7646 13.125 18.2813C13.1276 16.2929 13.9186 14.3868 15.3246 12.9808C16.7305 11.5749 18.6367 10.7839 20.625 10.7813ZM14.3531 12.6563C13.3353 13.7787 12.6419 15.1569 12.3471 16.6431C12.0524 18.1294 12.1673 19.6678 12.6797 21.0938H3.62812L3.41719 12.6563H14.3531ZM3.39375 11.7188L3.29063 7.50002H17.3344L17.2594 10.5516C16.5671 10.8511 15.9189 11.2438 15.3328 11.7188H3.39375ZM13.0781 22.0313C13.8821 23.6418 15.1773 24.9551 16.7766 25.7813H3.74062L3.64688 22.0313H13.0781ZM4.37344 1.87502H16.2516L17.1422 3.75002H3.48281L4.37344 1.87502ZM1.875 6.56252V4.68752H18.75V6.56252H1.875ZM28.125 27.6563C28.125 27.7806 28.0756 27.8998 27.9877 27.9877C27.8998 28.0756 27.7806 28.125 27.6562 28.125H2.34375C2.21943 28.125 2.1002 28.0756 2.01229 27.9877C1.92439 27.8998 1.875 27.7806 1.875 27.6563V26.7188H28.125V27.6563Z" fill="#C9A581"/>
<path d="M14.0625 18.2812C14.1312 18.8761 14.4278 19.4211 14.8898 19.8019C15.0901 19.9898 15.2595 20.2081 15.3919 20.4488C15.4729 20.7245 15.5107 21.0112 15.5039 21.2986C15.4508 21.88 15.6228 22.4597 15.9844 22.9181C16.4436 23.2823 17.0254 23.4557 17.6091 23.4023C17.8974 23.3956 18.1851 23.4337 18.4617 23.5153C18.7012 23.6477 18.9185 23.8168 19.1058 24.0164C19.4863 24.4781 20.0307 24.7746 20.625 24.8438C21.2198 24.7749 21.7648 24.4784 22.1456 24.0164C22.3335 23.8161 22.5518 23.6466 22.7925 23.5144C23.0683 23.4333 23.355 23.3955 23.6423 23.4023C24.2236 23.4554 24.8032 23.2835 25.2614 22.9219C25.6259 22.4628 25.7995 21.8809 25.7461 21.2972C25.7393 21.0088 25.7774 20.7212 25.8591 20.4445C25.9916 20.2051 26.1607 19.9878 26.3602 19.8005C26.8218 19.4199 27.1182 18.8755 27.1875 18.2812C27.1186 17.6865 26.8221 17.1415 26.3602 16.7606C26.1607 16.5733 25.9916 16.356 25.8591 16.1166V16.1137C25.778 15.838 25.7402 15.5513 25.747 15.2639C25.7998 14.6823 25.6275 14.1027 25.2656 13.6444C24.8064 13.2802 24.2246 13.1068 23.6409 13.1602C23.3526 13.1669 23.0649 13.1288 22.7883 13.0472C22.5488 12.9148 22.3315 12.7457 22.1442 12.5461C21.7637 12.0844 21.2193 11.7879 20.625 11.7188C20.0302 11.7876 19.4852 12.0841 19.1044 12.5461C18.9165 12.7464 18.6982 12.9159 18.4575 13.0481C18.1817 13.1292 17.895 13.167 17.6077 13.1602C17.0264 13.1071 16.4468 13.279 15.9886 13.6406C15.6241 14.0997 15.4505 14.6816 15.5039 15.2653C15.5107 15.5537 15.4726 15.8413 15.3909 16.118C15.2584 16.3574 15.0893 16.5747 14.8898 16.762C14.4281 17.1425 14.1316 17.6869 14.0625 18.2812ZM15.5742 17.4014C15.8561 17.1359 16.0876 16.8216 16.2577 16.4738C16.3871 16.0969 16.4491 15.7002 16.4409 15.3019C16.4064 14.9553 16.4799 14.6066 16.6514 14.3034C16.9539 14.1359 17.3001 14.0643 17.6442 14.0981C18.0425 14.107 18.4392 14.0456 18.8161 13.9167C19.1649 13.7463 19.4801 13.5143 19.7466 13.2319C20.0466 12.9478 20.3578 12.6562 20.625 12.6562C20.8922 12.6562 21.2034 12.9478 21.5048 13.2305C21.7707 13.5123 22.0851 13.7439 22.433 13.9144C22.8098 14.0436 23.2065 14.1053 23.6048 14.0967C23.9514 14.0625 24.3 14.136 24.6033 14.3072C24.7707 14.6098 24.8422 14.9563 24.8081 15.3005C24.7999 15.6988 24.8616 16.0954 24.9905 16.4723C25.1608 16.8207 25.3926 17.1355 25.6748 17.4014C25.958 17.7028 26.25 18.0145 26.25 18.2812C26.25 18.548 25.958 18.8597 25.6758 19.1611C25.3939 19.4266 25.1624 19.7409 24.9923 20.0887C24.8629 20.4656 24.8009 20.8623 24.8091 21.2606C24.8436 21.6072 24.7701 21.9559 24.5986 22.2591C24.2961 22.4266 23.9499 22.4982 23.6058 22.4644C23.2075 22.4555 22.8108 22.5169 22.4339 22.6458C22.0851 22.8162 21.7699 23.0482 21.5034 23.3306C21.2034 23.6147 20.8922 23.9062 20.625 23.9062C20.3578 23.9062 20.0466 23.6147 19.7452 23.332C19.4793 23.0502 19.1649 22.8186 18.817 22.6481C18.4402 22.5189 18.0435 22.4572 17.6452 22.4658C17.2986 22.5 16.95 22.4265 16.6467 22.2553C16.4793 21.9527 16.4078 21.6062 16.4419 21.262C16.4504 20.8638 16.3888 20.4671 16.26 20.0902C16.0897 19.7412 15.8577 19.426 15.5752 19.1597C15.292 18.8597 15 18.548 15 18.2812C15 18.0145 15.292 17.7028 15.5742 17.4014Z" fill="#C9A581"/>
<path d="M20.625 21.5625C21.274 21.5625 21.9084 21.3701 22.448 21.0095C22.9876 20.649 23.4081 20.1365 23.6565 19.5369C23.9048 18.9374 23.9698 18.2776 23.8432 17.6411C23.7166 17.0046 23.4041 16.4199 22.9452 15.9611C22.4863 15.5022 21.9016 15.1897 21.2651 15.063C20.6286 14.9364 19.9689 15.0014 19.3693 15.2498C18.7698 15.4981 18.2573 15.9187 17.8967 16.4583C17.5362 16.9979 17.3438 17.6323 17.3438 18.2813C17.3447 19.1512 17.6908 19.9852 18.3059 20.6003C18.921 21.2155 19.7551 21.5615 20.625 21.5625ZM20.625 15.9375C21.0885 15.9375 21.5417 16.075 21.9271 16.3325C22.3125 16.59 22.6129 16.9561 22.7903 17.3843C22.9677 17.8126 23.0141 18.2839 22.9237 18.7385C22.8333 19.1931 22.6101 19.6108 22.2823 19.9385C21.9545 20.2663 21.5369 20.4895 21.0822 20.58C20.6276 20.6704 20.1563 20.624 19.7281 20.4466C19.2998 20.2692 18.9338 19.9688 18.6762 19.5834C18.4187 19.1979 18.2812 18.7448 18.2812 18.2813C18.282 17.6599 18.5292 17.0642 18.9685 16.6248C19.4079 16.1854 20.0036 15.9382 20.625 15.9375Z" fill="#C9A581"/>
</g>
<defs>
<clipPath id="clip0_124_258">
<rect width="30" height="30" fill="white"/>
</clipPath>
</defs>
</svg>
