<svg width="30" height="30" viewBox="0 0 30 30" fill="none" xmlns="http://www.w3.org/2000/svg">
<path d="M24.8438 0.9375H5.15625C5.03193 0.9375 4.9127 0.986886 4.82479 1.07479C4.73689 1.1627 4.6875 1.28193 4.6875 1.40625V3.75C4.6875 3.87432 4.73689 3.99355 4.82479 4.08146C4.9127 4.16936 5.03193 4.21875 5.15625 4.21875H5.64375L6.52969 27.7078C6.54234 28.072 6.69616 28.417 6.9586 28.6698C7.22104 28.9226 7.57153 29.0634 7.93594 29.0625H22.0641C22.4285 29.0634 22.779 28.9226 23.0414 28.6698C23.3038 28.417 23.4577 28.072 23.4703 27.7078L24.3562 4.21875H24.8438C24.9681 4.21875 25.0873 4.16936 25.1752 4.08146C25.2631 3.99355 25.3125 3.87432 25.3125 3.75V1.40625C25.3125 1.28193 25.2631 1.1627 25.1752 1.07479C25.0873 0.986886 24.9681 0.9375 24.8438 0.9375ZM22.5328 27.675C22.528 27.796 22.4764 27.9105 22.3891 27.9944C22.3017 28.0783 22.1852 28.1251 22.0641 28.125H7.93594C7.8148 28.1251 7.69833 28.0783 7.61094 27.9944C7.52355 27.9105 7.47203 27.796 7.46719 27.675L6.58125 4.21875H23.4187L22.5328 27.675ZM24.375 3.28125H5.625V1.875H24.375V3.28125Z" fill="#C9A581"/>
<path d="M16.4062 8.90625H17.9738L17.8364 9.04359C17.7485 9.1315 17.6992 9.2507 17.6992 9.375C17.6992 9.4993 17.7485 9.6185 17.8364 9.70641L19.8248 11.6953C19.9127 11.7832 20.032 11.8326 20.1562 11.8326C20.2805 11.8326 20.3998 11.7832 20.4877 11.6953L22.4761 9.70641C22.564 9.6185 22.6133 9.4993 22.6133 9.375C22.6133 9.2507 22.564 9.1315 22.4761 9.04359L20.4877 7.05469C20.3981 6.97 20.2795 6.92281 20.1562 6.92281C20.033 6.92281 19.9144 6.97 19.8248 7.05469L19.6875 7.19203V5.625C19.6875 5.50068 19.6381 5.38145 19.5502 5.29354C19.4623 5.20564 19.3431 5.15625 19.2188 5.15625H16.4062C16.2819 5.15625 16.1627 5.20564 16.0748 5.29354C15.9869 5.38145 15.9375 5.50068 15.9375 5.625V8.4375C15.9375 8.56182 15.9869 8.68105 16.0748 8.76896C16.1627 8.85686 16.2819 8.90625 16.4062 8.90625ZM20.1562 8.04891L21.4819 9.375L20.1562 10.7011L18.8306 9.375L20.1562 8.04891ZM16.875 6.09375H18.75V7.96875H16.875V6.09375Z" fill="#C9A581"/>
<path d="M16.4062 16.4062H19.2188C19.3431 16.4062 19.4623 16.3569 19.5502 16.269C19.6381 16.181 19.6875 16.0618 19.6875 15.9375V13.125C19.6875 13.0007 19.6381 12.8815 19.5502 12.7935C19.4623 12.7056 19.3431 12.6562 19.2188 12.6562H16.4062C16.2819 12.6562 16.1627 12.7056 16.0748 12.7935C15.9869 12.8815 15.9375 13.0007 15.9375 13.125V15.9375C15.9375 16.0618 15.9869 16.181 16.0748 16.269C16.1627 16.3569 16.2819 16.4062 16.4062 16.4062ZM16.875 13.5938H18.75V15.4688H16.875V13.5938Z" fill="#C9A581"/>
<path d="M12.3281 8.80878L11.5931 10.7813H9.84375C9.71943 10.7813 9.6002 10.8307 9.51229 10.9186C9.42439 11.0065 9.375 11.1257 9.375 11.25V14.0625C9.375 14.1869 9.42439 14.3061 9.51229 14.394C9.6002 14.4819 9.71943 14.5313 9.84375 14.5313H12.6562C12.7806 14.5313 12.8998 14.4819 12.9877 14.394C13.0756 14.3061 13.125 14.1869 13.125 14.0625V12.6094L14.257 13.0313C14.3735 13.0747 14.5024 13.0701 14.6154 13.0185C14.7284 12.9669 14.8164 12.8725 14.8598 12.7561L15.8437 10.118C15.8652 10.0603 15.8751 9.99892 15.8728 9.93739C15.8706 9.87586 15.8562 9.81538 15.8306 9.7594C15.8049 9.70342 15.7685 9.65304 15.7234 9.61114C15.6783 9.56923 15.6254 9.53663 15.5677 9.51519L12.9305 8.53128C12.8727 8.50992 12.8113 8.50016 12.7497 8.50255C12.6882 8.50494 12.6277 8.51943 12.5718 8.54521C12.5159 8.57098 12.4655 8.60752 12.4237 8.65275C12.3819 8.69797 12.3494 8.75099 12.3281 8.80878ZM12.1875 13.5938H10.3125V11.7188H11.3386C11.355 11.7923 11.3893 11.8607 11.4383 11.9179C11.4874 11.9751 11.5497 12.0194 11.6198 12.0469L12.1861 12.2578L12.1875 13.5938ZM14.7994 10.23L14.1431 11.9869L12.3863 11.3307L13.0425 9.57378L14.7994 10.23Z" fill="#C9A581"/>
<path d="M10.4499 9.3516C10.5378 9.43948 10.657 9.48884 10.7813 9.48884C10.9056 9.48884 11.0248 9.43948 11.1127 9.3516L13.1016 7.36269C13.1895 7.27479 13.2388 7.15558 13.2388 7.03129C13.2388 6.90699 13.1895 6.78778 13.1016 6.69988L11.1127 4.71097C11.0248 4.6231 10.9056 4.57373 10.7813 4.57373C10.657 4.57373 10.5378 4.6231 10.4499 4.71097L8.46097 6.69988C8.3731 6.78778 8.32373 6.90699 8.32373 7.03129C8.32373 7.15558 8.3731 7.27479 8.46097 7.36269L10.4499 9.3516ZM10.7813 5.70519L12.1074 7.03129L10.7813 8.35738L9.45519 7.03129L10.7813 5.70519Z" fill="#C9A581"/>
</svg>
