<svg width="30" height="30" viewBox="0 0 30 30" fill="none" xmlns="http://www.w3.org/2000/svg">
<g clip-path="url(#clip0_257_336)">
<path d="M7.05318 8.18063C7.15955 8.18022 7.15955 8.18022 7.26807 8.1798C7.46337 8.17922 7.65864 8.17942 7.85394 8.17997C8.06515 8.18037 8.27636 8.17975 8.48757 8.17927C8.90074 8.17849 9.31389 8.17866 9.72705 8.17917C10.063 8.17957 10.3989 8.17962 10.7348 8.17943C10.7827 8.1794 10.8306 8.17937 10.8799 8.17935C10.9772 8.17929 11.0745 8.17923 11.1718 8.17918C12.0832 8.17867 12.9946 8.17925 13.906 8.18019C14.6873 8.18098 15.4686 8.18084 16.2499 8.18003C17.1582 8.17909 18.0664 8.17872 18.9746 8.17926C19.0716 8.17932 19.1685 8.17937 19.2654 8.17943C19.3369 8.17947 19.3369 8.17947 19.4099 8.17951C19.7453 8.17966 20.0806 8.17941 20.4159 8.17899C20.8249 8.1785 21.2338 8.17863 21.6427 8.17957C21.8511 8.18003 22.0596 8.18021 22.268 8.17963C22.4944 8.17901 22.7207 8.17975 22.947 8.18063C23.0124 8.18024 23.0778 8.17984 23.1451 8.17944C23.6991 8.18359 24.2116 8.25782 24.6152 8.66326C25.0187 9.11809 25.0613 9.58625 25.0503 10.1739C25.05 10.2488 25.0498 10.3237 25.0495 10.4009C25.0484 10.5986 25.0461 10.7961 25.0432 10.9937C25.0411 11.1546 25.0403 11.3154 25.0396 11.4763C25.0335 12.8411 25.0335 12.8411 24.961 13.242C25.0045 13.2415 25.048 13.241 25.0928 13.2404C25.5048 13.2357 25.9167 13.2322 26.3287 13.2299C26.5405 13.2287 26.7522 13.227 26.964 13.2243C27.1688 13.2218 27.3735 13.2204 27.5783 13.2198C27.6935 13.2191 27.8087 13.2173 27.9239 13.2155C28.549 13.2153 29.0267 13.34 29.4872 13.7735C29.923 14.253 30.0381 14.7369 30.0221 15.3704C29.942 16.7482 29.1021 18.1668 28.1251 19.1014C27.2378 19.8744 26.1501 20.2503 24.981 20.2903C23.8852 20.329 22.9507 20.5632 22.0899 21.2694C22.0341 21.3151 22.0341 21.3151 21.9771 21.3618C21.5423 21.7577 21.2365 22.3051 20.9979 22.8363C20.9718 22.8941 20.9458 22.9519 20.919 23.0114C20.8994 23.0553 20.8797 23.0991 20.8595 23.1444C20.9125 23.1447 20.9655 23.145 21.0201 23.1454C21.5218 23.1488 22.0235 23.153 22.5251 23.1582C22.783 23.1608 23.0408 23.1631 23.2987 23.1647C23.5479 23.1662 23.7972 23.1686 24.0464 23.1715C24.1411 23.1725 24.2358 23.1731 24.3305 23.1735C25.0095 23.1764 25.6346 23.1811 26.151 23.6735C26.4528 24.0248 26.5639 24.4212 26.555 24.8772C26.5117 25.3946 26.2719 25.7265 25.8985 26.074C25.7041 26.2356 25.506 26.3909 25.3048 26.5439C25.1446 26.6661 24.9882 26.7918 24.8333 26.9207C24.7923 26.9547 24.7514 26.9887 24.7092 27.0237C24.6304 27.0894 24.5518 27.1553 24.4736 27.2216C24.1052 27.5267 23.7092 27.7791 23.219 27.7823C23.162 27.7828 23.105 27.7833 23.0462 27.7838C22.9525 27.7842 22.9525 27.7842 22.857 27.7846C22.7911 27.785 22.7253 27.7855 22.6574 27.786C22.4391 27.7875 22.2208 27.7884 22.0025 27.7893C21.9281 27.7896 21.8536 27.7899 21.7769 27.7902C21.464 27.7915 21.1512 27.7926 20.8383 27.7933C20.3902 27.7942 19.9421 27.7962 19.494 27.7995C19.1408 27.802 18.7876 27.803 18.4343 27.8033C18.2841 27.8037 18.1339 27.8046 17.9837 27.806C17.7737 27.8079 17.5637 27.8079 17.3537 27.8075C17.2915 27.8084 17.2293 27.8094 17.1652 27.8104C16.7433 27.8068 16.7433 27.8068 16.5142 27.6323C16.3477 27.3976 16.366 27.2941 16.4064 27.0115C16.5159 26.8691 16.5986 26.7982 16.7579 26.7186C16.8437 26.7138 16.9297 26.7128 17.0156 26.7136C17.0698 26.714 17.124 26.7144 17.1798 26.7147C17.2395 26.7154 17.2992 26.7161 17.3606 26.7168C17.4906 26.7177 17.6207 26.7186 17.7507 26.7195C17.82 26.7201 17.8892 26.7207 17.9606 26.7212C18.4044 26.7242 18.8482 26.7239 19.292 26.7242C19.6817 26.7247 20.0714 26.7263 20.4612 26.7304C20.8382 26.7343 21.2151 26.735 21.5922 26.7336C21.7354 26.7337 21.8787 26.7348 22.0219 26.7372C23.0459 26.7607 23.0459 26.7607 23.902 26.2604C23.9829 26.1801 24.0619 26.0978 24.1407 26.0154C24.2312 25.9403 24.3226 25.8661 24.4156 25.7941C24.4913 25.7325 24.5669 25.6708 24.6424 25.609C24.7194 25.5462 24.7964 25.4834 24.8734 25.4206C24.9084 25.3918 24.9435 25.3631 24.9796 25.3334C25.0678 25.2622 25.1579 25.1935 25.2483 25.1251C25.3855 25.0252 25.3855 25.0252 25.4298 24.8472C25.4298 24.6331 25.3868 24.5409 25.254 24.3748C25.0831 24.3178 24.9741 24.3088 24.7962 24.3085C24.7381 24.3083 24.68 24.3081 24.6202 24.3078C24.5565 24.3079 24.4929 24.3079 24.4273 24.3079C24.3602 24.3077 24.2931 24.3075 24.224 24.3073C24.0781 24.3069 23.9322 24.3066 23.7864 24.3063C23.5556 24.3059 23.3249 24.305 23.0942 24.3039C23.0152 24.3036 22.9362 24.3032 22.8572 24.3028C22.8177 24.3026 22.7781 24.3024 22.7374 24.3022C22.2003 24.2998 21.6633 24.2979 21.1262 24.2971C20.7252 24.2966 20.3242 24.2948 19.9232 24.2924C19.7701 24.2916 19.6171 24.2913 19.464 24.2915C19.2502 24.2916 19.0365 24.2903 18.8227 24.2887C18.7591 24.2891 18.6956 24.2895 18.6301 24.2899C18.2032 24.2845 18.2032 24.2845 18.0093 24.1511C17.8956 23.9683 17.875 23.8275 17.8712 23.6131C17.9418 23.4458 17.9963 23.3528 18.1493 23.2542C18.315 23.1899 18.4471 23.1897 18.6247 23.1915C18.69 23.1919 18.7553 23.1923 18.8227 23.1926C18.8906 23.1936 18.9585 23.1946 19.0284 23.1956C19.1316 23.1964 19.1316 23.1964 19.2369 23.1972C19.4067 23.1986 19.5764 23.2005 19.7462 23.2029C19.748 23.1704 19.7497 23.1379 19.7515 23.1044C19.786 22.6462 19.8965 22.217 20.0172 21.7747C20.0277 21.7361 20.0381 21.6974 20.0489 21.6576C20.558 19.782 21.3204 18.0277 22.4621 16.4493C23.0791 15.5874 23.4923 14.6545 23.7416 13.6229C23.7506 13.5854 23.7597 13.548 23.7691 13.5094C23.8303 13.2407 23.8713 12.9707 23.9096 12.6978C23.92 12.6241 23.9304 12.5504 23.9412 12.4745C23.949 12.4184 23.9569 12.3623 23.9649 12.3045C23.8685 12.3048 23.8685 12.3048 23.7701 12.305C22.2062 12.3089 20.6424 12.3118 19.0785 12.3136C18.3222 12.3145 17.5659 12.3158 16.8097 12.3178C16.1506 12.3195 15.4915 12.3207 14.8324 12.3211C14.4833 12.3213 14.1343 12.3218 13.7852 12.3231C13.4568 12.3243 13.1283 12.3247 12.7998 12.3244C12.6792 12.3244 12.5586 12.3248 12.438 12.3255C12.2734 12.3263 12.1088 12.3261 11.9442 12.3257C11.8964 12.3262 11.8487 12.3267 11.7995 12.3272C11.5147 12.325 11.3223 12.2838 11.0743 12.1287C10.947 11.9738 10.9572 11.8926 10.9645 11.6893C11.0229 11.4555 11.0572 11.3902 11.2501 11.2498C11.4276 11.2273 11.5836 11.2192 11.761 11.2216C11.8131 11.2214 11.8652 11.2212 11.9189 11.221C12.0939 11.2206 12.2689 11.2219 12.4439 11.2232C12.5692 11.2233 12.6945 11.2232 12.8198 11.2231C13.1603 11.223 13.5008 11.2244 13.8414 11.2261C14.1971 11.2275 14.5528 11.2277 14.9086 11.2279C15.5824 11.2287 16.2562 11.2306 16.93 11.2329C17.697 11.2356 18.464 11.2369 19.231 11.238C20.809 11.2405 22.387 11.2446 23.9649 11.2498C23.9602 10.9812 23.9536 10.7127 23.9466 10.4442C23.9453 10.3679 23.944 10.2916 23.9426 10.213C23.9395 10.1031 23.9395 10.1031 23.9363 9.99097C23.9348 9.92347 23.9333 9.85596 23.9317 9.78641C23.9041 9.59356 23.8672 9.51147 23.7306 9.37483C23.5579 9.31728 23.4467 9.30878 23.2668 9.30853C23.1771 9.30819 23.1771 9.30819 23.0857 9.30785C23.0198 9.3079 22.9539 9.30795 22.8861 9.308C22.8163 9.30783 22.7465 9.30765 22.6745 9.30747C22.4804 9.30705 22.2863 9.3069 22.0922 9.30685C21.883 9.30675 21.6738 9.3063 21.4646 9.30591C21.0069 9.30511 20.5493 9.30476 20.0917 9.3045C19.8061 9.30434 19.5205 9.30409 19.2348 9.30383C18.4443 9.30311 17.6537 9.30251 16.8632 9.30231C16.8126 9.3023 16.762 9.30229 16.7098 9.30227C16.6591 9.30226 16.6084 9.30225 16.5561 9.30223C16.4533 9.30221 16.3505 9.30218 16.2477 9.30216C16.1967 9.30214 16.1457 9.30213 16.0932 9.30212C15.2666 9.30188 14.4401 9.30086 13.6136 9.2995C12.7653 9.29811 11.9171 9.29738 11.0688 9.29731C10.5924 9.29726 10.116 9.29692 9.63961 9.29586C9.234 9.29495 8.82841 9.29465 8.4228 9.29514C8.2158 9.29537 8.00882 9.29531 7.80182 9.29449C7.57754 9.29361 7.35328 9.29408 7.129 9.2947C7.0634 9.29423 6.99781 9.29375 6.93022 9.29327C6.84011 9.29385 6.84011 9.29385 6.74818 9.29444C6.67053 9.29439 6.67053 9.29439 6.59131 9.29433C6.41098 9.3214 6.29993 9.38653 6.15245 9.49201C6.07227 9.65237 6.08118 9.78748 6.07531 9.96671C6.07286 10.0377 6.0704 10.1087 6.06788 10.1819C6.06557 10.2563 6.06327 10.3308 6.06089 10.4075C6.05836 10.4825 6.05583 10.5574 6.05323 10.6346C6.047 10.8201 6.04102 11.0057 6.03526 11.1912C6.10974 11.1903 6.18423 11.1894 6.26097 11.1884C6.53811 11.1853 6.81525 11.1832 7.09241 11.1816C7.21221 11.1807 7.33201 11.1795 7.45181 11.178C7.62431 11.1758 7.79679 11.1748 7.96931 11.1741C8.02261 11.1732 8.07591 11.1723 8.13082 11.1713C8.43304 11.1712 8.64689 11.1938 8.90635 11.367C9.05286 11.5868 9.05495 11.6927 9.02354 11.953C8.90434 12.125 8.81087 12.2303 8.59986 12.2713C8.43657 12.2799 8.27582 12.2788 8.11236 12.2745C8.05295 12.2741 7.99354 12.2737 7.93233 12.2733C7.74304 12.2716 7.55386 12.268 7.36461 12.2642C7.23609 12.2628 7.10757 12.2614 6.97905 12.2602C6.66442 12.257 6.34985 12.2521 6.03526 12.2459C6.07176 12.4767 6.10843 12.7074 6.14512 12.9381C6.15532 13.0025 6.16552 13.067 6.17602 13.1334C6.18622 13.1974 6.19642 13.2614 6.20692 13.3274C6.21708 13.3913 6.22725 13.4552 6.23772 13.5211C6.27717 13.7555 6.32363 13.9884 6.37236 14.2211C6.39443 14.4259 6.33147 14.5449 6.21104 14.7069C6.00546 14.8439 5.92564 14.8482 5.6837 14.824C5.50933 14.7419 5.41197 14.6863 5.31703 14.5164C4.98355 13.4589 4.94931 12.4041 4.95122 11.3031C4.95126 11.1469 4.95066 10.991 4.94881 10.8349C4.9463 10.6063 4.94577 10.3777 4.94578 10.1491C4.94482 10.08 4.94386 10.0109 4.94287 9.93973C4.94756 9.37553 5.08762 8.96158 5.48961 8.55817C5.91163 8.17733 6.51762 8.17742 7.05318 8.18063ZM24.7267 14.2967C24.6895 14.3893 24.6524 14.482 24.6152 14.5747C24.5945 14.6263 24.5739 14.6779 24.5525 14.731C24.5008 14.8612 24.4501 14.9918 24.4003 15.1227C24.0801 15.9482 23.6463 16.6795 23.1258 17.3935C22.6916 17.9923 22.3488 18.626 22.0277 19.2918C21.999 19.3512 21.9703 19.4105 21.9407 19.4717C21.9144 19.5275 21.888 19.5832 21.8608 19.6406C21.8372 19.6906 21.8135 19.7405 21.7892 19.792C21.7277 19.9258 21.7277 19.9258 21.7384 20.0975C21.9723 20.0095 22.1878 19.8994 22.4086 19.7825C23.0727 19.4415 23.762 19.2816 24.5081 19.2632C25.6863 19.2306 26.7581 18.9568 27.6163 18.0982C28.3368 17.3253 28.9377 16.2145 28.9747 15.1317C28.9608 14.9096 28.9171 14.7625 28.7696 14.5897C28.5017 14.3544 28.3665 14.2893 28.0127 14.29C27.9036 14.2901 27.9036 14.2901 27.7923 14.2901C27.7127 14.2904 27.633 14.2907 27.5534 14.291C27.4721 14.2911 27.3908 14.2912 27.3095 14.2912C27.0955 14.2915 26.8814 14.292 26.6674 14.2927C26.449 14.2933 26.2307 14.2935 26.0123 14.2938C25.5838 14.2945 25.1552 14.2955 24.7267 14.2967Z" fill="#C9A581"/>
<path d="M15.7216 19.669C16.5254 20.3538 16.967 21.3411 17.051 22.3827C17.1595 24.0884 16.4032 25.71 15.3169 26.9756C15.1614 27.1446 15.0006 27.2968 14.8235 27.4428C14.6958 27.5484 14.5759 27.6605 14.4545 27.7733C13.6882 28.452 12.7544 28.8551 11.7775 29.1209C11.7279 29.1348 11.6783 29.1486 11.6271 29.1628C10.5693 29.4149 9.40391 29.3467 8.43767 28.828C7.43597 28.1997 6.87636 27.3702 6.58739 26.2338C6.34687 24.6793 6.8535 23.0145 7.77003 21.7596C8.73235 20.483 10.0148 19.5276 11.5431 19.0428C11.6059 19.0228 11.6687 19.0028 11.7333 18.9822C13.0987 18.6229 14.584 18.8238 15.7216 19.669ZM9.11906 21.7983C8.18813 22.851 7.5828 24.1641 7.60157 25.5875C7.62679 25.8967 7.70348 26.188 7.79314 26.4842C7.82962 26.4658 7.86611 26.4474 7.90369 26.4284C8.30434 26.2429 8.67782 26.1504 9.1115 26.0777C9.9011 25.9406 10.5009 25.6815 10.984 25.0196C11.2107 24.6354 11.2617 24.2113 11.3375 23.7787C11.5055 22.8446 11.9161 22.1097 12.7043 21.5587C13.216 21.2472 13.7415 21.1166 14.3297 21.0445C14.6527 21.0014 14.8904 20.8998 15.176 20.742C15.176 20.7034 15.176 20.6647 15.176 20.6249C13.2949 19 10.6029 20.2627 9.11906 21.7983ZM15.4101 21.7896C15.0562 21.9523 14.695 21.9965 14.3123 22.0507C13.7285 22.1435 13.1674 22.374 12.7976 22.8555C12.4999 23.285 12.3503 23.6678 12.2829 24.1808C12.1551 25.03 11.8082 25.8108 11.133 26.367C10.5511 26.7752 9.9854 26.959 9.29109 27.0614C8.95499 27.1133 8.6807 27.2012 8.37908 27.3631C8.71009 27.8459 9.23082 28.0538 9.78533 28.1834C11.1522 28.3919 12.398 27.9236 13.506 27.1427C14.8588 26.117 15.6898 24.8126 15.969 23.1313C16.0251 22.6418 15.9766 22.148 15.8205 21.6795C15.6354 21.6795 15.5712 21.7084 15.4101 21.7896Z" fill="#C9A581"/>
<path d="M7.9412 16.6967C8.01291 16.756 8.01291 16.756 8.08608 16.8166C8.14771 16.8625 8.20935 16.9084 8.27285 16.9558C8.65735 17.3146 8.96764 17.7409 9.26162 18.1752C9.28471 18.2079 9.30781 18.2406 9.33161 18.2742C9.50895 18.5452 9.52352 18.7302 9.49233 19.0432C9.37148 19.2189 9.37148 19.2189 9.19936 19.3361C8.96501 19.3738 8.84523 19.3731 8.6457 19.2414C8.47515 19.0821 8.36178 18.9084 8.24355 18.7099C7.71778 17.868 7.0079 17.2179 6.0353 16.9338C5.68641 16.8585 5.3341 16.8063 4.98061 16.758C5.15277 17.2294 5.34877 17.6269 5.65444 18.0251C6.32004 18.8968 6.61541 19.8214 6.50405 20.9182C6.37821 21.7149 6.03799 22.3103 5.56414 22.9415C5.15226 23.4957 4.90023 24.1393 4.98061 24.8439C5.09451 25.4927 5.33727 25.9373 5.74233 26.4479C6.26103 27.1057 6.56154 27.9021 6.52694 28.7512C6.50405 28.8869 6.50405 28.8869 6.40151 29.0664C5.73152 29.4658 4.82042 29.3183 4.0973 29.1506C3.8098 29.0759 3.54643 28.9607 3.28139 28.8283C3.22437 28.8001 3.16734 28.772 3.10859 28.7429C1.63809 27.9529 0.785381 26.468 0.278461 24.9318C0.050555 24.1298 -0.0323066 23.3454 -0.0254937 22.5148C-0.025335 22.4691 -0.0251762 22.4233 -0.0250127 22.3762C-0.0211323 21.6356 0.0338447 20.9313 0.234516 20.215C0.245175 20.1754 0.255835 20.1357 0.266817 20.0949C0.586508 18.9361 1.209 17.9006 2.05092 17.051C2.09805 17.0031 2.14518 16.9552 2.19374 16.9059C3.79401 15.374 6.2395 15.3316 7.9412 16.6967ZM2.77739 17.847C1.61227 19.0197 1.0476 20.6435 1.03553 22.2814C1.03586 22.3584 1.03618 22.4355 1.03652 22.5148C1.03662 22.5549 1.03673 22.5949 1.03684 22.6361C1.03953 23.2348 1.06624 23.7972 1.23061 24.3752C1.25055 24.4471 1.27049 24.519 1.29103 24.5931C1.69647 25.919 2.45164 27.1421 3.67484 27.8503C4.23675 28.1396 4.76214 28.2238 5.39077 28.2424C5.30818 27.6827 5.03517 27.2843 4.68764 26.8471C4.12647 26.1069 3.83123 25.1894 3.92592 24.258C4.05288 23.4097 4.34227 22.7648 4.86342 22.09C5.32913 21.4815 5.53941 20.8074 5.44936 20.0393C5.3472 19.5411 5.16635 19.1539 4.86342 18.7502C4.4769 18.2223 4.13119 17.7003 3.98452 17.051C3.56562 17.051 3.06636 17.5745 2.77739 17.847Z" fill="#C9A581"/>
<path d="M18.75 0.76191C18.8823 0.872724 18.966 0.959543 19.043 1.11347C19.0548 1.55095 18.9402 1.92669 18.6914 2.28535C18.5407 2.43906 18.3868 2.58358 18.2234 2.72366C18.0866 2.8679 18.0866 2.8679 18.0824 3.08437C18.1107 3.32542 18.1695 3.40406 18.3399 3.57441C18.3967 3.61671 18.4535 3.659 18.512 3.70258C18.804 3.9353 18.9705 4.32693 19.043 4.68769C19.0846 5.20791 18.9331 5.64789 18.6104 6.0516C18.5157 6.15253 18.5157 6.15253 18.3289 6.2917C18.1252 6.48183 18.0974 6.63275 18.0288 6.89571C17.9738 7.08018 17.9205 7.16677 17.7539 7.26582C17.4712 7.30621 17.3536 7.30715 17.1094 7.15962C16.9346 6.8811 16.9405 6.64832 16.9922 6.32832C17.1269 5.88237 17.4039 5.60133 17.7475 5.29835C17.8941 5.13001 17.9185 5.02555 17.9297 4.80488C17.8442 4.58265 17.7023 4.46552 17.5232 4.31782C17.234 4.07482 17.1097 3.80977 16.9922 3.45722C16.9432 2.87692 17.0063 2.43604 17.3694 1.97407C17.5196 1.8166 17.5196 1.8166 17.677 1.69209C17.8809 1.52678 17.9183 1.39123 17.9846 1.13911C18.0427 0.95138 18.0673 0.873807 18.2227 0.76191C18.4327 0.691903 18.5373 0.705466 18.75 0.76191Z" fill="#C9A581"/>
<path d="M15.7619 0.761804C15.9174 0.87639 15.9828 0.946857 16.0335 1.13351C16.0931 1.5692 15.9337 1.93867 15.6831 2.28684C15.5481 2.44767 15.4005 2.56711 15.2345 2.6954C15.0873 2.91622 15.0863 3.01951 15.1173 3.28133C15.2518 3.47339 15.3931 3.61617 15.5604 3.77938C15.915 4.14305 16.0231 4.47949 16.0548 4.98055C16.0222 5.51481 15.7514 5.88287 15.37 6.23666C15.1382 6.45736 15.0697 6.60524 15.0255 6.91689C15.0001 7.03134 15.0001 7.03134 14.872 7.18148C14.6601 7.28975 14.5322 7.29931 14.297 7.26571C14.1021 7.15554 14.0231 7.08589 13.9491 6.87386C13.9405 6.41723 14.0684 6.03927 14.3556 5.68368C14.4488 5.5949 14.5428 5.50704 14.6376 5.42001C14.8579 5.20852 14.8579 5.20852 14.9562 4.92928C14.9243 4.64298 14.6852 4.47092 14.4856 4.28573C14.1316 3.95434 13.9765 3.60217 13.9438 3.1202C13.9496 2.64858 14.1147 2.29477 14.4142 1.93368C14.4747 1.88033 14.5369 1.8288 14.601 1.77987C14.7998 1.61201 14.8536 1.47333 14.9415 1.23055C15.0786 0.853564 15.0786 0.853564 15.2199 0.732507C15.4181 0.68846 15.5657 0.712763 15.7619 0.761804Z" fill="#C9A581"/>
<path d="M12.7737 0.761751C12.9165 0.842317 12.9165 0.842317 13.0081 0.996126C13.0953 1.44071 12.9776 1.79356 12.7654 2.18357C12.6305 2.382 12.4811 2.52334 12.2894 2.66605C12.1697 2.76956 12.1191 2.83732 12.0706 2.98831C12.074 3.22492 12.1097 3.31787 12.2676 3.49666C12.3246 3.54764 12.3817 3.59863 12.4404 3.65116C12.8568 4.04657 13.0148 4.34087 13.041 4.91824C13.0173 5.5882 12.7337 5.91233 12.2601 6.35585C12.0908 6.54736 12.038 6.71671 11.9941 6.96514C11.9398 7.13138 11.8689 7.17952 11.719 7.26566C11.5322 7.29234 11.4271 7.30689 11.2502 7.26566C11.0277 7.09764 11.0277 7.09764 10.9573 6.91409C10.9231 6.51297 11.0104 6.1254 11.2502 5.80081C11.3988 5.64066 11.5518 5.48812 11.7105 5.33801C11.8527 5.1987 11.8872 5.1377 11.9241 4.94388C11.8743 4.60797 11.6171 4.41141 11.3853 4.1769C11.0834 3.85454 10.9867 3.51284 10.9316 3.07987C11.0098 2.44326 11.2973 2.02851 11.7666 1.61136C11.9159 1.4407 11.9381 1.32229 11.9811 1.10553C12.0266 0.944214 12.1167 0.863063 12.2463 0.761751C12.433 0.668427 12.5746 0.717124 12.7737 0.761751Z" fill="#C9A581"/>
</g>
<defs>
<clipPath id="clip0_257_336">
<rect width="30" height="30" fill="white"/>
</clipPath>
</defs>
</svg>
