<svg width="30" height="30" viewBox="0 0 30 30" fill="none" xmlns="http://www.w3.org/2000/svg">
<path d="M28.4297 24.1641C28.2303 23.8855 27.9777 23.6493 27.6864 23.4691C27.3952 23.2888 27.071 23.1682 26.7328 23.1141C25.8174 22.9709 24.8824 23.195 24.1312 23.7375C23.9271 23.8779 23.7385 24.0398 23.5687 24.2203C23.5266 24.1359 23.4844 24.0516 23.4375 23.9719V10.0781C23.4375 8.79375 21.1781 8.15625 19.4859 7.85625L20.5922 5.09531C20.5969 5.07656 20.6063 5.0625 20.6109 5.04375L21.2297 2.70469C21.2871 2.49692 21.2954 2.27864 21.2539 2.06712C21.2124 1.85559 21.1223 1.65662 20.9906 1.48594C20.8591 1.31514 20.6901 1.17684 20.4967 1.08175C20.3033 0.986654 20.0906 0.937301 19.875 0.937502H19.8234C19.5527 0.93707 19.2877 1.01524 19.0605 1.16252C18.8334 1.3098 18.6538 1.51986 18.5438 1.76719L17.3859 4.34063C17.3762 4.35849 17.3683 4.37735 17.3625 4.39688L16.4203 7.54219C15.9422 7.51875 15.4641 7.5 15 7.5C10.9359 7.5 6.5625 8.30625 6.5625 10.0781V11.7188H6.09375C4.72623 11.7188 3.41472 12.262 2.44773 13.229C1.48075 14.196 0.9375 15.5075 0.9375 16.875C0.9375 18.2425 1.48075 19.554 2.44773 20.521C3.41472 21.488 4.72623 22.0313 6.09375 22.0313H6.5625V26.25C6.56306 26.2815 6.5662 26.3128 6.57188 26.3438C6.56719 26.3906 6.5625 26.4375 6.5625 26.4844C6.5625 28.2563 10.9359 29.0625 15 29.0625C16.5889 29.0742 18.1755 28.9377 19.7391 28.6547C20.1419 28.9183 20.6123 29.0599 21.0938 29.0625C21.4911 29.0552 21.8818 28.9582 22.2365 28.7788C22.5911 28.5995 22.9008 28.3423 23.1422 28.0266C23.5414 28.5293 24.1124 28.8665 24.7453 28.9734C24.9252 29.0016 25.107 29.0157 25.2891 29.0156C26.0291 29.0092 26.7492 28.7752 27.3516 28.3453C28.0404 27.8771 28.543 27.1821 28.7719 26.3813C28.8844 26.0096 28.912 25.6175 28.8528 25.2338C28.7936 24.85 28.649 24.4845 28.4297 24.1641ZM6.5625 19.2188H6.09375C5.47215 19.2188 4.87601 18.9718 4.43647 18.5323C3.99693 18.0927 3.75 17.4966 3.75 16.875C3.75 16.2534 3.99693 15.6573 4.43647 15.2177C4.87601 14.7782 5.47215 14.5313 6.09375 14.5313H6.5625V19.2188ZM6.5625 13.5938H6.09375C5.22351 13.5938 4.38891 13.9395 3.77356 14.5548C3.1582 15.1702 2.8125 16.0048 2.8125 16.875C2.8125 17.7452 3.1582 18.5798 3.77356 19.1952C4.38891 19.8106 5.22351 20.1563 6.09375 20.1563H6.5625V21.0938H6.09375C4.97487 21.0938 3.90181 20.6493 3.11064 19.8581C2.31947 19.0669 1.875 17.9939 1.875 16.875C1.875 15.7561 2.31947 14.6831 3.11064 13.8919C3.90181 13.1007 4.97487 12.6563 6.09375 12.6563H6.5625V13.5938ZM22.5 10.0781C22.5 10.2 22.3687 10.3406 22.1297 10.4953C21.0596 10.0469 19.9311 9.75333 18.7781 9.62344L19.1297 8.74688C21.6375 9.16407 22.5 9.825 22.5 10.0781ZM18.2531 4.69688L19.3969 2.15156C19.4338 2.06932 19.4937 1.99949 19.5694 1.95043C19.6451 1.90138 19.7333 1.87519 19.8234 1.875H19.875C19.9467 1.87464 20.0175 1.89097 20.0817 1.9227C20.146 1.95443 20.202 2.00069 20.2453 2.05781C20.289 2.11509 20.319 2.18168 20.3328 2.25241C20.3466 2.32314 20.344 2.3961 20.325 2.46563L19.7109 4.77188L17.4937 10.3125H16.5656L18.2531 4.69688ZM17.8125 11.25C17.9064 11.2501 17.9981 11.222 18.0759 11.1693C18.1536 11.1167 18.2137 11.0419 18.2484 10.9547L18.4219 10.5234C19.2514 10.6209 20.0714 10.7871 20.8734 11.0203C18.958 11.527 16.9809 11.7621 15 11.7188C13.0191 11.7621 11.042 11.527 9.12656 11.0203C11.0425 10.5156 13.019 10.2774 15 10.3125C15.2016 10.3125 15.3891 10.3219 15.5859 10.3266L15.4875 10.6453C15.4668 10.7159 15.4628 10.7903 15.4758 10.8628C15.4888 10.9352 15.5185 11.0035 15.5625 11.0625C15.6062 11.1207 15.6628 11.168 15.7279 11.2005C15.793 11.2331 15.8647 11.25 15.9375 11.25H17.8125ZM15 8.4375C15.375 8.4375 15.7594 8.45625 16.1391 8.47032L15.8625 9.39375C15.5766 9.38438 15.2953 9.375 15 9.375C12.0328 9.375 9.34219 9.80157 7.86563 10.4953C7.62656 10.3406 7.5 10.1953 7.5 10.0781C7.5 9.52032 10.1484 8.4375 15 8.4375ZM20.6906 27.4125C20.5837 27.5873 20.4986 27.7747 20.4375 27.9703C20.0509 27.7549 19.732 27.4359 19.5167 27.0492C19.3014 26.6625 19.1982 26.2234 19.2188 25.7813C19.2188 24.6141 19.9031 23.6531 20.7984 23.475C20.7656 23.5359 20.7328 23.5969 20.6906 23.6625C20.4642 24.014 20.3438 24.4233 20.3438 24.8414C20.3438 25.2595 20.4642 25.6688 20.6906 26.0203C20.8388 26.2224 20.9147 26.4684 20.9062 26.7188C20.9147 26.9677 20.8387 27.2122 20.6906 27.4125ZM18.2812 25.7813C18.2776 26.5179 18.4965 27.2384 18.9094 27.8484C17.6148 28.0363 16.3081 28.1288 15 28.125C10.1484 28.125 7.5 27.0422 7.5 26.4844C7.50076 26.4678 7.5056 26.4517 7.51406 26.4375C7.54187 26.3735 7.55504 26.3041 7.55261 26.2344C7.55018 26.1646 7.5322 26.0963 7.5 26.0344V11.3438C9 12.2344 12.075 12.6563 15 12.6563C17.925 12.6563 21 12.2344 22.5 11.3438V22.9453C22.087 22.6583 21.5967 22.5031 21.0938 22.5C19.5422 22.5 18.2812 23.9719 18.2812 25.7813ZM21.3891 28.0875C21.4219 28.0266 21.4547 27.9656 21.4969 27.8953C21.7233 27.5438 21.8437 27.1345 21.8437 26.7164C21.8437 26.2983 21.7233 25.889 21.4969 25.5375C21.3564 25.3325 21.2813 25.0899 21.2813 24.8414C21.2813 24.5929 21.3564 24.3503 21.4969 24.1453C21.6048 23.9726 21.6899 23.7867 21.75 23.5922C22.1366 23.8076 22.4555 24.1266 22.6708 24.5133C22.8861 24.9 22.9893 25.3391 22.9688 25.7813C22.9687 26.9484 22.2844 27.9094 21.3891 28.0875ZM23.8781 25.3453C24.0796 25.014 24.3478 24.7283 24.6656 24.5063C25.2138 24.1062 25.8974 23.9378 26.5688 24.0375C26.8963 24.0897 27.202 24.2345 27.45 24.4547C27.3698 24.4753 27.2884 24.4909 27.2063 24.5016C26.8099 24.5495 26.4323 24.698 26.1094 24.9328C25.7779 25.1541 25.5098 25.4578 25.3313 25.8141C25.2233 26.0466 25.0529 26.2446 24.8391 26.3859C24.6347 26.5398 24.3909 26.6324 24.1359 26.6531C24.0281 26.6719 23.9109 26.6953 23.7844 26.7281C23.8658 26.4191 23.9068 26.1008 23.9062 25.7813C23.9064 25.6355 23.897 25.4899 23.8781 25.3453ZM27.8672 26.1375C27.6772 26.7528 27.2767 27.2816 26.7359 27.6313C26.1951 27.981 25.5485 28.1292 24.9094 28.05C24.5828 27.9962 24.2786 27.8497 24.0328 27.6281C24.1125 27.6094 24.1922 27.5953 24.2766 27.5813C24.6729 27.5362 25.0508 27.3893 25.3734 27.1547C25.7043 26.9307 25.9722 26.6257 26.1516 26.2688C26.2689 26.0424 26.4394 25.8478 26.6484 25.7016C26.8574 25.5555 27.0986 25.4622 27.3516 25.4297C27.5402 25.4041 27.7257 25.3586 27.9047 25.2938C27.9572 25.5741 27.9444 25.8629 27.8672 26.1375Z" fill="#C9A581"/>
</svg>
