<svg width="30" height="30" viewBox="0 0 30 30" fill="none" xmlns="http://www.w3.org/2000/svg">
<g clip-path="url(#clip0_117_498)">
<path d="M28.9547 24.075C28.9108 24.0219 28.8556 23.9792 28.7932 23.95C28.7308 23.9208 28.6627 23.9059 28.5938 23.9062H26.7047C27.0163 23.5036 27.1861 23.0092 27.1875 22.5V1.40625C27.1875 1.28193 27.1381 1.1627 27.0502 1.07479C26.9623 0.986886 26.8431 0.9375 26.7188 0.9375H7.03125C6.90693 0.9375 6.7877 0.986886 6.69979 1.07479C6.61189 1.1627 6.5625 1.28193 6.5625 1.40625V4.6875H4.21875C3.34881 4.68849 2.51479 5.03451 1.89965 5.64965C1.28451 6.26479 0.938493 7.09881 0.9375 7.96875V15C0.938493 15.8699 1.28451 16.704 1.89965 17.3191C2.51479 17.9342 3.34881 18.2803 4.21875 18.2812H6.5625V22.5C6.56392 23.0092 6.73367 23.5036 7.04531 23.9062H5.15625C5.08734 23.9059 5.01921 23.9208 4.95679 23.95C4.89437 23.9792 4.83921 24.0219 4.79531 24.075C4.75133 24.1286 4.7197 24.1913 4.70269 24.2585C4.68567 24.3258 4.68369 24.396 4.69688 24.4641L5.15625 26.8078C5.17691 26.9146 5.23403 27.0108 5.31783 27.0801C5.40163 27.1493 5.5069 27.1873 5.61562 27.1875H5.9625L6.34219 28.7063C6.36731 28.8079 6.42573 28.8982 6.50814 28.9627C6.59054 29.0273 6.69219 29.0624 6.79688 29.0625H26.9531C27.0578 29.0624 27.1595 29.0273 27.2419 28.9627C27.3243 28.8982 27.3827 28.8079 27.4078 28.7063L27.7875 27.1875H28.1344C28.2431 27.1873 28.3484 27.1493 28.4322 27.0801C28.516 27.0108 28.5731 26.9146 28.5938 26.8078L29.0531 24.4641C29.0663 24.396 29.0643 24.3258 29.0473 24.2585C29.0303 24.1913 28.9987 24.1286 28.9547 24.075ZM6.5625 15H4.6875C4.56318 15 4.44395 14.9506 4.35604 14.8627C4.26814 14.7748 4.21875 14.6556 4.21875 14.5312V8.4375C4.21875 8.31318 4.26814 8.19395 4.35604 8.10604C4.44395 8.01814 4.56318 7.96875 4.6875 7.96875H6.5625V15ZM6.5625 7.03125H4.6875C4.31488 7.03236 3.95784 7.18088 3.69436 7.44436C3.43088 7.70784 3.28236 8.06488 3.28125 8.4375V14.5312C3.28236 14.9039 3.43088 15.2609 3.69436 15.5244C3.95784 15.7879 4.31488 15.9364 4.6875 15.9375H6.5625V17.3438H4.21875C3.59715 17.3438 3.00101 17.0968 2.56147 16.6573C2.12193 16.2177 1.875 15.6216 1.875 15V7.96875C1.875 7.34715 2.12193 6.75101 2.56147 6.31147C3.00101 5.87193 3.59715 5.625 4.21875 5.625H6.5625V7.03125ZM7.5 1.875H26.25V22.5C26.2489 22.8726 26.1004 23.2297 25.8369 23.4931C25.5734 23.7566 25.2164 23.9051 24.8438 23.9062H22.2469C22.3917 23.8336 22.5311 23.7505 22.6641 23.6578C23.3529 23.1896 23.8555 22.4945 24.0844 21.6937C24.1948 21.3447 24.2283 20.9758 24.1824 20.6126C24.1365 20.2494 24.0123 19.9004 23.8185 19.5898C23.6246 19.2792 23.3657 19.0144 23.0596 18.8136C22.7535 18.6127 22.4074 18.4807 22.0453 18.4266C21.1299 18.2834 20.1949 18.5075 19.4438 19.05C19.2396 19.1904 19.051 19.3523 18.8812 19.5328C18.6764 19.0394 18.3343 18.6152 17.8957 18.3102C17.457 18.0053 16.9401 17.8326 16.4062 17.8125C14.8547 17.8125 13.5938 19.2844 13.5938 21.0938C13.5818 21.6381 13.7002 22.1774 13.9392 22.6667C14.1781 23.1559 14.5306 23.5809 14.9672 23.9062H8.90625C8.53363 23.9051 8.17659 23.7566 7.91311 23.4931C7.64963 23.2297 7.50111 22.8726 7.5 22.5V1.875ZM19.1906 20.6578C19.3921 20.3265 19.6603 20.0408 19.9781 19.8187C20.5263 19.4187 21.2099 19.2503 21.8813 19.35C22.2088 19.4022 22.5145 19.547 22.7625 19.7672C22.6823 19.7878 22.6009 19.8034 22.5188 19.8141C22.1224 19.862 21.7448 20.0105 21.4219 20.2453C21.0904 20.4666 20.8223 20.7703 20.6438 21.1266C20.5358 21.3591 20.3654 21.5571 20.1516 21.6984C19.9472 21.8523 19.7034 21.9449 19.4484 21.9656C19.3406 21.9844 19.2234 22.0078 19.0969 22.0406C19.1783 21.7316 19.2193 21.4133 19.2188 21.0938C19.2189 20.948 19.2095 20.8024 19.1906 20.6578ZM19.5891 22.8937C19.9854 22.8487 20.3633 22.7017 20.6859 22.4672C21.0168 22.2432 21.2847 21.9382 21.4641 21.5813C21.5814 21.3549 21.7519 21.1603 21.9609 21.0141C22.1699 20.868 22.4111 20.7747 22.6641 20.7422C22.8527 20.7166 23.0382 20.6711 23.2172 20.6062C23.2697 20.8866 23.2569 21.1754 23.1797 21.45C22.9897 22.0653 22.5892 22.5941 22.0484 22.9438C21.5076 23.2935 20.861 23.4417 20.2219 23.3625C19.8953 23.3087 19.5911 23.1622 19.3453 22.9406C19.425 22.9219 19.5047 22.9078 19.5891 22.8937ZM16.8094 20.85C16.6689 20.645 16.5938 20.4024 16.5938 20.1539C16.5938 19.9054 16.6689 19.6628 16.8094 19.4578C16.9173 19.2851 17.0024 19.0992 17.0625 18.9047C17.4491 19.1201 17.768 19.4391 17.9833 19.8258C18.1986 20.2125 18.3018 20.6516 18.2812 21.0938C18.2812 22.2609 17.5969 23.2219 16.7016 23.4C16.7344 23.3391 16.7672 23.2781 16.8094 23.2078C17.0358 22.8563 17.1562 22.447 17.1562 22.0289C17.1562 21.6108 17.0358 21.2015 16.8094 20.85ZM18.4547 23.3391C18.6269 23.5622 18.8362 23.754 19.0734 23.9062H17.8453C18.0746 23.7474 18.2799 23.5564 18.4547 23.3391ZM16.0031 21.3328C16.1513 21.5349 16.2272 21.7808 16.2187 22.0312C16.2272 22.2802 16.1512 22.5247 16.0031 22.725C15.8962 22.8998 15.8111 23.0872 15.75 23.2828C15.3634 23.0674 15.0445 22.7484 14.8292 22.3617C14.6139 21.975 14.5107 21.5359 14.5312 21.0938C14.5312 19.9266 15.2156 18.9656 16.1109 18.7875C16.0781 18.8484 16.0453 18.9094 16.0031 18.975C15.7767 19.3265 15.6563 19.7358 15.6563 20.1539C15.6563 20.572 15.7767 20.9813 16.0031 21.3328ZM26.5875 28.125H7.1625L6.92812 27.1875H26.8219L26.5875 28.125ZM27.75 26.25H6L5.72344 24.8438H28.0266L27.75 26.25Z" fill="#C9A581"/>
<path d="M16.875 16.0716C16.9362 16.0717 16.9967 16.0596 17.0532 16.036C17.2969 15.9376 22.9688 13.5535 22.9688 9.04037C22.9719 8.33265 22.7625 7.64029 22.3677 7.05295C21.9728 6.46562 21.4107 6.01038 20.7541 5.74618C20.0975 5.48199 19.3768 5.42102 18.6852 5.57117C17.9935 5.72132 17.3629 6.07568 16.875 6.58834C16.3871 6.07568 15.7565 5.72132 15.0649 5.57117C14.3733 5.42102 13.6525 5.48199 12.996 5.74618C12.3394 6.01038 11.7773 6.46562 11.3824 7.05295C10.9875 7.64029 10.7781 8.33265 10.7813 9.04037C10.7813 13.3191 16.4414 15.9212 16.6824 16.0313C16.743 16.0582 16.8087 16.072 16.875 16.0716ZM11.7188 9.04037C11.7157 8.48059 11.8935 7.93478 12.2258 7.4843C12.5581 7.03382 13.0271 6.70277 13.5629 6.54051C14.0986 6.37824 14.6725 6.39344 15.1989 6.58384C15.7253 6.77424 16.1761 7.12965 16.4841 7.59709C16.5294 7.65808 16.5884 7.70762 16.6562 7.74175C16.7241 7.77588 16.7991 7.79366 16.875 7.79366C16.951 7.79366 17.0259 7.77588 17.0938 7.74175C17.1617 7.70762 17.2207 7.65808 17.266 7.59709C17.574 7.12965 18.0248 6.77424 18.5512 6.58384C19.0776 6.39344 19.6514 6.37824 20.1872 6.54051C20.723 6.70277 21.1919 7.03382 21.5243 7.4843C21.8566 7.93478 22.0344 8.48059 22.0313 9.04037C22.0313 12.5049 17.8271 14.6485 16.883 15.0872C15.9399 14.6157 11.7188 12.3254 11.7188 9.04037Z" fill="#C9A581"/>
</g>
<defs>
<clipPath id="clip0_117_498">
<rect width="30" height="30" fill="white"/>
</clipPath>
</defs>
</svg>
