<svg width="30" height="30" viewBox="0 0 30 30" fill="none" xmlns="http://www.w3.org/2000/svg">
<path d="M24.3702 4.61251C24.3524 4.5024 24.2958 4.40226 24.2108 4.33008C24.1257 4.25791 24.0177 4.21844 23.9061 4.21876H20.5171L21.5296 1.57501C21.5575 1.50371 21.5673 1.42663 21.5583 1.35059C21.5494 1.27456 21.5218 1.20191 21.478 1.13908C21.4354 1.07649 21.3781 1.02536 21.311 0.990204C21.244 0.955049 21.1693 0.936952 21.0936 0.937513H19.2186C19.1242 0.937792 19.0321 0.966582 18.9543 1.02011C18.8765 1.07364 18.8167 1.14942 18.7827 1.23751L17.639 4.21876H6.09364C5.98208 4.21844 5.87408 4.25791 5.78902 4.33008C5.70396 4.40226 5.64742 4.5024 5.62957 4.61251L5.16082 7.42501C5.14994 7.49215 5.1538 7.56085 5.17213 7.62635C5.19046 7.69185 5.22283 7.75258 5.26698 7.80431C5.31114 7.85605 5.36602 7.89756 5.42782 7.92595C5.48963 7.95435 5.55687 7.96896 5.62489 7.96876H6.58114L7.49989 28.6125C7.50473 28.7336 7.55625 28.848 7.64364 28.9319C7.73103 29.0158 7.8475 29.0626 7.96864 29.0625H22.0311C22.1523 29.0626 22.2687 29.0158 22.3561 28.9319C22.4435 28.848 22.495 28.7336 22.4999 28.6125L23.4186 7.96876H24.3749C24.4429 7.96896 24.5101 7.95435 24.572 7.92595C24.6338 7.89756 24.6886 7.85605 24.7328 7.80431C24.7769 7.75258 24.8093 7.69185 24.8276 7.62635C24.846 7.56085 24.8498 7.49215 24.839 7.42501L24.3702 4.61251ZM19.5421 1.87501H20.4139L19.514 4.21876H18.6421L19.5421 1.87501ZM21.5811 28.125H8.41864L7.52332 7.96876H22.4765L21.5811 28.125ZM6.17801 7.03126L6.49207 5.15626H23.5077L23.8218 7.03126H6.17801Z" fill="#C9A581"/>
<path d="M14.8074 22.5938C14.8679 22.6212 14.9336 22.6354 15 22.6355C15.0612 22.6356 15.1217 22.6235 15.1782 22.5999C15.4219 22.5001 21.0938 20.116 21.0938 15.6029C21.0969 14.8952 20.8875 14.2028 20.4927 13.6155C20.0978 13.0281 19.5357 12.5729 18.8791 12.3087C18.2225 12.0445 17.5018 11.9835 16.8102 12.1337C16.1185 12.2838 15.4879 12.6382 15 13.1508C14.5121 12.6382 13.8815 12.2838 13.1899 12.1337C12.4983 11.9835 11.7775 12.0445 11.121 12.3087C10.4644 12.5729 9.90228 13.0281 9.50741 13.6155C9.11255 14.2028 8.90313 14.8952 8.90629 15.6029C8.90629 19.8816 14.5664 22.4837 14.8074 22.5938ZM12.4435 12.991C12.873 12.9911 13.2958 13.0979 13.6738 13.3019C14.0518 13.5059 14.3732 13.8006 14.6091 14.1596C14.6544 14.2206 14.7134 14.2701 14.7812 14.3043C14.8491 14.3384 14.9241 14.3562 15 14.3562C15.076 14.3562 15.1509 14.3384 15.2188 14.3043C15.2867 14.2701 15.3457 14.2206 15.391 14.1596C15.699 13.6921 16.1498 13.3367 16.6762 13.1463C17.2026 12.9559 17.7764 12.9407 18.3122 13.103C18.848 13.2653 19.3169 13.5963 19.6493 14.0468C19.9816 14.4973 20.1594 15.0431 20.1563 15.6029C20.1563 19.0674 15.9521 21.211 15.008 21.6497C14.0649 21.1782 9.84379 18.8879 9.84379 15.6029C9.84304 14.912 10.1163 14.2491 10.6037 13.7595C11.091 13.2698 11.7526 12.9935 12.4435 12.991Z" fill="#C9A581"/>
</svg>
