<svg width="16" height="17" viewBox="0 0 16 17" fill="none" xmlns="http://www.w3.org/2000/svg">
<path d="M13.9846 1.04285C14.0418 1.06993 14.0895 1.09562 14.1377 1.1335C15.4626 2.17559 15.9521 3.80349 15.9969 5.27242C16.0933 8.43753 14.0337 11.4022 11.4903 13.6291C10.2667 14.7004 8.57724 15.6912 6.83221 16.0253C6.31492 16.1243 5.80491 16.15 5.27697 16.161C4.55166 16.1404 3.9207 16.0547 3.24889 15.8176C3.24851 15.7944 3.24843 15.7712 3.24868 15.748C3.27837 12.9154 5.35618 10.3031 7.79139 8.45219C8.34887 8.02848 8.95719 7.6579 9.53898 7.25865C9.99543 6.94545 10.4302 6.60215 10.8493 6.25488C12.7201 4.70478 13.9789 3.34711 13.9846 1.04285Z" fill="#C9A581"/>
<path d="M10.447 0.18379C11.3562 0.098964 12.5506 0.25085 13.3421 0.645371C13.3097 2.3667 12.4918 3.52903 11.1375 4.7705C10.8207 5.06228 10.4909 5.34362 10.1483 5.61448C9.80578 5.88531 9.45138 6.14487 9.08513 6.39319C8.47629 6.80807 7.81159 7.17925 7.22737 7.61693C6.98019 7.80498 6.73936 7.99852 6.50486 8.19756C6.27036 8.39659 6.04257 8.60081 5.82143 8.81023C5.6003 9.0196 5.38618 9.23388 5.17908 9.45305C4.97201 9.67224 4.77225 9.89595 4.57979 10.1242C3.29393 11.6515 2.40108 13.6026 2.79295 15.4847C2.80354 15.5517 2.81668 15.5584 2.77783 15.6211C2.64284 15.6072 2.52814 15.5195 2.42514 15.4494C0.964389 14.4548 0.234467 13.0218 0.0527491 11.4789C-0.275324 8.69193 0.950286 5.77396 3.07866 3.63267C4.95343 1.74642 7.48489 0.416994 10.447 0.18379Z" fill="#C9A581"/>
</svg>
