<svg width="30" height="30" viewBox="0 0 30 30" fill="none" xmlns="http://www.w3.org/2000/svg">
<g clip-path="url(#clip0_124_277)">
<path d="M28.5938 25.7813H17.1061C18.3931 25.21 19.5671 24.4122 20.572 23.4258C21.3314 23.7424 22.146 23.9057 22.9688 23.9063C24.5531 23.9349 26.0843 23.3342 27.2265 22.2359C28.3688 21.1376 29.029 19.6312 29.0625 18.0469C29.0484 16.7881 28.6306 15.5671 27.8704 14.5636C27.1102 13.5602 26.048 12.8273 24.84 12.473C24.8358 12.0544 24.8189 11.6292 24.7852 11.212C24.7756 11.0944 24.722 10.9847 24.6351 10.9049C24.5482 10.825 24.4344 10.7809 24.3164 10.7813H1.46344C1.34542 10.7809 1.23161 10.825 1.14471 10.9049C1.05782 10.9847 1.00425 11.0944 0.994687 11.212C0.957187 11.6925 0.9375 12.1786 0.9375 12.6563C0.9375 18.8044 3.90234 23.7895 8.29688 25.7813H1.40625C1.28193 25.7813 1.1627 25.8306 1.07479 25.9185C0.986886 26.0065 0.9375 26.1257 0.9375 26.25V27.6563C0.9375 28.0292 1.08566 28.3869 1.34938 28.6506C1.6131 28.9143 1.97079 29.0625 2.34375 29.0625H27.6562C28.0292 29.0625 28.3869 28.9143 28.6506 28.6506C28.9143 28.3869 29.0625 28.0292 29.0625 27.6563V26.25C29.0625 26.1257 29.0131 26.0065 28.9252 25.9185C28.8373 25.8306 28.7181 25.7813 28.5938 25.7813ZM28.125 18.0469C28.0917 19.3826 27.5303 20.6506 26.5638 21.5732C25.5973 22.4957 24.3046 22.9976 22.9688 22.9688C22.3909 22.9692 21.8169 22.8758 21.2691 22.6922C21.5838 22.3319 21.8788 21.9548 22.1527 21.5625C22.4204 21.6242 22.694 21.6572 22.9688 21.6609C23.9449 21.6775 24.8877 21.3064 25.5907 20.6289C26.2936 19.9515 26.6993 19.0229 26.7188 18.0469C26.7158 17.379 26.5253 16.7253 26.1689 16.1604C25.8126 15.5955 25.3047 15.1421 24.7031 14.8519C24.7625 14.3944 24.8033 13.9294 24.8255 13.4569C25.7801 13.7908 26.6088 14.4104 27.1991 15.2316C27.7893 16.0527 28.1126 17.0356 28.125 18.0469ZM22.7086 20.7033C23.596 19.1984 24.2156 17.551 24.54 15.8344C24.9173 16.0679 25.2291 16.3934 25.4462 16.7804C25.6633 17.1674 25.7786 17.6032 25.7812 18.0469C25.762 18.7744 25.4551 19.4645 24.928 19.9662C24.4008 20.4679 23.6963 20.7402 22.9688 20.7234C22.8806 20.7234 22.7948 20.7108 22.7086 20.7033ZM1.875 12.6563C1.875 12.3464 1.88391 12.0323 1.90125 11.7188H23.88C23.8973 12.0323 23.9062 12.3464 23.9062 12.6563C23.9062 20.0156 18.9647 25.7813 12.6562 25.7813C6.51 25.7813 1.875 20.1389 1.875 12.6563ZM28.125 27.6563C28.125 27.7806 28.0756 27.8998 27.9877 27.9877C27.8998 28.0756 27.7806 28.125 27.6562 28.125H2.34375C2.21943 28.125 2.1002 28.0756 2.01229 27.9877C1.92439 27.8998 1.875 27.7806 1.875 27.6563V26.7188H28.125V27.6563Z" fill="#C9A581"/>
<path d="M4.6875 7.03125C4.6875 6.65829 4.83566 6.3006 5.09938 6.03688C5.3631 5.77316 5.72079 5.625 6.09375 5.625H9.375C9.74796 5.625 10.1056 5.47684 10.3694 5.21312C10.6331 4.9494 10.7812 4.59171 10.7812 4.21875V0.9375H9.84375V4.21875C9.84375 4.34307 9.79436 4.4623 9.70646 4.55021C9.61855 4.63811 9.49932 4.6875 9.375 4.6875H6.09375C5.47238 4.68824 4.87667 4.93541 4.43729 5.37479C3.99791 5.81417 3.75074 6.40988 3.75 7.03125V8.90625H4.6875V7.03125Z" fill="#C9A581"/>
<path d="M7.5 6.5625C7.12704 6.5625 6.76935 6.71066 6.50563 6.97438C6.24191 7.2381 6.09375 7.59579 6.09375 7.96875V8.90625H7.03125V7.96875C7.03125 7.84443 7.08064 7.7252 7.16854 7.63729C7.25645 7.54939 7.37568 7.5 7.5 7.5H10.7812C11.4026 7.49926 11.9983 7.25209 12.4377 6.81271C12.8771 6.37333 13.1243 5.77762 13.125 5.15625V3.28125H12.1875V5.15625C12.1875 5.52921 12.0393 5.8869 11.7756 6.15062C11.5119 6.41434 11.1542 6.5625 10.7812 6.5625H7.5Z" fill="#C9A581"/>
<path d="M12.1875 0.9375H13.125V2.34375H12.1875V0.9375Z" fill="#C9A581"/>
<path d="M15 7.03125C15 6.65829 15.1482 6.3006 15.4119 6.03688C15.6756 5.77316 16.0333 5.625 16.4062 5.625H19.6875C20.0605 5.625 20.4181 5.47684 20.6819 5.21312C20.9456 4.9494 21.0938 4.59171 21.0938 4.21875V0.9375H20.1562V4.21875C20.1562 4.34307 20.1069 4.4623 20.019 4.55021C19.931 4.63811 19.8118 4.6875 19.6875 4.6875H16.4062C15.7849 4.68824 15.1892 4.93541 14.7498 5.37479C14.3104 5.81417 14.0632 6.40988 14.0625 7.03125V8.90625H15V7.03125Z" fill="#C9A581"/>
<path d="M17.8125 6.5625C17.4395 6.5625 17.0819 6.71066 16.8181 6.97438C16.5544 7.2381 16.4062 7.59579 16.4062 7.96875V8.90625H17.3438V7.96875C17.3438 7.84443 17.3931 7.7252 17.481 7.63729C17.569 7.54939 17.6882 7.5 17.8125 7.5H21.0938C21.7151 7.49926 22.3108 7.25209 22.7502 6.81271C23.1896 6.37333 23.4368 5.77762 23.4375 5.15625V3.28125H22.5V5.15625C22.5 5.52921 22.3518 5.8869 22.0881 6.15062C21.8244 6.41434 21.4667 6.5625 21.0938 6.5625H17.8125Z" fill="#C9A581"/>
<path d="M22.5 0.9375H23.4375V2.34375H22.5V0.9375Z" fill="#C9A581"/>
</g>
<defs>
<clipPath id="clip0_124_277">
<rect width="30" height="30" fill="white"/>
</clipPath>
</defs>
</svg>
