<svg width="30" height="30" viewBox="0 0 30 30" fill="none" xmlns="http://www.w3.org/2000/svg">
<path d="M23.4375 10.7812H22.4859C22.3792 9.12092 21.7243 7.54301 20.6239 6.29507C19.5236 5.04713 18.0401 4.19977 16.4062 3.88594V1.40625C16.4062 1.28193 16.3569 1.1627 16.269 1.07479C16.181 0.986886 16.0618 0.9375 15.9375 0.9375H14.0625C13.9382 0.9375 13.819 0.986886 13.731 1.07479C13.6431 1.1627 13.5938 1.28193 13.5938 1.40625V3.88594C11.9599 4.19977 10.4764 5.04713 9.37606 6.29507C8.27573 7.54301 7.62082 9.12092 7.51406 10.7812H6.5625C6.43818 10.7812 6.31895 10.8306 6.23104 10.9185C6.14314 11.0065 6.09375 11.1257 6.09375 11.25V13.125C6.09375 13.2493 6.14314 13.3685 6.23104 13.4565C6.31895 13.5444 6.43818 13.5938 6.5625 13.5938H7.54219L8.90625 28.6359C8.91681 28.7528 8.97082 28.8615 9.05761 28.9404C9.1444 29.0194 9.25766 29.063 9.375 29.0625H20.625C20.7423 29.063 20.8556 29.0194 20.9424 28.9404C21.0292 28.8615 21.0832 28.7528 21.0938 28.6359L22.4578 13.5938H23.4375C23.5618 13.5938 23.681 13.5444 23.769 13.4565C23.8569 13.3685 23.9062 13.2493 23.9062 13.125V11.25C23.9062 11.1257 23.8569 11.0065 23.769 10.9185C23.681 10.8306 23.5618 10.7812 23.4375 10.7812ZM14.5312 1.875H15.4688V3.75H14.5312V1.875ZM14.5312 4.71094C14.6859 4.70156 14.8406 4.6875 15 4.6875C15.1594 4.6875 15.3141 4.70156 15.4688 4.71094V6.13125C15.1582 6.08125 14.8418 6.08125 14.5312 6.13125V4.71094ZM15 7.03125C15.6181 7.03196 16.211 7.27656 16.6499 7.71189C17.0887 8.14722 17.3381 8.73813 17.3438 9.35625C17.3337 9.42964 17.3411 9.50438 17.3655 9.57434C17.3899 9.6443 17.4305 9.70748 17.484 9.75871C17.5375 9.80994 17.6024 9.84775 17.6734 9.86905C17.7443 9.89036 17.8193 9.89453 17.8922 9.88125C18.0207 9.85847 18.1508 9.84593 18.2812 9.84375C18.7785 9.84375 19.2554 10.0413 19.6071 10.3929C19.9587 10.7446 20.1562 11.2215 20.1562 11.7188C20.1569 12.0482 20.0695 12.3719 19.9031 12.6562H10.5656C10.3992 12.3719 10.3118 12.0482 10.3125 11.7188C10.3125 11.2215 10.51 10.7446 10.8617 10.3929C11.2133 10.0413 11.6902 9.84375 12.1875 9.84375C12.3118 9.84375 12.431 9.79436 12.519 9.70646C12.6069 9.61855 12.6562 9.49932 12.6562 9.375C12.6562 8.7534 12.9032 8.15726 13.3427 7.71772C13.7823 7.27818 14.3784 7.03125 15 7.03125ZM14.5312 15.9375V13.5938H15.4688V15.9375H14.5312ZM15.4688 16.875V24.375H14.5312V16.875H15.4688ZM7.03125 12.6562V11.7188H7.96875C8.09307 11.7188 8.2123 11.6694 8.30021 11.5815C8.38811 11.4935 8.4375 11.3743 8.4375 11.25C8.43998 9.75472 8.9522 8.30497 9.88962 7.14002C10.827 5.97506 12.1336 5.16453 13.5938 4.84219V6.4125C13.1004 6.64727 12.6732 7.00116 12.3508 7.44224C12.0284 7.88332 11.8208 8.39773 11.7469 8.93906C11.0861 9.04589 10.4848 9.38408 10.0504 9.89324C9.6159 10.4024 9.37654 11.0494 9.375 11.7188C9.37458 12.0384 9.4301 12.3557 9.53906 12.6562H7.03125ZM8.47969 13.5938H13.5938V15.9375H8.69531L8.47969 13.5938ZM20.1984 28.125H9.80156L8.77969 16.875H13.5938V24.8438C13.5938 24.9681 13.6431 25.0873 13.731 25.1752C13.819 25.2631 13.9382 25.3125 14.0625 25.3125H15.9375C16.0618 25.3125 16.181 25.2631 16.269 25.1752C16.3569 25.0873 16.4062 24.9681 16.4062 24.8438V16.875H21.2203L20.1984 28.125ZM21.3047 15.9375H16.4062V13.5938H21.5203L21.3047 15.9375ZM22.9688 12.6562H20.9297C21.0386 12.3557 21.0942 12.0384 21.0938 11.7188C21.0938 10.9728 20.7974 10.2575 20.27 9.73001C19.7425 9.20257 19.0272 8.90625 18.2812 8.90625H18.2484C18.1691 8.37151 17.9595 7.86446 17.6383 7.42964C17.3171 6.99482 16.894 6.64554 16.4062 6.4125V4.84219C17.8664 5.16453 19.173 5.97506 20.1104 7.14002C21.0478 8.30497 21.56 9.75472 21.5625 11.25C21.5625 11.3743 21.6119 11.4935 21.6998 11.5815C21.7877 11.6694 21.9069 11.7188 22.0312 11.7188H22.9688V12.6562Z" fill="#C9A581"/>
</svg>
