<svg width="26" height="26" viewBox="0 0 26 26" fill="none" xmlns="http://www.w3.org/2000/svg">
<path d="M24.2668 18.7442H23.2918V14.7402C23.2918 13.0078 21.8093 11.4883 20.1192 11.4883H13.5418V7.86044H15.0585C16.015 7.85845 16.79 6.99331 16.7918 5.92557V1.93487C16.79 0.867071 16.015 0.00198401 15.0585 0H10.9417C9.98518 0.00198401 9.2102 0.867128 9.20842 1.93487V5.92557C9.2102 6.99337 9.98523 7.85845 10.9417 7.86044H12.4584V11.4883H5.88091C4.1909 11.4883 2.70833 13.0078 2.70833 14.7402V18.7442H1.73333C0.776805 18.7462 0.00177735 19.6113 0 20.6791V24.0651C0.00177735 25.1329 0.776805 25.998 1.73333 26H4.76666C5.72323 25.998 6.49821 25.1329 6.49999 24.0651V20.6791C6.49821 19.6113 5.72318 18.7462 4.76666 18.7442H3.79166V14.7402C3.79166 13.5708 4.89448 12.6977 5.88086 12.6977H12.4583V18.7442H11.4833C10.5268 18.7462 9.75178 19.6114 9.75001 20.6791V24.0651C9.75178 25.1329 10.5268 25.998 11.4833 26H14.5167C15.4732 25.998 16.2482 25.1329 16.25 24.0651V20.6791C16.2482 19.6113 15.4732 18.7462 14.5167 18.7442H13.5417V12.6977H20.1191C21.1055 12.6977 22.2083 13.5708 22.2083 14.7402V18.7442H21.2333C20.2768 18.7462 19.5018 19.6114 19.5 20.6791V24.0651C19.5018 25.1329 20.2768 25.998 21.2333 26H24.2667C25.2232 25.998 25.9982 25.1329 26 24.0651V20.6791C25.9984 19.6113 25.2233 18.7462 24.2668 18.7442ZM4.76671 19.9535C5.12569 19.9535 5.41672 20.2784 5.41672 20.6791V24.0651C5.41672 24.4658 5.12569 24.7907 4.76671 24.7907H1.73333C1.37435 24.7907 1.08332 24.4658 1.08332 24.0651V20.6791C1.08332 20.2784 1.37435 19.9535 1.73333 19.9535H4.76671ZM14.5168 19.9535C14.8757 19.9535 15.1668 20.2784 15.1668 20.6791V24.0651C15.1668 24.4658 14.8757 24.7907 14.5168 24.7907H11.4834C11.1245 24.7907 10.8334 24.4658 10.8334 24.0651V20.6791C10.8334 20.2784 11.1245 19.9535 11.4834 19.9535H14.5168ZM10.9417 6.65115C10.5828 6.65115 10.2917 6.32628 10.2917 5.92557V1.93487C10.2917 1.53415 10.5828 1.20929 10.9417 1.20929H15.0585C15.4174 1.20929 15.7085 1.53415 15.7085 1.93487V5.92557C15.7085 6.32628 15.4174 6.65115 15.0585 6.65115H10.9417ZM24.9168 24.0651C24.9168 24.4658 24.6258 24.7907 24.2668 24.7907H21.2335C20.8745 24.7907 20.5835 24.4658 20.5835 24.0651V20.6791C20.5835 20.2784 20.8745 19.9535 21.2335 19.9535H24.2668C24.6258 19.9535 24.9168 20.2784 24.9168 20.6791V24.0651Z" fill="#C9A581"/>
</svg>
