<svg width="62" height="62" viewBox="0 0 62 62" fill="none" xmlns="http://www.w3.org/2000/svg">
<path d="M10.4605 2.27537L5.2437 7.49218C0.973467 11.7624 -0.199985 18.2336 2.29898 23.7313C9.54626 39.6753 22.3247 52.4537 38.2687 59.701C43.7664 62.2 50.2376 61.0265 54.5078 56.7563L59.7246 51.5395C61.4251 49.839 61.4251 47.082 59.7246 45.3815L52.7068 38.3637C51.3815 37.0384 49.3569 36.7098 47.6805 37.548L43.7858 39.4953C40.433 41.1717 36.3837 40.5146 33.7331 37.864L24.136 28.2669C21.4854 25.6163 20.8283 21.5669 22.5047 18.2142L24.452 14.3195C25.2902 12.6431 24.9616 10.6185 23.6363 9.29317L16.6185 2.27537C14.918 0.574877 12.161 0.574878 10.4605 2.27537Z" stroke="#C9A581" stroke-width="2" stroke-linejoin="round"/>
</svg>
