<svg width="30" height="30" viewBox="0 0 30 30" fill="none" xmlns="http://www.w3.org/2000/svg">
<g clip-path="url(#clip0_146_186)">
<path d="M5.0354 -0.0297915C5.12263 -0.030062 5.20986 -0.0304345 5.29709 -0.0308994C5.53524 -0.0318727 5.77337 -0.0313966 6.01151 -0.0306683C6.26894 -0.0301361 6.52636 -0.0309574 6.78378 -0.0316011C7.2874 -0.0326414 7.79102 -0.032419 8.29465 -0.0317387C8.70397 -0.0312088 9.11329 -0.0311379 9.52261 -0.0313928C9.58093 -0.0314287 9.63925 -0.0314646 9.69934 -0.0315016C9.81782 -0.0315765 9.93631 -0.0316525 10.0548 -0.0317295C11.1649 -0.0323973 12.2749 -0.0316303 13.385 -0.0303701C14.3373 -0.0293225 15.2896 -0.0295053 16.2418 -0.0305854C17.3483 -0.0318398 18.4547 -0.0323334 19.5612 -0.0316138C19.6792 -0.0315391 19.7972 -0.0314655 19.9152 -0.0313928C20.0022 -0.0313385 20.0022 -0.0313385 20.0911 -0.0312832C20.4999 -0.0310809 20.9088 -0.0314222 21.3177 -0.0319739C21.8159 -0.0326314 22.3141 -0.032453 22.8123 -0.031205C23.0664 -0.0305893 23.3205 -0.0303473 23.5747 -0.0311228C23.8074 -0.0318221 24.0401 -0.0314358 24.2728 -0.0301905C24.3569 -0.0299291 24.441 -0.030061 24.5251 -0.0306302C25.0586 -0.0339635 25.4346 -0.00911852 25.8541 0.345353C25.8857 0.382439 25.9173 0.419524 25.9498 0.457734C25.9823 0.494367 26.0148 0.530999 26.0482 0.568742C26.2498 0.888496 26.2738 1.2472 26.2904 1.61496C26.2926 1.66322 26.2948 1.71149 26.2971 1.76122C26.3934 4.34677 25.8445 7.24253 24.0753 9.2207C23.5739 9.75062 22.8408 10.2764 22.0833 10.3195C22.039 10.3194 21.9948 10.3193 21.9492 10.3191C21.8736 10.3191 21.8736 10.3191 21.7964 10.3191C21.7425 10.3188 21.6886 10.3185 21.6331 10.3182C21.5497 10.3181 21.5497 10.3181 21.4646 10.3179C21.2873 10.3176 21.11 10.3169 20.9327 10.3161C20.8124 10.3158 20.6921 10.3156 20.5718 10.3153C20.277 10.3147 19.9823 10.3136 19.6876 10.3125C19.6876 10.7765 19.6876 11.2406 19.6876 11.7187C20.0627 11.7095 20.0627 11.7095 20.4378 11.6976C20.4848 11.697 20.5318 11.6964 20.5802 11.6958C20.6281 11.6946 20.676 11.6934 20.7253 11.6921C20.9154 11.7298 20.9808 11.7971 21.0938 11.9531C21.1205 12.1303 21.1205 12.1303 21.1167 12.3349C21.1156 12.4448 21.1156 12.4448 21.1144 12.5569C21.1115 12.6713 21.1115 12.6713 21.1085 12.7881C21.1074 12.8652 21.1064 12.9424 21.1053 13.022C21.1025 13.2126 21.0987 13.4031 21.0938 13.5937C21.1588 13.5925 21.2238 13.5913 21.2908 13.59C21.5336 13.5857 21.7765 13.5831 22.0194 13.5808C22.1242 13.5797 22.229 13.5781 22.3338 13.576C22.485 13.5732 22.6363 13.5719 22.7876 13.5708C22.8339 13.5696 22.8801 13.5684 22.9278 13.5672C23.3295 13.567 23.6291 13.6885 23.932 13.9526C23.9815 14.0082 24.0311 14.0638 24.0821 14.1211C24.1192 14.1587 24.1563 14.1963 24.1945 14.235C25.3578 15.4498 26.1373 17.1914 26.2501 18.8672C26.2533 18.9119 26.2564 18.9566 26.2597 19.0027C26.2777 19.4741 26.1463 19.9091 25.8399 20.2734C25.3687 20.6254 24.9583 20.6697 24.3751 20.625C23.9889 20.5284 23.7111 20.2483 23.4962 19.9218C23.3673 19.6175 23.3408 19.3057 23.3021 18.9807C23.1912 18.1444 22.9069 17.3214 22.3703 16.6552C22.2657 16.5234 22.2657 16.5234 22.2657 16.4062C22.0337 16.4062 21.8017 16.4062 21.5626 16.4062C21.6008 16.4828 21.639 16.5594 21.6784 16.6383C22.5524 18.4141 22.9764 20.2617 22.9945 22.24C22.9952 22.2822 22.9959 22.3244 22.9966 22.3679C23.0068 23.0788 22.8889 23.679 22.5587 24.3164C22.5984 24.3166 22.638 24.3168 22.6789 24.317C23.0944 24.3195 23.5098 24.3236 23.9252 24.3285C24.0799 24.3302 24.2347 24.3314 24.3894 24.3323C24.6127 24.3335 24.8359 24.3363 25.0592 24.3393C25.1619 24.3394 25.1619 24.3394 25.2666 24.3395C25.9579 24.3517 26.5075 24.538 27.0118 25.0195C27.5806 25.6153 27.696 26.2582 27.6869 27.0557C27.6856 27.1873 27.6869 27.3187 27.6884 27.4502C27.6899 28.2029 27.5429 28.7991 27.0118 29.3554C26.4027 29.9369 25.7616 30.0352 24.9437 30.0297C24.8542 30.03 24.7647 30.0304 24.6752 30.0308C24.4307 30.0318 24.1862 30.0313 23.9417 30.0306C23.6775 30.0301 23.4132 30.0309 23.1489 30.0315C22.6319 30.0326 22.1148 30.0324 21.5977 30.0317C21.1774 30.0311 20.757 30.0311 20.3367 30.0313C20.2768 30.0314 20.2169 30.0314 20.1552 30.0314C20.0335 30.0315 19.9118 30.0316 19.7901 30.0317C18.6498 30.0323 17.5096 30.0316 16.3693 30.0303C15.3915 30.0293 14.4138 30.0294 13.436 30.0305C12.2998 30.0318 11.1635 30.0323 10.0272 30.0316C9.906 30.0315 9.78476 30.0314 9.66353 30.0313C9.60389 30.0313 9.54424 30.0313 9.48279 30.0312C9.06309 30.031 8.64339 30.0314 8.22368 30.0319C7.712 30.0326 7.20032 30.0324 6.68863 30.0311C6.42771 30.0305 6.1668 30.0303 5.90588 30.0311C5.66675 30.0318 5.42765 30.0314 5.18853 30.0301C5.1023 30.0299 5.01607 30.03 4.92985 30.0306C4.15765 30.0353 3.55741 29.8987 2.98837 29.3554C2.35672 28.6938 2.30936 27.9804 2.31408 27.1094C2.31381 27.0005 2.31344 26.8917 2.31297 26.7828C2.312 26.4849 2.31248 26.187 2.3132 25.889C2.31373 25.5673 2.31292 25.2455 2.31227 24.9237C2.31123 24.2939 2.31145 23.664 2.31213 23.0341C2.31266 22.5221 2.31273 22.0102 2.31248 21.4982C2.31244 21.4253 2.31241 21.3524 2.31237 21.2773C2.3123 21.1291 2.31222 20.981 2.31214 20.8329C2.31149 19.4841 2.31217 18.1353 2.31339 16.7864C2.31451 15.5559 2.31441 14.3254 2.31329 13.0949C2.31203 11.7114 2.31154 10.3279 2.31226 8.94445C2.31233 8.79689 2.31241 8.64932 2.31248 8.50176C2.31252 8.42916 2.31255 8.35656 2.31259 8.28176C2.31279 7.77048 2.31245 7.2592 2.3119 6.74792C2.31124 6.12472 2.31142 5.50153 2.31267 4.87834C2.31328 4.56046 2.31353 4.24259 2.31275 3.92471C2.31205 3.63354 2.31244 3.34239 2.31368 3.05122C2.31394 2.94607 2.31381 2.84092 2.31324 2.73577C2.30914 1.91608 2.40078 1.26002 2.98837 0.644502C3.59076 0.0694483 4.22585 -0.0352989 5.0354 -0.0297915ZM3.61826 1.49045C3.30469 1.87524 3.27399 2.28249 3.27413 2.76765C3.27407 2.80921 3.274 2.85077 3.27393 2.89359C3.27377 3.03285 3.27404 3.17211 3.2743 3.31137C3.27427 3.41221 3.27422 3.51306 3.27414 3.6139C3.27401 3.89102 3.27425 4.16814 3.27454 4.44526C3.27479 4.7441 3.27471 5.04293 3.27466 5.34177C3.27463 5.85953 3.27482 6.37728 3.27515 6.89504C3.27562 7.64363 3.27578 8.39223 3.27585 9.14082C3.27598 10.3553 3.27637 11.5698 3.27692 12.7844C3.27746 13.9642 3.27787 15.1441 3.27812 16.3239C3.27814 16.3974 3.27816 16.4708 3.27817 16.5465C3.27829 17.121 3.27841 17.6955 3.27852 18.2699C3.27907 21.0862 3.28025 23.9025 3.28134 26.7187C10.9964 26.7187 18.7114 26.7187 26.6602 26.7187C26.5957 26.1382 26.4902 25.9137 26.0583 25.5617C25.6583 25.2713 25.1602 25.304 24.6884 25.3048C24.5941 25.3046 24.5941 25.3046 24.4978 25.3044C24.2871 25.304 24.0763 25.3041 23.8655 25.3042C23.7144 25.304 23.5633 25.3038 23.4122 25.3035C23.0867 25.3031 22.7613 25.3028 22.4359 25.3026C21.9213 25.3023 21.4067 25.3013 20.8921 25.3002C20.716 25.2998 20.5398 25.2994 20.3637 25.2991C20.2976 25.2989 20.2976 25.2989 20.2303 25.2988C19.7295 25.2977 19.2287 25.2968 18.7279 25.2959C18.6821 25.2958 18.6364 25.2957 18.5892 25.2956C17.8475 25.2944 17.1057 25.2937 16.364 25.2933C15.602 25.2928 14.8401 25.2915 14.0781 25.2893C13.6083 25.288 13.1386 25.2875 12.6688 25.2878C12.3088 25.288 11.9487 25.287 11.5887 25.2855C11.4411 25.2851 11.2935 25.2851 11.1459 25.2856C10.9444 25.2861 10.743 25.2852 10.5415 25.2839C10.4831 25.2844 10.4248 25.2849 10.3646 25.2854C9.94829 25.2805 9.63394 25.1923 9.31513 24.9172C9.28899 24.8845 9.26286 24.8518 9.23593 24.8181C9.20889 24.7855 9.18185 24.753 9.15399 24.7194C8.94832 24.4044 8.94802 24.1198 8.94927 23.7549C8.949 23.698 8.94874 23.6411 8.94846 23.5826C8.94772 23.3918 8.94782 23.2011 8.94791 23.0104C8.94756 22.8737 8.94716 22.7371 8.94672 22.6004C8.94568 22.229 8.94541 21.8576 8.94534 21.4861C8.94522 21.1761 8.94479 20.8661 8.94438 20.5561C8.94346 19.8665 8.94313 19.1769 8.94321 18.4873C8.94321 18.4459 8.94322 18.4046 8.94322 18.3619C8.94323 18.3205 8.94323 18.2791 8.94324 18.2364C8.94328 17.5654 8.94216 16.8943 8.94051 16.2232C8.93883 15.5338 8.93802 14.8444 8.93812 14.155C8.93815 13.7681 8.93781 13.3812 8.93657 12.9943C8.93544 12.6304 8.93543 12.2665 8.93628 11.9025C8.93641 11.769 8.93613 11.6355 8.93542 11.502C8.93452 11.3196 8.93506 11.1373 8.93596 10.9549C8.93536 10.9022 8.93476 10.8495 8.93414 10.7952C8.93849 10.3964 9.03872 10.0884 9.30162 9.78375C9.33433 9.75762 9.36703 9.73149 9.40073 9.70456C9.44956 9.664 9.44956 9.664 9.49938 9.62262C10.2709 9.11894 11.3774 9.39574 12.1876 9.37497C12.1876 6.5906 12.1876 3.80622 12.1876 0.93747C10.961 0.935053 9.73435 0.932636 8.47055 0.930146C8.0838 0.929079 7.69705 0.928012 7.29858 0.926913C6.95071 0.926521 6.95071 0.926521 6.60285 0.926286C6.44838 0.926106 6.29392 0.925739 6.13945 0.925098C5.90494 0.924138 5.67044 0.924122 5.43594 0.924167C5.36757 0.923745 5.29921 0.923323 5.22877 0.922889C4.57515 0.924545 4.07523 0.983927 3.61826 1.49045ZM13.1251 0.93747C13.1251 1.24685 13.1251 1.55622 13.1251 1.87497C17.1276 1.87497 21.1302 1.87497 25.254 1.87497C25.315 1.28768 25.315 1.28768 25.1478 1.07663C24.8971 0.919079 24.6637 0.929342 24.3778 0.930424C24.3298 0.930374 24.2818 0.930324 24.2323 0.930272C24.0709 0.930176 23.9095 0.930499 23.7481 0.930818C23.6327 0.930835 23.5172 0.930826 23.4017 0.930793C23.0877 0.930776 22.7737 0.931121 22.4597 0.931529C22.1317 0.931895 21.8037 0.93193 21.4757 0.932C20.8544 0.932182 20.2332 0.932663 19.6119 0.93325C18.9046 0.933905 18.1974 0.934227 17.4902 0.934522C16.0352 0.935135 14.5801 0.936177 13.1251 0.93747ZM13.1251 2.81247C13.1251 4.9781 13.1251 7.14372 13.1251 9.37497C14.6076 9.37839 14.6076 9.37839 16.09 9.38069C16.6949 9.38139 17.2998 9.3822 17.9047 9.38381C18.3453 9.38498 18.7859 9.38574 19.2265 9.386C19.4595 9.38615 19.6926 9.3865 19.9257 9.38736C20.1455 9.38816 20.3654 9.3884 20.5853 9.38822C20.7034 9.38827 20.8215 9.3889 20.9397 9.38955C21.9323 9.38733 22.663 9.21738 23.3815 8.50819C23.9272 7.93686 24.272 7.23508 24.5509 6.50388C24.5772 6.43484 24.6036 6.36581 24.6308 6.29468C25.0282 5.17497 25.254 3.9991 25.254 2.81247C21.2515 2.81247 17.2489 2.81247 13.1251 2.81247ZM9.96103 10.4883C9.81216 10.7523 9.82726 11.018 9.82857 11.3124C9.82834 11.366 9.82812 11.4196 9.82789 11.4748C9.82728 11.6544 9.82752 11.8341 9.82775 12.0137C9.82749 12.1425 9.82719 12.2713 9.82684 12.4001C9.82606 12.7499 9.82602 13.0998 9.82617 13.4497C9.82623 13.7416 9.82595 14.0336 9.82567 14.3255C9.82498 15.0536 9.82503 15.7817 9.82541 16.5098C9.82571 17.1419 9.82505 17.774 9.82394 18.4062C9.8228 19.0554 9.82233 19.7047 9.82254 20.354C9.82264 20.7184 9.82249 21.0829 9.82168 21.4473C9.82094 21.79 9.82105 22.1326 9.82182 22.4753C9.82196 22.6011 9.82179 22.7269 9.82131 22.8527C9.8207 23.0244 9.82117 23.196 9.82192 23.3676C9.82148 23.4175 9.82105 23.4673 9.82061 23.5187C9.82325 23.8079 9.85885 24.0074 10.0196 24.2578C10.2607 24.4098 10.5234 24.3887 10.7997 24.3823C10.843 24.3818 10.8864 24.3812 10.9311 24.3807C11.0375 24.3793 11.1438 24.3772 11.2501 24.375C11.2303 24.3297 11.2105 24.2843 11.1901 24.2376C11.164 24.1766 11.1379 24.1156 11.1109 24.0527C11.0851 23.9929 11.0593 23.9331 11.0327 23.8714C10.8311 23.3389 10.8164 22.84 10.818 22.2766C10.818 22.2327 10.818 22.1888 10.8181 22.1436C10.8244 20.2391 11.2286 18.3067 12.14 16.6218C12.1961 16.524 12.1961 16.524 12.1876 16.4062C12.1308 16.3893 12.074 16.3724 12.0155 16.3549C11.836 16.289 11.836 16.289 11.7774 16.1718C11.7702 15.9987 11.7664 15.8271 11.7655 15.6539C11.7652 15.6024 11.7649 15.551 11.7645 15.498C11.764 15.3891 11.7636 15.2802 11.7634 15.1713C11.7628 15.0045 11.761 14.8377 11.7591 14.671C11.7587 14.5652 11.7584 14.4595 11.7582 14.3538C11.7575 14.3038 11.7568 14.2539 11.756 14.2023C11.7573 13.854 11.7573 13.854 11.855 13.7281C11.9953 13.6198 12.1316 13.613 12.3048 13.5937C12.2232 13.3225 12.1098 13.0881 11.9752 12.8393C11.8155 12.5315 11.7117 12.3013 11.7774 11.9531C11.8377 11.8549 11.8377 11.8549 11.9532 11.7773C12.1168 11.7579 12.268 11.7487 12.4318 11.7473C12.4784 11.7463 12.525 11.7452 12.5729 11.7441C12.7216 11.741 12.8702 11.739 13.0189 11.737C13.1197 11.7351 13.2205 11.7331 13.3214 11.731C13.5684 11.7258 13.8155 11.7223 14.0626 11.7187C14.0626 11.2547 14.0626 10.7906 14.0626 10.3125C13.5797 10.3085 13.0969 10.3053 12.614 10.3034C12.3897 10.3024 12.1655 10.3012 11.9413 10.2992C11.7247 10.2973 11.5082 10.2962 11.2916 10.2958C11.2092 10.2955 11.1267 10.2948 11.0442 10.2939C10.9284 10.2926 10.8126 10.2925 10.6967 10.2925C10.6309 10.2921 10.5651 10.2917 10.4972 10.2913C10.2798 10.3162 10.1437 10.3678 9.96103 10.4883ZM15.0001 10.3125C15.0001 10.7765 15.0001 11.2406 15.0001 11.7187C16.2376 11.7187 17.4751 11.7187 18.7501 11.7187C18.7501 11.2547 18.7501 10.7906 18.7501 10.3125C17.5126 10.3125 16.2751 10.3125 15.0001 10.3125ZM13.0079 12.6562C13.132 13.0561 13.132 13.0561 13.4181 13.5937C15.6417 13.5937 17.8653 13.5937 20.1563 13.5937C20.1563 13.2843 20.1563 12.975 20.1563 12.6562C17.7974 12.6562 15.4384 12.6562 13.0079 12.6562ZM12.6563 14.5312C12.6563 14.8406 12.6563 15.15 12.6563 15.4687C12.782 15.4688 12.9076 15.4689 13.037 15.469C14.2191 15.4699 15.4011 15.4724 16.5832 15.4765C17.191 15.4785 17.7988 15.48 18.4065 15.4802C18.9362 15.4804 19.4659 15.4816 19.9956 15.484C20.2761 15.4852 20.5566 15.486 20.8371 15.4855C21.1011 15.485 21.365 15.486 21.629 15.4879C21.7259 15.4884 21.8228 15.4884 21.9197 15.4879C22.0521 15.4872 22.1843 15.4883 22.3166 15.4899C22.3907 15.49 22.4647 15.4902 22.541 15.4903C22.8853 15.5561 23.0529 15.8396 23.2407 16.1138C23.8787 17.0775 24.2429 18.0357 24.3348 19.1974C24.3803 19.4198 24.4275 19.4966 24.6095 19.6289C24.8808 19.6673 24.8808 19.6673 25.1171 19.5533C25.3292 19.2818 25.2558 18.8614 25.2174 18.5412C25.0808 17.7046 24.779 16.9712 24.3751 16.2304C24.3327 16.1511 24.3327 16.1511 24.2895 16.0702C23.791 15.1834 23.791 15.1834 23.0465 14.5549C22.8606 14.5226 22.6815 14.524 22.4928 14.5242C22.4507 14.5241 22.4086 14.5241 22.3653 14.524C22.2243 14.5239 22.0833 14.5242 21.9424 14.5246C21.8413 14.5246 21.7403 14.5246 21.6392 14.5245C21.3648 14.5245 21.0903 14.5249 20.8159 14.5253C20.5292 14.5256 20.2424 14.5257 19.9556 14.5257C19.4126 14.5259 18.8695 14.5264 18.3265 14.527C17.7082 14.5277 17.09 14.528 16.4717 14.5283C15.1999 14.5289 13.9281 14.5299 12.6563 14.5312ZM13.0665 16.9336C12.8635 17.3686 12.8635 17.3686 12.6563 17.8125C15.4407 17.8125 18.2251 17.8125 21.0938 17.8125C20.668 16.803 20.668 16.803 20.3321 16.4062C20.1953 16.3621 20.1953 16.3621 20.0438 16.3674C19.9858 16.3663 19.9278 16.3651 19.8681 16.3639C19.7732 16.3642 19.7732 16.3642 19.6764 16.3646C19.6095 16.3637 19.5426 16.3628 19.4737 16.3619C19.2521 16.3594 19.0307 16.3591 18.8091 16.3591C18.6553 16.3583 18.5015 16.3574 18.3476 16.3565C18.025 16.3549 17.7024 16.3547 17.3797 16.3552C17.0072 16.3556 16.6348 16.353 16.2622 16.349C15.9034 16.3453 15.5447 16.3445 15.1859 16.3448C15.0334 16.3445 14.881 16.3435 14.7285 16.3415C14.5152 16.3391 14.3022 16.34 14.0889 16.3417C13.9944 16.3396 13.9944 16.3396 13.898 16.3374C13.397 16.3472 13.2912 16.4904 13.0665 16.9336ZM12.3048 18.75C12.1558 19.2342 12.0256 19.6812 11.9422 20.1745C11.9326 20.2286 11.923 20.2828 11.913 20.3385C11.8861 20.4924 11.8607 20.6465 11.836 20.8008C11.8245 20.8725 11.8131 20.9443 11.8012 21.0182C11.7614 21.359 11.7621 21.7028 11.7601 22.0455C11.7595 22.126 11.7583 22.2065 11.7565 22.287C11.7424 22.9467 11.7954 23.5616 12.2716 24.0605C12.7126 24.4454 13.3034 24.3837 13.8518 24.3835C13.9241 24.3837 13.9965 24.3839 14.0711 24.3841C14.2686 24.3845 14.4662 24.3847 14.6638 24.3848C14.7875 24.3848 14.9112 24.3849 15.0348 24.3851C15.467 24.3856 15.8992 24.3859 16.3314 24.3858C16.7332 24.3858 17.1349 24.3864 17.5367 24.3873C17.8826 24.3881 18.2285 24.3884 18.5744 24.3884C18.7806 24.3884 18.9867 24.3885 19.1929 24.3892C19.423 24.3898 19.6531 24.3896 19.8833 24.3892C19.9508 24.3895 20.0184 24.3899 20.0881 24.3902C20.608 24.3882 21.091 24.3707 21.504 24.0234C21.9764 23.5066 22.0036 22.9086 21.9984 22.2363C21.9982 22.1966 21.9981 22.1569 21.9979 22.1161C21.9908 20.9401 21.7618 19.889 21.4454 18.75C18.429 18.75 15.4126 18.75 12.3048 18.75ZM3.33994 27.6562C3.40444 28.2368 3.50994 28.4612 3.9419 28.8132C4.26936 29.051 4.65851 29.0697 5.05149 29.07C5.15982 29.0703 5.15982 29.0703 5.27033 29.0706C5.35 29.0705 5.42966 29.0704 5.50933 29.0703C5.59433 29.0704 5.67933 29.0705 5.76433 29.0707C5.99768 29.0711 6.23102 29.0711 6.46437 29.071C6.71612 29.071 6.96788 29.0713 7.21963 29.0716C7.71278 29.0721 8.20593 29.0722 8.69908 29.0723C9.09994 29.0723 9.5008 29.0724 9.90167 29.0726C11.0383 29.0731 12.1748 29.0734 13.3114 29.0733C13.4033 29.0733 13.4033 29.0733 13.4971 29.0733C13.5584 29.0733 13.6198 29.0733 13.683 29.0733C14.6772 29.0733 15.6714 29.0739 16.6657 29.0747C17.6866 29.0755 18.7075 29.0759 19.7285 29.0759C20.3016 29.0759 20.8748 29.076 21.4479 29.0767C21.9359 29.0772 22.4239 29.0773 22.9118 29.0769C23.1608 29.0767 23.4097 29.0767 23.6586 29.0772C23.8866 29.0777 24.1146 29.0776 24.3427 29.0771C24.425 29.077 24.5073 29.0771 24.5897 29.0774C25.4455 29.0876 25.4455 29.0876 26.1915 28.7109C26.5277 28.3723 26.6602 28.1468 26.6602 27.6562C18.9645 27.6562 11.2688 27.6562 3.33994 27.6562Z" fill="#C9A581"/>
<path d="M6.76418 16.9629C7.10587 17.1694 7.38232 17.4896 7.50026 17.8711C7.5188 18.0716 7.51948 18.2716 7.51995 18.4728C7.52034 18.5311 7.52073 18.5894 7.52113 18.6495C7.52172 18.7727 7.522 18.8959 7.52198 19.019C7.52223 19.2065 7.52436 19.3939 7.52658 19.5814C7.52693 19.7014 7.52716 19.8214 7.52727 19.9414C7.52811 19.997 7.52895 20.0526 7.52982 20.1099C7.52694 20.5334 7.43232 20.8453 7.15076 21.1666C7.11262 21.1981 7.07447 21.2297 7.03517 21.2622C6.99718 21.2947 6.95919 21.3272 6.92005 21.3606C6.53912 21.6231 6.13084 21.6021 5.68386 21.5625C5.29365 21.464 5.02846 21.1838 4.80495 20.8594C4.65096 20.5729 4.66882 20.2816 4.66808 19.9647C4.66769 19.9064 4.6673 19.8481 4.6669 19.788C4.6663 19.6649 4.66603 19.5417 4.66605 19.4185C4.66579 19.231 4.66366 19.0436 4.66144 18.8561C4.6611 18.7361 4.66086 18.6162 4.66075 18.4962C4.65949 18.4128 4.65949 18.4128 4.6582 18.3277C4.66109 17.9041 4.75571 17.5923 5.03727 17.271C5.07541 17.2394 5.11355 17.2078 5.15285 17.1753C5.19084 17.1428 5.22883 17.1104 5.26798 17.0769C5.68191 16.7917 6.30457 16.7592 6.76418 16.9629ZM5.78273 17.9773C5.54238 18.2889 5.61218 18.701 5.61119 19.0763C5.61062 19.2067 5.6088 19.3371 5.60695 19.4675C5.60657 19.551 5.60626 19.6345 5.60604 19.718C5.60549 19.7936 5.60494 19.8691 5.60438 19.947C5.62699 20.1736 5.68186 20.3151 5.80104 20.5078C5.9675 20.5911 6.0855 20.5849 6.26979 20.5664C6.43666 20.4356 6.49538 20.3584 6.56276 20.1563C6.57617 19.8914 6.57614 19.6264 6.57684 19.3612C6.57741 19.2308 6.57922 19.1005 6.58107 18.9701C6.58146 18.8866 6.58176 18.8031 6.58199 18.7196C6.58254 18.644 6.58308 18.5684 6.58365 18.4905C6.56104 18.264 6.50616 18.1225 6.38698 17.9297C6.1646 17.8185 5.97839 17.824 5.78273 17.9773Z" fill="#C9A581"/>
<path d="M6.76419 13.2129C7.10549 13.4192 7.38204 13.7396 7.50027 14.1211C7.54745 14.5803 7.56617 15.0363 7.2659 15.4102C6.98439 15.7058 6.72908 15.9144 6.31261 15.9572C5.81361 15.9627 5.46848 15.9444 5.09999 15.5935C4.72605 15.189 4.65962 14.871 4.66992 14.323C4.71066 13.8623 4.92493 13.6202 5.26799 13.3269C5.68192 13.0417 6.30458 13.0092 6.76419 13.2129ZM5.77908 14.2163C5.65533 14.3972 5.64801 14.4919 5.68387 14.7071C5.77176 14.8535 5.77176 14.8535 5.91824 14.9414C6.13338 14.9773 6.22809 14.97 6.40896 14.8462C6.53272 14.6653 6.54004 14.5706 6.50418 14.3555C6.41629 14.209 6.41629 14.209 6.2698 14.1211C6.05467 14.0853 5.95995 14.0926 5.77908 14.2163Z" fill="#C9A581"/>
<path d="M6.76419 9.46291C7.10549 9.66916 7.38204 9.98965 7.50027 10.3711C7.54745 10.8303 7.56617 11.2863 7.2659 11.6602C6.98439 11.9558 6.72908 12.1644 6.31261 12.2072C5.81361 12.2127 5.46848 12.1944 5.09999 11.8435C4.72605 11.439 4.65962 11.121 4.66992 10.573C4.71066 10.1123 4.92493 9.87016 5.26799 9.5769C5.68192 9.29169 6.30458 9.25924 6.76419 9.46291ZM5.77908 10.4663C5.65533 10.6472 5.64801 10.7419 5.68387 10.9571C5.77176 11.1035 5.77176 11.1035 5.91824 11.1914C6.13338 11.2273 6.22809 11.22 6.40896 11.0962C6.53272 10.9153 6.54004 10.8206 6.50418 10.6055C6.41629 10.459 6.41629 10.459 6.2698 10.3711C6.05467 10.3353 5.95995 10.3426 5.77908 10.4663Z" fill="#C9A581"/>
</g>
<defs>
<clipPath id="clip0_146_186">
<rect width="30" height="30" fill="white"/>
</clipPath>
</defs>
</svg>
