<svg width="50" height="50" viewBox="0 0 50 50" fill="none" xmlns="http://www.w3.org/2000/svg">
<g clip-path="url(#clip0_149_469)">
<path d="M7.89506 9.32581C7.99085 9.3248 8.08664 9.32378 8.18532 9.32273C8.29031 9.3236 8.3953 9.32447 8.50347 9.32537C8.61519 9.32476 8.72691 9.32415 8.84201 9.32352C9.15216 9.32223 9.46224 9.3227 9.77239 9.32391C10.1068 9.32479 10.4413 9.32343 10.7757 9.32235C11.4309 9.32061 12.0861 9.32099 12.7413 9.32212C13.2737 9.323 13.8061 9.32312 14.3385 9.3227C14.4521 9.32261 14.4521 9.32261 14.568 9.32252C14.7218 9.32239 14.8756 9.32227 15.0294 9.32214C16.4724 9.32102 17.9154 9.32231 19.3584 9.3244C20.597 9.32615 21.8356 9.32585 23.0743 9.32404C24.512 9.32196 25.9498 9.32113 27.3876 9.32233C27.5408 9.32246 27.6941 9.32258 27.8473 9.3227C27.9228 9.32276 27.9982 9.32282 28.0759 9.32288C28.6077 9.32322 29.1396 9.32265 29.6715 9.32173C30.3195 9.32064 30.9675 9.32093 31.6155 9.32301C31.9463 9.32404 32.277 9.32444 32.6078 9.32315C32.966 9.32209 33.3242 9.32341 33.6824 9.32537C33.7874 9.3245 33.8924 9.32363 34.0005 9.32273C34.6921 9.33008 34.6921 9.33008 35.0247 9.53539C35.1933 9.83233 35.2046 10.0319 35.205 10.3735C35.2067 10.5608 35.2067 10.5608 35.2084 10.7519C35.2076 10.89 35.2068 11.0282 35.206 11.1664C35.2065 11.312 35.2072 11.4577 35.208 11.6034C35.2098 11.9988 35.2091 12.3943 35.2079 12.7897C35.2069 13.2035 35.2078 13.6172 35.2084 14.031C35.2092 14.7259 35.2082 15.4207 35.2064 16.1155C35.2042 16.919 35.2049 17.7225 35.2071 18.5259C35.2088 19.2156 35.2091 19.9053 35.2081 20.595C35.2075 21.007 35.2074 21.419 35.2087 21.831C35.2098 22.2183 35.209 22.6056 35.2068 22.9929C35.2062 23.1351 35.2064 23.2773 35.2072 23.4195C35.2083 23.6135 35.2067 23.8075 35.205 24.0015C35.2048 24.1644 35.2048 24.1644 35.2046 24.3306C35.1442 24.673 35.0348 24.7879 34.7648 25C34.5695 25.0519 34.5695 25.0519 34.3742 25.0488C34.2775 25.0503 34.2775 25.0503 34.1789 25.0519C33.8928 24.9759 33.7789 24.8367 33.5929 24.6093C33.5449 24.3478 33.5449 24.3478 33.546 24.0433C33.5451 23.8703 33.5451 23.8703 33.5443 23.6938C33.5464 23.5038 33.5464 23.5038 33.5486 23.31C33.5487 23.173 33.5486 23.0361 33.5484 22.8992C33.5483 22.5325 33.5506 22.166 33.5534 21.7994C33.5556 21.4553 33.5557 21.1113 33.556 20.7672C33.558 19.7611 33.5635 18.7551 33.5685 17.749C33.5766 15.5012 33.5846 13.2534 33.5929 10.9375C25.3429 10.9375 17.0929 10.9375 8.59293 10.9375C8.59293 22.2812 8.59293 33.625 8.59293 45.3125C14.3603 45.297 14.3603 45.297 20.1277 45.2773C21.2417 45.2755 21.2417 45.2755 21.7628 45.2752C22.1277 45.2748 22.4926 45.2734 22.8575 45.2712C23.3226 45.2686 23.7876 45.2677 24.2527 45.2683C24.4236 45.2682 24.5945 45.2674 24.7654 45.2659C24.9959 45.264 25.2263 45.2644 25.4567 45.2655C25.524 45.2644 25.5912 45.2632 25.6605 45.262C25.988 45.2662 26.1469 45.2935 26.4078 45.4985C26.5748 45.7205 26.6148 45.8196 26.6105 46.0937C26.6115 46.1582 26.6125 46.2226 26.6136 46.289C26.5357 46.5821 26.41 46.689 26.1711 46.875C25.9058 46.9133 25.68 46.9278 25.4149 46.9246C25.2999 46.9255 25.2999 46.9255 25.1827 46.9264C24.9257 46.928 24.6687 46.9267 24.4117 46.9255C24.2276 46.926 24.0434 46.9267 23.8593 46.9276C23.3589 46.9294 22.8585 46.9287 22.3581 46.9274C21.8349 46.9265 21.3117 46.9274 20.7884 46.928C19.9097 46.9287 19.0309 46.9278 18.1522 46.9259C17.1357 46.9238 16.1192 46.9245 15.1027 46.9266C14.2306 46.9284 13.3584 46.9286 12.4863 46.9276C11.9651 46.927 11.444 46.9269 10.9228 46.9282C10.4329 46.9293 9.94303 46.9286 9.45312 46.9263C9.27313 46.9258 9.09314 46.9259 8.91315 46.9268C8.66779 46.9279 8.42257 46.9265 8.17722 46.9246C8.06989 46.9259 8.06989 46.9259 7.9604 46.9272C7.64937 46.9224 7.45984 46.904 7.20757 46.7154C6.97687 46.4145 6.98149 46.241 6.98127 45.8639C6.98025 45.7355 6.97923 45.607 6.97818 45.4747C6.97903 45.3318 6.97991 45.1889 6.98082 45.046C6.98037 44.8945 6.97975 44.743 6.97898 44.5915C6.97734 44.1744 6.97816 43.7574 6.97936 43.3404C6.98024 42.8909 6.97888 42.4415 6.97781 41.992C6.97607 41.1112 6.97645 40.2304 6.97758 39.3496C6.97846 38.634 6.97858 37.9183 6.97816 37.2027C6.9781 37.1009 6.97804 36.9992 6.97797 36.8944C6.97785 36.6877 6.97772 36.481 6.97759 36.2744C6.97648 34.3351 6.97776 32.3959 6.97986 30.4566C6.98161 28.7916 6.9813 27.1266 6.9795 25.4615C6.97741 23.5294 6.97659 21.5972 6.97779 19.665C6.97791 19.4591 6.97803 19.2532 6.97816 19.0473C6.97822 18.9459 6.97828 18.8446 6.97834 18.7402C6.97868 18.0252 6.97811 17.3102 6.97719 16.5951C6.97609 15.7241 6.97638 14.8531 6.97847 13.982C6.9795 13.5373 6.97989 13.0927 6.97861 12.648C6.97745 12.2413 6.97808 11.8346 6.98016 11.4279C6.9806 11.2804 6.98037 11.133 6.97943 10.9855C6.97825 10.7857 6.97969 10.5858 6.98127 10.386C6.98133 10.2748 6.9814 10.1637 6.98146 10.0491C7.074 9.51333 7.37227 9.32622 7.89506 9.32581Z" fill="#C9A581"/>
<path d="M34.3722 26.5137C34.4366 26.5127 34.5011 26.5117 34.5675 26.5106C34.8754 26.5924 34.9734 26.687 35.1534 26.9531C35.2012 27.2881 35.1901 27.6167 35.1779 27.9541C35.1761 28.0455 35.1743 28.1369 35.1725 28.231C35.1679 28.4562 35.1615 28.6812 35.1534 28.9062C35.2531 28.9083 35.2531 28.9083 35.3549 28.9104C37.6898 29.0253 39.841 30.2744 41.4362 31.9271C42.7304 33.3733 43.8244 35.5179 43.7472 37.5C43.8329 37.4969 43.8329 37.4969 43.9203 37.4938C44.18 37.4857 44.4396 37.4806 44.6993 37.4756C44.7892 37.4723 44.8791 37.469 44.9717 37.4657C45.6354 37.456 45.6354 37.456 45.9551 37.6724C46.0968 37.9 46.1439 38.0159 46.1398 38.2812C46.1413 38.3779 46.1413 38.3779 46.1428 38.4766C46.061 38.7845 45.9665 38.8824 45.7003 39.0625C45.3654 39.1103 45.0368 39.0992 44.6993 39.0869C44.6079 39.0852 44.5166 39.0834 44.4224 39.0816C44.1972 39.077 43.9723 39.0706 43.7472 39.0625C43.7458 39.129 43.7444 39.1954 43.743 39.2639C43.6281 41.5988 42.379 43.7501 40.7263 45.3453C39.2802 46.6395 37.1355 47.7334 35.1534 47.6562C35.1555 47.7134 35.1575 47.7705 35.1596 47.8293C35.1678 48.089 35.1728 48.3487 35.1779 48.6084C35.1828 48.7432 35.1828 48.7432 35.1878 48.8808C35.1974 49.5444 35.1974 49.5444 34.981 49.8642C34.7534 50.0058 34.6375 50.053 34.3722 50.0488C34.2755 50.0503 34.2755 50.0503 34.1769 50.0519C33.869 49.9701 33.771 49.8755 33.5909 49.6094C33.5431 49.2744 33.5542 48.9458 33.5665 48.6084C33.5683 48.517 33.5701 48.4256 33.5719 48.3315C33.5765 48.1063 33.5829 47.8813 33.5909 47.6562C33.5245 47.6549 33.458 47.6535 33.3895 47.6521C31.0546 47.5372 28.9034 46.2881 27.3081 44.6354C25.7154 42.8557 24.9502 40.647 24.9972 38.2812C24.8405 38.2843 24.8405 38.2843 24.6807 38.2874C24.2927 38.2945 23.9047 38.299 23.5166 38.3027C23.3488 38.3047 23.1809 38.3073 23.0131 38.3107C22.7716 38.3155 22.5303 38.3177 22.2888 38.3194C22.1764 38.3224 22.1764 38.3224 22.0618 38.3255C21.7123 38.3257 21.5208 38.3112 21.239 38.0958C21.0788 37.8738 21.0379 37.7705 21.0421 37.5C21.0406 37.4033 21.0406 37.4033 21.0391 37.3047C21.1178 37.0084 21.2373 36.9045 21.4816 36.7188C21.7706 36.6847 22.022 36.6731 22.3101 36.6806C22.3898 36.6812 22.4694 36.6817 22.5515 36.6823C22.8053 36.6845 23.0589 36.6894 23.3126 36.6943C23.4849 36.6963 23.6572 36.6981 23.8295 36.6997C24.2513 36.704 24.6731 36.7107 25.0948 36.7188C25.1091 36.5971 25.1233 36.4755 25.1379 36.3501C25.3804 34.274 26.7547 32.2761 28.3175 30.957C29.7585 29.821 31.7118 28.8331 33.5909 28.9062C33.5879 28.8206 33.5879 28.8206 33.5847 28.7332C33.5766 28.4735 33.5715 28.2138 33.5665 27.9541C33.5633 27.8642 33.56 27.7743 33.5566 27.6817C33.547 27.0181 33.547 27.0181 33.7634 26.6983C33.9909 26.5567 34.1068 26.5095 34.3722 26.5137ZM28.9034 32.7148C27.9893 33.6394 26.755 35.3235 26.755 36.7188C26.8458 36.7196 26.8458 36.7196 26.9384 36.7205C27.5673 36.7267 28.1962 36.735 28.8251 36.7444C29.0599 36.7476 29.2947 36.7504 29.5296 36.7526C29.8668 36.7558 30.2039 36.761 30.5411 36.7664C30.699 36.7674 30.699 36.7674 30.8602 36.7683C30.9579 36.7703 31.0556 36.7722 31.1563 36.7742C31.2855 36.7758 31.2855 36.7758 31.4172 36.7775C31.682 36.8242 31.7694 36.898 31.9308 37.1094C31.9697 37.2986 31.9697 37.2986 31.9674 37.5C31.9685 37.5997 31.9685 37.5997 31.9697 37.7014C31.9183 37.9512 31.8375 38.0267 31.6378 38.1836C31.4135 38.2225 31.4135 38.2225 31.1474 38.2258C31.0477 38.2278 30.948 38.2297 30.8453 38.2317C30.6841 38.2326 30.6841 38.2326 30.5197 38.2336C30.3545 38.2362 30.3545 38.2362 30.186 38.2389C29.8338 38.2442 29.4815 38.2475 29.1293 38.2507C28.8907 38.254 28.6521 38.2573 28.4134 38.2608C27.8281 38.2691 27.2427 38.2758 26.6573 38.2812C26.6558 38.4686 26.6547 38.656 26.6537 38.8434C26.6531 38.9478 26.6524 39.0522 26.6517 39.1597C26.6863 40.952 27.8371 42.7922 29.077 44.0182C30.3669 45.1557 31.8777 45.836 33.5909 45.9961C33.5924 45.9414 33.5938 45.8867 33.5953 45.8304C33.6025 45.5824 33.612 45.3346 33.6215 45.0867C33.6237 45.0006 33.6259 44.9146 33.6281 44.8259C33.6333 44.7018 33.6333 44.7018 33.6386 44.5751C33.6412 44.4989 33.6437 44.4227 33.6464 44.3442C33.6984 44.0934 33.7822 44.0041 33.9816 43.8477C34.1708 43.8087 34.1708 43.8087 34.3722 43.811C34.4387 43.8103 34.5051 43.8095 34.5736 43.8087C34.8217 43.8598 34.898 43.9445 35.0558 44.1406C35.098 44.3442 35.098 44.3442 35.1058 44.5751C35.1092 44.6579 35.1127 44.7407 35.1162 44.8259C35.1185 44.912 35.1207 44.998 35.1229 45.0867C35.1263 45.1738 35.1296 45.261 35.133 45.3508C35.1411 45.5659 35.1478 45.7809 35.1534 45.9961C37.2405 45.8011 39.0822 44.8102 40.4321 43.2088C41.3434 42.0634 42.087 40.5479 42.087 39.0625C42.0324 39.0611 41.9777 39.0597 41.9214 39.0582C41.6734 39.0509 41.4255 39.0415 41.1776 39.032C41.0916 39.0298 41.0055 39.0276 40.9169 39.0253C40.7927 39.0201 40.7927 39.0201 40.6661 39.0148C40.5518 39.011 40.5518 39.011 40.4352 39.0071C40.1844 38.9551 40.095 38.8712 39.9386 38.6719C39.8997 38.4827 39.8997 38.4827 39.902 38.2812C39.9012 38.2148 39.9005 38.1483 39.8997 38.0798C39.9507 37.8318 40.0354 37.7555 40.2316 37.5977C40.4352 37.5554 40.4352 37.5554 40.6661 37.5477C40.7488 37.5442 40.8316 37.5408 40.9169 37.5372C41.0029 37.535 41.089 37.5328 41.1776 37.5305C41.2648 37.5272 41.352 37.5238 41.4418 37.5204C41.6569 37.5124 41.8719 37.5056 42.087 37.5C41.8902 35.3935 40.8849 33.5669 39.2794 32.196C38.0507 31.275 36.6841 30.7094 35.1534 30.5664C35.152 30.6211 35.1506 30.6758 35.1491 30.7321C35.1418 30.9801 35.1324 31.2279 35.1229 31.4758C35.1207 31.5619 35.1185 31.6479 35.1162 31.7366C35.1111 31.8607 35.1111 31.8607 35.1058 31.9874C35.1032 32.0636 35.1006 32.1398 35.098 32.2183C35.046 32.4691 34.9621 32.5584 34.7628 32.7148C34.5736 32.7538 34.5736 32.7538 34.3722 32.7515C34.3057 32.7522 34.2393 32.753 34.1708 32.7538C33.9227 32.7027 33.8464 32.618 33.6886 32.4219C33.6464 32.2183 33.6464 32.2183 33.6386 31.9874C33.6352 31.9046 33.6317 31.8218 33.6281 31.7366C33.6259 31.6505 33.6237 31.5645 33.6215 31.4758C33.6181 31.3887 33.6148 31.3015 33.6114 31.2117C33.6033 30.9966 33.5965 30.7816 33.5909 30.5664C31.8751 30.5664 30.1411 31.5946 28.9034 32.7148Z" fill="#C9A581"/>
<path d="M8.15614 4.63564C8.26858 4.63526 8.38102 4.63489 8.49686 4.6345C8.73247 4.63424 8.96808 4.63495 9.20368 4.63659C9.5648 4.6387 9.92573 4.6366 10.2868 4.63411C10.5166 4.63437 10.7463 4.63487 10.976 4.63564C11.1377 4.63445 11.1377 4.63445 11.3027 4.63324C11.4028 4.63447 11.503 4.6357 11.6061 4.63697C11.694 4.63728 11.7818 4.63759 11.8723 4.63791C12.1829 4.70312 12.3011 4.83593 12.4992 5.07814C12.5511 5.27345 12.5511 5.27345 12.548 5.46877C12.5495 5.56545 12.5495 5.56545 12.5511 5.66408C12.471 5.9653 12.3604 6.06318 12.1086 6.25002C11.7934 6.30903 11.4813 6.30443 11.1614 6.30266C11.0686 6.30381 10.9759 6.30496 10.8803 6.30615C10.5838 6.30959 10.2872 6.31049 9.99063 6.31105C9.69579 6.31265 9.40098 6.31482 9.10615 6.31805C8.9229 6.31994 8.73963 6.32088 8.55636 6.32067C7.66868 6.3278 6.86349 6.41264 6.2095 7.07208C5.63409 7.72277 5.55353 8.40513 5.55302 9.24906C5.55285 9.31279 5.55268 9.37651 5.5525 9.44217C5.55205 9.65544 5.55229 9.86869 5.55253 10.082C5.55234 10.2365 5.55212 10.3911 5.55186 10.5456C5.55126 10.9702 5.55127 11.3947 5.55139 11.8193C5.55141 12.2772 5.55087 12.7351 5.5504 13.1931C5.54959 14.0902 5.54932 14.9873 5.54927 15.8844C5.54922 16.6136 5.54902 17.3428 5.54871 18.072C5.54785 20.1392 5.5474 22.2064 5.54748 24.2737C5.54748 24.4409 5.54748 24.4409 5.54749 24.6114C5.54749 24.723 5.5475 24.8346 5.5475 24.9496C5.54754 26.7582 5.5466 28.5668 5.54523 30.3754C5.54383 32.2323 5.54315 34.0892 5.54324 35.9462C5.54327 36.9887 5.543 38.0313 5.54195 39.0739C5.54106 39.9615 5.54085 40.8492 5.54151 41.7368C5.54183 42.1896 5.54183 42.6425 5.54099 43.0953C5.54022 43.51 5.54036 43.9248 5.54121 44.3395C5.54136 44.4894 5.54118 44.6392 5.54064 44.789C5.51403 46.2659 5.51403 46.2659 6.15152 47.5586C6.92005 48.3208 7.7569 48.3546 8.78412 48.3527C8.88165 48.3529 8.97918 48.3531 9.07966 48.3533C9.40622 48.3539 9.73278 48.3538 10.0593 48.3537C10.2936 48.354 10.5278 48.3544 10.762 48.3547C11.2662 48.3555 11.7704 48.356 12.2746 48.3563C13.0714 48.3569 13.8681 48.3585 14.6649 48.3604C14.9377 48.361 15.2104 48.3616 15.4831 48.3622C15.5513 48.3624 15.6194 48.3625 15.6897 48.3627C16.4647 48.3644 17.2398 48.366 18.0149 48.3675C18.1211 48.3677 18.1211 48.3677 18.2295 48.3679C19.3785 48.37 20.5276 48.3711 21.6766 48.3718C22.8565 48.3726 24.0364 48.3749 25.2163 48.3785C25.8787 48.3804 26.5411 48.3817 27.2035 48.3811C27.826 48.3807 28.4485 48.382 29.071 48.3847C29.2998 48.3854 29.5286 48.3854 29.7574 48.3847C30.069 48.3838 30.3806 48.3854 30.6922 48.3875C30.7833 48.3867 30.8745 48.3858 30.9685 48.385C31.5794 48.3927 31.5794 48.3927 31.8911 48.6237C32.0417 48.8446 32.0834 48.954 32.0793 49.2188C32.0803 49.2832 32.0813 49.3477 32.0823 49.4141C32.0019 49.7168 31.894 49.8131 31.6398 50C31.3146 50.0597 30.992 50.0527 30.6621 50.0496C30.5114 50.0505 30.5114 50.0505 30.3576 50.0515C30.0199 50.053 29.6822 50.0518 29.3445 50.0506C29.1027 50.0511 28.861 50.0518 28.6193 50.0526C28.03 50.0542 27.4408 50.054 26.8516 50.0529C26.3724 50.052 25.8931 50.0519 25.4139 50.0523C25.3457 50.0523 25.2775 50.0524 25.2072 50.0525C25.0686 50.0526 24.9301 50.0527 24.7915 50.0528C23.4913 50.054 22.1912 50.0527 20.891 50.0506C19.7768 50.0488 18.6626 50.0491 17.5483 50.0509C16.2539 50.053 14.9594 50.0539 13.665 50.0527C13.5267 50.0525 13.3884 50.0524 13.2501 50.0523C13.1821 50.0522 13.1141 50.0522 13.044 50.0521C12.566 50.0518 12.088 50.0523 11.6101 50.0533C10.9654 50.0545 10.3207 50.0536 9.67599 50.0513C9.43976 50.0508 9.20352 50.051 8.96728 50.0518C8.64392 50.0529 8.32065 50.0516 7.9973 50.0496C7.85819 50.0509 7.85819 50.0509 7.71627 50.0523C6.64388 50.0398 5.75442 49.6654 4.97965 48.9258C3.97842 47.877 3.84733 46.7563 3.85582 45.3603C3.85537 45.1982 3.85475 45.0362 3.85398 44.8741C3.85235 44.431 3.85315 43.9879 3.85436 43.5448C3.85525 43.066 3.85388 42.5872 3.85281 42.1085C3.85107 41.1715 3.85145 40.2345 3.85258 39.2975C3.85346 38.5358 3.85358 37.7741 3.85316 37.0125C3.85307 36.8497 3.85307 36.8497 3.85297 36.6837C3.85285 36.4633 3.85272 36.2428 3.85259 36.0224C3.85148 33.9565 3.85276 31.8907 3.85486 29.8248C3.85661 28.0531 3.8563 26.2814 3.8545 24.5096C3.85241 22.4511 3.85159 20.3925 3.85279 18.3339C3.85291 18.1143 3.85303 17.8947 3.85316 17.6751C3.85322 17.567 3.85328 17.459 3.85334 17.3477C3.85368 16.5871 3.85311 15.8265 3.85219 15.066C3.85109 14.1388 3.85139 13.2117 3.85347 12.2845C3.85449 11.8117 3.8549 11.3389 3.85361 10.866C3.85244 10.4328 3.85309 9.99961 3.85516 9.56637C3.85559 9.41004 3.85538 9.25371 3.85443 9.09739C3.84702 7.77806 4.04502 6.74077 4.97965 5.76173C5.90439 4.87894 6.90251 4.62632 8.15614 4.63564Z" fill="#C9A581"/>
<path d="M22.5623 0.262042C23.3408 0.787818 23.9539 1.42043 24.1992 2.35211C24.2468 2.60963 24.2831 2.8652 24.3151 3.12497C24.3761 3.12293 24.4371 3.12088 24.4999 3.11877C24.7801 3.11058 25.0603 3.10555 25.3405 3.10056C25.4364 3.09729 25.5324 3.09401 25.6312 3.09064C26.3798 3.08066 26.8775 3.21783 27.4603 3.69031C28.1442 4.47238 28.245 5.2141 28.258 6.22556C28.2594 6.30528 28.2607 6.38501 28.2622 6.46715C28.2583 6.9479 28.2204 7.31319 27.9284 7.71482C27.538 7.87679 27.2058 7.93429 26.7853 7.93254C26.6766 7.93255 26.5678 7.93256 26.4558 7.93257C26.338 7.93157 26.2202 7.93057 26.0988 7.92954C25.9736 7.92924 25.8485 7.92894 25.7195 7.92864C25.3773 7.92775 25.0351 7.92559 24.6929 7.92308C24.407 7.92107 24.1211 7.91961 23.8352 7.91812C23.1609 7.91457 22.4866 7.9099 21.8123 7.9046C21.1167 7.89915 20.4212 7.89589 19.7257 7.89365C19.128 7.89163 18.5304 7.88812 17.9328 7.88344C17.576 7.88067 17.2193 7.8785 16.8625 7.87783C16.4651 7.87701 16.0677 7.8731 15.6702 7.86888C15.552 7.86907 15.4338 7.86925 15.312 7.86944C15.2038 7.8678 15.0957 7.86616 14.9843 7.86447C14.8903 7.86385 14.7964 7.86324 14.6996 7.86261C14.3789 7.79772 14.2616 7.67561 14.0612 7.42185C14.0107 7.14786 14.0107 7.14786 14.0093 6.83438C14.0088 6.72021 14.0083 6.60603 14.0078 6.48839C14.0101 6.30995 14.0101 6.30995 14.0124 6.1279C14.0109 6.01045 14.0094 5.893 14.0078 5.77199C14.0114 4.96189 14.1046 4.40009 14.6437 3.78491C14.7073 3.73229 14.7709 3.67967 14.8364 3.62546C14.9313 3.54426 14.9313 3.54426 15.0282 3.46143C15.4289 3.18535 15.7771 3.1005 16.2604 3.1059C16.41 3.10684 16.41 3.10684 16.5627 3.10781C16.6657 3.10944 16.7688 3.11108 16.8749 3.11277C16.9799 3.11365 17.0848 3.11453 17.1929 3.11544C17.4511 3.11773 17.7093 3.12094 17.9675 3.12497C17.9642 3.00513 17.9609 2.88529 17.9576 2.76181C17.9586 1.96584 18.4042 1.2506 18.944 0.683566C19.915 -0.0815396 21.4412 -0.350833 22.5623 0.262042ZM19.8073 2.30863C19.5933 2.69939 19.5923 2.99934 19.6215 3.43015C19.6644 4.12751 19.6644 4.12751 19.5059 4.43647C19.1608 4.74545 18.7449 4.70038 18.3001 4.70464C18.113 4.70813 18.113 4.70813 17.9221 4.7117C17.7247 4.71513 17.5274 4.71799 17.33 4.7193C17.1386 4.72081 16.9473 4.7249 16.7559 4.72905C16.6418 4.73048 16.5277 4.7319 16.4101 4.73337C16.0528 4.79541 15.9395 4.89134 15.7214 5.17575C15.5825 5.54078 15.5825 5.54078 15.6237 6.24997C19.2331 6.24997 22.8425 6.24997 26.5612 6.24997C26.5859 5.48755 26.5859 5.48755 26.2682 4.88278C25.8779 4.67734 25.5383 4.66292 25.1017 4.66077C24.9711 4.65879 24.8405 4.65675 24.7099 4.65467C24.5057 4.65245 24.3015 4.65085 24.0973 4.65028C23.899 4.64935 23.7008 4.64606 23.5026 4.64246C23.3845 4.64166 23.2664 4.64085 23.1447 4.64003C22.8503 4.58982 22.8503 4.58982 22.6637 4.41346C22.5044 4.09263 22.5477 3.78378 22.5695 3.43625C22.5965 2.79292 22.5965 2.79292 22.3437 2.21555C21.9256 1.81605 21.6801 1.64526 21.0986 1.6174C20.5007 1.63784 20.185 1.84692 19.8073 2.30863Z" fill="#C9A581"/>
<path d="M30.5777 4.63697C30.6779 4.63574 30.778 4.63451 30.8811 4.63324C30.989 4.63403 31.0968 4.63482 31.2079 4.63564C31.3197 4.63526 31.4315 4.63489 31.5466 4.6345C31.7835 4.63424 32.0203 4.63496 32.2571 4.63659C32.6168 4.63867 32.9763 4.63662 33.3359 4.63411C33.5665 4.63437 33.7971 4.63487 34.0277 4.63564C34.1874 4.63445 34.1874 4.63445 34.3503 4.63324C35.4778 4.64681 36.3843 4.97898 37.2042 5.76173C38.2902 6.89936 38.336 8.10834 38.329 9.59663C38.3295 9.78569 38.3302 9.97475 38.3311 10.1638C38.3328 10.6744 38.3322 11.185 38.3309 11.6957C38.3299 12.2308 38.3308 12.7659 38.3315 13.301C38.3322 14.1986 38.3312 15.0963 38.3294 15.9939C38.3272 17.032 38.3279 18.0701 38.3301 19.1081C38.3319 20.0002 38.3321 20.8923 38.3311 21.7843C38.3305 22.3168 38.3304 22.8493 38.3317 23.3818C38.3328 23.8818 38.332 24.3817 38.3298 24.8816C38.3293 25.0652 38.3294 25.2489 38.3303 25.4325C38.3313 25.6827 38.33 25.9328 38.328 26.183C38.3289 26.256 38.3298 26.329 38.3307 26.4042C38.3255 26.7435 38.3029 26.9215 38.0922 27.1933C37.8705 27.3565 37.769 27.3968 37.4972 27.3926C37.4005 27.3941 37.4005 27.3941 37.3019 27.3956C37.0095 27.318 36.9018 27.1909 36.7159 26.9531C36.6776 26.6936 36.6633 26.4744 36.6666 26.2151C36.6657 26.1031 36.6657 26.1031 36.6648 25.9888C36.6632 25.7383 36.6645 25.4879 36.6657 25.2374C36.6652 25.0579 36.6645 24.8784 36.6636 24.6989C36.6621 24.3121 36.6619 23.9254 36.6625 23.5386C36.6636 22.9267 36.6619 22.3148 36.6598 21.7029C36.6569 20.7345 36.6557 19.7661 36.6554 18.7978C36.6547 17.0651 36.6519 15.3325 36.647 13.5999C36.6454 12.992 36.6449 12.3841 36.6453 11.7763C36.6453 11.3973 36.6446 11.0184 36.6436 10.6395C36.6434 10.4643 36.6434 10.2891 36.6439 10.1138C36.6914 8.52612 36.6914 8.52612 36.0323 7.12892C35.2607 6.36363 34.4196 6.33518 33.3888 6.33051C33.1966 6.32824 33.0045 6.32589 32.8124 6.32345C32.511 6.32001 32.2098 6.31715 31.9084 6.31584C31.6165 6.31433 31.3247 6.31041 31.0328 6.30609C30.8976 6.30637 30.8976 6.30637 30.7597 6.30666C30.1356 6.29471 30.1356 6.29471 29.8234 6.06341C29.6734 5.84279 29.6317 5.73307 29.6359 5.46877C29.6344 5.37209 29.6344 5.37209 29.6328 5.27345C29.7623 4.78608 30.109 4.63863 30.5777 4.63697Z" fill="#C9A581"/>
<path d="M17.0473 34.851C17.2131 35.0961 17.2709 35.2509 17.2853 35.5468C17.2095 35.8363 17.1269 35.9969 16.9191 36.2121C16.6273 36.3661 16.4406 36.3608 16.1134 36.3281C16.0241 36.296 15.9347 36.2639 15.8426 36.2308C15.0356 35.9797 14.1511 36.0483 13.3897 36.4078C12.6937 36.7984 12.209 37.4126 11.9493 38.171C11.7711 39.2269 11.8783 40.1255 12.5002 41.0156C13.0229 41.6317 13.758 41.9706 14.5509 42.0776C15.4564 42.1321 16.1758 41.8582 16.8947 41.3086C17.3844 40.8295 17.6179 40.2467 17.8541 39.6129C17.966 39.362 18.0416 39.2237 18.2619 39.0625C18.9315 38.9881 18.9315 38.9881 19.2812 39.2212C19.5162 39.5784 19.5574 39.8989 19.4795 40.3183C19.041 41.6269 18.2564 42.6479 17.0515 43.3315C15.816 43.9409 14.5161 43.9422 13.2032 43.576C11.9684 43.1305 11.0123 42.1396 10.4501 40.9721C9.99214 39.8111 9.9494 38.3367 10.4173 37.1685C11.0512 35.9249 12.0021 34.9815 13.318 34.4848C14.4318 34.1878 16.0881 34.1492 17.0473 34.851Z" fill="#C9A581"/>
<path d="M17.0473 23.9135C17.2131 24.1586 17.2709 24.3134 17.2853 24.6093C17.2095 24.8988 17.1269 25.0594 16.9191 25.2746C16.6273 25.4286 16.4406 25.4233 16.1134 25.3906C16.0241 25.3585 15.9347 25.3264 15.8426 25.2933C15.0356 25.0422 14.1511 25.1108 13.3897 25.4703C12.6937 25.8609 12.209 26.4751 11.9493 27.2335C11.7711 28.2894 11.8783 29.188 12.5002 30.0781C13.0229 30.6942 13.758 31.0331 14.5509 31.1401C15.4564 31.1946 16.1758 30.9207 16.8947 30.3711C17.3844 29.892 17.6179 29.3092 17.8541 28.6754C17.966 28.4245 18.0416 28.2862 18.2619 28.125C18.9315 28.0506 18.9315 28.0506 19.2812 28.2837C19.5162 28.6409 19.5574 28.9614 19.4795 29.3808C19.041 30.6894 18.2564 31.7104 17.0515 32.394C15.816 33.0034 14.5161 33.0047 13.2032 32.6385C11.9684 32.193 11.0123 31.2021 10.4501 30.0346C9.99214 28.8736 9.9494 27.3992 10.4173 26.231C11.0512 24.9874 12.0021 24.044 13.318 23.5473C14.4318 23.2503 16.0881 23.2117 17.0473 23.9135Z" fill="#C9A581"/>
<path d="M17.0473 12.976C17.2131 13.2211 17.2709 13.3759 17.2853 13.6718C17.2095 13.9613 17.1269 14.1219 16.9191 14.3371C16.6273 14.4911 16.4406 14.4858 16.1134 14.4531C16.0241 14.421 15.9347 14.3889 15.8426 14.3558C15.0356 14.1047 14.1511 14.1733 13.3897 14.5328C12.6937 14.9234 12.209 15.5376 11.9493 16.296C11.7711 17.3519 11.8783 18.2505 12.5002 19.1406C13.0229 19.7567 13.758 20.0956 14.5509 20.2026C15.4564 20.2571 16.1758 19.9832 16.8947 19.4336C17.3844 18.9545 17.6179 18.3717 17.8541 17.7379C17.966 17.487 18.0416 17.3487 18.2619 17.1875C18.9315 17.1131 18.9315 17.1131 19.2812 17.3462C19.5162 17.7034 19.5574 18.0239 19.4795 18.4433C19.041 19.7519 18.2564 20.7729 17.0515 21.4565C15.816 22.0659 14.5161 22.0672 13.2032 21.701C11.9684 21.2555 11.0123 20.2646 10.4501 19.0971C9.99214 17.9361 9.9494 16.4617 10.4173 15.2935C11.0512 14.0499 12.0021 13.1065 13.318 12.6098C14.4318 12.3128 16.0881 12.2742 17.0473 12.976Z" fill="#C9A581"/>
<path d="M19.9219 35.1562C20.166 35.3027 20.166 35.3027 20.3125 35.5469C20.384 35.9367 20.4193 36.1731 20.1908 36.5047C20.137 36.5634 20.0831 36.6222 20.0277 36.6827C19.9655 36.7507 19.9033 36.8186 19.8392 36.8887C19.4487 37.2985 19.0512 37.7009 18.6504 38.1008C18.5577 38.1936 18.465 38.2864 18.3723 38.3792C18.1797 38.572 17.9869 38.7646 17.794 38.957C17.5466 39.2039 17.2997 39.4511 17.0528 39.6985C16.8623 39.8894 16.6715 40.0801 16.4806 40.2708C16.3451 40.4062 16.2098 40.5417 16.0745 40.6773C15.9517 40.7996 15.9517 40.7996 15.8265 40.9244C15.7544 40.9964 15.6823 41.0685 15.608 41.1427C15.317 41.4134 15.0664 41.4587 14.6679 41.4509C14.2336 41.3606 13.9729 41.029 13.6719 40.7226C13.5791 40.6367 13.4863 40.5507 13.3907 40.4621C13.2931 40.37 13.1956 40.2778 13.0981 40.1855C13.0078 40.0999 12.9174 40.0143 12.8242 39.9261C12.5646 39.6079 12.4743 39.3674 12.4023 38.9648C12.6021 38.4255 12.6021 38.4255 12.8906 38.2812C13.2992 38.2249 13.5373 38.1921 13.8866 38.4235C14.0843 38.5971 14.2704 38.7756 14.4531 38.9648C14.5089 39.0206 14.5647 39.0764 14.6221 39.1338C14.663 39.1747 14.7039 39.2156 14.7461 39.2578C15.0691 39.1169 15.2805 38.9421 15.5276 38.6922C15.6032 38.6163 15.6788 38.5404 15.7566 38.4622C15.8777 38.3392 15.8777 38.3392 16.0011 38.2137C16.0846 38.1297 16.1682 38.0457 16.2542 37.9591C16.521 37.6905 16.7872 37.4214 17.0532 37.1521C17.3201 36.8825 17.587 36.6132 17.8543 36.344C18.0207 36.1765 18.1867 36.0087 18.3525 35.8406C18.465 35.7272 18.465 35.7272 18.5797 35.6115C18.6458 35.5446 18.7118 35.4778 18.7799 35.4089C19.1149 35.095 19.4828 35.0964 19.9219 35.1562Z" fill="#C9A581"/>
<path d="M19.9219 24.2187C20.166 24.3652 20.166 24.3652 20.3125 24.6094C20.384 24.9992 20.4193 25.2356 20.1908 25.5672C20.137 25.6259 20.0831 25.6847 20.0277 25.7452C19.9655 25.8132 19.9033 25.8811 19.8392 25.9512C19.4487 26.361 19.0512 26.7634 18.6504 27.1633C18.5577 27.2561 18.465 27.3489 18.3723 27.4417C18.1797 27.6345 17.9869 27.8271 17.794 28.0195C17.5466 28.2664 17.2997 28.5136 17.0528 28.761C16.8623 28.9519 16.6715 29.1426 16.4806 29.3333C16.3451 29.4687 16.2098 29.6042 16.0745 29.7398C15.9517 29.8621 15.9517 29.8621 15.8265 29.9869C15.7544 30.0589 15.6823 30.131 15.608 30.2052C15.317 30.4759 15.0664 30.5212 14.6679 30.5134C14.2336 30.4231 13.9729 30.0915 13.6719 29.7851C13.5791 29.6992 13.4863 29.6132 13.3907 29.5246C13.2931 29.4325 13.1956 29.3403 13.0981 29.248C13.0078 29.1624 12.9174 29.0768 12.8242 28.9886C12.5646 28.6704 12.4743 28.4299 12.4023 28.0273C12.6021 27.488 12.6021 27.488 12.8906 27.3437C13.2992 27.2874 13.5373 27.2546 13.8866 27.486C14.0843 27.6596 14.2704 27.8381 14.4531 28.0273C14.5089 28.0831 14.5647 28.1389 14.6221 28.1963C14.663 28.2372 14.7039 28.2781 14.7461 28.3203C15.0691 28.1794 15.2805 28.0046 15.5276 27.7547C15.6032 27.6788 15.6788 27.6029 15.7566 27.5247C15.8777 27.4017 15.8777 27.4017 16.0011 27.2762C16.0846 27.1922 16.1682 27.1082 16.2542 27.0216C16.521 26.753 16.7872 26.4839 17.0532 26.2146C17.3201 25.945 17.587 25.6757 17.8543 25.4065C18.0207 25.239 18.1867 25.0712 18.3525 24.9031C18.465 24.7897 18.465 24.7897 18.5797 24.674C18.6458 24.6071 18.7118 24.5403 18.7799 24.4714C19.1149 24.1575 19.4828 24.1589 19.9219 24.2187Z" fill="#C9A581"/>
<path d="M19.9219 13.2812C20.166 13.4277 20.166 13.4277 20.3125 13.6719C20.384 14.0617 20.4193 14.2981 20.1908 14.6297C20.137 14.6884 20.0831 14.7472 20.0277 14.8077C19.9655 14.8757 19.9033 14.9436 19.8392 15.0137C19.4487 15.4235 19.0512 15.8259 18.6504 16.2258C18.5577 16.3186 18.465 16.4114 18.3723 16.5042C18.1797 16.697 17.9869 16.8896 17.794 17.082C17.5466 17.3289 17.2997 17.5761 17.0528 17.8235C16.8623 18.0144 16.6715 18.2051 16.4806 18.3958C16.3451 18.5312 16.2098 18.6667 16.0745 18.8023C15.9517 18.9246 15.9517 18.9246 15.8265 19.0494C15.7544 19.1214 15.6823 19.1935 15.608 19.2677C15.317 19.5384 15.0664 19.5837 14.6679 19.5759C14.2336 19.4856 13.9729 19.154 13.6719 18.8476C13.5791 18.7617 13.4863 18.6757 13.3907 18.5871C13.2931 18.495 13.1956 18.4028 13.0981 18.3105C13.0078 18.2249 12.9174 18.1393 12.8242 18.0511C12.5646 17.7329 12.4743 17.4924 12.4023 17.0898C12.6021 16.5505 12.6021 16.5505 12.8906 16.4062C13.2992 16.3499 13.5373 16.3171 13.8866 16.5485C14.0843 16.7221 14.2704 16.9006 14.4531 17.0898C14.5089 17.1456 14.5647 17.2014 14.6221 17.2588C14.663 17.2997 14.7039 17.3406 14.7461 17.3828C15.0691 17.2419 15.2805 17.0671 15.5276 16.8172C15.6032 16.7413 15.6788 16.6654 15.7566 16.5872C15.8777 16.4642 15.8777 16.4642 16.0011 16.3387C16.0846 16.2547 16.1682 16.1707 16.2542 16.0841C16.521 15.8155 16.7872 15.5464 17.0532 15.2771C17.3201 15.0075 17.587 14.7382 17.8543 14.469C18.0207 14.3015 18.1867 14.1337 18.3525 13.9656C18.465 13.8522 18.465 13.8522 18.5797 13.7365C18.6458 13.6696 18.7118 13.6028 18.7799 13.5339C19.1149 13.22 19.4828 13.2214 19.9219 13.2812Z" fill="#C9A581"/>
<path d="M22.452 25.7307C22.5505 25.73 22.649 25.7293 22.7505 25.7286C23.0762 25.7269 23.4019 25.728 23.7277 25.7294C23.9539 25.7291 24.1801 25.7287 24.4063 25.7282C24.8805 25.7277 25.3546 25.7285 25.8288 25.7303C26.437 25.7325 27.0451 25.7313 27.6533 25.7289C28.1205 25.7275 28.5876 25.728 29.0547 25.729C29.279 25.7292 29.5033 25.7289 29.7276 25.728C30.0409 25.727 30.3541 25.7285 30.6674 25.7307C30.8068 25.7295 30.8068 25.7295 30.949 25.7283C31.577 25.7364 31.577 25.7364 31.8905 25.9675C32.0395 26.1882 32.0814 26.2986 32.0773 26.5625C32.0788 26.6592 32.0788 26.6592 32.0803 26.7578C32 27.0601 31.8915 27.1568 31.6378 27.3437C31.3149 27.4034 30.9949 27.3971 30.6674 27.3943C30.5689 27.395 30.4704 27.3957 30.3689 27.3964C30.0432 27.3981 29.7175 27.3969 29.3917 27.3956C29.1655 27.3959 28.9393 27.3963 28.7131 27.3968C28.2389 27.3973 27.7648 27.3965 27.2906 27.3947C26.6824 27.3924 26.0742 27.3937 25.466 27.3961C24.9989 27.3975 24.5318 27.397 24.0646 27.396C23.8404 27.3958 23.6161 27.3961 23.3918 27.397C23.0785 27.398 22.7653 27.3965 22.452 27.3943C22.3591 27.3951 22.2661 27.3959 22.1704 27.3967C21.5424 27.3886 21.5424 27.3886 21.2288 27.1575C21.0799 26.9367 21.038 26.8264 21.0421 26.5625C21.0406 26.4658 21.0406 26.4658 21.0391 26.3672C21.228 25.6558 21.8477 25.7256 22.452 25.7307Z" fill="#C9A581"/>
<path d="M22.452 14.7932C22.5505 14.7925 22.649 14.7918 22.7505 14.7911C23.0762 14.7894 23.4019 14.7905 23.7277 14.7919C23.9539 14.7916 24.1801 14.7912 24.4063 14.7907C24.8805 14.7902 25.3546 14.791 25.8288 14.7928C26.437 14.795 27.0451 14.7938 27.6533 14.7914C28.1205 14.79 28.5876 14.7905 29.0547 14.7915C29.279 14.7917 29.5033 14.7914 29.7276 14.7905C30.0409 14.7895 30.3541 14.791 30.6674 14.7932C30.8068 14.792 30.8068 14.792 30.949 14.7908C31.577 14.7989 31.577 14.7989 31.8905 15.03C32.0395 15.2507 32.0814 15.3611 32.0773 15.625C32.0788 15.7217 32.0788 15.7217 32.0803 15.8203C32 16.1226 31.8915 16.2193 31.6378 16.4062C31.3149 16.4659 30.9949 16.4596 30.6674 16.4568C30.5689 16.4575 30.4704 16.4582 30.3689 16.4589C30.0432 16.4606 29.7175 16.4594 29.3917 16.4581C29.1655 16.4584 28.9393 16.4588 28.7131 16.4593C28.2389 16.4598 27.7648 16.459 27.2906 16.4572C26.6824 16.4549 26.0742 16.4562 25.466 16.4586C24.9989 16.46 24.5318 16.4595 24.0646 16.4585C23.8404 16.4583 23.6161 16.4586 23.3918 16.4595C23.0785 16.4605 22.7653 16.459 22.452 16.4568C22.3591 16.4576 22.2661 16.4584 22.1704 16.4592C21.5424 16.4511 21.5424 16.4511 21.2288 16.22C21.0799 15.9992 21.038 15.8889 21.0421 15.625C21.0406 15.5283 21.0406 15.5283 21.0391 15.4297C21.228 14.7183 21.8477 14.7881 22.452 14.7932Z" fill="#C9A581"/>
<path d="M22.0217 28.8557C22.1299 28.8545 22.2381 28.8533 22.3496 28.852C22.466 28.8528 22.5824 28.8536 22.7023 28.8544C22.8222 28.854 22.9421 28.8536 23.0656 28.8533C23.3191 28.853 23.5726 28.8537 23.8261 28.8553C24.2145 28.8574 24.6027 28.8554 24.9911 28.8529C25.2373 28.8531 25.4834 28.8536 25.7296 28.8544C25.846 28.8536 25.9624 28.8528 26.0823 28.852C26.2446 28.8538 26.2446 28.8538 26.4102 28.8557C26.5053 28.856 26.6004 28.8563 26.6984 28.8567C27.0208 28.9201 27.1374 29.0445 27.3409 29.2969C27.3928 29.4922 27.3928 29.4922 27.3898 29.6875C27.3913 29.7842 27.3913 29.7842 27.3928 29.8828C27.3171 30.1679 27.176 30.2826 26.9503 30.4688C26.6984 30.5184 26.6984 30.5184 26.4102 30.5193C26.302 30.5205 26.1938 30.5218 26.0823 30.523C25.9659 30.5223 25.8495 30.5215 25.7296 30.5206C25.5498 30.5212 25.5498 30.5212 25.3663 30.5218C25.1128 30.522 24.8593 30.5213 24.6058 30.5197C24.2174 30.5176 23.8292 30.5197 23.4408 30.5222C23.1946 30.5219 22.9484 30.5214 22.7023 30.5206C22.5859 30.5214 22.4695 30.5222 22.3496 30.523C22.1873 30.5212 22.1873 30.5212 22.0217 30.5193C21.9266 30.519 21.8315 30.5187 21.7335 30.5184C21.4111 30.4549 21.2945 30.3305 21.0909 30.0781C21.0391 29.8828 21.0391 29.8828 21.0421 29.6875C21.0406 29.5908 21.0406 29.5908 21.0391 29.4922C21.1744 28.9827 21.5377 28.8573 22.0217 28.8557Z" fill="#C9A581"/>
<path d="M22.0217 17.9182C22.1299 17.917 22.2381 17.9158 22.3496 17.9145C22.466 17.9153 22.5824 17.9161 22.7023 17.9169C22.8222 17.9165 22.9421 17.9161 23.0656 17.9158C23.3191 17.9155 23.5726 17.9162 23.8261 17.9178C24.2145 17.9199 24.6027 17.9179 24.9911 17.9154C25.2373 17.9156 25.4834 17.9161 25.7296 17.9169C25.846 17.9161 25.9624 17.9153 26.0823 17.9145C26.2446 17.9163 26.2446 17.9163 26.4102 17.9182C26.5053 17.9185 26.6004 17.9188 26.6984 17.9192C27.0208 17.9826 27.1374 18.107 27.3409 18.3594C27.3928 18.5547 27.3928 18.5547 27.3898 18.75C27.3913 18.8467 27.3913 18.8467 27.3928 18.9453C27.3171 19.2304 27.176 19.3451 26.9503 19.5313C26.6984 19.5809 26.6984 19.5809 26.4102 19.5818C26.302 19.583 26.1938 19.5843 26.0823 19.5855C25.9659 19.5848 25.8495 19.584 25.7296 19.5831C25.5498 19.5837 25.5498 19.5837 25.3663 19.5843C25.1128 19.5845 24.8593 19.5838 24.6058 19.5822C24.2174 19.5801 23.8292 19.5822 23.4408 19.5847C23.1946 19.5844 22.9484 19.5839 22.7023 19.5831C22.5859 19.5839 22.4695 19.5847 22.3496 19.5855C22.1873 19.5837 22.1873 19.5837 22.0217 19.5818C21.9266 19.5815 21.8315 19.5812 21.7335 19.5809C21.4111 19.5174 21.2945 19.393 21.0909 19.1406C21.0391 18.9453 21.0391 18.9453 21.0421 18.75C21.0406 18.6533 21.0406 18.6533 21.0391 18.5547C21.1744 18.0452 21.5377 17.9198 22.0217 17.9182Z" fill="#C9A581"/>
</g>
<defs>
<clipPath id="clip0_149_469">
<rect width="50" height="50" fill="white"/>
</clipPath>
</defs>
</svg>
