<svg width="30" height="30" viewBox="0 0 30 30" fill="none" xmlns="http://www.w3.org/2000/svg">
<g clip-path="url(#clip0_254_328)">
<path d="M29.1909 4.31768C29.6369 4.68439 29.9641 5.08585 30.0224 5.67266C30.0424 6.12746 30.0129 6.52064 29.7658 6.91412C29.7466 6.94984 29.7274 6.98557 29.7077 7.02238C29.3703 7.5826 28.5984 7.86835 28.0446 8.17022C27.9701 8.21105 27.8956 8.25191 27.8211 8.29279C27.667 8.37736 27.5128 8.46184 27.3585 8.54624C27.0334 8.72422 26.709 8.90343 26.3846 9.08262C26.208 9.18015 26.0313 9.2776 25.8547 9.37505C25.7839 9.41412 25.7131 9.45318 25.6423 9.49224C25.5007 9.57037 25.3591 9.64849 25.2175 9.72662C25.1824 9.74595 25.1474 9.76528 25.1113 9.7852C25.0404 9.82429 24.9696 9.86338 24.8988 9.90246C24.7224 9.99974 24.5461 10.097 24.3698 10.1943C24.0432 10.3746 23.7165 10.5548 23.3896 10.7347C23.2381 10.8181 23.0867 10.9015 22.9352 10.9849C22.8306 11.0425 22.7259 11.1 22.6213 11.1576C22.3475 11.3084 22.074 11.4592 21.8037 11.616C21.7661 11.6378 21.7286 11.6595 21.6899 11.6819C21.6173 11.724 21.5449 11.7663 21.4727 11.8089C21.224 11.9532 21.224 11.9532 21.0939 11.9532C21.1137 12.0085 21.1335 12.0638 21.1539 12.1207C21.1803 12.1967 21.2067 12.2727 21.2331 12.3487C21.2461 12.3847 21.2591 12.4207 21.2725 12.4579C21.4772 13.0541 21.5256 13.6592 21.5224 14.2859C21.5222 14.3526 21.5219 14.4192 21.5217 14.4878C21.5149 14.9917 21.4672 15.4512 21.3283 15.9376C21.3049 16.0247 21.3049 16.0247 21.2809 16.1136C20.9696 17.1526 20.3781 18.0337 19.6291 18.8086C19.5916 18.8476 19.5542 18.8866 19.5156 18.9268C18.8989 19.5194 18.1363 19.9056 17.3426 20.2016C17.2433 20.2392 17.2433 20.2392 17.142 20.2775C16.4371 20.5431 15.7282 20.7975 15.0185 21.0499C14.7477 21.1463 14.477 21.2429 14.2062 21.3394C14.1395 21.3631 14.0729 21.3869 14.0042 21.4114C13.5765 21.5639 13.1497 21.7188 12.7235 21.8754C12.5671 21.9326 12.4107 21.9898 12.2543 22.0469C12.1572 22.0825 12.0601 22.1184 11.9631 22.1545C11.8302 22.204 11.697 22.2527 11.5638 22.3012C11.5068 22.3228 11.5068 22.3228 11.4486 22.3448C11.1994 22.4344 10.9868 22.4619 10.7228 22.4415C10.58 22.3499 10.58 22.3499 10.4885 22.2071C10.4555 22.0057 10.4555 22.0057 10.4885 21.7969C10.7354 21.4636 11.0773 21.3749 11.4592 21.2453C11.5273 21.2214 11.5954 21.1975 11.6655 21.1729C11.8127 21.1214 11.9598 21.0702 12.1072 21.0195C12.3398 20.9395 12.5719 20.8582 12.8039 20.7767C12.8829 20.7489 12.9618 20.7212 13.0408 20.6934C13.0999 20.6727 13.0999 20.6727 13.1601 20.6515C13.2806 20.6093 13.4011 20.5671 13.5216 20.525C14.2597 20.2669 14.996 20.0038 15.7309 19.7366C15.9221 19.6672 16.1136 19.5985 16.3051 19.5297C17.9687 18.9277 19.2902 18.1268 20.0775 16.4798C20.3687 15.7766 20.5191 15.0988 20.5263 14.3372C20.528 14.2801 20.5297 14.2229 20.5315 14.1641C20.5393 13.2236 20.2019 12.3497 19.8781 11.4808C19.8424 11.3837 19.8068 11.2866 19.7712 11.1895C19.6854 10.9556 19.5989 10.7219 19.5119 10.4883C19.0753 10.572 18.6766 10.711 18.2631 10.8729C18.196 10.899 18.1288 10.9252 18.0596 10.9522C15.8133 11.8364 13.8728 13.0631 12.0119 14.5899C11.8984 14.6827 11.7849 14.7754 11.6713 14.8682C11.57 14.9512 11.4687 15.0342 11.3674 15.1172C11.26 15.2051 11.1525 15.293 11.0451 15.3809C10.9919 15.4244 10.9388 15.4679 10.884 15.5127C9.11152 16.9629 9.11152 16.9629 8.94924 17.0957C8.84561 17.1805 8.742 17.2653 8.63842 17.3502C8.27763 17.6458 7.91584 17.9401 7.55378 18.234C7.22276 18.5029 6.89255 18.7727 6.56269 19.043C6.45528 19.1309 6.34786 19.2188 6.24043 19.3067C6.18725 19.3502 6.13408 19.3937 6.0793 19.4385C5.05879 20.2735 4.03828 21.1085 3.01777 21.9434C2.96467 21.9869 2.91157 22.0304 2.85687 22.0753C2.74893 22.1634 2.64074 22.2513 2.53231 22.3389C2.37093 22.4697 2.21061 22.6016 2.05097 22.7344C1.97257 22.7997 1.97257 22.7997 1.89259 22.8663C1.30562 23.3724 1.02293 23.8255 0.959666 24.6058C0.951925 24.7242 0.944461 24.8426 0.937693 24.961C1.3284 24.9293 1.65941 24.8249 2.02534 24.6877C2.08608 24.6654 2.14682 24.6431 2.20939 24.6202C2.34141 24.5716 2.47334 24.5229 2.6052 24.474C2.81552 24.396 3.02608 24.3186 3.23671 24.2414C3.46127 24.1591 3.68583 24.0768 3.91032 23.9943C4.70606 23.7019 5.50251 23.4114 6.29984 23.1233C6.54909 23.0332 6.79817 22.9427 7.04713 22.8518C7.20325 22.7949 7.35953 22.7385 7.51584 22.6821C7.62287 22.6434 7.72972 22.6042 7.83656 22.565C8.63339 22.2791 8.63339 22.2791 8.98701 22.3536C9.14336 22.4979 9.1646 22.6462 9.19941 22.8516C9.1811 23.0091 9.1811 23.0091 9.08222 23.1446C8.73791 23.3319 8.35666 23.4563 7.98817 23.5872C7.93356 23.6068 7.87894 23.6264 7.82268 23.6466C7.642 23.7114 7.46124 23.7759 7.28047 23.8404C7.1527 23.8862 7.02494 23.9319 6.89719 23.9777C6.6931 24.0509 6.489 24.1241 6.28487 24.1972C5.50048 24.4781 4.71676 24.7608 3.93305 25.0437C3.73684 25.1145 3.54062 25.1852 3.3444 25.256C3.16053 25.3223 2.97665 25.3886 2.79278 25.4549C2.72722 25.4786 2.66166 25.5022 2.59411 25.5266C2.50087 25.5602 2.50087 25.5602 2.40576 25.5945C2.34649 25.6158 2.28723 25.6371 2.22617 25.6591C2.10758 25.7022 1.98924 25.7459 1.87113 25.7903C1.78595 25.8221 1.78595 25.8221 1.69905 25.8546C1.62402 25.883 1.62402 25.883 1.54746 25.912C1.13064 26.0452 0.817912 25.9559 0.431407 25.774C0.198794 25.5891 0.0341613 25.3599 -0.0266716 25.0653C-0.0370319 24.9279 -0.0374808 24.7948 -0.0327656 24.657C-0.0317506 24.6084 -0.0307357 24.5597 -0.02969 24.5095C0.00548745 23.5836 0.400727 22.8738 1.06152 22.2394C1.31803 22.0127 1.58581 21.8021 1.8578 21.5944C2.20481 21.3535 2.20481 21.3535 2.46113 21.0352C2.39043 21.0171 2.39043 21.0171 2.31831 20.9986C1.79374 20.7961 1.41768 20.4765 1.16818 19.9711C1.0202 19.5949 1.03015 19.2474 1.1517 18.8638C1.4781 18.1162 2.15627 17.6836 2.88182 17.3841C3.90646 17.0221 4.82624 17.0636 5.85957 17.3438C5.83049 17.3196 5.80141 17.2955 5.77145 17.2706C5.1957 16.7811 4.69722 16.2457 4.61605 15.4596C4.59972 15.045 4.69958 14.7113 4.9477 14.3775C5.39644 13.8921 6.04979 13.743 6.68286 13.6984C7.74111 13.6661 8.81717 13.9729 9.60659 14.6943C9.68784 14.7746 9.76629 14.8577 9.84394 14.9415C10.0447 14.8709 10.1681 14.8032 10.3127 14.6485C10.2787 14.625 10.2447 14.6015 10.2097 14.5773C9.75314 14.2451 9.45893 13.9202 9.3459 13.3558C9.28981 12.8996 9.37659 12.5679 9.6336 12.188C10.1959 11.4779 11.0743 11.1387 11.9533 11.0157C12.6114 10.957 13.3691 10.9382 13.9446 11.302C14.1473 11.4263 14.2961 11.5029 14.5314 11.543C14.8642 11.4524 15.1532 11.232 15.4401 11.0474C16.2336 10.5565 17.1258 10.2267 17.9958 9.89874C18.0611 9.87379 18.0611 9.87379 18.1276 9.84834C18.5467 9.68897 18.9403 9.54576 19.3885 9.49522C19.7894 9.4445 20.0459 9.27662 20.3652 9.03814C20.4201 8.99895 20.475 8.95976 20.5315 8.91938C20.6449 8.83835 20.7579 8.75676 20.8705 8.67462C21.1219 8.49183 21.3772 8.31479 21.6323 8.13726C21.9274 7.93132 22.2216 7.72431 22.5135 7.51379C22.6128 7.44327 22.7121 7.37278 22.8115 7.3023C22.8566 7.26913 22.9018 7.23597 22.9483 7.20179C23.2162 7.01345 23.3913 6.92411 23.7307 6.97271C23.8735 7.0606 23.8735 7.0606 23.965 7.20709C24.0166 7.49768 24.0166 7.49768 23.965 7.67584C23.8862 7.76604 23.8862 7.76604 23.7838 7.84841C23.7465 7.87848 23.7092 7.90855 23.6707 7.93954C23.4955 8.07245 23.3164 8.19794 23.1337 8.32037C23.0511 8.37647 22.9685 8.43262 22.8859 8.48882C22.8424 8.51836 22.7989 8.54789 22.7542 8.57832C22.5118 8.74417 22.2717 8.91328 22.0314 9.08209C21.5258 9.43686 21.0177 9.78793 20.508 10.1368C20.5447 10.3513 20.6044 10.54 20.6874 10.741C20.7087 10.7928 20.7299 10.8445 20.7518 10.8978C20.7761 10.9562 20.7761 10.9562 20.801 11.0157C21.5376 10.6226 22.2728 10.2281 22.9982 9.81451C23.4731 9.5438 23.9518 9.28129 24.4338 9.02349C24.974 8.73457 25.5092 8.43836 26.0413 8.13493C26.5108 7.86795 26.9857 7.61185 27.4616 7.3566C27.8446 7.15001 28.2171 6.93318 28.5825 6.69691C28.7111 6.62115 28.7111 6.62115 28.8283 6.62115C28.8555 6.55226 28.8555 6.55226 28.8832 6.48199C28.9455 6.32818 28.9455 6.32818 29.0041 6.21099C29.0363 5.91737 29.037 5.68969 28.9016 5.42364C28.6807 5.17212 28.5119 5.05405 28.1728 5.02081C27.6893 5.06044 27.2966 5.39072 26.913 5.66534C26.8617 5.70145 26.8104 5.73756 26.7576 5.77477C26.5295 5.93543 26.3028 6.09734 26.0797 6.26478C25.558 6.65207 25.558 6.65207 25.2797 6.67242C25.0783 6.62115 25.0783 6.62115 24.9282 6.5003C24.8143 6.26755 24.8206 6.16381 24.9025 5.91802C25.23 5.60701 25.6007 5.35715 25.9719 5.10137C26.0289 5.06168 26.0859 5.02199 26.1447 4.9811C28.0073 3.6911 28.0073 3.6911 29.1909 4.31768ZM10.6643 12.4805C10.5291 12.631 10.5291 12.631 10.4299 12.7735C11.08 12.9902 11.8067 12.8211 12.4342 12.6112C12.6213 12.5505 12.7962 12.5084 12.9897 12.4769C13.2402 12.4328 13.3949 12.3447 13.5939 12.1876C12.7577 11.6301 11.4453 11.97 10.6643 12.4805ZM10.84 13.7696C10.9983 13.9541 10.9983 13.9541 11.1916 14.004C11.2689 13.9266 11.3463 13.8493 11.426 13.7696C11.2326 13.7696 11.0393 13.7696 10.84 13.7696ZM5.91816 14.8243C5.89883 14.8629 5.87949 14.9016 5.85957 14.9415C5.97779 14.998 6.09625 15.0541 6.21479 15.1099C6.28073 15.1412 6.34667 15.1725 6.41461 15.2047C6.80925 15.3734 7.17264 15.4299 7.59541 15.4615C8.03113 15.4982 8.41077 15.5688 8.82244 15.7203C8.97121 15.7782 8.97121 15.7782 9.14082 15.7032C8.94679 15.2715 8.56371 15.0673 8.14175 14.8888C7.42998 14.623 6.63355 14.491 5.91816 14.8243ZM5.85957 15.9961C6.22718 16.458 6.73617 16.9756 7.34616 17.073C7.56682 17.0412 7.67399 16.9318 7.84077 16.7872C7.89795 16.7382 7.95512 16.6893 8.01403 16.6388C8.05716 16.6008 8.10029 16.5627 8.14472 16.5235C7.96864 16.3474 7.75961 16.3757 7.52217 16.3587C7.03991 16.3175 6.61008 16.215 6.15414 16.0561C5.98946 15.9899 5.98946 15.9899 5.85957 15.9961ZM6.26972 17.6368C6.32773 17.7238 6.32773 17.7238 6.38691 17.8126C6.44492 17.7932 6.50293 17.7739 6.56269 17.754C6.41767 17.696 6.41767 17.696 6.26972 17.6368ZM2.30366 18.8233C2.15559 18.9643 2.15559 18.9643 2.16816 19.1016C2.84904 19.2754 3.53052 18.991 4.14913 18.7299C4.52995 18.5733 4.89104 18.5028 5.30293 18.4791C5.37483 18.4747 5.44674 18.4703 5.52082 18.4658C5.5746 18.4629 5.62838 18.46 5.68379 18.4571C5.3595 18.1063 4.91599 18.049 4.46064 18.0286C3.69337 18.038 2.86671 18.2877 2.30366 18.8233ZM3.98457 19.7462C3.86599 19.7884 3.74741 19.8306 3.62889 19.873C3.28758 19.9703 2.93033 19.9997 2.57832 20.0391C2.81517 20.2278 3.05134 20.3464 3.36293 20.3204C3.55631 20.2611 3.67265 20.1652 3.8271 20.0355C3.87884 19.9925 3.93058 19.9495 3.98388 19.9052C4.02278 19.8721 4.06168 19.8389 4.10176 19.8047C4.06308 19.7854 4.02441 19.7661 3.98457 19.7462Z" fill="#C9A581"/>
<path d="M13.3905 5.07466C14.3747 5.62975 15.0856 6.50608 15.3957 7.599C15.59 8.38062 15.5904 9.10771 15.2039 9.82876C14.9382 10.235 14.5133 10.4554 14.0627 10.6056C13.423 10.661 12.8992 10.5655 12.3781 10.1808C11.5123 9.45211 11.0618 8.45857 10.9609 7.34265C10.937 6.63798 11.0167 5.98265 11.426 5.39075C11.9599 4.85365 12.7055 4.75949 13.3905 5.07466ZM12.715 5.8595C12.8609 6.53261 13.1577 6.99168 13.5903 7.51477C13.9548 7.95551 14.2322 8.41893 14.4142 8.96496C14.4529 8.96496 14.4916 8.96496 14.5314 8.96496C14.6674 8.10142 14.3815 7.37435 13.8745 6.67752C13.5662 6.31939 13.193 5.95509 12.715 5.8595ZM11.9533 6.67981C11.7558 7.27228 12.0227 8.01101 12.2669 8.55572C12.5262 9.06332 12.8605 9.48296 13.4181 9.66809C13.4955 9.66809 13.5728 9.66809 13.6525 9.66809C13.5449 8.96229 13.1905 8.43445 12.7234 7.91704C12.4031 7.54983 12.2097 7.12142 12.0119 6.67981C11.9926 6.67981 11.9732 6.67981 11.9533 6.67981Z" fill="#C9A581"/>
<path d="M6.22421 10.1037C6.60482 10.3988 6.8462 10.8503 6.97266 11.3086C7.03123 11.9216 6.94823 12.3977 6.5625 12.8906C6.056 13.4201 5.41555 13.6441 4.69754 13.6719C3.5933 13.6925 2.52262 13.3548 1.69922 12.5976C1.32305 12.2341 1.07364 11.7807 1.05469 11.25C1.11632 10.719 1.32862 10.3357 1.73904 9.998C3.05267 9.07359 4.93275 9.26996 6.22421 10.1037ZM2.22656 10.8398C2.50717 11.1204 3.07654 11.1305 3.45703 11.1328C3.65503 11.113 3.85109 11.0884 4.04806 11.0607C4.61974 10.9814 5.16972 11.0183 5.74219 11.0742C5.48599 10.6666 5.03269 10.5003 4.58018 10.3939C4.35855 10.354 4.13957 10.3486 3.91479 10.3491C3.84209 10.3492 3.84209 10.3492 3.76792 10.3494C3.20608 10.3605 2.67216 10.4833 2.22656 10.8398ZM4.22846 11.9233C4.03626 11.9542 3.85712 11.9598 3.66257 11.9588C3.59232 11.9586 3.52208 11.9584 3.44971 11.9583C3.34094 11.9575 3.34094 11.9575 3.22998 11.9568C3.15611 11.9565 3.08224 11.9562 3.00613 11.956C2.8244 11.9553 2.64267 11.9543 2.46094 11.9531C2.99485 12.5051 3.7682 12.7173 4.51904 12.7368C5.09846 12.7215 5.50839 12.6066 5.91797 12.1875C5.59313 11.9709 5.24226 11.9328 4.85962 11.9128C4.79974 11.9087 4.79974 11.9087 4.73866 11.9045C4.5632 11.8942 4.40191 11.8932 4.22846 11.9233Z" fill="#C9A581"/>
<path d="M7.3242 5.09762C7.48534 5.22946 7.48534 5.22946 7.55858 5.39059C7.55508 5.59355 7.54939 5.73537 7.42491 5.90008C7.29613 5.99784 7.22425 5.99658 7.06419 5.99118C6.99724 5.98982 6.99724 5.98982 6.92892 5.98843C6.79686 5.97653 6.79686 5.97653 6.68036 5.94655C6.54461 5.9136 6.42365 5.91222 6.28416 5.91428C6.21392 5.91507 6.21392 5.91507 6.14226 5.91588C6.10691 5.91656 6.07156 5.91724 6.03514 5.91794C6.47336 6.49375 7.04628 6.77895 7.68393 7.08619C8.03311 7.25888 8.32027 7.47826 8.61327 7.73434C8.69087 7.79362 8.76884 7.85244 8.84764 7.91012C8.70536 7.52555 8.70536 7.52555 8.51073 7.16672C8.4065 6.9739 8.41007 6.8365 8.43748 6.62106C8.52904 6.47824 8.52904 6.47824 8.67186 6.38669C8.91373 6.34711 9.0304 6.35018 9.23216 6.49289C9.68505 7.02226 9.87671 7.64339 9.86227 8.32966C9.81238 8.77745 9.64371 9.17939 9.31639 9.49216C8.76253 9.92502 8.25579 10.0192 7.55858 9.96091C6.61301 9.78002 5.77127 9.16026 5.22733 8.37257C4.75605 7.64885 4.42826 6.828 4.5973 5.9541C4.7272 5.56442 4.97468 5.26443 5.33934 5.07565C5.92818 4.8037 6.73603 4.83656 7.3242 5.09762ZM5.62498 6.97262C5.72256 7.59913 6.21549 8.15378 6.69295 8.54413C7.16031 8.87277 7.67832 9.11989 8.2617 9.02341C8.30037 8.98473 8.33905 8.94606 8.37889 8.90622C7.92293 8.317 7.36191 7.93415 6.68242 7.64073C6.42685 7.5231 6.20471 7.3701 5.97655 7.207C5.90714 7.16035 5.83759 7.11393 5.76781 7.06784C5.72068 7.03642 5.67354 7.005 5.62498 6.97262Z" fill="#C9A581"/>
</g>
<defs>
<clipPath id="clip0_254_328">
<rect width="30" height="30" fill="white"/>
</clipPath>
</defs>
</svg>
