<svg width="24" height="24" viewBox="0 0 24 24" fill="none" xmlns="http://www.w3.org/2000/svg">
<g clip-path="url(#clip0_93_1997)">
<path d="M6.16964 3.01875C5.66719 2.51625 5.66719 1.70315 6.16964 1.20065C6.44424 0.926061 6.44424 0.480936 6.16964 0.206342C5.8951 -0.0682517 5.44993 -0.0682517 5.17533 0.206342C4.1258 1.25587 4.1258 2.96353 5.17533 4.01306C5.67779 4.51551 5.67779 5.32865 5.17533 5.83115C4.90074 6.10575 4.90074 6.55087 5.17533 6.82547C5.44988 7.10006 5.8951 7.10006 6.16964 6.82547C7.21918 5.77594 7.21918 4.06828 6.16964 3.01875Z" fill="#C9A581"/>
<path d="M10.3884 3.01875C9.88594 2.51625 9.88594 1.70315 10.3884 1.20065C10.663 0.926061 10.663 0.480936 10.3884 0.206342C10.1138 -0.0682517 9.66868 -0.0682517 9.39408 0.206342C8.34455 1.25587 8.34455 2.96353 9.39408 4.01306C9.89654 4.51551 9.89654 5.32865 9.39408 5.83115C9.11949 6.10575 9.11949 6.55087 9.39408 6.82547C9.66863 7.10006 10.1139 7.10006 10.3884 6.82547C11.4379 5.77594 11.4379 4.06828 10.3884 3.01875Z" fill="#C9A581"/>
<path d="M14.6067 3.01875C14.1042 2.51625 14.1042 1.70315 14.6067 1.20065C14.8813 0.926061 14.8813 0.480936 14.6067 0.206342C14.3321 -0.0682517 13.8869 -0.0682517 13.6123 0.206342C12.5628 1.25587 12.5628 2.96353 13.6123 4.01306C14.1148 4.51551 14.1148 5.32865 13.6123 5.83115C13.3377 6.10575 13.3377 6.55087 13.6123 6.82547C13.8869 7.10006 14.3322 7.10006 14.6067 6.82547C15.6562 5.77594 15.6562 4.06828 14.6067 3.01875Z" fill="#C9A581"/>
<path d="M17.672 18.3279C21.1613 18.3279 24 15.4892 24 12C24 10.8369 23.0538 9.89067 21.8907 9.89067H19.7678C19.7767 9.65691 19.7813 9.42248 19.7813 9.18755C19.7813 8.79923 19.4665 8.48442 19.0782 8.48442H0.703857C0.315545 8.48442 0.000732331 8.79923 0.000732331 9.18755C0.000732331 13.0309 1.23415 17.0628 3.80469 19.781H0.703857C0.182467 19.781 -0.15869 20.3311 0.0749355 20.7985C0.556154 21.7608 1.29467 22.5686 2.21084 23.1346C3.12673 23.7005 4.17964 23.9995 5.25565 23.9995H14.5265C16.7192 23.9995 18.7255 22.7617 19.7072 20.7984C19.9403 20.3321 19.6009 19.7809 19.0782 19.7809H15.9773C16.394 19.3404 16.7842 18.8546 17.144 18.3278H17.672V18.3279ZM19.6592 11.2969H21.8907C22.2784 11.2969 22.5938 11.6123 22.5938 12C22.5938 14.6079 20.5548 16.7482 17.9873 16.9114C18.8662 15.2105 19.427 13.2901 19.6592 11.2969ZM17.7488 21.1778C16.9327 22.0648 15.7768 22.5934 14.5264 22.5934H5.25565C4.00526 22.5934 2.84947 22.0648 2.03333 21.1778C2.65287 21.1778 17.4135 21.1778 17.7488 21.1778ZM13.8825 19.781H5.89953C3.3102 17.8221 1.59772 14.011 1.42189 9.88134L18.3602 9.89072C18.2048 13.5397 16.7502 17.6115 13.8825 19.781Z" fill="#C9A581"/>
</g>
<defs>
<clipPath id="clip0_93_1997">
<rect width="24" height="24" fill="white"/>
</clipPath>
</defs>
</svg>
