<svg width="30" height="30" viewBox="0 0 30 30" fill="none" xmlns="http://www.w3.org/2000/svg">
<path d="M22.7992 3.29688H7.19924C6.83959 3.30675 6.48731 3.40112 6.17089 3.57236C5.85447 3.7436 5.58279 3.9869 5.37781 4.28259L1.47781 9.68259C1.18822 10.0918 1.04359 10.586 1.06688 11.0868C1.09018 11.5876 1.28005 12.0663 1.60638 12.4469L13.3064 25.9254C13.5067 26.1835 13.7634 26.3924 14.0568 26.5361C14.3502 26.6798 14.6725 26.7545 14.9992 26.7545C15.3259 26.7545 15.6483 26.6798 15.9417 26.5361C16.2351 26.3924 16.4918 26.1835 16.6921 25.9254L28.3921 12.4469C28.7184 12.0663 28.9083 11.5876 28.9316 11.0868C28.9549 10.586 28.8103 10.0918 28.5207 9.68259L24.6207 4.28259C24.4157 3.9869 24.144 3.7436 23.8276 3.57236C23.5112 3.40112 23.1589 3.30675 22.7992 3.29688V3.29688Z" stroke="#C9A581" stroke-width="2" stroke-linecap="round" stroke-linejoin="round"/>
<path d="M13.8848 3.27734L8.65625 11.3773L14.9991 26.6988" stroke="#C9A581" stroke-width="2" stroke-linecap="round" stroke-linejoin="round"/>
<path d="M16.1786 3.27734L21.3857 11.3773L15 26.6988" stroke="#C9A581" stroke-width="2" stroke-linecap="round" stroke-linejoin="round"/>
<path d="M1.11328 11.3789H28.8847" stroke="#C9A581" stroke-width="2" stroke-linecap="round" stroke-linejoin="round"/>
</svg>
