<svg width="30" height="30" viewBox="0 0 30 30" fill="none" xmlns="http://www.w3.org/2000/svg">
<g clip-path="url(#clip0_257_333)">
<path d="M3.98414 0C11.5832 0 19.1822 0 27.0115 0C27.0115 1.00547 27.0115 2.01094 27.0115 3.04688C26.4547 3.03385 26.4547 3.03385 25.8868 3.02055C25.6501 3.01753 25.4136 3.01485 25.177 3.01334C24.8022 3.01093 24.4277 3.00736 24.053 2.99645C22.6516 2.87412 22.6516 2.87412 21.4035 3.33844C21.2126 3.56596 21.086 3.81023 20.9751 4.08464C20.8975 4.26601 20.7869 4.4064 20.6614 4.5575C20.626 4.60368 20.5905 4.64987 20.554 4.69746C20.502 4.76504 20.502 4.76504 20.449 4.83398C20.152 5.22177 19.8587 5.61182 19.5701 6.00586C19.2429 6.4526 18.9087 6.8936 18.5721 7.33332C18.2812 7.71407 17.9951 8.09807 17.713 8.48545C17.3633 8.9641 17.0009 9.43093 16.6404 9.90234C21.7741 9.93135 21.7741 9.93135 27.0115 9.96094C27.0115 12.6293 27.0115 15.2977 27.0115 18.0469C26.006 18.0469 25.0005 18.0469 23.9646 18.0469C23.9646 16.384 23.9646 14.7211 23.9646 13.0078C22.9978 13.0078 22.031 13.0078 21.0349 13.0078C21.0349 14.0133 21.0349 15.0188 21.0349 16.0547C20.7836 16.0547 20.5322 16.0547 20.2732 16.0547C20.2911 16.1053 20.3089 16.156 20.3273 16.2081C20.7513 17.4111 21.1718 18.6152 21.5895 19.8204C21.8645 20.6141 22.1401 21.4075 22.4171 22.2006C22.524 22.5069 22.6309 22.8133 22.7377 23.1197C22.8394 23.4112 22.9412 23.7027 23.043 23.9942C23.1583 24.3241 23.2734 24.654 23.3883 24.984C23.4327 25.1114 23.4772 25.2389 23.5218 25.3663C23.5839 25.5438 23.6458 25.7215 23.7076 25.8991C23.726 25.9515 23.7444 26.0039 23.7633 26.0578C24.0584 26.9091 24.1511 27.6817 23.7888 28.5352C23.4419 29.2363 22.8835 29.6837 22.154 29.9433C21.8502 30.0285 21.5437 30.0166 21.2304 30.0157C21.1619 30.0159 21.0933 30.0162 21.0226 30.0165C20.8331 30.0171 20.6435 30.0172 20.454 30.017C20.2492 30.017 20.0445 30.0177 19.8397 30.0182C19.4389 30.0192 19.038 30.0195 18.6371 30.0196C18.3112 30.0196 17.9852 30.0199 17.6592 30.0202C16.7343 30.0213 15.8094 30.0218 14.8845 30.0217C14.8347 30.0217 14.7849 30.0217 14.7335 30.0217C14.6587 30.0217 14.6587 30.0217 14.5824 30.0217C13.7741 30.0217 12.9658 30.0228 12.1575 30.0244C11.3268 30.0261 10.4962 30.0269 9.66555 30.0268C9.19948 30.0268 8.73342 30.0271 8.26736 30.0284C7.8705 30.0294 7.47365 30.0297 7.07679 30.0289C6.87449 30.0285 6.67221 30.0285 6.46991 30.0295C6.25012 30.0304 6.03037 30.0299 5.81058 30.029C5.74731 30.0296 5.68403 30.0302 5.61884 30.0308C4.99883 30.0252 4.48724 29.8292 3.98414 29.4727C3.93338 29.4376 3.88262 29.4026 3.83033 29.3665C3.34679 28.9211 3.02212 28.2821 2.97228 27.6238C2.95139 26.9992 3.05931 26.4947 3.27369 25.9094C3.30509 25.82 3.33635 25.7306 3.36746 25.6411C3.43622 25.444 3.50585 25.2473 3.57607 25.0508C3.70053 24.7016 3.8213 24.3511 3.9418 24.0005C4.38859 22.7017 4.84087 21.4047 5.29414 20.108C5.49605 19.5303 5.69685 18.9522 5.89667 18.3737C5.94271 18.2406 5.98875 18.1074 6.03479 17.9742C6.10218 17.7793 6.16951 17.5844 6.23667 17.3894C6.29844 17.21 6.36041 17.0307 6.42242 16.8514C6.44081 16.7978 6.4592 16.7443 6.47815 16.689C6.49528 16.6396 6.51241 16.5902 6.53006 16.5392C6.54485 16.4964 6.55963 16.4535 6.57486 16.4093C6.62135 16.2878 6.67985 16.1711 6.73804 16.0547C6.48668 16.0547 6.23531 16.0547 5.97633 16.0547C5.97633 14.0437 5.97633 12.0328 5.97633 9.96094C7.42652 9.9416 8.87672 9.92227 10.3709 9.90234C10.1002 9.5543 9.82945 9.20625 9.55054 8.84766C9.4151 8.66638 9.28045 8.48517 9.14771 8.302C8.85693 7.90408 8.56109 7.51046 8.26148 7.11914C7.93025 6.6864 7.60439 6.25021 7.28245 5.81052C7.10363 5.5669 6.92306 5.32481 6.73965 5.08461C6.68055 5.0072 6.68055 5.0072 6.62026 4.92823C6.54044 4.82435 6.46012 4.72085 6.3793 4.61775C6.15344 4.32728 5.9534 4.03731 5.77753 3.71379C5.63273 3.49377 5.448 3.30251 5.2732 3.10547C4.84781 3.08613 4.42242 3.0668 3.98414 3.04688C3.98414 2.04141 3.98414 1.03594 3.98414 0ZM5.03883 1.05469C5.03883 1.36406 5.03883 1.67344 5.03883 1.99219C10.6269 1.99219 16.215 1.99219 21.9724 1.99219C21.9724 1.68281 21.9724 1.37344 21.9724 1.05469C16.3843 1.05469 10.7962 1.05469 5.03883 1.05469ZM23.0271 1.05469C23.0271 1.36406 23.0271 1.67344 23.0271 1.99219C23.9939 1.99219 24.9607 1.99219 25.9568 1.99219C25.9568 1.68281 25.9568 1.37344 25.9568 1.05469C24.99 1.05469 24.0232 1.05469 23.0271 1.05469ZM6.62086 3.04688C6.70717 3.21951 6.78347 3.35225 6.89597 3.50441C6.92777 3.54754 6.95957 3.59067 6.99233 3.6351C7.02685 3.68148 7.06137 3.72785 7.09693 3.77563C7.1512 3.84894 7.1512 3.84894 7.20657 3.92372C7.51609 4.34056 7.83085 4.75333 8.14638 5.16562C8.43755 5.54667 8.7229 5.93164 9.00626 6.31851C9.26184 6.6666 9.52246 7.01059 9.78492 7.35352C10.1499 7.83063 10.5093 8.31148 10.8646 8.79593C10.898 8.83863 10.9314 8.88134 10.9659 8.92533C11.0547 9.05407 11.1151 9.16705 11.1798 9.30762C11.317 9.57684 11.4576 9.79876 11.7185 9.96094C12.249 10.114 12.815 10.0759 13.3617 10.0589C13.5243 10.0553 13.6865 10.0573 13.8491 10.0594C14.0449 10.0612 14.2405 10.0578 14.4363 10.0548C14.5084 10.0553 14.5806 10.0559 14.6549 10.0565C14.9622 10.044 15.1579 10.028 15.3939 9.82046C15.5282 9.65783 15.6463 9.49295 15.7615 9.31641C15.827 9.22828 15.8928 9.14046 15.9595 9.05319C16.0218 8.9677 16.084 8.88209 16.146 8.79639C16.4428 8.38985 16.7445 7.9875 17.0505 7.58789C17.3474 7.20004 17.6408 6.81006 17.9295 6.41602C18.2181 6.02197 18.5115 5.63201 18.8084 5.24414C19.2452 4.6732 19.6745 4.09693 20.0974 3.51562C20.1265 3.47588 20.1555 3.43613 20.1855 3.39518C20.3261 3.23536 20.3261 3.23536 20.3904 3.04688C15.8464 3.04688 11.3025 3.04688 6.62086 3.04688ZM7.03101 11.0156C7.03101 12.3305 7.03101 13.6453 7.03101 15C11.3043 15 15.5775 15 19.9802 15C19.9802 13.6852 19.9802 12.3703 19.9802 11.0156C15.707 11.0156 11.4337 11.0156 7.03101 11.0156ZM21.0349 11.0156C21.0349 11.325 21.0349 11.6344 21.0349 11.9531C22.3498 11.9531 23.6646 11.9531 25.0193 11.9531C25.0193 13.616 25.0193 15.2789 25.0193 16.9922C25.3287 16.9922 25.638 16.9922 25.9568 16.9922C25.9568 15.0199 25.9568 13.0477 25.9568 11.0156C24.3326 11.0156 22.7084 11.0156 21.0349 11.0156ZM7.85133 16.0547C7.5425 16.9391 7.5425 16.9391 7.23403 17.8237C7.10079 18.2061 6.9675 18.5884 6.83397 18.9706C6.71909 19.2995 6.6044 19.6285 6.48983 19.9575C6.44542 20.0849 6.40094 20.2123 6.35639 20.3397C6.29376 20.5188 6.23137 20.698 6.16904 20.8772C6.141 20.9572 6.141 20.9572 6.11238 21.0387C6.09525 21.0882 6.07812 21.1376 6.06047 21.1885C6.0381 21.2526 6.0381 21.2526 6.01527 21.318C5.97278 21.4569 5.94404 21.5955 5.91773 21.7383C6.24515 21.8903 6.57669 22.0271 6.91383 22.1558C6.9711 22.178 6.9711 22.178 7.02953 22.2008C8.45242 22.737 9.90566 22.4401 11.2708 21.9064C12.8509 21.2948 14.5497 21.4105 16.0972 22.0513C16.8431 22.3594 17.4881 22.456 18.292 22.4597C18.3981 22.4602 18.3981 22.4602 18.5064 22.4607C18.8841 22.4715 18.8841 22.4715 19.2185 22.3242C19.0728 21.9013 18.9271 21.4785 18.7814 21.0556C18.7137 20.8591 18.6459 20.6627 18.5783 20.4662C18.5128 20.2761 18.4473 20.0861 18.3818 19.8961C18.356 19.8212 18.3302 19.7462 18.3043 19.6713C18.1763 19.2997 18.0479 18.9282 17.9169 18.5576C17.8975 18.5027 17.8781 18.4479 17.8582 18.3913C17.8227 18.291 17.787 18.1908 17.7512 18.0907C17.6365 17.7667 17.6365 17.7667 17.6365 17.6367C17.9265 17.54 18.2166 17.4434 18.5154 17.3438C18.8088 18.0104 19.0347 18.6972 19.2661 19.3872C19.5703 20.2927 19.8837 21.1938 20.2146 22.0898C20.277 22.0691 20.3393 22.0483 20.4036 22.0269C20.5187 21.9885 20.6338 21.9502 20.7493 21.9128C20.8464 21.8793 20.9408 21.8382 21.0349 21.7969C21.1036 21.5907 21.081 21.5424 21.011 21.3425C20.9913 21.2856 20.9717 21.2286 20.9515 21.17C20.9294 21.1077 20.9073 21.0455 20.8845 20.9814C20.8617 20.9156 20.8388 20.8499 20.8153 20.7822C20.7413 20.5697 20.6666 20.3575 20.5918 20.1453C20.5448 20.0107 20.4978 19.876 20.4509 19.7414C20.2946 19.2936 20.1374 18.846 19.9802 18.3984C19.7095 17.625 19.4388 16.8516 19.1599 16.0547C17.4003 16.0547 15.6408 16.0547 13.8279 16.0547C13.9826 16.3447 14.1373 16.6348 14.2966 16.9336C14.6901 17.7206 14.9649 18.4536 14.9741 19.3396C14.975 19.3905 14.9758 19.4413 14.9767 19.4938C14.9702 19.9032 14.8612 20.2038 14.5999 20.5199C14.262 20.8111 13.9544 20.945 13.5129 21.0022C13.0403 20.9452 12.6467 20.7965 12.326 20.4373C11.9469 19.9391 11.9747 19.3933 12.0518 18.8013C12.216 17.8295 12.6383 16.8723 13.1834 16.0547C11.4238 16.0547 9.66422 16.0547 7.85133 16.0547ZM13.4763 17.6367C13.0238 18.6691 13.0238 18.6691 13.1248 19.7461C13.2211 19.8792 13.2864 19.9163 13.4397 19.9768C13.6043 19.9953 13.6043 19.9953 13.7546 19.8743C13.9449 19.6893 13.9567 19.5842 13.9634 19.325C13.9591 18.7312 13.7752 18.1745 13.5349 17.6367C13.5156 17.6367 13.4962 17.6367 13.4763 17.6367ZM11.7771 22.793C11.714 22.817 11.714 22.817 11.6496 22.8415C11.4205 22.929 11.1923 23.0186 10.9643 23.1088C9.3809 23.7301 7.63053 23.5733 6.08688 22.927C5.87741 22.8399 5.73781 22.793 5.50758 22.793C5.2715 23.4656 5.03627 24.1386 4.80254 24.8121C4.71193 25.0731 4.62118 25.3342 4.52954 25.5949C4.4584 25.7973 4.38809 25.9999 4.31852 26.2029C4.28179 26.3093 4.24417 26.4154 4.20653 26.5215C4.01239 27.0925 3.95575 27.5515 4.20753 28.1101C4.44247 28.5561 4.80475 28.7892 5.2732 28.9453C5.36551 28.9508 5.45803 28.953 5.55049 28.9532C5.63656 28.9536 5.63656 28.9536 5.72437 28.954C5.78756 28.954 5.85075 28.9539 5.91586 28.9539C6.01638 28.9543 6.01638 28.9543 6.11893 28.9546C6.30524 28.9551 6.49155 28.9554 6.67786 28.9555C6.87869 28.9558 7.07953 28.9563 7.28036 28.9569C7.76555 28.958 8.25075 28.9586 8.73594 28.9591C8.96446 28.9594 9.19297 28.9597 9.42148 28.96C10.1812 28.961 10.9409 28.9618 11.7006 28.9623C11.8977 28.9624 12.0949 28.9625 12.292 28.9626C12.341 28.9626 12.39 28.9627 12.4405 28.9627C13.2341 28.9632 14.0278 28.9647 14.8214 28.9666C15.6362 28.9685 16.4511 28.9696 17.266 28.9697C17.7235 28.9699 18.181 28.9704 18.6384 28.9719C19.0281 28.9732 19.4178 28.9736 19.8074 28.9731C20.0062 28.9728 20.2048 28.973 20.4036 28.974C20.6193 28.9751 20.835 28.9747 21.0507 28.9739C21.1444 28.9749 21.1444 28.9749 21.2399 28.9758C21.7081 28.9718 22.0718 28.8787 22.4302 28.5681C22.4936 28.4938 22.4936 28.4938 22.5584 28.418C22.5994 28.3733 22.6405 28.3285 22.6829 28.2825C22.9342 27.9223 23.0224 27.5642 22.9685 27.1289C22.8054 26.4973 22.5714 25.8797 22.3603 25.2629C22.3024 25.094 22.2447 24.9249 22.1871 24.7559C21.9633 24.1001 21.7359 23.4458 21.5037 22.793C21.2494 22.8225 21.0355 22.8621 20.8042 22.9724C20.759 22.9936 20.7137 23.0149 20.6671 23.0367C20.6171 23.0611 20.6171 23.0611 20.5662 23.0859C20.6527 23.3486 20.7396 23.6113 20.8266 23.8738C20.858 23.9686 20.8894 24.0634 20.9207 24.1582C21.0985 24.6956 21.28 25.231 21.4746 25.7625C21.4992 25.8301 21.4992 25.8301 21.5243 25.899C21.6027 26.1148 21.6821 26.33 21.7632 26.5448C22.0384 27.2882 22.0384 27.2882 21.9138 27.6562C21.8168 27.809 21.7759 27.8659 21.6209 27.9492C21.3474 27.9946 21.074 27.9916 20.7976 27.9906C20.7165 27.9914 20.6355 27.9923 20.5545 27.9933C20.3419 27.9957 20.1293 27.9963 19.9167 27.9965C19.6995 27.997 19.4823 27.9992 19.2651 28.0013C18.8394 28.0051 18.4137 28.0069 17.988 28.0078C17.988 27.6598 17.988 27.3117 17.988 26.9531C18.9162 26.9531 19.8443 26.9531 20.8005 26.9531C20.3178 25.4954 20.3178 25.4954 19.8228 24.0417C19.8037 23.9862 19.7845 23.9307 19.7649 23.8735C19.7475 23.8237 19.7301 23.7738 19.7122 23.7225C19.6974 23.6797 19.6825 23.637 19.6672 23.593C19.6359 23.4955 19.6359 23.4955 19.5701 23.4375C19.48 23.438 19.3899 23.4425 19.3 23.4487C18.1461 23.5189 17.0858 23.4938 15.9959 23.0859C15.95 23.0689 15.9042 23.0518 15.857 23.0342C15.8089 23.0162 15.7607 22.9983 15.7111 22.9797C15.6623 22.9615 15.6134 22.9434 15.5631 22.9246C15.4692 22.8894 15.3756 22.8536 15.2822 22.8171C14.2112 22.4074 12.8492 22.3823 11.7771 22.793Z" fill="#C9A581"/>
<path d="M15.9961 26.9531C16.3441 26.9531 16.6922 26.9531 17.0508 26.9531C17.0508 27.3012 17.0508 27.6492 17.0508 28.0078C16.7027 28.0078 16.3547 28.0078 15.9961 28.0078C15.9961 27.6598 15.9961 27.3117 15.9961 26.9531Z" fill="#C9A581"/>
</g>
<defs>
<clipPath id="clip0_257_333">
<rect width="30" height="30" fill="white"/>
</clipPath>
</defs>
</svg>
