<svg width="50" height="50" viewBox="0 0 50 50" fill="none" xmlns="http://www.w3.org/2000/svg">
<g clip-path="url(#clip0_149_464)">
<path d="M33.4643 2.21559C33.6062 2.21134 33.6062 2.21134 33.751 2.20701C34.4915 2.2005 35.0306 2.33436 35.5761 2.85036C36.0045 3.56432 36.1122 4.36235 36.2292 5.1758C36.3118 5.19997 36.3943 5.22414 36.4794 5.24904C36.8151 5.37111 36.8151 5.37111 37.1264 5.59694C37.3736 5.747 37.4756 5.76489 37.7673 5.72512C38.0403 5.64959 38.3057 5.5625 38.5729 5.46877C39.1833 5.28434 39.8812 5.25813 40.465 5.5176C41.1915 6.20949 41.9155 7.20759 41.9482 8.23976C41.9311 8.90265 41.5711 9.34458 41.112 9.79006C41.0274 9.87314 40.9428 9.95622 40.8557 10.0418C40.6237 10.2539 40.6237 10.2539 40.3307 10.4492C40.2933 10.72 40.2718 10.971 40.2636 11.2427C40.2603 11.3163 40.2569 11.39 40.2535 11.4659C40.2454 11.6478 40.2391 11.8297 40.2331 12.0117C40.4214 12.0094 40.4214 12.0094 40.6136 12.0071C41.0826 12.0018 41.5516 11.9984 42.0206 11.9956C42.223 11.9942 42.4254 11.9922 42.6278 11.9896C42.92 11.9861 43.2121 11.9844 43.5042 11.9831C43.5936 11.9816 43.6831 11.9801 43.7753 11.9785C44.7273 11.9783 45.4041 12.2149 46.0974 12.872C46.6572 13.5013 46.7905 14.1656 46.7993 14.9872C46.8001 15.0573 46.8009 15.1273 46.8017 15.1995C46.8031 15.3472 46.8041 15.495 46.8049 15.6427C46.806 15.7937 46.808 15.9447 46.8109 16.0956C46.8151 16.3141 46.8166 16.5326 46.8176 16.7511C46.8202 16.852 46.8202 16.852 46.8228 16.9549C46.8213 17.2827 46.7977 17.4522 46.5961 17.7157C46.3218 17.9181 46.1399 17.9618 45.7995 17.9688C45.3537 17.7607 45.3537 17.7607 45.2136 17.4805C45.2031 17.2604 45.1984 17.0401 45.1964 16.8198C45.1941 16.6851 45.1918 16.5505 45.1893 16.4158C45.1859 16.2039 45.183 15.992 45.1817 15.78C45.1802 15.5752 45.1763 15.3705 45.172 15.1657C45.1698 14.982 45.1698 14.982 45.1677 14.7945C45.1064 14.3902 44.985 14.1803 44.7253 13.8672C44.4136 13.6424 44.1189 13.6426 43.7411 13.6315C43.6278 13.6277 43.5145 13.6239 43.3978 13.62C43.2799 13.617 43.1621 13.614 43.0407 13.6109C42.9214 13.6071 42.802 13.6033 42.6791 13.5994C42.3846 13.5902 42.0901 13.5819 41.7956 13.5742C41.8278 13.6709 41.86 13.7676 41.8932 13.8672C41.8999 14.036 41.9015 14.2049 41.8994 14.3738C41.8985 14.4618 41.8976 14.5498 41.8967 14.6404C41.895 14.7411 41.895 14.7411 41.8932 14.8438C41.9933 14.8452 42.0934 14.8465 42.1965 14.848C42.3294 14.8525 42.4623 14.8573 42.5952 14.8621C42.6609 14.8626 42.7267 14.8632 42.7945 14.8638C43.1389 14.8789 43.3398 14.9283 43.6214 15.1294C43.9383 15.5524 43.9145 15.8814 43.9084 16.3972C43.9091 16.4953 43.9099 16.5935 43.9107 16.6947C43.9126 17.024 43.9111 17.3533 43.9096 17.6827C43.9102 17.9186 43.9111 18.1546 43.9121 18.3905C43.9141 18.9652 43.9138 19.5397 43.9124 20.1143C43.9113 20.5813 43.9112 21.0483 43.9117 21.5153C43.9118 21.5818 43.9119 21.6482 43.9119 21.7167C43.9121 21.8517 43.9123 21.9868 43.9124 22.1218C43.9138 23.3879 43.9122 24.654 43.9096 25.9201C43.9074 27.0065 43.9078 28.0928 43.91 29.1792C43.9126 30.4408 43.9137 31.7024 43.9122 32.964C43.912 33.0985 43.9119 33.233 43.9117 33.3675C43.9116 33.4337 43.9116 33.4999 43.9115 33.5681C43.9111 34.0346 43.9118 34.501 43.9129 34.9674C43.9144 35.5952 43.9134 36.2229 43.9105 36.8507C43.9099 37.0814 43.9101 37.312 43.9112 37.5427C43.9125 37.8571 43.9108 38.1713 43.9084 38.4857C43.9095 38.5774 43.9106 38.6691 43.9117 38.7636C43.9104 38.848 43.9091 38.9323 43.9078 39.0192C43.9077 39.0918 43.9077 39.1643 43.9076 39.239C43.811 39.5771 43.6304 39.7265 43.3581 39.9414C43.0626 40.0026 43.0626 40.0026 42.7259 40.0029C42.5331 40.0048 42.5331 40.0048 42.3363 40.0067C42.1938 40.0057 42.0512 40.0046 41.9087 40.0034C41.7571 40.004 41.6056 40.0048 41.4541 40.0057C41.0375 40.0078 40.6209 40.0068 40.2043 40.0053C39.7551 40.0042 39.3058 40.0059 38.8566 40.0072C37.9765 40.0094 37.0965 40.0089 36.2164 40.0075C35.5012 40.0064 34.7861 40.0062 34.071 40.0068C33.9184 40.0069 33.9184 40.0069 33.7628 40.007C33.5562 40.0071 33.3496 40.0073 33.143 40.0075C31.2049 40.0089 29.2667 40.0073 27.3286 40.0046C25.6648 40.0024 24.0011 40.0028 22.3373 40.0051C20.4062 40.0077 18.4751 40.0087 16.544 40.0072C16.3381 40.0071 16.1323 40.0069 15.9265 40.0068C15.8252 40.0067 15.7239 40.0066 15.6196 40.0065C14.9051 40.0061 14.1907 40.0068 13.4762 40.008C12.6058 40.0093 11.7354 40.009 10.8649 40.0064C10.4206 40.0051 9.97639 40.0046 9.53211 40.0062C9.12561 40.0077 8.71918 40.0069 8.31269 40.0043C8.16542 40.0037 8.01815 40.004 7.87089 40.0052C7.6711 40.0067 7.47129 40.0048 7.27151 40.0029C7.10487 40.0028 7.10487 40.0028 6.93487 40.0026C6.5457 39.922 6.39826 39.7573 6.15106 39.4531C6.08972 39.1938 6.08972 39.1938 6.08943 38.9124C6.08821 38.8065 6.08698 38.7006 6.08572 38.5914C6.08702 38.478 6.08831 38.3646 6.08965 38.2477C6.08941 38.1303 6.08917 38.013 6.08893 37.892C6.08903 37.6441 6.09034 37.3962 6.09277 37.1483C6.09612 36.769 6.09479 36.3898 6.09289 36.0104C6.09356 35.7694 6.09451 35.5285 6.09575 35.2875C6.09526 35.1741 6.09478 35.0606 6.09428 34.9438C6.10574 34.1587 6.10574 34.1587 6.33762 33.7666C6.55695 33.5808 6.64817 33.5272 6.93231 33.5327C6.99677 33.5315 7.06122 33.5302 7.12762 33.5289C7.32294 33.5938 7.32294 33.5938 7.71356 34.082C7.71356 35.5 7.71356 36.918 7.71356 38.3789C19.1218 38.3789 30.53 38.3789 42.2839 38.3789C42.2839 31.1602 42.2839 23.9414 42.2839 16.5039C41.0658 16.4958 41.0658 16.4958 40.3307 17.0899C39.5171 17.3611 38.7545 17.1551 37.9721 16.8728C37.5883 16.768 37.4246 16.8315 37.0799 17.0109C37.0046 17.0551 36.9293 17.0993 36.8517 17.1448C36.4458 17.3828 36.4458 17.3828 36.2292 17.3828C36.2126 17.4866 36.196 17.5903 36.1788 17.6972C35.8949 19.3862 35.8949 19.3862 35.3076 19.9585C34.7239 20.3286 34.2322 20.3454 33.5558 20.343C33.466 20.3446 33.3761 20.3462 33.2835 20.3478C32.6644 20.3482 32.1633 20.297 31.6701 19.8806C31.2383 19.4352 31.1447 19.0043 31.0412 18.4082C30.9346 17.9193 30.8463 17.5728 30.5003 17.2009C30.0436 16.9124 29.6549 16.733 29.1125 16.8396C28.9007 16.9079 28.9007 16.9079 28.7097 16.9922C28.0769 17.2453 27.3477 17.3503 26.7024 17.0849C26.5074 16.9673 26.334 16.8578 26.1706 16.6992C26.1706 16.6348 26.1706 16.5703 26.1706 16.5039C25.6227 16.5361 25.0749 16.5684 24.5104 16.6016C24.6068 17.3858 24.6068 17.3858 25.0426 18.0138C25.4648 18.2931 25.7884 18.469 26.3026 18.4361C26.5958 18.3644 26.8672 18.2762 27.1472 18.1641C27.4479 18.0638 27.6797 18.0403 27.9955 18.0298C28.0926 18.025 28.1897 18.0202 28.2897 18.0153C28.8095 18.0977 29.206 18.331 29.5453 18.7363C29.683 18.9394 29.8049 19.146 29.9243 19.3604C29.9876 19.4648 29.9876 19.4648 30.0522 19.5713C30.3659 20.1162 30.5632 20.6848 30.4157 21.3149C30.1859 22.0089 29.7232 22.4322 29.1789 22.8954C28.8685 23.1573 28.8685 23.1573 28.7436 23.5405C28.6761 24.2438 28.6761 24.2438 28.928 24.8811C29.1864 25.1571 29.4717 25.3866 29.7705 25.6169C30.1738 25.935 30.3854 26.3385 30.4492 26.8494C30.4578 26.9087 30.4665 26.968 30.4755 27.0291C30.4515 27.6775 30.1481 28.1949 29.8144 28.7293C29.7744 28.7974 29.7345 28.8656 29.6933 28.9358C29.3957 29.4163 29.1323 29.655 28.612 29.8828C27.8719 30.019 27.2168 29.8452 26.5311 29.5681C26.2287 29.4808 26.0789 29.5003 25.78 29.5899C25.6591 29.6257 25.6591 29.6257 25.5358 29.6623C25.1673 29.8293 24.8827 29.9831 24.7224 30.3726C24.6285 30.693 24.5571 31.0162 24.487 31.3425C24.3507 31.9571 24.1818 32.4505 23.6315 32.8125C23.108 33.0485 22.5962 33.0437 22.0324 33.0445C21.9438 33.0468 21.8552 33.0492 21.7639 33.0517C21.0476 33.0548 20.5143 32.9017 19.9877 32.4036C19.5594 31.6896 19.4516 30.8916 19.3347 30.0781C19.2501 30.054 19.1655 30.0298 19.0783 30.0049C18.7487 29.8828 18.7487 29.8828 18.4741 29.6631C18.0808 29.4472 17.9171 29.5008 17.5002 29.6173C17.3179 29.6765 17.1361 29.7368 16.9543 29.7974C16.3627 29.9402 15.7856 29.9661 15.2026 29.7791C14.4226 29.2168 13.7812 28.2631 13.6138 27.3148C13.5938 26.72 13.6496 26.3297 14.0612 25.8789C14.949 24.9468 14.949 24.9468 15.2331 24.8047C15.3538 23.8204 15.3538 23.8204 15.0832 22.9096C14.8875 22.7442 14.8875 22.7442 14.6708 22.6059C14.4252 22.4433 14.2583 22.2633 14.0673 22.0398C14.0121 21.9757 13.9568 21.9117 13.8999 21.8456C13.6085 21.4783 13.6087 21.1259 13.6115 20.668C13.7518 19.8245 14.2909 18.9285 14.934 18.3655C15.4854 17.9942 15.9435 18.0075 16.6003 18.0664C16.9336 18.159 17.2532 18.2669 17.5761 18.3907C18.0747 18.5033 18.4843 18.277 18.9135 18.0298C19.4665 17.6352 19.4665 17.6352 19.6276 16.5039C15.696 16.5039 11.7643 16.5039 7.71356 16.5039C7.71809 17.5768 7.72263 18.6498 7.72729 19.7552C7.72929 20.4339 7.73119 21.1126 7.73264 21.7913C7.73495 22.8691 7.73768 23.947 7.74303 25.0248C7.74692 25.8098 7.74944 26.5947 7.75031 27.3797C7.75082 27.7953 7.75202 28.211 7.75486 28.6266C7.75751 29.0179 7.75833 29.4091 7.75774 29.8003C7.75785 29.9439 7.75863 30.0875 7.76013 30.231C7.76207 30.4271 7.76137 30.6233 7.76054 30.8194C7.7609 30.9291 7.76126 31.0388 7.76163 31.1519C7.70264 31.512 7.57571 31.6753 7.32294 31.9336C7.12762 31.9985 7.12762 31.9985 6.93231 31.9946C6.86786 31.9959 6.80341 31.9972 6.737 31.9985C6.43048 31.8967 6.32672 31.7109 6.15106 31.4453C6.10163 31.1365 6.10163 31.1365 6.1008 30.7819C6.10012 30.7164 6.09945 30.6509 6.09875 30.5835C6.09696 30.3648 6.09796 30.1462 6.09897 29.9275C6.09828 29.7704 6.09743 29.6133 6.09642 29.4563C6.09422 29.0301 6.09451 28.604 6.09538 28.1779C6.09588 27.8221 6.09516 27.4663 6.09445 27.1105C6.09279 26.2712 6.09314 25.432 6.09477 24.5927C6.09642 23.7268 6.09488 22.861 6.09172 21.9951C6.08912 21.2516 6.08841 20.5081 6.08923 19.7645C6.08972 19.3205 6.0895 18.8765 6.0875 18.4324C6.08571 18.015 6.08628 17.5976 6.08869 17.1801C6.08918 17.0269 6.08883 16.8737 6.0876 16.7206C6.08604 16.5113 6.0875 16.3024 6.08971 16.0932C6.08977 15.9761 6.08983 15.8591 6.08989 15.7385C6.17166 15.3257 6.29869 15.1855 6.63934 14.9414C6.91392 14.8943 7.12875 14.8772 7.40247 14.8827C7.47866 14.8823 7.55484 14.8819 7.63334 14.8814C7.8883 14.8806 8.1431 14.8833 8.39804 14.886C8.58091 14.8861 8.76379 14.8861 8.94666 14.8858C9.44299 14.8856 9.93927 14.8885 10.4356 14.8919C10.9543 14.895 11.473 14.8953 11.9918 14.8958C12.974 14.8974 13.9562 14.9014 14.9384 14.9063C16.0567 14.9117 17.1749 14.9144 18.2932 14.9169C20.5935 14.922 22.8938 14.9305 25.194 14.9414C25.1858 14.8825 25.1777 14.8236 25.1692 14.7629C25.1593 14.6848 25.1493 14.6068 25.1391 14.5264C25.1289 14.4493 25.1187 14.3723 25.1082 14.2929C25.0963 14.062 25.126 13.8915 25.194 13.6719C22.6576 13.6628 20.1212 13.6559 17.5847 13.6517C16.407 13.6496 15.2293 13.6469 14.0516 13.6424C13.0252 13.6385 11.9989 13.636 10.9725 13.6351C10.4289 13.6346 9.88538 13.6334 9.34184 13.6306C8.83029 13.6279 8.31876 13.6271 7.80721 13.6277C7.61942 13.6276 7.43164 13.6268 7.24387 13.6253C6.98745 13.6234 6.73114 13.6239 6.47472 13.6249C6.40044 13.6238 6.32615 13.6226 6.24961 13.6215C5.74796 13.6271 5.45806 13.7377 5.07684 14.0625C4.89798 14.351 4.857 14.5683 4.85641 14.9053C4.85578 14.9962 4.85515 15.0871 4.8545 15.1807C4.8548 15.2803 4.8551 15.3798 4.85541 15.4823C4.85497 15.5883 4.85453 15.6943 4.85407 15.8035C4.85283 16.16 4.853 16.5163 4.85316 16.8728C4.85257 17.1278 4.85191 17.3828 4.85117 17.6378C4.84955 18.2594 4.84901 18.881 4.8489 19.5026C4.84881 20.0078 4.84841 20.513 4.84779 21.0182C4.84607 22.4504 4.84517 23.8826 4.84531 25.3148C4.84533 25.4306 4.84533 25.4306 4.84534 25.5488C4.84535 25.6261 4.84535 25.7034 4.84536 25.7831C4.84544 27.0362 4.84357 28.2893 4.84082 29.5424C4.83802 30.8289 4.83666 32.1154 4.83683 33.4019C4.8369 34.1243 4.83636 34.8466 4.83426 35.5689C4.8323 36.2482 4.83235 36.9274 4.83378 37.6066C4.83398 37.8561 4.83352 38.1057 4.83234 38.3552C4.83084 38.6954 4.83173 39.0355 4.83324 39.3757C4.83224 39.4748 4.83123 39.5739 4.8302 39.676C4.83568 40.2336 4.88123 40.584 5.27216 41.0156C5.61321 41.2408 5.91059 41.2356 6.31316 41.2361C6.41151 41.2366 6.41151 41.2366 6.51185 41.2371C6.73256 41.238 6.95324 41.2375 7.17395 41.2371C7.33338 41.2374 7.49281 41.2379 7.65225 41.2384C8.09116 41.2396 8.53006 41.2396 8.96897 41.2393C9.44201 41.2393 9.91506 41.2404 10.3881 41.2413C11.3152 41.2429 12.2422 41.2435 13.1693 41.2436C13.9227 41.2437 14.676 41.2441 15.4294 41.2447C17.5641 41.2464 19.6988 41.2473 21.8336 41.2472C21.9487 41.2472 22.0638 41.2472 22.1825 41.2471C22.2977 41.2471 22.413 41.2471 22.5318 41.2471C24.4006 41.247 26.2694 41.2489 28.1382 41.2517C30.056 41.2545 31.9737 41.2558 33.8914 41.2557C34.9685 41.2556 36.0456 41.2561 37.1228 41.2582C38.0398 41.26 38.9567 41.2604 39.8737 41.2591C40.3418 41.2585 40.8098 41.2585 41.2778 41.2601C41.7061 41.2617 42.1344 41.2614 42.5627 41.2597C42.7178 41.2594 42.8729 41.2598 43.028 41.2608C43.2386 41.2622 43.4491 41.2612 43.6597 41.2596C43.7767 41.2596 43.8938 41.2597 44.0144 41.2597C44.4532 41.1929 44.7769 41.0025 45.0533 40.652C45.1506 40.3064 45.1425 39.9629 45.1405 39.6068C45.1408 39.523 45.1411 39.4392 45.1413 39.3529C45.1421 39.0716 45.1415 38.7903 45.1408 38.509C45.1411 38.3075 45.1415 38.1061 45.1419 37.9046C45.1427 37.4705 45.1429 37.0365 45.1427 36.6024C45.1424 35.9164 45.1438 35.2303 45.1455 34.5443C45.1501 32.5935 45.1525 30.6426 45.1531 28.6918C45.1535 27.6145 45.1552 26.5373 45.1585 25.46C45.1605 24.7777 45.1607 24.0954 45.1596 23.4131C45.1594 22.989 45.1607 22.565 45.1626 22.141C45.1631 21.944 45.1629 21.747 45.1621 21.55C45.161 21.2816 45.1623 21.0132 45.1642 20.7448C45.1633 20.6664 45.1624 20.588 45.1615 20.5072C45.1664 20.1568 45.1836 19.961 45.3998 19.6786C45.6199 19.5199 45.7263 19.4758 45.9948 19.4763C46.0915 19.4731 46.0915 19.4731 46.1901 19.4699C46.5045 19.5687 46.6012 19.7446 46.7761 20.0195C46.8133 20.3107 46.8281 20.5652 46.8244 20.8559C46.8248 20.94 46.8253 21.0241 46.8258 21.1107C46.8269 21.3924 46.8252 21.674 46.8235 21.9557C46.8237 22.1576 46.8241 22.3596 46.8246 22.5616C46.8256 23.1102 46.8241 23.6588 46.8221 24.2074C46.8204 24.7815 46.8207 25.3555 46.8208 25.9296C46.8206 26.8939 46.8189 27.8582 46.8163 28.8224C46.8132 29.937 46.8122 31.0516 46.8123 32.1662C46.8124 33.3529 46.8111 34.5395 46.8093 35.7261C46.8089 36.0679 46.8087 36.4098 46.8087 36.7516C46.8085 37.2891 46.8073 37.8267 46.8053 38.3642C46.8047 38.5614 46.8045 38.7586 46.8046 38.9557C46.8047 39.2251 46.8036 39.4945 46.8022 39.7638C46.8025 39.8417 46.8028 39.9195 46.8031 39.9997C46.799 40.4714 46.7301 40.8607 46.5807 41.3086C46.6576 41.3066 46.7344 41.3045 46.8135 41.3024C47.1631 41.2943 47.5128 41.2892 47.8625 41.2842C47.9833 41.2809 48.1042 41.2777 48.2287 41.2743C49.3491 41.2622 49.3491 41.2622 49.8034 41.6992C50.1271 42.1848 50.035 42.7686 50.0349 43.3375C50.0353 43.5577 50.0389 43.7777 50.0426 43.9978C50.0524 45.2193 49.8324 46.0521 48.9741 46.9528C48.2594 47.5807 47.5102 47.7645 46.5786 47.7697C46.478 47.7704 46.478 47.7704 46.3754 47.7711C46.1548 47.7725 45.9342 47.7732 45.7137 47.7738C45.5598 47.7743 45.406 47.7749 45.2522 47.7754C44.9303 47.7765 44.6085 47.777 44.2866 47.7774C43.8743 47.7779 43.462 47.7803 43.0496 47.783C42.7322 47.7849 42.4148 47.7854 42.0973 47.7855C41.9453 47.7858 41.7932 47.7866 41.6412 47.7879C41.4287 47.7896 41.2163 47.7894 41.0038 47.7887C40.883 47.7891 40.7622 47.7894 40.6377 47.7898C40.3055 47.751 40.1704 47.6998 39.9401 47.461C39.8323 47.0729 39.8019 46.8662 39.9706 46.4966C40.1354 46.2891 40.1354 46.2891 40.3307 46.1914C40.54 46.1816 40.7496 46.1782 40.9591 46.1776C41.0558 46.1771 41.0558 46.1771 41.1545 46.1765C41.2948 46.1758 41.4351 46.1753 41.5754 46.175C41.798 46.1743 42.0206 46.1727 42.2431 46.1709C42.8761 46.1658 43.509 46.1611 44.1419 46.1596C44.529 46.1586 44.9161 46.1557 45.3032 46.1517C45.4503 46.1505 45.5974 46.1499 45.7445 46.1502C46.659 46.1512 47.3839 46.1449 48.0822 45.4834C48.5584 44.6776 48.4757 43.8012 48.5339 42.8711C42.5075 42.8711 36.4811 42.8711 30.2722 42.8711C30.2722 43.1612 30.2722 43.4512 30.2722 43.75C30.1166 44.3246 29.7749 44.687 29.2956 45.0196C28.8879 45.2246 28.513 45.2438 28.065 45.2432C27.9919 45.2439 27.9188 45.2445 27.8435 45.2452C27.6026 45.2471 27.3617 45.2475 27.1208 45.2477C26.9526 45.2483 26.7844 45.249 26.6162 45.2496C26.2638 45.2508 25.9114 45.2512 25.559 45.2511C25.1088 45.251 24.6586 45.2537 24.2085 45.2571C23.861 45.2592 23.5136 45.2596 23.1662 45.2595C23.0003 45.2598 22.8344 45.2606 22.6685 45.2621C20.8887 45.2769 20.8887 45.2769 20.2627 44.6863C19.7101 44.0746 19.7253 43.7167 19.7253 42.8711C13.6989 42.8711 7.67255 42.8711 1.46356 42.8711C1.46401 44.5056 1.46401 44.5056 2.24481 45.8008C2.90199 46.19 3.58675 46.1341 4.33087 46.1294C4.47492 46.1296 4.61896 46.1299 4.76301 46.1303C5.15803 46.1312 5.55302 46.1302 5.94804 46.1289C6.37434 46.1278 6.80065 46.1284 7.22696 46.1289C7.96541 46.1294 8.70385 46.129 9.4423 46.1279C10.5105 46.1264 11.5787 46.1269 12.6469 46.1281C14.3807 46.1299 16.1145 46.1308 17.8484 46.1308C18.004 46.1308 18.004 46.1308 18.1627 46.1308C19.3207 46.1307 20.4787 46.1304 21.6367 46.1297C21.7409 46.1296 21.845 46.1296 21.9523 46.1295C22.0564 46.1295 22.1605 46.1294 22.2677 46.1293C22.4775 46.1292 22.6874 46.1291 22.8972 46.129C23.0009 46.1289 23.1046 46.1288 23.2114 46.1288C24.939 46.1278 26.6666 46.1287 28.3942 46.1311C29.46 46.1325 30.5258 46.1323 31.5916 46.1301C32.3214 46.1286 33.0513 46.1289 33.7811 46.1306C34.2025 46.1315 34.6238 46.1316 35.0451 46.1296C35.4306 46.1278 35.8161 46.1282 36.2016 46.1304C36.3413 46.1308 36.4809 46.1303 36.6205 46.129C37.7953 46.1185 37.7953 46.1185 38.1181 46.421C38.3196 46.743 38.3576 46.893 38.28 47.2656C38.0373 47.5643 37.8889 47.7331 37.5074 47.8149C37.4016 47.8149 37.2958 47.8149 37.1868 47.8148C37.0643 47.816 36.9418 47.8171 36.8156 47.8183C36.6799 47.8171 36.5443 47.8159 36.4086 47.8146C36.2642 47.815 36.1199 47.8157 35.9756 47.8165C35.5788 47.8182 35.1821 47.8168 34.7854 47.8149C34.3575 47.8134 33.9297 47.8147 33.5018 47.8156C32.6635 47.8171 31.8251 47.8159 30.9868 47.8138C30.0104 47.8114 29.034 47.8116 28.0576 47.8119C26.315 47.8122 24.5724 47.8102 22.8298 47.8069C21.1394 47.8036 19.449 47.8022 17.7586 47.8028C15.9181 47.8035 14.0776 47.8033 12.237 47.8013C12.0909 47.8012 12.0909 47.8012 11.9419 47.801C11.7463 47.8008 11.5507 47.8006 11.3551 47.8004C10.6748 47.7997 9.99445 47.7997 9.31413 47.7998C8.48446 47.8 7.6548 47.799 6.82513 47.7967C6.40195 47.7955 5.97879 47.7948 5.55561 47.7954C5.16783 47.7959 4.78008 47.7951 4.39231 47.7931C4.2524 47.7927 4.11248 47.7927 3.97257 47.7933C2.67329 47.7981 1.76634 47.6221 0.810486 46.7194C0.0149359 45.8761 -0.0649118 44.8987 -0.0522079 43.7911C-0.0500968 43.5717 -0.0522056 43.3525 -0.0546875 43.133C-0.0544296 42.9922 -0.0539297 42.8513 -0.0531616 42.7105C-0.052721 42.5843 -0.0522804 42.458 -0.0518265 42.328C0.00725744 41.9355 0.107712 41.779 0.389343 41.5039C0.714869 41.2759 1.00413 41.2859 1.3949 41.2895C1.5126 41.2902 1.6303 41.2908 1.75157 41.2914C1.87406 41.2931 1.99654 41.2947 2.12274 41.2964C2.24674 41.2973 2.37074 41.2982 2.49849 41.2991C2.80457 41.3014 3.11062 41.3046 3.41669 41.3086C3.385 41.2181 3.35331 41.1276 3.32066 41.0344C3.18096 40.5412 3.19372 40.0532 3.19526 39.544C3.19482 39.436 3.19437 39.3279 3.19392 39.2166C3.19268 38.8551 3.19284 38.4935 3.193 38.132C3.19242 37.8726 3.19176 37.6132 3.19101 37.3537C3.1894 36.7225 3.18886 36.0913 3.18875 35.4601C3.18865 34.9468 3.18825 34.4336 3.18763 33.9204C3.18591 32.4644 3.18501 31.0084 3.18516 29.5524C3.18517 29.474 3.18517 29.3955 3.18518 29.3147C3.18519 29.2362 3.1852 29.1577 3.18521 29.0768C3.18529 27.804 3.18342 26.5312 3.18066 25.2584C3.17786 23.9506 3.17651 22.6428 3.17668 21.335C3.17674 20.6011 3.17621 19.8673 3.17411 19.1334C3.17232 18.5086 3.1719 17.8839 3.17323 17.2591C3.17386 16.9405 3.17367 16.622 3.17218 16.3035C3.17068 15.9576 3.17158 15.6118 3.17309 15.266C3.17208 15.166 3.17108 15.0661 3.17004 14.9631C3.17895 14.0353 3.47775 13.3477 4.10677 12.6686C4.76343 12.0823 5.4763 11.997 6.32637 12C6.41403 11.9999 6.5017 11.9998 6.59202 11.9997C6.88637 11.9996 7.18071 12.0001 7.47505 12.0006C7.68581 12.0007 7.89657 12.0007 8.10733 12.0006C8.68011 12.0006 9.2529 12.0012 9.82568 12.0018C10.424 12.0024 11.0224 12.0025 11.6208 12.0026C12.7541 12.0029 13.8875 12.0037 15.0209 12.0047C16.3111 12.0058 17.6012 12.0063 18.8914 12.0068C21.5457 12.0078 24.1999 12.0096 26.8542 12.0117C26.8452 11.7754 26.8345 11.5394 26.8227 11.3032C26.8203 11.2365 26.818 11.1699 26.8156 11.1012C26.7942 10.7067 26.7551 10.4548 26.4796 10.1647C26.3128 10.0235 26.3128 10.0235 26.134 9.89992C26.0188 9.80968 25.9041 9.7189 25.7899 9.62755C25.7099 9.56428 25.7099 9.56428 25.6283 9.49973C25.2052 9.12627 25.1265 8.69375 25.0918 8.15698C25.1042 7.49013 25.4667 6.97346 25.8044 6.42092C25.8394 6.36203 25.8743 6.30315 25.9104 6.24248C26.1942 5.79782 26.4695 5.58926 26.9518 5.37111C27.692 5.2349 28.347 5.40873 29.0328 5.68582C29.3351 5.77316 29.4849 5.75362 29.7839 5.66408C29.8644 5.64016 29.945 5.61624 30.028 5.5916C30.4009 5.42264 30.679 5.26617 30.8477 4.87658C30.9755 4.47482 31.064 4.06847 31.1476 3.65564C31.2553 3.14206 31.4081 2.83456 31.8347 2.51467C32.3773 2.19812 32.8522 2.22158 33.4643 2.21559ZM32.8112 3.80861C32.5498 4.34388 32.4323 4.86495 32.3268 5.45084C32.0908 6.17368 31.5825 6.47953 30.9435 6.81764C30.8737 6.8561 30.8038 6.89456 30.7318 6.93418C30.0542 7.3034 29.4652 7.45848 28.7016 7.23688C28.5014 7.16701 28.3021 7.09456 28.1039 7.01906C27.8008 6.90931 27.8008 6.90931 27.3425 6.93361C27.0041 7.56203 27.0041 7.56203 26.6589 8.20314C26.82 8.36428 26.9811 8.52541 27.1472 8.69142C27.2029 8.74946 27.2587 8.80749 27.3161 8.86728C27.4514 9.00764 27.5922 9.14269 27.7331 9.27736C27.7975 9.27736 27.862 9.27736 27.9284 9.27736C28.2907 9.9243 28.3524 10.5473 28.3495 11.2732C28.3511 11.3521 28.3527 11.4309 28.3543 11.5122C28.3548 12.1577 28.2496 12.7009 27.8472 13.2183C27.7833 13.2774 27.7195 13.3364 27.6537 13.3972C27.5856 13.4611 27.5175 13.5249 27.4474 13.5906C27.1887 13.8191 26.9284 14.0422 26.6589 14.2578C26.8312 14.7434 27.088 15.1792 27.3425 15.625C27.7744 15.5857 28.1448 15.5282 28.551 15.3748C29.3358 15.1127 29.8674 15.1506 30.6111 15.516C30.6845 15.554 30.758 15.592 30.8337 15.6311C30.9041 15.6672 30.9745 15.7033 31.0471 15.7405C31.5934 16.0419 32.0743 16.4027 32.304 17.0023C32.3615 17.2179 32.4059 17.4318 32.445 17.6514C32.5505 18.2284 32.5505 18.2284 32.8112 18.75C33.0678 18.7716 33.3004 18.7775 33.5558 18.7683C33.6248 18.767 33.6938 18.7657 33.7649 18.7643C33.9353 18.7609 34.1057 18.7556 34.2761 18.75C34.4818 18.1621 34.6418 17.5821 34.7701 16.9724C34.9914 16.3148 35.4608 16.0567 36.04 15.7471C36.1103 15.7082 36.1806 15.6693 36.253 15.6292C36.8784 15.2867 37.3665 15.1589 38.0847 15.2344C38.3926 15.3253 38.6884 15.4308 38.9868 15.5491C39.2966 15.6363 39.4462 15.648 39.7448 15.5274C39.9383 15.2973 39.9383 15.2973 40.0805 15.0086C40.1327 14.9143 40.185 14.82 40.2388 14.7228C40.3531 14.4668 40.3531 14.4668 40.2819 14.2529C40.0095 13.8989 39.6569 13.631 39.3179 13.3431C38.7838 12.8081 38.7291 12.3448 38.7234 11.6141C38.7241 11.5056 38.7248 11.3972 38.7255 11.2854C38.7236 11.1773 38.7216 11.0693 38.7196 10.9579C38.7201 10.2203 38.7859 9.77527 39.3008 9.22269C39.4525 9.07414 39.6087 8.93405 39.7692 8.79518C39.8504 8.72296 39.8504 8.72296 39.9333 8.64927C40.065 8.53228 40.1978 8.41642 40.3307 8.3008C40.2664 7.95213 40.1196 7.69754 39.934 7.39748C39.8805 7.31037 39.827 7.22325 39.7719 7.1335C39.7307 7.06754 39.6896 7.00157 39.6472 6.93361C39.2138 6.97301 38.8407 7.03152 38.4326 7.18386C37.709 7.43079 37.2163 7.40308 36.5222 7.06789C36.3253 6.96079 36.1299 6.85097 35.9362 6.7383C35.8505 6.6892 35.7648 6.64011 35.6764 6.58953C35.0679 6.21551 34.8255 5.84988 34.6537 5.14948C34.6207 5.00176 34.5884 4.85387 34.5568 4.70583C34.4897 4.21835 34.4897 4.21835 34.2761 3.80861C34.0289 3.80147 33.7846 3.79958 33.5375 3.80251C33.4681 3.80295 33.3987 3.80339 33.3272 3.80384C33.1552 3.805 32.9832 3.80675 32.8112 3.80861ZM21.2878 16.5039C21.0818 17.0925 20.9247 17.6696 20.8033 18.2816C20.5744 18.8978 20.0106 19.1926 19.4689 19.5069C19.3711 19.5652 19.3711 19.5652 19.2713 19.6247C18.696 19.9642 18.2445 20.0937 17.5768 20.0195C17.2465 19.9266 16.9248 19.8207 16.6018 19.7048C16.2827 19.6226 16.1247 19.6051 15.819 19.7266C15.6301 19.9343 15.6301 19.9343 15.4894 20.1966C15.4128 20.3244 15.4128 20.3244 15.3346 20.4548C15.2173 20.6903 15.2173 20.6903 15.2461 20.9088C15.3486 21.1328 15.4702 21.2654 15.6481 21.4356C15.7403 21.5247 15.7403 21.5247 15.8343 21.6156C16.0229 21.7906 16.0229 21.7906 16.2829 21.9727C16.6367 22.2871 16.7713 22.6438 16.8252 23.1052C16.8385 23.3936 16.8404 23.6799 16.8383 23.9685C16.8412 24.1148 16.8412 24.1148 16.8442 24.264C16.8437 25.0458 16.6981 25.5657 16.1601 26.1406C16.0336 26.2467 16.0336 26.2467 15.9045 26.355C15.8196 26.4273 15.7348 26.4995 15.6474 26.574C15.5751 26.6346 15.5029 26.6953 15.4284 26.7578C15.3317 26.8545 15.3317 26.8545 15.2331 26.9531C15.2686 27.3006 15.449 27.5641 15.6298 27.8565C15.7101 27.9871 15.7101 27.9871 15.7919 28.1204C15.8331 28.1864 15.8743 28.2524 15.9167 28.3203C16.3119 28.2783 16.6492 28.2105 17.0214 28.0701C17.7403 27.8293 18.2788 27.8226 18.977 28.1501C20.4604 28.8967 20.4604 28.8967 20.7995 29.6875C20.8815 29.9718 20.9454 30.2588 21.007 30.5481C21.0742 31.0356 21.0742 31.0356 21.2878 31.4453C21.5314 31.4603 21.7704 31.4679 22.0141 31.4697C22.0819 31.4718 22.1497 31.4738 22.2195 31.4758C22.4401 31.4809 22.4401 31.4809 22.7526 31.4453C22.9506 31.1483 23.0059 30.9166 23.074 30.571C23.3449 29.2168 23.3449 29.2168 23.9245 28.8086C24.7758 28.2601 25.5177 27.82 26.5612 27.9297C26.8692 28.0206 27.165 28.1261 27.4634 28.2444C27.7717 28.3312 27.9231 28.3389 28.2214 28.2227C28.4104 28.0185 28.4104 28.0185 28.551 27.7588C28.6021 27.6747 28.6532 27.5906 28.7058 27.504C28.8284 27.1925 28.832 27.0685 28.7097 26.7578C28.4977 26.5197 28.4977 26.5197 28.2336 26.3062C28.1472 26.2324 28.0609 26.1586 27.9719 26.0826C27.8379 25.9683 27.7034 25.8545 27.5675 25.7424C27.1596 25.2417 27.2122 24.591 27.2143 23.9807C27.2127 23.8913 27.2111 23.8018 27.2095 23.7097C27.209 23.0338 27.293 22.5454 27.7514 22.0215C27.9086 21.8818 28.0684 21.7446 28.2347 21.616C28.4416 21.451 28.6311 21.2912 28.8073 21.0938C28.8651 20.5622 28.4894 20.0739 28.2214 19.6289C27.672 19.6725 27.212 19.7508 26.7012 19.9589C25.9999 20.1379 25.5108 19.9961 24.895 19.6655C24.8266 19.6297 24.7583 19.5938 24.6879 19.5568C23.493 18.914 23.493 18.914 23.2653 18.1946C23.2228 18.0221 23.1823 17.8491 23.1432 17.6758C23.0912 17.4782 23.0383 17.2809 22.9846 17.0838C22.9611 16.994 22.9377 16.9042 22.9136 16.8118C22.8695 16.6054 22.8695 16.6054 22.7526 16.5039C22.5055 16.4968 22.2611 16.4949 22.0141 16.4978C21.9447 16.4983 21.8752 16.4987 21.8037 16.4992C21.6317 16.5003 21.4598 16.5021 21.2878 16.5039ZM21.2878 42.8711C21.2878 43.0645 21.2878 43.2578 21.2878 43.4571C21.5668 43.736 21.7569 43.6771 22.1476 43.6776C22.2501 43.6781 22.2501 43.6781 22.3546 43.6787C22.5809 43.6795 22.8071 43.679 23.0334 43.6783C23.1903 43.6784 23.3472 43.6786 23.5041 43.6789C23.8331 43.6792 24.1621 43.6787 24.4912 43.6778C24.9135 43.6767 25.3358 43.6774 25.7581 43.6785C26.0822 43.6792 26.4062 43.679 26.7303 43.6785C26.886 43.6784 27.0418 43.6785 27.1975 43.679C27.415 43.6795 27.6324 43.6787 27.8498 43.6776C27.9737 43.6775 28.0976 43.6773 28.2252 43.6772C28.526 43.6826 28.526 43.6826 28.7097 43.4571C28.7097 43.2637 28.7097 43.0703 28.7097 42.8711C26.2604 42.8711 23.8112 42.8711 21.2878 42.8711Z" fill="#C9A581"/>
<path d="M36.0341 8.03833C36.8483 8.72802 37.4014 9.61272 37.5745 10.6743C37.6734 11.8927 37.4099 13.0153 36.617 13.9584C35.9038 14.7039 35.03 15.2448 33.9826 15.332C33.914 15.3382 33.8454 15.3444 33.7747 15.3507C32.5796 15.4102 31.5725 14.9445 30.6691 14.2002C29.9521 13.5462 29.5487 12.6271 29.4576 11.6657C29.4447 10.4622 29.6541 9.5033 30.467 8.59375C30.5148 8.53471 30.5626 8.47567 30.6119 8.41484C31.9751 6.86609 34.4417 6.8717 36.0341 8.03833ZM31.5873 9.67064C31.0862 10.3419 30.9664 10.9873 31.0529 11.8164C31.0851 11.8809 31.1173 11.9453 31.1505 12.0117C32.7296 12.0117 34.3087 12.0117 35.9357 12.0117C36.0355 11.0141 36.0613 10.4126 35.4291 9.63135C34.9016 9.07816 34.2843 8.82349 33.5309 8.75855C32.7643 8.77283 32.0958 9.10447 31.5873 9.67064ZM32.8107 13.5742C33.2284 13.7831 33.4277 13.8022 33.8849 13.7695C34.0138 13.7051 34.1427 13.6406 34.2755 13.5742C33.7921 13.5742 33.3087 13.5742 32.8107 13.5742Z" fill="#C9A581"/>
<path d="M24.3783 20.6326C25.2334 21.2589 25.8274 22.0689 26.045 23.1209C26.1908 24.2678 26.069 25.4042 25.3648 26.355C25.246 26.4921 25.1239 26.6266 24.9986 26.7578C24.9112 26.8511 24.9112 26.8511 24.822 26.9463C24.1028 27.643 23.1111 28.0315 22.1116 28.0518C20.9555 28.0329 19.9883 27.6465 19.1327 26.8669C18.3391 26.0201 17.9089 24.9351 17.9433 23.774C18.0569 22.6449 18.489 21.6419 19.3235 20.8591C20.8559 19.7006 22.763 19.589 24.3783 20.6326ZM20.0181 22.4609C19.6062 23.1095 19.4205 23.7587 19.5714 24.5285C19.7594 25.1974 20.1221 25.7285 20.7109 26.1085C21.3923 26.462 22.0338 26.5728 22.7891 26.3672C23.4142 26.1375 23.9157 25.7268 24.2616 25.1568C24.5523 24.5069 24.6502 23.8676 24.4275 23.1831C24.1009 22.4512 23.5983 21.9074 22.8563 21.5881C21.7837 21.253 20.7525 21.6255 20.0181 22.4609Z" fill="#C9A581"/>
</g>
<defs>
<clipPath id="clip0_149_464">
<rect width="50" height="50" fill="white"/>
</clipPath>
</defs>
</svg>
