<svg width="30" height="30" viewBox="0 0 30 30" fill="none" xmlns="http://www.w3.org/2000/svg">
<path d="M24.6431 10.7143C24.6431 16.05 15.0003 28.9286 15.0003 28.9286C15.0003 28.9286 5.35742 16.05 5.35742 10.7143C5.35742 8.15682 6.37336 5.70412 8.18175 3.89574C9.99014 2.08735 12.4428 1.07141 15.0003 1.07141C17.5577 1.07141 20.0104 2.08735 21.8188 3.89574C23.6272 5.70412 24.6431 8.15682 24.6431 10.7143V10.7143Z" stroke="#C9A581" stroke-width="1.5" stroke-linecap="round" stroke-linejoin="round"/>
<path d="M15.0004 13.9286C16.7756 13.9286 18.2147 12.4895 18.2147 10.7143C18.2147 8.93908 16.7756 7.5 15.0004 7.5C13.2252 7.5 11.7861 8.93908 11.7861 10.7143C11.7861 12.4895 13.2252 13.9286 15.0004 13.9286Z" stroke="#C9A581" stroke-width="1.5" stroke-linecap="round" stroke-linejoin="round"/>
</svg>
