<svg width="30" height="30" viewBox="0 0 30 30" fill="none" xmlns="http://www.w3.org/2000/svg">
<path d="M2.58567 12.9344C3.04441 15.1777 4.33273 18.5943 7.86808 22.1297C11.3943 25.6559 14.8142 26.9508 17.0646 27.4171C17.3417 27.4729 17.62 27.5 17.8967 27.5C18.9933 27.5 20.0545 27.0688 20.8462 26.2775L22.1349 24.9888C22.6312 24.4921 22.632 23.6796 22.1349 23.1755L18.7379 19.7785C18.4829 19.5268 18.13 19.3918 17.7746 19.4076C17.4188 19.4239 17.0825 19.5893 16.8513 19.863L15.6009 21.3534C15.4809 21.4951 15.2955 21.5518 15.1213 21.493C14.9459 21.4372 14.7309 21.3539 14.4996 21.2509C13.723 20.9051 12.5118 20.208 11.1509 18.8472C9.79013 17.4864 9.08973 16.2723 8.74723 15.499C8.64432 15.2677 8.56099 15.0527 8.50349 14.8715C8.44766 14.7035 8.50349 14.5177 8.64557 14.3973L10.1305 13.1473C10.4064 12.9169 10.5735 12.5802 10.5897 12.2232C10.606 11.8648 10.4685 11.5132 10.2135 11.2582L6.81768 7.86325C6.31936 7.36492 5.50771 7.36492 5.00896 7.86325L3.72024 9.15197C2.72734 10.1445 2.30359 11.5586 2.58567 12.9344ZM4.30939 9.74113L5.59812 8.4524C5.68479 8.36532 5.79895 8.32199 5.91312 8.32199C6.02728 8.32199 6.14145 8.36532 6.22811 8.45199L9.62305 11.8469C9.7143 11.9382 9.7618 12.0586 9.75597 12.1853C9.75014 12.3107 9.69305 12.4253 9.59389 12.5078L8.106 13.7602C7.70225 14.1015 7.54726 14.6406 7.70975 15.1281C7.77558 15.3356 7.86767 15.5735 7.98433 15.836C8.35516 16.6739 9.10306 17.9785 10.5605 19.4356C12.0113 20.8864 13.3184 21.6372 14.1596 22.0113C14.4226 22.1284 14.6609 22.2205 14.8621 22.2847C15.3559 22.4493 15.8946 22.2943 16.2354 21.8909L17.4875 20.3985C17.5696 20.3014 17.6846 20.2447 17.8108 20.2393C17.9329 20.2364 18.0596 20.2801 18.1492 20.3689L21.5424 23.7621C21.7174 23.9396 21.7183 24.2251 21.5441 24.3992L20.2554 25.6879C19.4621 26.4813 18.3308 26.8221 17.23 26.6C15.0934 26.1575 11.8368 24.92 8.45599 21.5397C5.06688 18.1506 3.83648 14.8981 3.40066 12.7661C3.17483 11.6653 3.51399 10.5345 4.30814 9.7403L4.30939 9.74113Z" fill="#121D23"/>
<path d="M14.7077 2.5C14.4777 2.5 14.291 2.68666 14.291 2.91666C14.291 3.14666 14.4777 3.33332 14.7077 3.33332C21.3021 3.33332 26.6671 8.69823 26.6671 15.2927C26.6671 15.5227 26.8537 15.7094 27.0837 15.7094C27.3137 15.7094 27.5004 15.5227 27.5004 15.2927C27.5004 8.23865 21.7617 2.5 14.7077 2.5Z" fill="#121D23"/>
<path d="M14.7077 6.65918C14.4777 6.65918 14.291 6.84584 14.291 7.07584C14.291 7.30584 14.4777 7.4925 14.7077 7.4925C19.0084 7.4925 22.5075 10.9916 22.5075 15.2924C22.5075 15.5224 22.6942 15.709 22.9242 15.709C23.1542 15.709 23.3409 15.5224 23.3409 15.2924C23.3409 10.532 19.468 6.65918 14.7077 6.65918Z" fill="#121D23"/>
<path d="M14.2891 11.236C14.2891 11.466 14.4757 11.6527 14.7057 11.6527C16.7128 11.6527 18.3457 13.2855 18.3457 15.293C18.3457 15.523 18.5323 15.7097 18.7623 15.7097C18.9923 15.7097 19.179 15.523 19.179 15.293C19.179 12.8264 17.1723 10.8193 14.7057 10.8193C14.4757 10.8193 14.2891 11.006 14.2891 11.236Z" fill="#121D23"/>
</svg>
