<svg width="30" height="30" viewBox="0 0 30 30" fill="none" xmlns="http://www.w3.org/2000/svg">
<g clip-path="url(#clip0_146_171)">
<path d="M8.31298 0.438985C8.37236 0.43862 8.43173 0.438254 8.49291 0.437877C8.69246 0.43694 8.89197 0.437684 9.09153 0.43842C9.23434 0.438103 9.37716 0.437685 9.51998 0.437176C9.86798 0.436216 10.216 0.436359 10.564 0.437038C10.8468 0.437567 11.1296 0.437639 11.4123 0.437384C11.4526 0.437348 11.4928 0.437312 11.5343 0.437275C11.616 0.4372 11.6977 0.437124 11.7794 0.437047C12.546 0.436379 13.3125 0.437148 14.079 0.438407C14.7369 0.439454 15.3948 0.439272 16.0527 0.438191C16.8165 0.436937 17.5803 0.436443 18.3441 0.437163C18.4255 0.437238 18.5069 0.437311 18.5883 0.437384C18.6284 0.43742 18.6685 0.437456 18.7097 0.437494C18.9922 0.437696 19.2747 0.437354 19.5572 0.436803C19.9374 0.436077 20.3175 0.436593 20.6976 0.43795C20.8373 0.438261 20.9771 0.43817 21.1168 0.437654C21.3071 0.437016 21.4974 0.437813 21.6877 0.438985C21.7434 0.438462 21.7991 0.43794 21.8565 0.437401C22.2296 0.441877 22.2296 0.441877 22.4174 0.580571C22.5083 0.71482 22.5299 0.780733 22.5307 0.941159C22.5314 0.987309 22.5321 1.03346 22.5329 1.08101C22.5322 1.15499 22.5322 1.15499 22.5315 1.23047C22.5317 1.2816 22.5319 1.33273 22.5321 1.38542C22.5323 1.49338 22.5319 1.60133 22.5309 1.70929C22.5296 1.87444 22.5309 2.03944 22.5324 2.20459C22.5322 2.30957 22.5319 2.41455 22.5315 2.51953C22.5319 2.56885 22.5324 2.61817 22.5329 2.66899C22.5293 2.89174 22.5249 3.01115 22.3963 3.19826C22.244 3.29521 22.1971 3.29856 22.0238 3.26133C21.6917 3.21671 21.4043 3.19338 21.0941 3.33984C20.5867 3.83789 20.2354 4.52539 19.9222 5.15625C19.9703 5.15603 20.0184 5.15582 20.068 5.15559C21.2377 5.15042 22.4074 5.14654 23.5771 5.1441C24.1428 5.14289 24.7084 5.14125 25.2741 5.13857C25.7671 5.13623 26.26 5.13472 26.753 5.1342C27.0141 5.13389 27.2751 5.13317 27.5362 5.13147C27.7819 5.12988 28.0275 5.12938 28.2732 5.12974C28.3634 5.12967 28.4537 5.12921 28.5439 5.12831C28.667 5.12714 28.79 5.12742 28.9131 5.12806C29.0165 5.12774 29.0165 5.12774 29.122 5.12741C29.3335 5.16222 29.402 5.22333 29.5316 5.39062C29.5614 5.50621 29.5614 5.50621 29.5619 5.62866C29.5627 5.67481 29.5634 5.72096 29.5642 5.76851C29.5634 5.84249 29.5634 5.84249 29.5627 5.91797C29.5629 5.9691 29.5632 6.02024 29.5634 6.07292C29.5636 6.18088 29.5631 6.28883 29.5621 6.39679C29.5609 6.56194 29.5621 6.72694 29.5636 6.89209C29.5635 6.99707 29.5632 7.10205 29.5627 7.20703C29.5632 7.25635 29.5637 7.30567 29.5642 7.35649C29.563 7.42571 29.563 7.42571 29.5619 7.49634C29.5617 7.53674 29.5615 7.57715 29.5614 7.61879C29.5158 7.79557 29.4421 7.85791 29.2972 7.96875C29.1279 7.9892 28.9816 7.99618 28.8129 7.99163C28.7664 7.9913 28.7199 7.99097 28.672 7.99063C28.5239 7.98932 28.3759 7.98638 28.2279 7.9834C28.1273 7.98222 28.0268 7.98115 27.9262 7.98019C27.6801 7.97761 27.434 7.97357 27.1878 7.96875C27.1879 8.01379 27.188 8.05883 27.1881 8.10523C27.1934 10.7728 27.1974 13.4404 27.1998 16.108C27.2001 16.4281 27.2004 16.7482 27.2007 17.0682C27.2008 17.132 27.2008 17.1957 27.2009 17.2613C27.2019 18.294 27.2038 19.3268 27.2059 20.3595C27.2081 21.4186 27.2094 22.4777 27.2099 23.5369C27.2102 24.1908 27.2112 24.8446 27.2131 25.4985C27.2144 25.9465 27.2147 26.3945 27.2144 26.8425C27.2143 27.1012 27.2145 27.3599 27.2158 27.6187C27.2169 27.8553 27.217 28.092 27.2162 28.3287C27.2161 28.4145 27.2164 28.5003 27.2171 28.5861C27.218 28.7024 27.2174 28.8187 27.2167 28.9349C27.2168 28.9996 27.2169 29.0643 27.2169 29.131C27.181 29.3356 27.1147 29.4045 26.9535 29.5312C26.8379 29.561 26.8379 29.561 26.7154 29.5616C26.6693 29.5623 26.6231 29.5631 26.5756 29.5638C26.5016 29.5631 26.5016 29.5631 26.4261 29.5624C26.375 29.5626 26.3239 29.5628 26.2712 29.5631C26.1632 29.5632 26.0553 29.5628 25.9473 29.5618C25.7822 29.5605 25.6171 29.5618 25.452 29.5633C25.347 29.5631 25.242 29.5628 25.1371 29.5624C25.0877 29.5628 25.0384 29.5633 24.9876 29.5638C24.9415 29.5631 24.8953 29.5623 24.8478 29.5616C24.8073 29.5614 24.7669 29.5612 24.7253 29.561C24.5534 29.5167 24.4863 29.4338 24.3753 29.2969C24.3462 29.131 24.3462 29.131 24.3465 28.9349C24.3458 28.8228 24.3458 28.8228 24.3451 28.7084C24.3458 28.6253 24.3464 28.5421 24.3472 28.459C24.3471 28.3708 24.3468 28.2826 24.3465 28.1945C24.346 27.9518 24.347 27.7092 24.3481 27.4665C24.3491 27.205 24.3488 26.9435 24.3486 26.6819C24.3485 26.2287 24.3492 25.7754 24.3506 25.3222C24.3525 24.6669 24.3531 24.0116 24.3534 23.3563C24.3539 22.2931 24.3554 21.23 24.3577 20.1668C24.3598 19.134 24.3615 18.1011 24.3625 17.0682C24.3625 17.0046 24.3626 16.9409 24.3627 16.8754C24.363 16.5561 24.3633 16.2368 24.3635 15.9175C24.366 13.2679 24.3701 10.6183 24.3753 7.96875C23.5604 7.95583 22.7455 7.94806 21.9304 7.94613C21.5519 7.94508 21.1736 7.94242 20.7951 7.936C20.4296 7.92987 20.0642 7.92805 19.6986 7.92918C19.5595 7.92886 19.4203 7.927 19.2811 7.92356C18.5729 7.87731 18.5729 7.87731 17.9319 8.11411C17.7148 8.34961 17.5891 8.6153 17.4613 8.90625C17.4062 8.99505 17.3497 9.08307 17.2898 9.16877C17.2432 9.24114 17.1966 9.31354 17.15 9.38598C17.0958 9.46991 17.0417 9.55384 16.9875 9.63775C16.9598 9.68069 16.9321 9.72363 16.9035 9.76787C16.6219 10.2041 16.3391 10.6396 16.055 11.0742C16.0053 11.1503 16.0053 11.1503 15.9547 11.2279C15.8578 11.3759 15.7606 11.5236 15.6632 11.6711C15.6336 11.7164 15.604 11.7617 15.5735 11.8083C15.5461 11.8497 15.5186 11.8911 15.4904 11.9337C15.4664 11.9701 15.4424 12.0065 15.4177 12.044C15.3519 12.1289 15.3519 12.1289 15.2347 12.1875C14.8173 12.2286 14.8173 12.2286 14.6286 12.0776C14.4102 11.8409 14.2499 11.5595 14.0812 11.2866C14.008 11.1699 13.9347 11.0533 13.8614 10.9367C13.8258 10.8798 13.7901 10.823 13.7534 10.7645C13.6218 10.5567 13.4862 10.3517 13.3487 10.1477C13.1159 9.80164 12.8881 9.45258 12.6627 9.10164C12.6133 9.0248 12.5625 8.9488 12.5104 8.87373C12.4222 8.73047 12.4222 8.73047 12.3537 8.55455C12.2523 8.33674 12.1548 8.16136 11.9535 8.02734C11.4984 7.88985 10.993 7.9375 10.5234 7.94586C10.3822 7.94586 10.241 7.94554 10.0998 7.94493C9.72906 7.94416 9.35849 7.94759 8.9878 7.9519C8.60917 7.95556 8.23055 7.95523 7.8519 7.95524C7.10967 7.95585 6.36753 7.96076 5.62534 7.96875C5.62543 8.01379 5.62552 8.05883 5.62561 8.10523C5.63085 10.7728 5.63487 13.4404 5.63731 16.108C5.6376 16.4281 5.6379 16.7482 5.63821 17.0682C5.63828 17.132 5.63834 17.1957 5.6384 17.2613C5.63942 18.294 5.64127 19.3268 5.64342 20.3595C5.64561 21.4186 5.64692 22.4777 5.64739 23.5369C5.64771 24.1908 5.64873 24.8446 5.65063 25.4985C5.65187 25.9465 5.65225 26.3945 5.65194 26.8425C5.65179 27.1012 5.65203 27.3599 5.65328 27.6187C5.65441 27.8553 5.65448 28.092 5.65368 28.3287C5.65358 28.4145 5.65388 28.5003 5.65461 28.5861C5.65554 28.7024 5.6549 28.8187 5.65418 28.9349C5.65427 28.9996 5.65436 29.0643 5.65445 29.131C5.61854 29.3356 5.55216 29.4045 5.39096 29.5312C5.27538 29.561 5.27538 29.561 5.15293 29.5616C5.0837 29.5627 5.0837 29.5627 5.01308 29.5638C4.9391 29.5631 4.9391 29.5631 4.86362 29.5624C4.81249 29.5626 4.76135 29.5628 4.70867 29.5631C4.60071 29.5632 4.49275 29.5628 4.3848 29.5618C4.21965 29.5605 4.05465 29.5618 3.8895 29.5633C3.78452 29.5631 3.67954 29.5628 3.57456 29.5624C3.52524 29.5628 3.47591 29.5633 3.4251 29.5638C3.37895 29.5631 3.3328 29.5623 3.28525 29.5616C3.24484 29.5614 3.20443 29.5612 3.1628 29.561C2.99089 29.5167 2.92376 29.4338 2.81284 29.2969C2.78373 29.131 2.78373 29.131 2.784 28.9349C2.7833 28.8228 2.7833 28.8228 2.78259 28.7084C2.78325 28.6253 2.78394 28.5421 2.78465 28.459C2.78455 28.3708 2.78435 28.2826 2.78405 28.1945C2.78352 27.9518 2.78446 27.7092 2.78564 27.4665C2.78665 27.205 2.78631 26.9435 2.78613 26.6819C2.78601 26.2287 2.78674 25.7754 2.78806 25.3222C2.78996 24.6669 2.79057 24.0116 2.79087 23.3563C2.79138 22.2931 2.79294 21.23 2.79516 20.1668C2.79731 19.134 2.79897 18.1011 2.79996 17.0682C2.80003 17.0046 2.80009 16.9409 2.80015 16.8754C2.80046 16.5561 2.80075 16.2368 2.80104 15.9175C2.80348 13.2679 2.8076 10.6183 2.81284 7.96875C2.75017 7.96997 2.6875 7.9712 2.62292 7.97247C2.39012 7.97671 2.15732 7.9794 1.92449 7.98162C1.82378 7.9828 1.72307 7.9844 1.62237 7.98643C1.47749 7.98927 1.33267 7.9906 1.18778 7.99163C1.12038 7.99345 1.12038 7.99345 1.05163 7.9953C0.841808 7.99539 0.726965 7.98673 0.557867 7.85735C0.460393 7.72233 0.439521 7.6607 0.438762 7.49634C0.437654 7.42711 0.437654 7.42711 0.436523 7.35649C0.436998 7.30717 0.437472 7.25784 0.437961 7.20703C0.437737 7.15589 0.437513 7.10476 0.437282 7.05208C0.437122 6.94412 0.437553 6.83616 0.438533 6.72821C0.439788 6.56306 0.438545 6.39805 0.437046 6.23291C0.4372 6.12793 0.437501 6.02295 0.437961 5.91797C0.437487 5.86864 0.437012 5.81932 0.436523 5.76851C0.437262 5.72236 0.438001 5.67621 0.438762 5.62866C0.438949 5.58825 0.439135 5.54784 0.439327 5.50621C0.483803 5.33348 0.565204 5.26711 0.703464 5.15625C0.878716 5.12741 0.878716 5.12741 1.08756 5.12806C1.12604 5.12786 1.16453 5.12766 1.20418 5.12746C1.33303 5.12707 1.46182 5.12836 1.59067 5.12964C1.68307 5.12971 1.77546 5.12967 1.86786 5.12954C2.11869 5.12947 2.36949 5.13085 2.62031 5.13248C2.88244 5.13395 3.14457 5.13409 3.4067 5.13436C3.90307 5.13509 4.39944 5.13702 4.89581 5.13937C5.46091 5.14199 6.02601 5.14328 6.59111 5.14445C7.75357 5.1469 8.91602 5.15103 10.0785 5.15625C10.0378 5.09184 9.99722 5.02743 9.95536 4.96107C9.90174 4.87576 9.84812 4.79043 9.79451 4.70511C9.76777 4.66275 9.74103 4.6204 9.71348 4.57676C9.58214 4.36744 9.45602 4.15978 9.34833 3.93699C9.23174 3.70811 9.11991 3.4915 8.90659 3.33984C8.5657 3.24118 8.20926 3.26469 7.8596 3.29929C7.73471 3.28125 7.73471 3.28125 7.60331 3.19672C7.45155 2.97588 7.46669 2.78182 7.46921 2.51953C7.46888 2.44283 7.46888 2.44283 7.46853 2.36458C7.46837 2.25662 7.4688 2.14866 7.46978 2.04071C7.47104 1.87556 7.4698 1.71055 7.4683 1.54541C7.46845 1.44043 7.46875 1.33545 7.46921 1.23047C7.46874 1.18114 7.46826 1.13182 7.46777 1.08101C7.46851 1.03486 7.46925 0.988707 7.47001 0.941159C7.4702 0.90075 7.47039 0.860341 7.47058 0.818707C7.58006 0.393497 7.95444 0.43562 8.31298 0.438985ZM8.43784 1.40625C8.43784 1.71562 8.43784 2.025 8.43784 2.34375C12.7691 2.34375 17.1003 2.34375 21.5628 2.34375C21.5628 2.03437 21.5628 1.725 21.5628 1.40625C17.2316 1.40625 12.9003 1.40625 8.43784 1.40625ZM10.1371 3.28125C10.3647 3.6985 10.5889 4.09228 10.8548 4.48242C10.9013 4.5513 10.9013 4.5513 10.9487 4.62158C11.0055 4.70578 11.0624 4.7899 11.1195 4.87392C11.1831 4.96771 11.2461 5.06195 11.3089 5.15625C11.4406 5.18675 11.4406 5.18675 11.5966 5.18764C11.6879 5.1913 11.6879 5.1913 11.781 5.19504C11.8815 5.19768 11.8815 5.19768 11.9841 5.20038C12.0546 5.20285 12.125 5.20532 12.1976 5.20787C12.8497 5.22925 13.5023 5.24099 14.1547 5.24962C14.6364 5.2561 15.1174 5.26754 15.5987 5.28575C15.938 5.29814 16.2771 5.30454 16.6166 5.30673C16.819 5.30821 17.0206 5.31217 17.2227 5.32269C18.1012 5.37942 18.1012 5.37942 18.8586 5.00484C19.2137 4.59921 19.4578 4.11667 19.6878 3.63281C19.7458 3.51679 19.8039 3.40078 19.8636 3.28125C16.6539 3.28125 13.4441 3.28125 10.1371 3.28125ZM1.40659 6.09375C1.40659 6.40312 1.40659 6.7125 1.40659 7.03125C10.3785 7.03125 19.3503 7.03125 28.5941 7.03125C28.5941 6.72187 28.5941 6.4125 28.5941 6.09375C19.6222 6.09375 10.6503 6.09375 1.40659 6.09375ZM3.75034 7.96875C3.75034 14.775 3.75034 21.5812 3.75034 28.5937C4.05971 28.5937 4.36909 28.5937 4.68784 28.5937C4.68784 21.7875 4.68784 14.9812 4.68784 7.96875C4.37846 7.96875 4.06909 7.96875 3.75034 7.96875ZM13.1839 7.96875C13.421 8.39781 13.421 8.39781 13.6772 8.81149C13.7129 8.86617 13.7487 8.92085 13.7855 8.97719C13.8227 9.03354 13.8598 9.08989 13.898 9.14795C13.9557 9.23593 13.9557 9.23593 14.0146 9.32569C14.3212 9.79293 14.6302 10.2586 14.9417 10.7227C15.1634 10.6488 15.1907 10.5748 15.313 10.3791C15.3509 10.3191 15.3888 10.2592 15.4278 10.1974C15.468 10.1326 15.5082 10.0679 15.5497 10.0012C15.5913 9.93496 15.633 9.86874 15.6747 9.80255C15.7386 9.70137 15.8023 9.60018 15.8659 9.49887C16.1034 9.12093 16.3482 8.74783 16.5934 8.37494C16.623 8.32972 16.6526 8.2845 16.6831 8.23791C16.722 8.17871 16.722 8.17871 16.7617 8.11832C16.8218 8.03671 16.8218 8.03671 16.8167 7.96875C15.6179 7.96875 14.4191 7.96875 13.1839 7.96875ZM25.3128 7.96875C25.3128 14.775 25.3128 21.5812 25.3128 28.5937C25.6222 28.5937 25.9316 28.5937 26.2503 28.5937C26.2503 21.7875 26.2503 14.9812 26.2503 7.96875C25.941 7.96875 25.6316 7.96875 25.3128 7.96875Z" fill="#C9A581"/>
<path d="M10.9118 19.189C10.9867 19.1883 11.0616 19.1877 11.1388 19.187C11.2217 19.1874 11.3046 19.1879 11.3875 19.1884C11.4749 19.1881 11.5623 19.1877 11.6497 19.1872C11.887 19.1861 12.1243 19.1865 12.3615 19.1873C12.6098 19.1879 12.8581 19.1873 13.1063 19.1869C13.5232 19.1865 13.9401 19.1871 14.357 19.1882C14.8391 19.1895 15.3212 19.1891 15.8033 19.1878C16.2171 19.1867 16.6309 19.1865 17.0447 19.1872C17.2919 19.1875 17.5391 19.1876 17.7863 19.1868C18.0187 19.1861 18.2511 19.1866 18.4835 19.1879C18.5688 19.1883 18.6541 19.1882 18.7394 19.1877C18.8558 19.187 18.9722 19.188 19.0886 19.189C19.1863 19.1891 19.1863 19.1891 19.286 19.1893C19.4926 19.2257 19.5623 19.2877 19.6877 19.4531C19.7106 19.6298 19.7106 19.6298 19.7023 19.8193C19.7002 19.8825 19.6981 19.9456 19.6959 20.0107C19.6932 20.0587 19.6905 20.1068 19.6877 20.1562C19.7423 20.1535 19.7969 20.1508 19.8532 20.148C20.7774 20.1218 21.573 20.3824 22.2805 20.9949C22.9367 21.6189 23.4165 22.4035 23.4574 23.3283C23.4755 24.4444 23.2499 25.3458 22.4615 26.1749C21.9319 26.6913 21.198 27.1769 20.4316 27.1898C20.3379 27.1866 20.2441 27.1832 20.1504 27.1798C19.9122 27.1744 19.6823 27.1744 19.4533 27.2461C19.288 27.4201 19.2206 27.5769 19.132 27.7991C18.8069 28.5631 18.0251 29.0063 17.3071 29.3401C16.8275 29.5196 16.3726 29.5493 15.8633 29.5489C15.7955 29.5491 15.7277 29.5494 15.6578 29.5496C15.5149 29.55 15.3721 29.55 15.2292 29.5497C15.0124 29.5496 14.7957 29.5509 14.5789 29.5524C14.4394 29.5525 14.2999 29.5526 14.1604 29.5525C14.0965 29.5531 14.0326 29.5536 13.9667 29.5542C12.9248 29.548 12.0173 29.1432 11.2848 28.4095C10.6069 27.6622 10.2948 26.7837 10.2957 25.7894C10.2953 25.7212 10.2949 25.6529 10.2945 25.5825C10.2934 25.3579 10.2931 25.1334 10.293 24.9087C10.2927 24.7919 10.2924 24.675 10.2921 24.5582C10.2912 24.1914 10.2909 23.8246 10.291 23.4578C10.291 23.0797 10.2898 22.7016 10.288 22.3235C10.2864 21.9982 10.2858 21.673 10.2859 21.3477C10.2859 21.1537 10.2855 20.9597 10.2843 20.7657C10.2832 20.5497 10.2835 20.3338 10.2842 20.1177C10.2836 20.0536 10.2829 19.9894 10.2822 19.9233C10.2827 19.8645 10.2832 19.8057 10.2837 19.7451C10.2837 19.6941 10.2836 19.643 10.2835 19.5905C10.3574 19.2424 10.5904 19.1894 10.9118 19.189ZM11.2502 20.1562C11.2478 21.0687 11.2454 21.9811 11.2429 22.9211C11.2418 23.2079 11.2407 23.4946 11.2396 23.79C11.2392 24.0499 11.2392 24.0499 11.239 24.3098C11.2388 24.4245 11.2384 24.5391 11.2378 24.6537C11.2319 25.8519 11.2557 26.8776 12.135 27.783C12.9205 28.5241 13.827 28.6047 14.8617 28.6046C14.9845 28.6047 15.1072 28.6058 15.23 28.6069C16.2949 28.6114 17.1565 28.4692 17.9395 27.7089C18.6189 26.9888 18.7608 26.1603 18.7568 25.205C18.7568 25.1492 18.7569 25.0934 18.7569 25.0359C18.7568 24.857 18.7564 24.6781 18.7559 24.4993C18.7558 24.3881 18.7558 24.277 18.7557 24.1658C18.7554 23.7558 18.7546 23.3458 18.7539 22.9358C18.7526 22.0185 18.7514 21.1013 18.7502 20.1562C16.2752 20.1562 13.8002 20.1562 11.2502 20.1562ZM19.6877 21.0937C19.6877 21.2484 19.6877 21.4031 19.6877 21.5625C19.7359 21.564 19.7841 21.5655 19.8337 21.5671C20.5275 21.6023 20.9832 21.752 21.4922 22.2354C21.968 22.7787 22.0115 23.3832 21.9826 24.0734C21.9406 24.6161 21.6093 25.0223 21.2111 25.3711C20.8392 25.6054 20.4955 25.7253 20.0576 25.7556C19.9885 25.7605 19.9193 25.7654 19.8481 25.7705C19.7952 25.774 19.7422 25.7776 19.6877 25.7812C19.6877 25.9359 19.6877 26.0906 19.6877 26.25C20.5121 26.2352 21.2054 26.0234 21.7971 25.4297C22.3216 24.8224 22.5005 24.1941 22.4675 23.405C22.4139 22.7076 22.065 22.1295 21.5421 21.6779C20.9674 21.2473 20.397 21.1163 19.6877 21.0937ZM19.6877 22.5C19.6877 23.2734 19.6877 24.0469 19.6877 24.8437C20.2103 24.7915 20.489 24.7585 20.8364 24.3933C21.0472 24.11 21.0799 23.8384 21.0633 23.4904C21.0111 23.1727 20.8776 22.9715 20.6392 22.76C20.3096 22.5247 20.1242 22.5436 19.6877 22.5Z" fill="#C9A581"/>
<path d="M15.2341 14.0625C15.4738 14.2553 15.5671 14.4856 15.6816 14.7622C15.7006 14.807 15.7196 14.8517 15.7392 14.8979C15.7997 15.0403 15.8593 15.1831 15.9189 15.3259C15.9596 15.4222 16.0004 15.5184 16.0412 15.6147C16.5737 16.8734 16.5737 16.8734 16.3439 17.5177C16.1232 17.9149 15.8379 18.1386 15.4099 18.2812C14.8915 18.3284 14.424 18.3246 14.0036 17.9883C13.6457 17.5638 13.5306 17.2054 13.5742 16.6491C13.6393 16.2242 13.8486 15.8251 14.0219 15.4358C14.0629 15.3404 14.1038 15.245 14.1445 15.1496C14.663 13.945 14.663 13.945 15.2341 14.0625ZM14.9411 15.8789C14.8818 16.0178 14.8233 16.1569 14.7653 16.2964C14.7486 16.3354 14.7318 16.3743 14.7145 16.4145C14.6156 16.6548 14.5644 16.8447 14.5896 17.1094C14.6406 17.2288 14.6406 17.2288 14.7653 17.2852C14.9752 17.3166 15.1596 17.3395 15.3366 17.2103C15.4472 17.058 15.4156 16.9189 15.39 16.74C15.3163 16.4391 15.1871 16.1597 15.0583 15.8789C15.0196 15.8789 14.981 15.8789 14.9411 15.8789Z" fill="#C9A581"/>
<path d="M18.9841 12.6562C19.2238 12.8491 19.3171 13.0794 19.4316 13.3559C19.4506 13.4007 19.4696 13.4455 19.4892 13.4916C19.5497 13.6341 19.6093 13.7769 19.6689 13.9197C19.7096 14.0159 19.7504 14.1122 19.7912 14.2084C20.3237 15.4671 20.3237 15.4671 20.0939 16.1114C19.8732 16.5087 19.5879 16.7323 19.1599 16.875C18.6415 16.9222 18.174 16.9183 17.7536 16.582C17.3957 16.1575 17.2806 15.7992 17.3242 15.2428C17.3893 14.818 17.5986 14.4189 17.7719 14.0295C17.8129 13.9342 17.8538 13.8388 17.8945 13.7433C18.413 12.5388 18.413 12.5388 18.9841 12.6562ZM18.6911 14.4726C18.6318 14.6115 18.5733 14.7507 18.5153 14.8901C18.4986 14.9291 18.4818 14.9681 18.4645 15.0082C18.3656 15.2485 18.3144 15.4385 18.3396 15.7031C18.3906 15.8226 18.3906 15.8226 18.5153 15.8789C18.7252 15.9104 18.9096 15.9333 19.0866 15.8041C19.1972 15.6517 19.1656 15.5126 19.14 15.3337C19.0663 15.0328 18.9371 14.7535 18.8083 14.4726C18.7696 14.4726 18.731 14.4726 18.6911 14.4726Z" fill="#C9A581"/>
<path d="M11.4841 12.6562C11.7238 12.8491 11.8171 13.0794 11.9316 13.3559C11.9506 13.4007 11.9696 13.4455 11.9892 13.4916C12.0497 13.6341 12.1093 13.7769 12.1689 13.9197C12.2096 14.0159 12.2504 14.1122 12.2912 14.2084C12.8237 15.4671 12.8237 15.4671 12.5939 16.1114C12.3732 16.5087 12.0879 16.7323 11.6599 16.875C11.1415 16.9222 10.674 16.9183 10.2536 16.582C9.89575 16.1575 9.7806 15.7992 9.82421 15.2428C9.88933 14.818 10.0986 14.4189 10.2719 14.0295C10.3129 13.9342 10.3538 13.8388 10.3945 13.7433C10.913 12.5388 10.913 12.5388 11.4841 12.6562ZM11.1911 14.4726C11.1318 14.6115 11.0733 14.7507 11.0153 14.8901C10.9986 14.9291 10.9818 14.9681 10.9645 15.0082C10.8656 15.2485 10.8144 15.4385 10.8396 15.7031C10.8906 15.8226 10.8906 15.8226 11.0153 15.8789C11.2252 15.9104 11.4096 15.9333 11.5866 15.8041C11.6972 15.6517 11.6656 15.5126 11.64 15.3337C11.5663 15.0328 11.4371 14.7535 11.3083 14.4726C11.2696 14.4726 11.231 14.4726 11.1911 14.4726Z" fill="#C9A581"/>
</g>
<rect x="0.5" y="0.5" width="29" height="29" stroke="#C9A581"/>
<defs>
<clipPath id="clip0_146_171">
<rect width="30" height="30" fill="white"/>
</clipPath>
</defs>
</svg>
