<svg width="65" height="72" viewBox="0 0 65 72" fill="none" xmlns="http://www.w3.org/2000/svg">
<mask id="mask0" mask-type="alpha" maskUnits="userSpaceOnUse" x="0" y="0" width="65" height="72">

<path fill="#fff" d="m64.2 34.1-.1.6v4.5l-.2 2a85.2 85.2 0 0 1-1.1 5.5 24.2 24.2 0 0 1-.2 2.1c0 .1-.2.3-.4.3s-.3-.1-.4-.3l-.1-.4v-2.2c0-.3 0-.6.2-.9l.6-3 .4-2.4v-.7a1447.4 1447.4 0 0 0 0-7.7 7.7 7.7 0 0 0-.6-2c-.5-.8-.8-1.9-.7-3 0-1-.2-2-.6-3.1 0-.7-.3-1.5-.6-2.1-.3-.7-.6-1.5-.7-2.2l-.5-1.3c-.2-.2-.3-.5-.4-.9-.4-1-1-1.8-1.7-2.6l-1-1.6-.5-.6a29.6 29.6 0 0 0-4.3-3.8l-1.7-1.1-.8-.6c-.2-.3-.5-.5-.9-.6l-.4-.2c-.8-.5-1.6-1-2.5-1.3l-2.1-1h-.5l-.5-.2-2-.6c-.8 0-1.6-.2-2.3-.4-.7-.3-1.5-.4-2.2-.4l-2.5-.1a29 29 0 0 0-4.4.4A86 86 0 0 0 23.2 4l-2.2.6c-.5 0-1 .3-1.5.5l-1.3.7-2.5 1.6-1.5.8a34.6 34.6 0 0 0-6 4.8c-.9.9-1.6 1.9-2.3 3l-1 1.6c-.9 1-1.5 2.3-2 3.6l-.8 2.7a23 23 0 0 0-1 7.5l.2 3.2v1.7c0 1 0 1.9.2 2.8l.4 2.3c0 .6.3 1.1.4 1.7a11.2 11.2 0 0 1 .1 3.7.4.4 0 0 1-.6 0l-.3-.6v-1.2L1 42.1l-.6-2.7-.2-2.6.1-1.1L.1 33a18 18 0 0 1 0-3.8L.4 26l.3-1.3c.4-1.5 1-2.9 1.5-4.3.4-1.3 1.1-2.5 2-3.7l1.2-2A303.2 303.2 0 0 1 9.5 10 27.5 27.5 0 0 1 20 3.6l2.7-1 .9-.1 1.8-.5 3-.6 1.1-.2 2.2-.1c1.4 0 2.7 0 4 .3 1.3.2 2.5.6 3.8.7a7 7 0 0 1 1.7.2l.5.2a55.8 55.8 0 0 0 1.2.3l3.7 1.6 1 .6c.8.3 1.5.7 2 1.3l2 1.1 1.2 1 1.9 1.6.4.4a571.4 571.4 0 0 1 1.5 1.6l1 1.5.6.7a10 10 0 0 1 1.8 3.3c.4.7.7 1.6.9 2.5l.4 1 .3.8a139.4 139.4 0 0 1 1 5c0 .8.2 1.6.6 2.3l.6 2.1c0 .7.2 1.3.3 2v1Z"></path><path fill="#fff" d="M16 65.3v-1.5c0-.3.1-.5.3-.5a.4.4 0 0 1 .5.4l.1.9v1.9l.1.2c.5-.2.8.1 1.1.3l.6.4.2-.6.4-1c0-.3.3-.4.5-.4.3.1.4.4.3.7l-.3 1.1a1 1 0 0 0 .2 1 .2.2 0 0 0 .2 0 1.3 1.3 0 0 1 1.4.1c.1.1.1 0 .2-.1l.4-2 .2-.8.4-.2a.3.3 0 0 1 .3.5l-.4 1.6-.1.5c0 .2 0 .3.2.3.5 0 1 0 1.4.3l.2-.1.6-2.7.2-.5c.2-.2.4-.2.5 0a.8.8 0 0 1 0 .7c0 .5-.1.9-.3 1.3 0 .5-.2 1-.3 1.4 0 .2 0 .3.2.2a2.7 2.7 0 0 1 2.3.3c.2.1.1 0 .1-.2l.4-3.1.1-.6a.4.4 0 0 1 .3-.2.4.4 0 0 1 .3.1 1.1 1.1 0 0 1 .2 1 348 348 0 0 0-.2 3 1 1 0 0 1 1.5 0l.7.4v-2.8l.2-.7c.1-.2.3-.2.4 0l.1.6.1 2.4c0 .2 0 .3.3.2l.5-.3a1 1 0 0 1 1 .1l.9.5c.4.2.4.1.4-.3l-.2-1.5-.5-2v-.2s0-.3.2-.3a.3.3 0 0 1 .4.1l.4.9.8 2.6c0 .2 0 .3.4.2.4-.2 1-.2 1.5-.1a1.3 1.3 0 0 0 1.2-.1c.5-.3.5-.3.3-1a16.8 16.8 0 0 0-1.2-3 .5.5 0 0 1 .2-.3.3.3 0 0 1 .4 0l.5.8c.5 1 .8 2 1 3 0 .2.1.4.4.4l.3.1c.5.1.6 0 .5-.4 0-.7-.1-1.4-.4-2.1a9.2 9.2 0 0 1-.3-1.5.3.3 0 0 1 .5-.2l.2.3c.4.6.7 1.4.7 2.2l.1.8c0 .1.1.2.3.2.5 0 1 0 1.5.2a.6.6 0 0 0 .8-.7l-.1-.7V66c0-.2.2-.2.4-.1s.4.3.4.5l.2 1.1c0 .3 0 .3.4.3l.3-.1c.2-.1.4-.2.3-.5a11.7 11.7 0 0 1 .3-4.8l.6-1v-.3a8 8 0 0 1-2-2L43 55.6l-.8-1c-.3-.3-.2-.5 0-.7a.5.5 0 0 1 .7 0 18 18 0 0 1 2.4 2.7l1.3 2 1 1.3a1.9 1.9 0 0 0 2.3.4l.4-.2a3.1 3.1 0 0 1 2.9 0l.7.3c.6.4 1.3.5 2 .4a1.8 1.8 0 0 0 1.3-.7l.5-.7 1.1-1.7c.3-.4.7-.7 1.2-1 .3 0 .5-.1.8-.3a.9.9 0 0 0 .5-.8l-.1-1.8a1.4 1.4 0 0 0-.8-1 2 2 0 0 1-1-1.9l.1-1.4v-3.3l-.2-1.9.2-1 .3-.2a.5.5 0 0 1 .2.3l.2 1.1a34 34 0 0 1 .2 6.9l.2.3c.2 0 .4.3.6.4a2.3 2.3 0 0 1 1.1 1.8c.2.8.1 1.7 0 2.5a2.4 2.4 0 0 1-1.8 1.8c-.5.2-1 .5-1.2.9L58 60.8c-.2.4-.6.7-1.1.9l-1.3.4c-.4.1-.8 0-1.2-.2l-1-.4c-.6-.3-1.2-.4-1.9-.4l-1 .3a4 4 0 0 1-1.3.4H49c-.6.5-1 1.2-1.2 2a14.7 14.7 0 0 0 0 4l-.3.4c-.5.4-1 .8-1.6.7a1.1 1.1 0 0 0-1.1.3.7.7 0 0 1-1 .1c-.4-.2-.8-.3-1.3-.2l-.4.3c-.5.5-.6.5-1.2.2l-.7-.2a.7.7 0 0 0-.8.3l-.1.2c-.5.4-.7.5-1.2 0-.3-.2-.7-.3-1-.3a.9.9 0 0 0-.8.3l-.5.5c-.3.4-.5.4-1 .2l-1.4-.8a.8.8 0 0 0-.8 0 31.2 31.2 0 0 0-1.3.7h-.2l-1.2-.7a.3.3 0 0 0-.5 0l-.4.7c-.3.6-.6.6-1 .3l-1.1-.9-.9-.3a1 1 0 0 0-1 .4c-.3.5-.6.4-1 0a4 4 0 0 0-.6-.8c-.3-.3-.5-.2-.9 0 0 .2-.1.3-.2.3a.5.5 0 0 1-.7 0l-.3-.3a.6.6 0 0 0-.8 0 1 1 0 0 1-1.4-.6c0-.3-.2-.4-.6-.4l-.7-.4-.9-.2h-.3a.7.7 0 0 1-.7-.8v-1.5Z"></path><path fill="#fff" d="M45.7 33.2c1 0 2 0 2.8.2.7 0 1.4.3 2 .7l.6.3a9 9 0 0 1 2.8 2.1l.7.7c.6.5 1 1 1.2 1.8l.9 2.5c.2.7.3 1.4.1 2l-.6 3.2a8.8 8.8 0 0 1-1.8 3.6c-.6.9-1.6 1.5-2.7 1.7l-1.7.4c-1.4.3-2.8 0-4-.8l-1.5-1-1-.7-1.5-1.1-1.5-1a6.3 6.3 0 0 1-3.5-4.3l-.7-3a5.7 5.7 0 0 1-.2-2.3c.1-.5.3-1 .6-1.3.6-.8 1.3-1.4 2-2 .7-.6 1.6-1 2.5-1.1l3.1-.5h1.4ZM37 39.5l.2 1 .7 3c.2 1 .7 1.7 1.3 2.2l.8.8.7.5a13.5 13.5 0 0 1 3.2 2 6.5 6.5 0 0 1 1.9 1.4c1 .7 2.3 1.1 3.6 1 1.2 0 2.3-.4 3.4-1 .7-.4 1.2-1 1.6-1.6.4-.9.7-1.8.8-2.7l.2-.7.3-.8.2-1.5c.1-.6 0-1.3-.3-1.9l-.2-.5-.5-1.5c0-.3-.2-.6-.5-.8l-.6-.6a7.1 7.1 0 0 0-3.5-2.7c-.3 0-.5-.2-.7-.3-.4-.3-1-.5-1.4-.5l-3.1-.2c-.7 0-1.5.2-2.2.4l-1.6.3c-.7.1-1.4.4-2 .7l-.3.3-.6.6a4.2 4.2 0 0 0-1.4 3.1ZM6.6 43.7c0-1.8.5-3.6 1.4-5.2l1-1.7c.4-.5.8-.9 1.3-1.2.8-.6 1.7-1 2.7-1.3.4 0 .9-.3 1.3-.4l2-.2 2.7-.1.5-.1c.5-.2 1-.2 1.5.1.7.3 1.4.7 1.9 1.2.7.7 1.5 1.2 2.3 1.7l1.2 1 .4.6.5 1.7-.1 1.5-1 2.5L26 45c-.1.6-.3 1.3-.7 1.9-.2.4-.5.7-1 1-.6.3-1.2.8-1.7 1.4a5.3 5.3 0 0 1-2.7 1.7 17 17 0 0 1-3.6.5c-.3 0-.6 0-1 .2-.9 0-1.8 0-2.6-.3a2 2 0 0 0-.6 0c-.8-.1-1.7-.5-2.3-1A5.9 5.9 0 0 1 8 47.5L7.4 46l-.3-.7c-.3-.4-.4-1-.5-1.5Zm8.4 7 2.3-.2c.7 0 1.3-.1 2-.3l1.2-.5a2 2 0 0 0 1.1-.8c.5-.7 1.2-1.3 2-1.8.4-.3.8-.6 1-1 .3-.5.4-1 .5-1.5.3-1.1.7-2.2 1.2-3.2a1.8 1.8 0 0 0 .2-1.5l-.5-1.6-.2-.3-1.1-.8-3-2.1c-.3-.3-.6-.6-1-.7-.4-.2-.7-.2-1 0h-1.1l-3.4.2h-.4l-2.9 1c-1 .2-1.7.9-2.2 1.7l-1 1.5c-.6 1-1 2-1 3.2v1a3 3 0 0 0 .2 1.7c.3.5.4 1 .5 1.6.2 1.2.8 2.3 1.6 3.2.5.4 1 .7 1.6.8 1.1.2 2.3.4 3.4.4ZM35.2 59.5l-.8-.1c-.9-.2-1.7-.5-2.4-1l-.6-.5c-.2 0-.4.2-.6.4a3 3 0 0 0-.4.3c-1 .9-2.2 1.4-3.6 1.5a2.6 2.6 0 0 1-2.2-1.3 1.2 1.2 0 0 1-.1-1l.3-1.6 1-3.7 1-3.3c.3-.7.8-1.4 1.4-1.9l2.3-2a3.7 3.7 0 0 0 .8-1c0-.3.2-.5.5-.5a.8.8 0 0 1 .6.5c.1.3.3.7.6 1l1.4 1.2c.9.6 1.5 1.4 2 2.4l1.6 4.8.3.8c.2.5.2 1 .1 1.6l-.2 1.5a2 2 0 0 1-1.5 1.5c-.3 0-.5.2-.8.3l-.7.1Zm-.1-1.2h.7a1.4 1.4 0 0 0 1.4-1.2l.2-1.5-.1-.8-1.5-4.4c-.2-.8-.6-1.6-1-2.3l-.8-.8a7.1 7.1 0 0 1-1.9-1.8c0-.1-.2-.2-.3 0l-1.6 1.2-1.4 1.5-.5.7c-.6.8-1 1.8-1.3 2.8a513 513 0 0 0-1.5 6.3.8.8 0 0 0 .6.7 3.3 3.3 0 0 0 2.7-.3l1.5-1c1.3-.8 1.6-.7 2.5.2l.7.4c.5.3 1 .4 1.6.3Z"></path><path fill="#fff" d="M9.6 61.8a3.5 3.5 0 0 1-3.4-2.3l-.5-1.6-.8-1.6c-.3-.6-.8-1-1.4-1.4-.6-.3-1-1-1.2-1.6a1.5 1.5 0 0 1 .5-1.5c.3-.2.5-.6.6-1a19 19 0 0 0 1-4v-1.4c0-.2 0-.4.2-.5a.4.4 0 0 1 .4.3l.3 1v.7c0 .6 0 1.3-.2 2-.2 1-.6 2-1 2.9l-.6.8a.7.7 0 0 0 0 1l.7.6c.5.2 1 .6 1.3 1.1.7 1 1.2 2.2 1.6 3.4 0 .3.2.6.4 1a2.2 2.2 0 0 0 1.7 1c.6 0 1.2 0 1.7-.2l1.1-.4a3 3 0 0 1 2.7.1l.6.3c.4.2.6 0 .7-.3l.2-1c.2-.7.6-1.3 1.2-1.8a15 15 0 0 0 2.5-2.8 2.6 2.6 0 0 1 .7-.7.4.4 0 0 1 .4.1.5.5 0 0 1 0 .6l-.5.8-2.1 2.4a8 8 0 0 0-.8 1.2 3 3 0 0 0-.6 1.4 1.5 1.5 0 0 1-2.4 1c-.6-.4-1.4-.5-2.1-.3-.5 0-1 .2-1.5.4l-1.4.3ZM3.7 40.4c0-1.5.5-3 1.2-4.4l1-3 .3-1.7c.2-1.1.2-2.2 0-3.4v-1.7l-.3-1.5-.8-2.7c-.2-.5 0-.7.5-.7h.2l-.1.2c-.2.2 0 .4.1.5.4.7.7 1.5.9 2.4l.2 1.2c.3 1.9.5 3.7.3 5.5 0 .4 0 .7-.2 1l-1 3.5c-.3.8-.7 1.5-.9 2.3-.4 1-.5 2-.5 3.1l.2 1.2v.3c0 .3 0 .5-.3.5-.4 0-.6 0-.6-.4l-.2-2.2ZM59.5 22c0 1-.2 2-.5 2.9l-1 4.3a14 14 0 0 0-.1 3.7c0 .4.1.9.3 1.3.2 1 .6 2 1 2.8.7 1 .9 2.2.7 3.4a4.5 4.5 0 0 1-.4 1.3.4.4 0 0 1-.5 0 .5.5 0 0 1-.3-.4c0-.4.2-.7.3-1a3 3 0 0 0-.2-1.9l-1.5-3.6c-.3-.8-.5-1.7-.5-2.6 0-1.9.3-3.8.9-5.6l.8-2.4a8 8 0 0 0 .3-2.5v-.3l.4-.3.2.3.1.6ZM22 18.4l-.2 3.6v1l-.1.6c-.2.4-.4.4-.7.2l-.4-.5a1595.8 1595.8 0 0 1-2.3-3l-.4 3v.3l-.4.3c-.2 0-.3-.1-.4-.3v-.4l.2-3v-1.5c0-.2.1-.4.4-.5a.5.5 0 0 1 .6.2l.6 1a1512.7 1512.7 0 0 0 2 3l.1-.3v-.2l.2-2.5.1-1c0-.3.2-.4.4-.4a.4.4 0 0 1 .3.4ZM34.2 34.7l-.2-.2a13.2 13.2 0 0 0-2-1.8.2.2 0 0 0-.4.2l-.7 1-.7 1-.4.4a.3.3 0 0 1-.5 0 .4.4 0 0 1 0-.5l.1-.2 1.5-2.1c.2-.4.2-.4-.1-.7a16.2 16.2 0 0 0-2.4-2c-.1-.2-.3-.3-.1-.5.1-.2.3 0 .4 0 .8.3 1.5.7 2 1.3l.6.4c.3.3.3.3.5 0 .4-.5.7-1 1.1-1.3.1-.2.2-.3.4-.3a.3.3 0 0 1 .4.3l-.2.5-1 1.4c-.2.3-.2.3 0 .5l1.7 1.5.4.7c.1.2 0 .4-.4.4ZM31.6 13.1a2.3 2.3 0 0 1-2.2-1.8A3.1 3.1 0 0 1 31.8 8a1.4 1.4 0 0 1 1.3 0c.5.1.9.4 1.1.9a2.6 2.6 0 0 1 .2 2.3 3.1 3.1 0 0 1-2.8 2Zm2.1-3a1.5 1.5 0 0 0-2.3-1.4 2.3 2.3 0 0 0-1.2 2.2 1.4 1.4 0 0 0 1.7 1.4 2.2 2.2 0 0 0 1.8-2.2ZM43.5 22.5l-.1-1.5a.8.8 0 0 0-.3-.6L41.5 19l-.2-.6a.4.4 0 0 1 .5-.5l.2.2.4.4 1 1c.2.3.3.3.4 0a93.6 93.6 0 0 1 1.5-2c.1 0 .3-.2.5 0 .2 0 .2.3 0 .5l-.6 1.1-.8 1.2c-.2.2-.2.5-.2.7v2.5c0 .3-.1.5-.4.5-.2 0-.3-.3-.3-.6v-.9Z"></path><path fill="#fff" d="m5.3 29-.1.6L5 31c0 .9-.3 1.7-.7 2.5a.4.4 0 0 1-.3.2.4.4 0 0 1-.3-.3v-.6c.4-1 .6-2 .6-3v-2.6l.2-.2a.5.5 0 0 1 .3.2l.3.8.2 1ZM60.2 31.4c0 1 0 1.9.3 2.8l.2.7c0 .3 0 .5-.3.6a.6.6 0 0 1-.7-.4v-.7c-.3-1.2-.5-2.4-.4-3.6l.3-1.5a.3.3 0 0 1 .2-.2l.2.2v.3l.2 1.8ZM38 39.7a5 5 0 0 1 2-4l.4-.3h.4l-.1.2-.4.5-1 1.4c-.3.3-.4.7-.5 1l-.2 1.5c0 .4 0 .7.2 1 0 .5.2.9.3 1.3a1.4 1.4 0 0 0 .7.9c.6.4 1 1 1.3 1.6l.5 1.1c0 .2.2.4 0 .5-.2.1-.3 0-.4-.1a10.6 10.6 0 0 1-.6-1 3 3 0 0 0-1.2-1.7c-.4-.3-.7-.7-.9-1.1-.4-.9-.6-1.9-.6-2.8ZM54.2 40.5c0 1 .2 1.9.3 2.8 0 .6 0 1-.2 1.6-.4 1-.8 2.1-1.4 3.1l-1 1.5-.6.9-.1.2h-.3a.4.4 0 0 1-.2-.2c0-.2 0-.4.2-.5l1-1.5c.5-.7 1-1.5 1.3-2.3l.4-1c.3-.5.3-1 .3-1.6l-.1-2.8.1-1.4.2-.2.2.2v1.2ZM8.8 43l.4-2.4.5-1.7c0-.2.1-.4.3-.4.3.1.1.4 0 .5-.2 1.2-.5 2.5-.5 3.8 0 .9 0 1.7.4 2.5l.7 1.7c.2.5.6 1 1 1.4l.3.4.7.5c.2 0 .2.2 0 .3a.5.5 0 0 1-.5.2l-.3-.2a6.6 6.6 0 0 1-1.9-2.8 5 5 0 0 0-.5-1.1c-.2-.5-.4-1.1-.4-1.7l-.2-1ZM25.2 40.2c0 .7-.2 1.4-.5 2l-.9 3a8 8 0 0 1-.5 1.4l-.1.2a.2.2 0 0 1-.2 0 .3.3 0 0 1-.2-.2l.2-.4c.2-.4.4-1 .4-1.5v-.3l1-2.5a3.8 3.8 0 0 0-.4-3.6l-.2-.4v-.3h.3c.4.6.7 1.1.9 1.7l.2 1ZM26.5 56.3c0-1 .3-2 .6-2.9l.4-1.3.6-1.5.3-.5.8-1.3 1.7-2 .4-.2c.2.2 0 .3-.1.5a18.8 18.8 0 0 1-1.9 2.3c-.6 1-1 2-1.4 3.1l-.5 2c-.3.9-.3 1.8-.2 2.7l.1.7c0 .1 0 .3-.2.3a.4.4 0 0 1-.3-.2l-.3-1.7Z"></path>

</mask>
<g id="anim" mask="url(#mask0)">
<path d="M62.2 49.192L63.824 34.475L61.724 22.468L56.776 12.744L50.811 7.064L42.768 3.02L35.548 1.043L27.22 2L18.456 4.84399L12.524 8.23801L8.642 11.399L4.62 16.335L2.04999 21.89L0.38501 29.346L0.925995 37.007L1.60901 43.787L2.04999 47.407" stroke="#707070" stroke-width="2" style="stroke-dasharray: 130.337px; stroke-dashoffset: 130.337px;"></path>
<path d="M5.63699 21.18L6.40601 25.534L7.18701 30.324L5.63699 34.924L4.367 39.53V43.353" stroke="#707070" stroke-width="2" style="stroke-dasharray: 22.7297px; stroke-dashoffset: 22.7297px;"></path>
<path d="M59.28 20.73L58.134 26.85L57.228 31.336L58.134 35.629L59.593 39.155L59.109 42.043" stroke="#707070" stroke-width="2" style="stroke-dasharray: 21.9347px; stroke-dashoffset: 21.9347px;"></path>
<path d="M31.231 12.678L33.531 12.063L34.26 9.711L33.531 8.011L31.231 8.36501L29.755 10.051V11.8L30.623 12.674L32.818 13.021" stroke="#707070" stroke-width="2" style="stroke-dasharray: 16.4638px; stroke-dashoffset: 16.4638px;"></path>
<path d="M17.28 23.887L17.98 18.337L21.669 24.202V17.962" stroke="#707070" stroke-width="2" style="stroke-dasharray: 18.7627px; stroke-dashoffset: 18.7627px;"></path>
<path d="M40.959 17.731L44.686 21.272" stroke="#707070" stroke-width="2" style="stroke-dasharray: 5.14093px; stroke-dashoffset: 5.14093px;"></path>
<path d="M45.757 17.333L43.622 21.02L44.122 24.279" stroke="#707070" stroke-width="2" style="stroke-dasharray: 7.55767px; stroke-dashoffset: 7.55767px;"></path>
<path d="M33.784 28.9L29.262 35.558" stroke="#707070" stroke-width="2" style="stroke-dasharray: 8.04844px; stroke-dashoffset: 8.04844px;"></path>
<path d="M28.152 29.346L34.797 34.54" stroke="#707070" stroke-width="2" style="stroke-dasharray: 8.43408px; stroke-dashoffset: 8.43408px;"></path>
<path d="M4.367 26.849L4.81799 31.02L3.81799 34.281" stroke="#707070" stroke-width="2" style="stroke-dasharray: 7.60619px; stroke-dashoffset: 7.60619px;"></path>
<path d="M59.593 28.9L59.902 33.385L60.577 36.2" stroke="#707070" stroke-width="2" style="stroke-dasharray: 7.39043px; stroke-dashoffset: 7.39043px;"></path>
<path d="M4.81799 44.64V48.333L3.73999 50.7L2.57501 53.024L4.16 55.224L6.125 57.287L6.96301 60.004L9.05099 61.262L12.106 60.662H14.6L16.168 61.262L16.991 58.587L18.806 56.673L21.239 53.891" stroke="#707070" stroke-width="2" style="stroke-dasharray: 36.1536px; stroke-dashoffset: 36.1536px;"></path>
<path d="M41.83 53.713L44.152 55.776L46.363 58.682L48.046 61.356H50.246L51.597 60.348L54.745 61.356H57.22L58.52 58.682L60.909 57.069L62.083 55.089L60.909 52.489L60.009 50.661V42.95" stroke="#707070" stroke-width="2" style="stroke-dasharray: 40.3422px; stroke-dashoffset: 40.3422px;"></path>
<path d="M16.308 63L16.608 67.22H18.408L20.437 68.955H22.254L24.046 68.564L27.4 69.979L29.915 68.955L33.498 69.502H40.83L44.33 67.939L45.574 67.276L46.59 67.676L48.869 59.723" stroke="#707070" stroke-width="2" style="stroke-dasharray: 44.2715px; stroke-dashoffset: 44.2715px;"></path>
<path d="M16.19 33.94H19.365L21.894 34.267L23.824 36.167L26.517 37.79L26.923 40.455L25.473 45.202L24.173 47.507L21.646 49.118L19.774 50.518L15.05 51.118L11.609 50.818L9.52899 49.666L7.91599 46.666L7.07001 42.948L7.91599 39.476L9.96399 36.538L13.057 34.705L15.05 33.929L18.825 33.135" stroke="#707070" stroke-width="3" style="stroke-dasharray: 61.7772px; stroke-dashoffset: 61.7772px;"></path>
<path d="M44.689 33.567L49.039 34.147L52.369 35.733L54.816 38.21L56.294 41.51V45.93L53.978 50.639L50.351 51.787H46.912L44.177 49.646L40.651 47.406L37.781 44.56L36.636 41.071L36.366 37.791L39.124 35.113L42.458 34.148L44.175 33.293H47.2" stroke="#707070" stroke-width="3" style="stroke-dasharray: 62.9996px; stroke-dashoffset: 62.9996px;"></path>
<path d="M31.819 44.394L33.114 46.227L35.014 47.793L36.185 49.701L36.993 52.085L37.742 54.059V56.618L37.29 58.288L35.015 58.937L33.774 58.585L31.223 57.121L28.848 58.937L25.994 59.417L24.894 58.585V56.619L25.994 52.086L27.413 49.286L29.113 46.968L30.932 45.295L32.56 43.744" stroke="#707070" stroke-width="3" style="stroke-dasharray: 47.0869px; stroke-dashoffset: 47.0869px;"></path>
<path d="M31.491 46.686L29.785 48.604L28.215 51.028L27.254 54.599L27.101 58.452" stroke="#707070" stroke-width="3" style="stroke-dasharray: 13.009px; stroke-dashoffset: 13.009px;"></path>
<path d="M23.786 37.257L24.85 39.257V40.673L24.323 42.987L23.435 45.187L22.835 46.905" stroke="#707070" stroke-width="3" style="stroke-dasharray: 10.2469px; stroke-dashoffset: 10.2469px;"></path>
<path d="M10.087 38.2L9.38101 40.849L8.89999 43.332L9.77802 46.053L10.994 47.971L12.159 49.348L12.918 49.948" stroke="#707070" stroke-width="2" style="stroke-dasharray: 13.172px; stroke-dashoffset: 13.172px;"></path>
<path d="M40.959 35.557L38.935 37.247L38.177 39.527L38.421 41.783L39.798 43.658L40.739 44.929L41.599 46.624" stroke="#707070" stroke-width="2" style="stroke-dasharray: 13.1171px; stroke-dashoffset: 13.1171px;"></path>
<path d="M54.012 38.948V41.475L54.234 43.868L53.36 46.743L50.672 50.713" stroke="#707070" stroke-width="2" style="stroke-dasharray: 12.7296px; stroke-dashoffset: 12.7296px;"></path>
<path d="M19.08 66.919L20.003 65.267" stroke="#707070" stroke-width="2" style="stroke-dasharray: 1.89236px; stroke-dashoffset: 1.89236px;"></path>
<path d="M22.836 64.85L22.101 68.937" stroke="#707070" stroke-width="2" style="stroke-dasharray: 4.15256px; stroke-dashoffset: 4.15256px;"></path>
<path d="M25.721 64.6L24.721 68.407" stroke="#707070" stroke-width="2" style="stroke-dasharray: 3.93615px; stroke-dashoffset: 3.93615px;"></path>
<path d="M28.539 64.6L27.973 68.991" stroke="#707070" stroke-width="2" style="stroke-dasharray: 4.42733px; stroke-dashoffset: 4.42733px;"></path>
<path d="M31.32 65.266V68.587" stroke="#707070" stroke-width="2" style="stroke-dasharray: 3.321px; stroke-dashoffset: 3.321px;"></path>
<path d="M34.378 64.85L35.472 68.775" stroke="#707070" stroke-width="3" style="stroke-dasharray: 4.07462px; stroke-dashoffset: 4.07462px;"></path>
<path d="M38.176 64L40.3 68.842" stroke="#707070" stroke-width="3" style="stroke-dasharray: 5.28738px; stroke-dashoffset: 5.28738px;"></path>
<path d="M40.788 64L42.26 68.55" stroke="#707070" stroke-width="3" style="stroke-dasharray: 4.78219px; stroke-dashoffset: 4.78219px;"></path>
</g>
</svg>
