<svg width="152" height="60" viewBox="0 0 152 60" fill="none" xmlns="http://www.w3.org/2000/svg">
<circle cx="30" cy="30" r="30" fill="#C9A581"/>
<g clip-path="url(#clip0_89_1534)">
<path d="M22.7122 18.7733C22.0841 18.1452 22.0841 17.1288 22.7122 16.5007C23.0554 16.1575 23.0554 15.6011 22.7122 15.2578C22.369 14.9146 21.8125 14.9146 21.4693 15.2578C20.1574 16.5697 20.1574 18.7043 21.4693 20.0162C22.0974 20.6443 22.0974 21.6607 21.4693 22.2888C21.126 22.6321 21.126 23.1885 21.4693 23.5317C21.8125 23.875 22.369 23.875 22.7122 23.5317C24.0241 22.2198 24.0241 20.0852 22.7122 18.7733Z" fill="#121D23"/>
<path d="M27.9851 18.7733C27.3571 18.1452 27.3571 17.1288 27.9851 16.5007C28.3284 16.1575 28.3284 15.6011 27.9851 15.2578C27.6419 14.9146 27.0855 14.9146 26.7422 15.2578C25.4303 16.5697 25.4303 18.7043 26.7422 20.0162C27.3703 20.6443 27.3703 21.6607 26.7422 22.2888C26.399 22.6321 26.399 23.1885 26.7422 23.5317C27.0854 23.875 27.642 23.875 27.9851 23.5317C29.297 22.2198 29.297 20.0852 27.9851 18.7733Z" fill="#121D23"/>
<path d="M33.2586 18.7733C32.6305 18.1452 32.6305 17.1288 33.2586 16.5007C33.6018 16.1575 33.6018 15.6011 33.2586 15.2578C32.9154 14.9146 32.3589 14.9146 32.0157 15.2578C30.7038 16.5697 30.7038 18.7043 32.0157 20.0162C32.6437 20.6443 32.6437 21.6607 32.0157 22.2888C31.6724 22.6321 31.6724 23.1885 32.0157 23.5317C32.3589 23.875 32.9154 23.875 33.2586 23.5317C34.5705 22.2198 34.5705 20.0852 33.2586 18.7733Z" fill="#121D23"/>
<path d="M37.0901 37.9099C41.4516 37.9099 45 34.3615 45 30C45 28.5462 43.8172 27.3633 42.3633 27.3633H39.7097C39.7209 27.0711 39.7267 26.7781 39.7267 26.4844C39.7267 25.999 39.3331 25.6055 38.8478 25.6055H15.8798C15.3944 25.6055 15.0009 25.999 15.0009 26.4844C15.0009 31.2887 16.5427 36.3285 19.7559 39.7262H15.8798C15.2281 39.7262 14.8016 40.4139 15.0937 40.9981C15.6952 42.201 16.6183 43.2108 17.7636 43.9182C18.9084 44.6256 20.2245 44.9994 21.5696 44.9994H33.1581C35.899 44.9994 38.4069 43.4521 39.634 40.998C39.9254 40.4151 39.5011 39.7262 38.8478 39.7262H34.9717C35.4924 39.1755 35.9802 38.5683 36.43 37.9098H37.0901V37.9099ZM39.574 29.1211H42.3634C42.848 29.1211 43.2423 29.5154 43.2423 30C43.2423 33.2599 40.6935 35.9353 37.4841 36.1392C38.5828 34.0131 39.2838 31.6127 39.574 29.1211ZM37.186 41.4723C36.1659 42.581 34.7211 43.2418 33.158 43.2418H21.5696C20.0066 43.2418 18.5618 42.581 17.5417 41.4723C18.3161 41.4723 36.7669 41.4723 37.186 41.4723ZM32.3532 39.7263H22.3744C19.1378 37.2776 16.9971 32.5138 16.7774 27.3517L37.9502 27.3634C37.756 31.9246 35.9377 37.0144 32.3532 39.7263Z" fill="#121D23"/>
</g>
<path d="M79.64 30.176H83.264L88.736 38H84.68L79.64 30.176ZM75.824 21.2H79.256V38H75.824V21.2ZM77.912 24.128V21.2H81.464C82.792 21.2 83.92 21.424 84.848 21.872C85.776 22.32 86.488 22.944 86.984 23.744C87.48 24.544 87.728 25.48 87.728 26.552C87.728 27.608 87.48 28.544 86.984 29.36C86.488 30.16 85.776 30.784 84.848 31.232C83.92 31.68 82.792 31.904 81.464 31.904H77.912V29.168H81.248C81.856 29.168 82.376 29.072 82.808 28.88C83.256 28.672 83.6 28.384 83.84 28.016C84.08 27.632 84.2 27.176 84.2 26.648C84.2 26.12 84.08 25.672 83.84 25.304C83.6 24.92 83.256 24.632 82.808 24.44C82.376 24.232 81.856 24.128 81.248 24.128H77.912ZM93.3708 29.6C93.3708 30.672 93.5948 31.624 94.0428 32.456C94.4908 33.288 95.1068 33.944 95.8908 34.424C96.6748 34.904 97.5868 35.144 98.6268 35.144C99.6668 35.144 100.579 34.904 101.363 34.424C102.147 33.944 102.755 33.288 103.187 32.456C103.635 31.624 103.859 30.672 103.859 29.6C103.859 28.528 103.643 27.576 103.211 26.744C102.779 25.912 102.171 25.256 101.387 24.776C100.603 24.296 99.6828 24.056 98.6268 24.056C97.5868 24.056 96.6748 24.296 95.8908 24.776C95.1068 25.256 94.4908 25.912 94.0428 26.744C93.5948 27.576 93.3708 28.528 93.3708 29.6ZM89.7468 29.6C89.7468 28.32 89.9708 27.152 90.4188 26.096C90.8668 25.024 91.4908 24.096 92.2908 23.312C93.0908 22.528 94.0268 21.928 95.0988 21.512C96.1868 21.08 97.3628 20.864 98.6268 20.864C99.9068 20.864 101.083 21.08 102.155 21.512C103.227 21.928 104.163 22.528 104.963 23.312C105.779 24.096 106.403 25.024 106.835 26.096C107.283 27.152 107.507 28.32 107.507 29.6C107.507 30.864 107.283 32.04 106.835 33.128C106.403 34.2 105.787 35.136 104.987 35.936C104.203 36.736 103.267 37.36 102.179 37.808C101.107 38.24 99.9228 38.456 98.6268 38.456C97.3308 38.456 96.1388 38.24 95.0508 37.808C93.9788 37.36 93.0428 36.736 92.2428 35.936C91.4428 35.136 90.8268 34.2 90.3948 33.128C89.9628 32.04 89.7468 30.864 89.7468 29.6ZM111.761 34.184L112.169 31.472H120.233L120.641 34.184H111.761ZM116.153 26.648L113.633 32.432L113.705 33.2L111.497 38H107.633L116.153 20.216L124.673 38H120.785L118.625 33.344L118.673 32.48L116.153 26.648ZM127.96 32.36C128.312 32.984 128.696 33.528 129.112 33.992C129.544 34.456 130.016 34.816 130.528 35.072C131.04 35.328 131.592 35.456 132.184 35.456C132.872 35.456 133.432 35.28 133.864 34.928C134.296 34.576 134.512 34.096 134.512 33.488C134.512 32.96 134.376 32.536 134.104 32.216C133.848 31.896 133.456 31.616 132.928 31.376C132.416 31.12 131.784 30.848 131.032 30.56C130.632 30.416 130.168 30.224 129.64 29.984C129.128 29.728 128.64 29.408 128.176 29.024C127.712 28.624 127.328 28.144 127.024 27.584C126.72 27.008 126.568 26.32 126.568 25.52C126.568 24.56 126.808 23.736 127.288 23.048C127.784 22.344 128.448 21.808 129.28 21.44C130.128 21.056 131.072 20.864 132.112 20.864C133.184 20.864 134.104 21.048 134.872 21.416C135.656 21.768 136.304 22.224 136.816 22.784C137.344 23.328 137.752 23.896 138.04 24.488L135.352 25.976C135.128 25.576 134.856 25.216 134.536 24.896C134.232 24.56 133.88 24.296 133.48 24.104C133.08 23.896 132.624 23.792 132.112 23.792C131.44 23.792 130.936 23.952 130.6 24.272C130.264 24.576 130.096 24.936 130.096 25.352C130.096 25.768 130.232 26.136 130.504 26.456C130.776 26.76 131.192 27.056 131.752 27.344C132.312 27.616 133.016 27.896 133.864 28.184C134.408 28.376 134.928 28.616 135.424 28.904C135.936 29.192 136.392 29.544 136.792 29.96C137.208 30.36 137.528 30.84 137.752 31.4C137.992 31.944 138.112 32.576 138.112 33.296C138.112 34.112 137.952 34.84 137.632 35.48C137.312 36.12 136.872 36.664 136.312 37.112C135.752 37.544 135.12 37.872 134.416 38.096C133.728 38.336 133 38.456 132.232 38.456C131.208 38.456 130.248 38.264 129.352 37.88C128.472 37.48 127.704 36.944 127.048 36.272C126.392 35.6 125.88 34.872 125.512 34.088L127.96 32.36ZM139.23 24.296V21.2H151.71V24.296H147.174V38H143.742V24.296H139.23Z" fill="#C9A581"/>
<defs>
<clipPath id="clip0_89_1534">
<rect width="30" height="30" fill="white" transform="translate(15 15)"/>
</clipPath>
</defs>
</svg>
