<svg width="30" height="30" viewBox="0 0 30 30" fill="none" xmlns="http://www.w3.org/2000/svg">
<g clip-path="url(#clip0_297_821)">
<path d="M4.7782 -0.022678C4.87004 -0.0229228 4.96189 -0.0232439 5.05374 -0.0236342C5.30492 -0.0244787 5.5561 -0.0242333 5.80728 -0.0238003C6.07865 -0.0235225 6.35001 -0.0242564 6.62138 -0.024856C7.15255 -0.0258624 7.68371 -0.0259124 8.21488 -0.0256052C8.64671 -0.0253682 9.07855 -0.0254532 9.51038 -0.0257662C9.57189 -0.0258101 9.63341 -0.0258539 9.69678 -0.0258991C9.82176 -0.0259889 9.94673 -0.026079 10.0717 -0.0261695C11.2431 -0.0269735 12.4145 -0.0266553 13.5859 -0.0259829C14.6569 -0.025401 15.7279 -0.0261591 16.7989 -0.0275611C17.8994 -0.0289907 18.9998 -0.0295531 20.1003 -0.0291635C20.7178 -0.0289589 21.3353 -0.029089 21.9529 -0.0301157C22.4786 -0.0309788 23.0042 -0.0310148 23.5299 -0.0299943C23.798 -0.029496 24.066 -0.029369 24.3341 -0.0302669C24.5798 -0.0310797 24.8255 -0.0307972 25.0712 -0.0296669C25.1597 -0.029447 25.2483 -0.0296165 25.3368 -0.0302301C26.1793 -0.0356492 26.8412 0.133493 27.4805 0.703163C28.0823 1.34418 28.2601 2.01021 28.2619 2.87205C28.2623 2.93846 28.2626 3.00487 28.263 3.07329C28.2636 3.21294 28.2639 3.3526 28.2639 3.49226C28.2642 3.70623 28.2663 3.92014 28.2685 4.1341C28.2688 4.27006 28.2691 4.40601 28.2692 4.54197C28.27 4.60594 28.2709 4.6699 28.2717 4.73581C28.2714 4.79528 28.271 4.85475 28.2706 4.91602C28.2708 4.96821 28.271 5.02041 28.2712 5.07418C28.2329 5.26016 28.1526 5.33062 28.0078 5.44926C27.8906 5.48244 27.8906 5.48244 27.7734 5.48222C27.7348 5.4835 27.6961 5.48478 27.6562 5.48611C27.4624 5.42514 27.4097 5.32946 27.3047 5.15629C27.2711 4.94429 27.2748 4.73447 27.2772 4.52023C27.2768 4.4583 27.2764 4.39638 27.276 4.33258C27.2742 4.06837 27.2752 3.80418 27.2759 3.53997C27.2761 3.34669 27.2748 3.15344 27.2736 2.96017C27.2742 2.90131 27.2749 2.84245 27.2756 2.78181C27.2722 2.31203 27.1551 1.94187 26.9165 1.53812C26.2821 0.937093 25.5667 0.919843 24.7337 0.922657C24.6461 0.922522 24.5585 0.922335 24.471 0.922103C24.2316 0.921616 23.9922 0.921854 23.7528 0.922218C23.4941 0.922484 23.2355 0.922074 22.9768 0.921752C22.4706 0.921232 21.9644 0.921343 21.4582 0.921683C21.0467 0.921948 20.6352 0.921984 20.2237 0.921856C20.165 0.921838 20.1064 0.92182 20.046 0.921802C19.9269 0.921764 19.8078 0.921726 19.6888 0.921688C18.5726 0.921354 17.4565 0.921737 16.3404 0.922367C15.3832 0.922891 14.426 0.9228 13.4688 0.92226C12.3566 0.921632 11.2445 0.921386 10.1323 0.921746C10.0136 0.921783 9.89497 0.92182 9.77632 0.921856C9.71794 0.921874 9.65957 0.921892 9.59942 0.921911C9.18853 0.922012 8.77764 0.921842 8.36674 0.921566C7.86584 0.921237 7.36494 0.921327 6.86404 0.92195C6.60859 0.922257 6.35314 0.922379 6.09769 0.921991C5.86363 0.921641 5.62958 0.921836 5.39552 0.922457C5.31107 0.922588 5.22661 0.922523 5.14216 0.922237C4.43179 0.920023 3.79395 0.942354 3.22265 1.40629C2.79136 1.90441 2.73647 2.38 2.7378 3.01876C2.7375 3.09254 2.73721 3.16632 2.7369 3.24234C2.73611 3.44403 2.73608 3.64571 2.73623 3.84739C2.73629 4.01601 2.736 4.18463 2.73572 4.35325C2.73507 4.75111 2.73505 5.14896 2.7354 5.54682C2.73575 5.95681 2.73503 6.36679 2.73379 6.77677C2.73275 7.12929 2.7324 7.48181 2.73259 7.83433C2.7327 8.04465 2.73255 8.25496 2.73173 8.46528C2.73085 8.6998 2.7314 8.9343 2.73208 9.16881C2.73163 9.23822 2.73119 9.30763 2.73072 9.37915C2.73335 9.84112 2.73335 9.84112 2.92968 10.2539C3.23213 10.5405 3.49742 10.6201 3.90907 10.6206C3.94805 10.6208 3.98702 10.621 4.02718 10.6212C4.15802 10.6217 4.28884 10.6215 4.41968 10.6212C4.51434 10.6214 4.609 10.6217 4.70366 10.622C4.96397 10.6227 5.22428 10.6227 5.4846 10.6225C5.76527 10.6225 6.04594 10.6232 6.32662 10.6237C6.87658 10.6247 7.42655 10.625 7.97651 10.6251C8.4235 10.6251 8.87048 10.6254 9.31746 10.6258C10.5844 10.6268 11.8513 10.6273 13.1183 10.6272C13.1866 10.6272 13.2549 10.6272 13.3253 10.6272C13.3937 10.6272 13.4621 10.6272 13.5326 10.6272C14.6413 10.6272 15.75 10.6283 16.8587 10.6299C17.9967 10.6316 19.1348 10.6324 20.2728 10.6323C20.9119 10.6323 21.551 10.6326 22.19 10.6339C22.7341 10.6349 23.2782 10.6352 23.8223 10.6344C24.1 10.634 24.3776 10.634 24.6552 10.635C24.9094 10.6359 25.1636 10.6358 25.4178 10.6348C25.5097 10.6346 25.6016 10.6348 25.6935 10.6354C26.3576 10.64 26.3576 10.64 26.9531 10.3711C27.1843 10.1281 27.2531 9.94352 27.2544 9.61276C27.2548 9.55389 27.2552 9.49502 27.2556 9.43437C27.256 9.33906 27.256 9.33906 27.2564 9.24183C27.2577 9.10755 27.2592 8.97327 27.2606 8.839C27.2627 8.62709 27.2644 8.4152 27.2652 8.20328C27.2661 7.9989 27.2684 7.79458 27.271 7.59022C27.2709 7.52692 27.2708 7.46361 27.2707 7.39839C27.2779 6.95875 27.2779 6.95875 27.4166 6.72766C27.549 6.61251 27.6005 6.58243 27.7734 6.58817C27.8121 6.5881 27.8508 6.58802 27.8906 6.58794C28.06 6.63593 28.1305 6.72108 28.2422 6.85551C28.2723 7.0013 28.2723 7.0013 28.2734 7.16679C28.2744 7.22902 28.2753 7.29125 28.2762 7.35537C28.2758 7.45598 28.2758 7.45598 28.2754 7.55863C28.2757 7.62816 28.2761 7.69769 28.2765 7.76933C28.2769 7.9167 28.2767 8.06407 28.276 8.21143C28.2751 8.43509 28.2771 8.65861 28.2794 8.88225C28.2794 9.02576 28.2793 9.16927 28.279 9.31278C28.2798 9.37891 28.2806 9.44504 28.2814 9.51317C28.2747 10.0937 28.1286 10.6043 27.7331 11.0413C27.3778 11.3637 27.0132 11.5232 26.543 11.6016C26.5236 16.1649 26.5043 20.7282 26.4844 25.4297C26.6391 25.4684 26.7937 25.5071 26.9531 25.5469C27.5724 25.859 27.9452 26.3099 28.1836 26.9532C28.2561 27.1767 28.2527 27.4012 28.2541 27.6339C28.2544 27.6769 28.2547 27.72 28.2551 27.7643C28.2556 27.8552 28.256 27.9461 28.2563 28.0371C28.2568 28.1754 28.2586 28.3138 28.2605 28.4521C28.2609 28.5407 28.2612 28.6293 28.2614 28.7178C28.2621 28.7589 28.2629 28.7999 28.2636 28.8422C28.262 29.1985 28.1609 29.4244 27.9272 29.6888C27.6357 29.9456 27.4479 30.022 27.0559 30.0225C27.0136 30.0228 26.9712 30.0231 26.9276 30.0234C26.7853 30.0241 26.6431 30.0236 26.5008 30.0231C26.3979 30.0234 26.295 30.0238 26.1921 30.0242C25.9091 30.0252 25.6261 30.0251 25.3431 30.0247C25.0379 30.0246 24.7328 30.0254 24.4277 30.0261C23.8298 30.0274 23.2319 30.0276 22.634 30.0275C22.1481 30.0275 21.6621 30.0277 21.1762 30.0281C21.0364 30.0282 20.8965 30.0284 20.7566 30.0285C20.687 30.0286 20.6174 30.0286 20.5457 30.0287C19.2286 30.0298 17.9114 30.0297 16.5943 30.0293C15.389 30.029 14.1837 30.0302 12.9784 30.0322C11.7412 30.0341 10.5041 30.035 9.26703 30.0348C8.57228 30.0346 7.87754 30.0349 7.18279 30.0364C6.5913 30.0376 5.99981 30.0378 5.40832 30.0367C5.10648 30.0362 4.80466 30.0361 4.50282 30.0373C4.2265 30.0384 3.95021 30.0382 3.67389 30.0368C3.57393 30.0366 3.47397 30.0368 3.37402 30.0376C2.47225 30.0443 2.47225 30.0443 2.13203 29.7878C1.81531 29.4733 1.7484 29.1775 1.74384 28.7494C1.74337 28.707 1.7429 28.6645 1.74241 28.6208C1.7416 28.5308 1.74097 28.4408 1.74051 28.3507C1.73984 28.2597 1.73865 28.1687 1.7369 28.0777C1.72117 27.2549 1.83057 26.6098 2.41332 25.9827C2.74396 25.6627 3.06248 25.5052 3.51562 25.4297C3.49628 20.8664 3.47694 16.3032 3.45702 11.6016C3.283 11.5629 3.10898 11.5243 2.92968 11.4844C2.39348 11.2316 2.01466 10.7956 1.80543 10.2479C1.71733 9.9339 1.7253 9.62077 1.72748 9.29667C1.72707 9.22057 1.72666 9.14446 1.72623 9.06604C1.72517 8.85889 1.72557 8.65177 1.72632 8.44462C1.72692 8.22669 1.72636 8.00876 1.726 7.79084C1.72557 7.42489 1.72613 7.05895 1.72725 6.693C1.72852 6.27156 1.72811 5.85014 1.72682 5.4287C1.72575 5.06527 1.72561 4.70185 1.72622 4.33842C1.72658 4.12207 1.72664 3.90572 1.72586 3.68937C1.72505 3.44778 1.72618 3.20624 1.72748 2.96466C1.727 2.89414 1.72653 2.82362 1.72604 2.75097C1.7325 2.09866 1.89529 1.52359 2.28515 0.996131C2.30962 0.961387 2.33409 0.926643 2.35931 0.890846C2.9703 0.0972576 3.84362 -0.0267467 4.7782 -0.022678ZM4.45312 11.6016C4.45312 16.1455 4.45312 20.6895 4.45312 25.3711C6.69608 25.3711 8.93905 25.3711 11.25 25.3711C11.2028 24.7379 11.2028 24.7379 11.1202 24.112C11.1099 24.0462 11.1099 24.0462 11.0994 23.9791C11.0847 23.8855 11.0699 23.792 11.055 23.6985C11.0313 23.5496 11.008 23.4006 10.9848 23.2516C10.919 22.8285 10.8526 22.4055 10.7855 21.9827C10.7442 21.7224 10.7035 21.462 10.6633 21.2016C10.648 21.1035 10.6325 21.0054 10.6167 20.9074C10.3456 19.2238 10.3456 19.2238 10.7318 18.547C11.0156 18.1568 11.3704 17.9801 11.84 17.8984C12.1101 17.8664 12.3738 17.8625 12.6454 17.8626C12.7017 17.8624 12.758 17.8622 12.816 17.862C13.0011 17.8615 13.1863 17.8614 13.3715 17.8613C13.5009 17.8611 13.6303 17.8609 13.7596 17.8607C14.0306 17.8603 14.3015 17.8602 14.5725 17.8603C14.9186 17.8603 15.2648 17.8595 15.6109 17.8585C15.8781 17.8578 16.1453 17.8577 16.4124 17.8577C16.54 17.8577 16.6676 17.8574 16.7951 17.857C16.974 17.8564 17.1529 17.8565 17.3318 17.8569C17.3838 17.8566 17.4359 17.8562 17.4895 17.8559C18.1297 17.8591 18.6664 17.97 19.1601 18.3985C19.6308 18.9845 19.5486 19.6819 19.5117 20.3907C19.5853 20.3915 19.6588 20.3923 19.7346 20.3932C20.8521 20.419 20.8521 20.419 21.2109 20.7422C21.4949 21.1096 21.5491 21.4612 21.5039 21.9141C21.4523 22.1738 21.3873 22.4286 21.3165 22.6836C21.2842 22.8003 21.2532 22.9173 21.2224 23.0345C20.9335 24.1115 20.9335 24.1115 20.5078 24.375C20.1769 24.5187 19.8482 24.5158 19.4934 24.5252C19.3764 24.5287 19.2595 24.5324 19.1425 24.5364C19.0911 24.5378 19.0396 24.5392 18.9866 24.5406C18.8675 24.5379 18.8675 24.5379 18.8086 24.6094C18.7892 24.8608 18.7699 25.1121 18.75 25.3711C20.993 25.3711 23.2359 25.3711 25.5469 25.3711C25.5469 20.8272 25.5469 16.2832 25.5469 11.6016C23.2459 11.6016 20.9449 11.6016 18.5742 11.6016C18.5549 12.1043 18.5355 12.6071 18.5156 13.125C18.2351 13.9667 18.2351 13.9667 17.7834 14.2324C17.4942 14.3596 17.1843 14.4147 16.875 14.4727C16.8728 14.5356 16.8706 14.5985 16.8684 14.6634C16.8645 14.7475 16.8606 14.8317 16.8567 14.9158C16.8547 14.9777 16.8547 14.9777 16.8527 15.0409C16.8348 15.3937 16.7582 15.6753 16.5308 15.9558C16.2478 16.1805 15.9643 16.1906 15.6141 16.1916C15.5662 16.192 15.5183 16.1924 15.4689 16.1928C15.3678 16.1934 15.2667 16.1936 15.1656 16.1936C15.0121 16.1939 14.8586 16.196 14.7051 16.1982C14.6065 16.1986 14.5079 16.1988 14.4092 16.1989C14.3639 16.1998 14.3185 16.2006 14.2718 16.2015C13.9447 16.1988 13.6905 16.1224 13.418 15.9375C13.1795 15.6299 13.171 15.3043 13.1506 14.9268C13.1481 14.8831 13.1456 14.8395 13.143 14.7945C13.1368 14.6872 13.1309 14.58 13.125 14.4727C13.0754 14.4634 13.0259 14.4541 12.9748 14.4445C12.0886 14.2623 12.0886 14.2623 11.7902 13.865C11.3298 13.1342 11.4626 12.5598 11.4258 11.6016C9.1248 11.6016 6.82382 11.6016 4.45312 11.6016ZM12.3633 11.6016C12.2461 12.7006 12.2461 12.7006 12.6269 13.4034C12.8255 13.5688 13.0473 13.5433 13.2932 13.5446C13.3542 13.5451 13.3542 13.5451 13.4165 13.5455C13.5511 13.5464 13.6857 13.5468 13.8203 13.5471C13.914 13.5474 14.0076 13.5478 14.1012 13.5481C14.2976 13.5487 14.4939 13.5491 14.6902 13.5493C14.9416 13.5496 15.1929 13.551 15.4442 13.5527C15.6377 13.5538 15.8311 13.5541 16.0245 13.5542C16.1172 13.5543 16.2098 13.5548 16.3025 13.5556C16.4322 13.5566 16.5619 13.5565 16.6916 13.5561C16.7654 13.5563 16.8392 13.5565 16.9152 13.5567C17.1966 13.5255 17.3976 13.4003 17.5781 13.1836C17.745 12.683 17.6367 12.1293 17.6367 11.6016C15.8965 11.6016 14.1562 11.6016 12.3633 11.6016ZM14.0625 14.4727C14.0625 14.7434 14.0625 15.0141 14.0625 15.293C14.6812 15.293 15.3 15.293 15.9375 15.293C15.9375 15.0223 15.9375 14.7516 15.9375 14.4727C15.3187 14.4727 14.7 14.4727 14.0625 14.4727ZM11.4258 19.1089C11.2781 19.5334 11.3738 19.9677 11.4844 20.3907C11.5892 20.395 11.5892 20.395 11.6961 20.3994C11.7879 20.4038 11.8796 20.4082 11.9714 20.4126C12.0175 20.4144 12.0635 20.4163 12.1109 20.4181C12.1775 20.4215 12.1775 20.4215 12.2454 20.425C12.3066 20.4278 12.3066 20.4278 12.3691 20.4306C12.4805 20.4493 12.4805 20.4493 12.6562 20.5664C12.7048 20.7683 12.7341 20.9156 12.6709 21.1158C12.5976 21.211 12.5976 21.211 12.4219 21.2696C12.2817 21.2828 12.1412 21.2935 12.0007 21.3025C11.9262 21.3074 11.8516 21.3123 11.7748 21.3174C11.7176 21.321 11.6605 21.3245 11.6016 21.3282C11.6244 21.4848 11.6473 21.6414 11.6702 21.7981C11.6774 21.8472 11.6846 21.8963 11.692 21.9469C11.7316 22.218 11.7713 22.4891 11.811 22.7602C11.8272 22.8704 11.8433 22.9806 11.8595 23.0908C11.8675 23.1455 11.8756 23.2003 11.8838 23.2567C11.9261 23.5452 11.9681 23.8337 12.0096 24.1223C12.0259 24.2357 12.0424 24.349 12.0588 24.4624C12.0783 24.5971 12.0977 24.7319 12.1168 24.8666C12.1297 24.955 12.1297 24.955 12.1429 25.0452C12.1538 25.1212 12.1538 25.1212 12.1649 25.1988C12.1765 25.3124 12.1765 25.3124 12.2461 25.3711C12.417 25.377 12.5865 25.3791 12.7574 25.3787C12.811 25.3788 12.8647 25.3789 12.9199 25.379C13.0982 25.3793 13.2764 25.3791 13.4546 25.3789C13.5778 25.379 13.7011 25.379 13.8244 25.3791C14.0831 25.3792 14.3418 25.379 14.6005 25.3788C14.9329 25.3784 15.2653 25.3786 15.5977 25.379C15.8524 25.3792 16.107 25.3791 16.3616 25.379C16.4843 25.3789 16.6069 25.379 16.7295 25.3791C16.9005 25.3793 17.0715 25.379 17.2426 25.3787C17.3194 25.3789 17.3194 25.3789 17.3977 25.3791C17.6233 25.4005 17.6233 25.4005 17.8125 25.3125C17.8353 25.1931 17.8548 25.073 17.8729 24.9527C17.8815 24.8964 17.8815 24.8964 17.8903 24.839C17.9092 24.7144 17.9278 24.5897 17.9464 24.465C17.9594 24.3786 17.9725 24.2923 17.9855 24.206C18.0129 24.0248 18.0402 23.8436 18.0672 23.6623C18.102 23.4297 18.1371 23.1971 18.1723 22.9646C18.1992 22.7862 18.2261 22.6078 18.2529 22.4294C18.2658 22.3437 18.2788 22.2579 18.2917 22.1721C18.3098 22.0523 18.3277 21.9325 18.3456 21.8127C18.3558 21.7445 18.366 21.6762 18.3766 21.6059C18.4011 21.453 18.4011 21.453 18.3984 21.3282C18.3461 21.3279 18.2938 21.3277 18.2398 21.3275C17.7467 21.3253 17.2535 21.322 16.7604 21.3174C16.5069 21.3151 16.2533 21.3132 15.9998 21.3123C15.7551 21.3114 15.5105 21.3094 15.2658 21.3066C15.1725 21.3057 15.0791 21.3053 14.9858 21.3052C14.855 21.3051 14.7243 21.3035 14.5936 21.3016C14.5191 21.301 14.4447 21.3005 14.368 21.3C14.1466 21.2642 14.0759 21.215 13.9453 21.0352C13.916 20.8265 13.916 20.8265 13.9453 20.625C14.084 20.4767 14.1696 20.4505 14.3725 20.4259C14.449 20.4252 14.5255 20.4246 14.6043 20.4239C14.6466 20.4233 14.689 20.4227 14.7326 20.4221C14.8721 20.4203 15.0115 20.4198 15.1511 20.4193C15.2479 20.4183 15.3448 20.4172 15.4417 20.4161C15.6964 20.4133 15.9511 20.4116 16.2057 20.41C16.4658 20.4083 16.7258 20.4056 16.9858 20.4029C17.4957 20.3979 18.0057 20.3939 18.5156 20.3907C18.544 20.28 18.544 20.28 18.573 20.1672C18.589 20.105 18.589 20.105 18.6052 20.0415C18.6825 19.7061 18.6816 19.3868 18.5413 19.0723C18.3014 18.8263 18.0512 18.7425 17.7152 18.7273C17.6103 18.7261 17.5054 18.7258 17.4005 18.7264C17.3429 18.726 17.2853 18.7256 17.226 18.7251C17.0364 18.7241 16.8469 18.7243 16.6573 18.7246C16.525 18.7244 16.3928 18.7241 16.2605 18.7237C15.9835 18.7232 15.7066 18.7233 15.4296 18.7239C15.0753 18.7246 14.721 18.7234 14.3667 18.7217C14.0936 18.7206 13.8205 18.7206 13.5474 18.721C13.4168 18.721 13.2862 18.7206 13.1556 18.7199C12.9727 18.719 12.7899 18.7196 12.607 18.7206C12.5535 18.7201 12.4999 18.7195 12.4448 18.7189C12.0435 18.7235 11.7078 18.8093 11.4258 19.1089ZM19.3359 21.3282C19.2951 21.5688 19.2544 21.8095 19.214 22.0502C19.2002 22.1319 19.1864 22.2135 19.1725 22.2952C19.0981 22.7336 19.027 23.1705 18.9844 23.6133C19.1467 23.6165 19.309 23.6188 19.4714 23.6206C19.5175 23.6216 19.5635 23.6226 19.6109 23.6236C19.6553 23.624 19.6997 23.6244 19.7454 23.6248C19.8066 23.6257 19.8066 23.6257 19.8691 23.6266C19.9999 23.6195 19.9999 23.6195 20.1562 23.4961C20.2254 23.3215 20.2254 23.3215 20.278 23.1125C20.2883 23.0745 20.2986 23.0365 20.3092 22.9973C20.3308 22.9168 20.3521 22.8363 20.373 22.7556C20.405 22.6329 20.4385 22.5106 20.4721 22.3883C20.4929 22.3099 20.5137 22.2315 20.5344 22.1531C20.5532 22.082 20.572 22.0109 20.5914 21.9377C20.6261 21.7316 20.6218 21.5877 20.5664 21.3868C20.4288 21.318 20.3474 21.3214 20.1942 21.3224C20.1195 21.3227 20.1195 21.3227 20.0432 21.323C19.9911 21.3235 19.9389 21.324 19.8852 21.3245C19.8064 21.3249 19.8064 21.3249 19.7259 21.3253C19.5959 21.326 19.4659 21.327 19.3359 21.3282ZM2.99193 26.7737C2.95998 26.8117 2.92804 26.8497 2.89512 26.8888C2.63468 27.2763 2.67378 27.6818 2.67333 28.1324C2.6719 28.2078 2.67046 28.2833 2.66898 28.361C2.66876 28.4331 2.66853 28.5053 2.6683 28.5796C2.66781 28.6455 2.66733 28.7115 2.66684 28.7794C2.6796 28.9473 2.6796 28.9473 2.78895 29.0422C2.97861 29.1486 3.11769 29.1432 3.33488 29.1433C3.37583 29.1435 3.41679 29.1438 3.45899 29.144C3.59693 29.1447 3.73482 29.1441 3.87276 29.1435C3.97237 29.1437 4.07198 29.1439 4.17159 29.1443C4.44585 29.145 4.7201 29.1447 4.99437 29.1441C5.28994 29.1437 5.5855 29.1443 5.88107 29.1448C6.4603 29.1456 7.03953 29.1454 7.61876 29.1449C8.08938 29.1445 8.56 29.1445 9.03062 29.1447C9.09752 29.1447 9.16442 29.1447 9.23335 29.1447C9.36924 29.1448 9.50513 29.1448 9.64102 29.1449C10.9162 29.1454 12.1914 29.1448 13.4667 29.1439C14.5616 29.1431 15.6566 29.1432 16.7515 29.144C18.0221 29.145 19.2926 29.1454 20.5632 29.1448C20.6986 29.1448 20.834 29.1447 20.9694 29.1447C21.036 29.1446 21.1026 29.1446 21.1713 29.1446C21.6415 29.1444 22.1117 29.1447 22.5819 29.1451C23.1547 29.1456 23.7275 29.1455 24.3003 29.1445C24.5928 29.1441 24.8852 29.1439 25.1776 29.1445C25.4451 29.145 25.7125 29.1447 25.98 29.1438C26.077 29.1436 26.174 29.1437 26.271 29.1441C26.4024 29.1446 26.5337 29.1441 26.6651 29.1433C26.7382 29.1432 26.8113 29.1432 26.8867 29.1432C27.0843 29.1195 27.1671 29.0872 27.3047 28.9454C27.3409 28.7777 27.3409 28.7777 27.3358 28.5858C27.3361 28.5144 27.3364 28.4431 27.3367 28.3696C27.3358 28.2949 27.3349 28.2203 27.334 28.1433C27.3349 28.0698 27.3358 27.9963 27.3367 27.9205C27.3346 27.4242 27.2836 27.0838 26.9572 26.7046C26.9008 26.6572 26.9008 26.6572 26.8433 26.6089C26.8059 26.5764 26.7686 26.544 26.7302 26.5105C26.4536 26.3284 26.1824 26.294 25.8568 26.2936C25.8186 26.2934 25.7803 26.2931 25.7409 26.2929C25.613 26.2924 25.485 26.2927 25.3571 26.293C25.2643 26.2927 25.1716 26.2925 25.0789 26.2922C24.8241 26.2914 24.5694 26.2915 24.3147 26.2916C24.0399 26.2916 23.7652 26.291 23.4904 26.2904C22.9521 26.2894 22.4139 26.2891 21.8756 26.2891C21.4381 26.289 21.0006 26.2888 20.5631 26.2884C19.3227 26.2874 18.0824 26.2868 16.842 26.2869C16.7752 26.2869 16.7083 26.2869 16.6394 26.2869C16.5724 26.2869 16.5055 26.2869 16.4365 26.2869C15.3513 26.287 14.2662 26.2859 13.181 26.2842C12.0669 26.2825 10.9527 26.2817 9.83855 26.2818C9.213 26.2819 8.58746 26.2815 7.96191 26.2803C7.42933 26.2792 6.89675 26.2789 6.36416 26.2797C6.09246 26.2801 5.82077 26.2801 5.54907 26.2791C5.30022 26.2782 5.05139 26.2784 4.80253 26.2794C4.71263 26.2796 4.62273 26.2794 4.53283 26.2787C3.95153 26.2748 3.38614 26.287 2.99193 26.7737Z" fill="#C9A581"/>
<path d="M17.051 2.81249C17.8502 3.45166 18.3854 4.2108 18.558 5.23956C18.6647 6.2182 18.4651 7.16756 17.861 7.96028C17.733 8.10646 17.6006 8.2436 17.4612 8.3789C17.4239 8.41674 17.3866 8.45458 17.3481 8.49357C17.0368 8.79005 16.683 8.97339 16.2893 9.14062C16.2421 9.16071 16.1949 9.1808 16.1463 9.2015C15.2771 9.50007 14.2448 9.37294 13.4255 9.00672C13.0134 8.80123 12.6884 8.52683 12.3635 8.20312C12.3304 8.1714 12.2974 8.13967 12.2633 8.10699C11.675 7.49075 11.4331 6.60846 11.4004 5.7788C11.4279 4.79526 11.7982 3.90289 12.4892 3.2048C13.7165 2.04627 15.6449 1.83946 17.051 2.81249ZM12.8764 4.19219C12.4797 4.74705 12.2976 5.41597 12.3635 6.09374C12.5159 6.89016 12.8877 7.51463 13.5574 7.99072C14.2319 8.39799 14.9489 8.50138 15.7201 8.33816C16.4387 8.0976 17.0608 7.59391 17.4026 6.91406C17.4722 6.7408 17.5285 6.56659 17.5784 6.38671C17.5917 6.33958 17.605 6.29245 17.6187 6.24389C17.7141 5.46145 17.5331 4.75201 17.0526 4.12696C16.5708 3.55681 15.9979 3.20849 15.2484 3.14552C14.2755 3.10422 13.5058 3.44464 12.8764 4.19219Z" fill="#C9A581"/>
<path d="M5.22081 4.03262C5.2637 4.03224 5.30659 4.03185 5.35077 4.03146C5.49302 4.0303 5.63526 4.02962 5.77751 4.02903C5.82609 4.02879 5.87468 4.02856 5.92473 4.02831C6.18196 4.02709 6.43919 4.02625 6.69642 4.0257C6.96188 4.02505 7.22732 4.02304 7.49278 4.02071C7.69707 4.01918 7.90135 4.01869 8.10564 4.01848C8.20348 4.01819 8.30131 4.01751 8.39914 4.01642C8.53632 4.01499 8.67342 4.01505 8.8106 4.01546C8.87088 4.01433 8.87088 4.01433 8.93239 4.01318C9.2227 4.01631 9.38409 4.09847 9.60899 4.27737C9.99888 4.68891 9.9808 5.13848 9.97905 5.67691C9.97887 5.79663 9.98024 5.91627 9.98173 6.03598C9.98197 6.52865 9.9691 6.85815 9.6566 7.251C9.19245 7.62232 8.67191 7.58463 8.1073 7.58197C8.01831 7.58209 7.92932 7.58226 7.84032 7.58248C7.6545 7.58273 7.4687 7.58236 7.28288 7.58154C7.04554 7.58053 6.80824 7.58111 6.5709 7.58217C6.38737 7.5828 6.20385 7.5826 6.02031 7.58214C5.93283 7.58203 5.84535 7.58217 5.75787 7.58258C5.63534 7.58303 5.51287 7.58234 5.39034 7.58137C5.2861 7.58116 5.2861 7.58116 5.17974 7.58094C4.79763 7.53822 4.52624 7.38761 4.27696 7.08987C4.11615 6.82023 4.07867 6.62075 4.07784 6.30824C4.07767 6.26809 4.0775 6.22794 4.07733 6.18658C4.07721 6.10213 4.07753 6.01768 4.07826 5.93323C4.0792 5.80501 4.07827 5.67691 4.07715 5.54869C4.07726 5.46618 4.07749 5.38367 4.07784 5.30116C4.07803 5.22699 4.07823 5.15283 4.07844 5.07641C4.10886 4.79132 4.18469 4.55632 4.37973 4.33825C4.4147 4.31091 4.44967 4.28357 4.4857 4.2554C4.52082 4.22715 4.55595 4.1989 4.59213 4.1698C4.79674 4.02287 4.97748 4.03357 5.22081 4.03262ZM5.03868 5.03909C5.02386 5.28165 5.02783 5.52489 5.02769 5.76785C5.02698 5.83647 5.02626 5.90509 5.02552 5.97579C5.02541 6.04124 5.02529 6.10668 5.02518 6.17411C5.02494 6.2345 5.0247 6.29488 5.02445 6.35709C5.02396 6.51404 5.02396 6.51404 5.15587 6.62112C5.31866 6.63914 5.31866 6.63914 5.51155 6.63628C5.62359 6.63684 5.62359 6.63684 5.73789 6.6374C5.81976 6.63719 5.90163 6.63695 5.98351 6.63668C6.06713 6.63676 6.15076 6.63688 6.23439 6.63702C6.40974 6.6372 6.58509 6.63695 6.76044 6.6364C6.98547 6.63573 7.21048 6.63612 7.4355 6.63682C7.60821 6.63724 7.78092 6.63711 7.95363 6.6368C8.03661 6.63672 8.11959 6.63682 8.20258 6.63709C8.31845 6.63739 8.43432 6.63686 8.55019 6.63628C8.61619 6.63619 8.6822 6.6361 8.7502 6.636C8.91494 6.63692 8.91494 6.63692 9.02306 6.50393C9.04033 6.35133 9.04033 6.35133 9.03656 6.17411C9.03645 6.10867 9.03633 6.04322 9.03622 5.97579C9.0355 5.90717 9.03478 5.83855 9.03404 5.76785C9.034 5.699 9.03397 5.63016 9.03393 5.55922C9.06235 5.24859 9.06235 5.24859 8.96446 4.9805C8.84434 4.97467 8.72401 4.973 8.60374 4.97291C8.52651 4.97273 8.44928 4.97254 8.36971 4.97235C8.28476 4.97246 8.19981 4.97258 8.11485 4.97271C8.02837 4.97267 7.94189 4.97262 7.85542 4.97254C7.67395 4.97246 7.49249 4.97258 7.31102 4.97286C7.07791 4.97319 6.84481 4.973 6.61171 4.97265C6.43307 4.97244 6.25443 4.9725 6.07579 4.97265C5.98981 4.97269 5.90384 4.97265 5.81787 4.97251C5.69791 4.97236 5.57795 4.97263 5.45799 4.97291C5.3896 4.97296 5.32121 4.97301 5.25074 4.97306C5.10159 4.96306 5.10159 4.96306 5.03868 5.03909Z" fill="#C9A581"/>
<path d="M21.1583 4.03262C21.2012 4.03224 21.2441 4.03185 21.2883 4.03146C21.4305 4.0303 21.5728 4.02962 21.715 4.02903C21.7636 4.02879 21.8122 4.02856 21.8622 4.02831C22.1195 4.02709 22.3767 4.02625 22.6339 4.0257C22.8994 4.02505 23.1648 4.02304 23.4303 4.02071C23.6346 4.01918 23.8388 4.01869 24.0431 4.01848C24.141 4.01819 24.2388 4.01751 24.3366 4.01642C24.4738 4.01499 24.6109 4.01505 24.7481 4.01546C24.8084 4.01433 24.8084 4.01433 24.8699 4.01318C25.2039 4.01678 25.4054 4.14329 25.6429 4.36892C25.963 4.76295 25.9127 5.16934 25.9154 5.65633C25.916 5.74247 25.9172 5.82861 25.919 5.91473C25.9369 6.80506 25.9369 6.80506 25.6637 7.20706C25.3607 7.51006 25.0336 7.57309 24.6155 7.57471C24.5768 7.57501 24.5381 7.57531 24.4982 7.57562C24.3711 7.57643 24.244 7.57638 24.1169 7.57624C24.0279 7.57647 23.9389 7.57673 23.8498 7.57701C23.6636 7.57744 23.4773 7.57743 23.291 7.57712C23.0533 7.57678 22.8156 7.57777 22.5779 7.57913C22.3941 7.58 22.2103 7.58004 22.0265 7.57986C21.9389 7.57989 21.8513 7.5802 21.7637 7.58079C20.7623 7.58673 20.7623 7.58673 20.3426 7.251C20.0084 6.83086 20.0108 6.44764 20.0158 5.9235C20.0167 5.80494 20.0158 5.68648 20.0146 5.56792C20.0173 4.68458 20.0173 4.68458 20.3172 4.33253C20.3522 4.30587 20.3872 4.27921 20.4232 4.25174C20.4583 4.22402 20.4934 4.1963 20.5296 4.16774C20.7355 4.02435 20.9154 4.03357 21.1583 4.03262ZM20.9762 5.03909C20.9614 5.28165 20.9653 5.52489 20.9652 5.76785C20.9645 5.83647 20.9638 5.90509 20.963 5.97579C20.9629 6.04124 20.9628 6.10668 20.9627 6.17411C20.9624 6.2345 20.9622 6.29488 20.9619 6.35709C20.9615 6.51404 20.9615 6.51404 21.0934 6.62112C21.2562 6.63914 21.2562 6.63914 21.4491 6.63628C21.5611 6.63684 21.5611 6.63684 21.6754 6.6374C21.7573 6.63719 21.8391 6.63695 21.921 6.63668C22.0046 6.63676 22.0883 6.63688 22.1719 6.63702C22.3472 6.6372 22.5226 6.63695 22.6979 6.6364C22.923 6.63573 23.148 6.63612 23.373 6.63682C23.5457 6.63724 23.7184 6.63711 23.8911 6.6368C23.9741 6.63672 24.0571 6.63682 24.1401 6.63709C24.2559 6.63739 24.3718 6.63686 24.4877 6.63628C24.5537 6.63619 24.6197 6.6361 24.6877 6.636C24.8524 6.63692 24.8524 6.63692 24.9606 6.50393C24.9778 6.35133 24.9778 6.35133 24.9741 6.17411C24.9739 6.10867 24.9738 6.04322 24.9737 5.97579C24.973 5.90717 24.9723 5.83855 24.9715 5.76785C24.9715 5.699 24.9715 5.63016 24.9714 5.55922C24.9998 5.24859 24.9998 5.24859 24.902 4.9805C24.7818 4.97467 24.6615 4.973 24.5412 4.97291C24.464 4.97273 24.3868 4.97254 24.3072 4.97235C24.2223 4.97246 24.1373 4.97258 24.0524 4.97271C23.9659 4.97267 23.8794 4.97262 23.7929 4.97254C23.6114 4.97246 23.43 4.97258 23.2485 4.97286C23.0154 4.97319 22.7823 4.973 22.5492 4.97265C22.3706 4.97244 22.1919 4.9725 22.0133 4.97265C21.9273 4.97269 21.8413 4.97265 21.7554 4.97251C21.6354 4.97236 21.5155 4.97263 21.3955 4.97291C21.3271 4.97296 21.2587 4.97301 21.1882 4.97306C21.0391 4.96306 21.0391 4.96306 20.9762 5.03909Z" fill="#C9A581"/>
<path d="M16.1719 4.45317C16.3098 4.5451 16.3404 4.60981 16.3989 4.76445C16.4105 5.01262 16.3042 5.18644 16.145 5.3744C16.0389 5.48634 15.9302 5.59505 15.8201 5.70309C15.7604 5.76261 15.7604 5.76261 15.6995 5.82334C15.6157 5.90671 15.5318 5.98987 15.4476 6.07284C15.3184 6.20018 15.1899 6.32814 15.0615 6.45623C14.9799 6.53725 14.8983 6.61824 14.8167 6.69919C14.7588 6.75668 14.7588 6.75668 14.6998 6.81533C14.664 6.85055 14.6282 6.88578 14.5913 6.92207C14.5598 6.95315 14.5284 6.98423 14.4959 7.01625C14.3584 7.13992 14.2891 7.14905 14.0991 7.16313C13.8867 7.14848 13.8867 7.14848 13.7476 7.08256C13.6143 6.92879 13.5978 6.82337 13.5938 6.62114C13.7317 6.32682 13.9649 6.11691 14.1927 5.89146C14.2338 5.8504 14.2749 5.80933 14.3173 5.76702C14.4038 5.68061 14.4906 5.59434 14.5774 5.5082C14.7107 5.37598 14.8436 5.24329 14.9763 5.11052C15.0605 5.02657 15.1448 4.94264 15.2291 4.85875C15.269 4.81895 15.3088 4.77916 15.3499 4.73817C15.4053 4.68328 15.4053 4.68328 15.4619 4.62729C15.4944 4.59499 15.5269 4.5627 15.5604 4.52942C15.7598 4.3486 15.9196 4.40006 16.1719 4.45317Z" fill="#C9A581"/>
</g>
<defs>
<clipPath id="clip0_297_821">
<rect width="30" height="30" fill="white"/>
</clipPath>
</defs>
</svg>
