<svg width="30" height="30" viewBox="0 0 30 30" fill="none" xmlns="http://www.w3.org/2000/svg">
<g clip-path="url(#clip0_297_818)">
<path d="M12.9493 3.51558C14.6363 4.8463 15.651 6.56593 16.5236 8.49605C16.5582 8.47721 16.5929 8.45836 16.6287 8.43895C17.4154 8.01392 18.2023 7.63005 19.0431 7.32418C19.1396 7.28883 19.1396 7.28883 19.2381 7.25277C19.4485 7.19123 19.594 7.20989 19.8048 7.26558C19.97 7.40415 19.9793 7.48988 20.0062 7.70504C19.9759 7.94802 19.9296 7.99111 19.7462 8.14449C19.6119 8.20835 19.6119 8.20835 19.4631 8.25802C19.4073 8.2774 19.3516 8.29679 19.2941 8.31677C19.2342 8.33726 19.1744 8.35775 19.1127 8.37887C17.3468 9.01532 15.7601 10.0573 14.3947 11.339C14.266 11.4587 14.1351 11.5729 14.0004 11.6857C11.6417 13.7435 10.0075 17.0095 9.74133 20.1123C9.73541 20.2245 9.7304 20.3368 9.72668 20.4492C9.72434 20.495 9.722 20.5409 9.71959 20.5881C9.67641 22.0941 10.1059 23.6749 11.0743 24.8437C11.1368 24.9194 11.1368 24.9194 11.2005 24.9966C12.2318 26.1929 13.7334 26.8266 15.2931 26.9531C18.7434 27.1147 21.8442 25.5674 24.3751 23.3203C24.5051 23.1929 24.6323 23.0642 24.7567 22.9314C24.8439 22.8515 24.8439 22.8515 24.9611 22.8515C24.982 22.8014 24.982 22.8014 25.0034 22.7504C25.0941 22.589 25.2032 22.4874 25.3383 22.3608C25.7002 22.0056 26.0051 21.6163 26.3087 21.2109C26.3454 21.1624 26.3454 21.1624 26.3828 21.113C27.6607 19.417 28.5995 17.4549 28.9454 15.3515C28.9567 15.2832 28.9679 15.215 28.9795 15.1446C29.0211 14.7891 29.0171 14.4303 29.0181 14.0728C29.0187 13.9472 29.0205 13.8216 29.0223 13.696C29.0281 12.9445 28.932 12.2106 28.6671 11.5026C28.652 11.4615 28.6369 11.4204 28.6214 11.378C28.1546 10.1446 27.3433 9.14915 26.1915 8.49605C26.1104 8.45005 26.1104 8.45005 26.0276 8.40313C24.8143 7.75709 23.5298 7.64242 22.1807 7.68819C22.0346 7.69277 21.8886 7.69556 21.7425 7.69817C21.6983 7.70023 21.6542 7.7023 21.6086 7.70442C21.3849 7.70763 21.2903 7.69466 21.1227 7.54113C21.0038 7.32568 21.029 7.20628 21.0939 6.97262C21.2285 6.79522 21.3501 6.76205 21.5663 6.72725C23.5695 6.46344 25.7233 6.81383 27.3545 8.05614C28.7631 9.16341 29.7386 10.7694 29.9724 12.5621C30.2295 15.1364 29.6199 17.5343 28.4181 19.8046C28.3835 19.8704 28.3489 19.9362 28.3133 20.004C27.8081 20.925 27.1816 21.7746 26.4845 22.5586C26.4149 22.6391 26.3453 22.7197 26.2758 22.8003C26.2088 22.8761 26.1416 22.9517 26.0743 23.0273C26.0286 23.0792 25.9828 23.1311 25.9356 23.1845C25.6837 23.4667 25.4316 23.7348 25.1416 23.9778C25.0552 24.0516 24.971 24.1281 24.8885 24.2063C24.0674 24.984 23.1327 25.6374 22.1486 26.1914C22.0976 26.2201 22.0466 26.2489 21.9941 26.2785C19.455 27.6953 16.4198 28.4453 13.5572 27.6452C12.6592 27.3741 11.8301 26.9412 11.1229 26.3221C10.9688 26.1728 10.9688 26.1728 10.7777 26.1914C10.7004 26.2092 10.6235 26.2291 10.547 26.25C8.62225 26.7081 6.79938 26.4599 5.09778 25.4296C4.87215 25.285 4.66152 25.1295 4.45325 24.9609C4.42085 24.9347 4.38846 24.9085 4.35508 24.8814C3.18195 23.9241 3.18195 23.9241 3.06553 23.5395C3.05378 23.3465 3.09559 23.2191 3.19714 23.0566C3.39805 22.933 3.51822 22.9321 3.75012 22.9687C3.86626 23.0635 3.94769 23.1484 4.04309 23.2617C5.19879 24.5308 6.75468 25.4029 8.48408 25.5008C9.05235 25.5193 9.58347 25.4361 10.1368 25.3125C10.1192 25.2851 10.1015 25.2578 10.0833 25.2296C9.36243 24.1063 8.97532 22.9917 8.73357 21.6824C8.69038 21.4495 8.64548 21.2169 8.60058 20.9843C8.59167 20.9381 8.58276 20.8919 8.57358 20.8443C8.19149 18.8739 7.61564 16.9555 6.84123 15.1033C6.6093 14.5483 6.39219 13.9987 6.23303 13.4179C6.21923 13.3679 6.20543 13.318 6.19122 13.2665C5.9577 12.3595 5.9577 12.3595 6.11951 12.0007C6.29827 11.8742 6.40715 11.8598 6.62121 11.8556C6.81295 11.9192 6.86702 12.0158 6.97278 12.1875C7.04185 12.3918 7.08924 12.6 7.13757 12.81C7.32653 13.5765 7.59178 14.293 7.88533 15.0247C8.24704 15.9292 8.56837 16.8344 8.85489 17.7652C8.90897 17.9379 8.96583 18.1096 9.02356 18.2812C9.03206 18.2495 9.04056 18.2177 9.04932 18.185C9.30958 17.222 9.61093 16.2929 10.0801 15.4097C10.1955 15.0532 10.0797 14.7285 9.93909 14.3957C9.92399 14.3591 9.90889 14.3225 9.89334 14.2847C9.81621 14.0979 9.73738 13.9119 9.65836 13.7258C8.98354 12.1322 8.4431 10.5159 8.0238 8.83663C8.01032 8.78281 7.99685 8.729 7.98296 8.67355C7.81382 7.99336 7.67052 7.313 7.55871 6.62105C7.06742 7.47626 6.89291 8.53836 6.82927 9.5116C6.82498 9.57512 6.82069 9.63863 6.81626 9.70408C6.80843 9.82924 6.80191 9.9545 6.79684 10.0798C6.77113 10.5102 6.77113 10.5102 6.59901 10.7029C6.41009 10.7992 6.30309 10.8168 6.09387 10.7812C5.91073 10.6575 5.86631 10.5813 5.82333 10.364C5.67296 8.84029 6.07174 6.9146 6.91418 5.62496C7.17081 5.39586 7.32128 5.3121 7.67064 5.32032C7.87108 5.33942 7.98162 5.38822 8.14465 5.50777C8.43909 5.89222 8.52301 6.34244 8.6115 6.80736C8.65279 7.02346 8.69741 7.23888 8.74158 7.45441C8.75044 7.49801 8.7593 7.54161 8.76843 7.58653C9.2183 9.7879 9.95169 11.8859 10.84 13.9453C10.8839 13.8864 10.9279 13.8276 10.9732 13.767C11.1314 13.5554 11.29 13.3441 11.4489 13.133C11.5075 13.0551 11.566 12.9771 11.6245 12.899C11.9249 12.4977 12.2381 12.1153 12.5795 11.7478C12.6995 11.6182 12.8159 11.4864 12.931 11.3525C13.2611 10.9738 13.6226 10.6386 14.004 10.3125C14.0602 10.2634 14.1164 10.2144 14.1743 10.1639C14.6253 9.77334 15.0954 9.4211 15.5861 9.08199C15.4705 8.65074 15.3142 8.25366 15.121 7.85152C15.093 7.79316 15.065 7.7348 15.0361 7.67467C14.6514 6.89329 14.1646 6.16613 13.5939 5.50777C13.5467 5.4521 13.4995 5.39644 13.4508 5.33909C12.3973 4.12453 10.9211 3.25838 9.31653 3.04683C7.57012 2.9274 6.05114 3.52309 4.71188 4.63779C3.74611 5.48018 3.05148 6.48815 2.46106 7.61715C2.43153 7.67286 2.43153 7.67286 2.40141 7.7297C1.36033 9.72048 0.969413 11.9866 0.977904 14.2126C0.97803 14.2722 0.978156 14.3317 0.978286 14.3931C0.981272 15.2707 1.0002 16.1287 1.172 16.9921C1.18992 17.0834 1.18992 17.0834 1.20822 17.1766C1.50724 18.655 1.96027 20.0938 2.73938 21.3929C2.82837 21.5989 2.83164 21.7502 2.81262 21.9726C2.72473 22.1154 2.72473 22.1154 2.57825 22.207C2.28786 22.2632 2.28786 22.2632 2.1095 22.207C0.897436 21.0635 0.463321 18.6731 0.175902 17.1093C0.160267 17.027 0.160267 17.027 0.144316 16.9429C-0.17095 15.1967 -0.164402 13.1671 0.175902 11.4257C0.186268 11.3704 0.196635 11.3151 0.207316 11.2581C0.706859 8.64004 1.77186 6.20984 3.63293 4.2773C3.66745 4.23976 3.70197 4.20222 3.73753 4.16355C4.75952 3.0813 6.21592 2.34747 7.6759 2.10933C7.73867 2.09861 7.80143 2.08788 7.8661 2.07683C9.71443 1.85757 11.4796 2.39144 12.9493 3.51558Z" fill="#C9A581"/>
<path d="M24.8108 10.0561C25.0085 10.2394 25.1267 10.389 25.1442 10.6661C25.109 11.271 24.7353 11.7419 24.4002 12.2205C23.2428 13.88 22.287 15.7036 21.5201 17.5719C20.8664 19.1612 20.1511 20.6289 18.9843 21.914C18.9288 21.9766 18.8732 22.0393 18.8177 22.1019C18.5214 22.4338 18.2188 22.7485 17.8711 23.0273C17.8145 23.073 17.7579 23.1187 17.6996 23.1658C16.8577 23.8353 15.4954 24.8649 14.3554 24.8039C14.0947 24.7621 13.934 24.6593 13.7549 24.4702C13.557 24.1734 13.5083 23.9651 13.5478 23.6121C13.6446 23.244 13.8881 22.9408 14.1028 22.6318C14.1537 22.5565 14.2046 22.4811 14.2553 22.4057C14.3572 22.2542 14.4596 22.103 14.5624 21.952C15.1239 21.1249 15.6428 20.2763 16.1133 19.3945C16.1542 19.3188 16.1542 19.3188 16.196 19.2415C16.665 18.374 17.0725 17.4881 17.4609 16.582C18.1229 15.0468 18.9377 13.6932 20.0976 12.4804C20.1495 12.4254 20.2014 12.3704 20.2549 12.3138C21.1305 11.4089 23.4814 9.42769 24.8108 10.0561ZM23.8019 11.0499C23.7603 11.0693 23.7188 11.0887 23.676 11.1087C23.6066 11.1411 23.6066 11.1411 23.5358 11.174C23.4864 11.1979 23.4371 11.2217 23.3862 11.2463C23.3357 11.2706 23.2851 11.2949 23.233 11.3199C22.827 11.5189 22.4532 11.7417 22.0898 12.0117C22.0589 12.0341 22.0279 12.0566 21.996 12.0797C20.7963 12.9541 19.825 14.0709 19.1013 15.3648C19.0465 15.4623 18.99 15.5587 18.9333 15.655C18.6726 16.1157 18.468 16.5943 18.2672 17.0835C17.4818 18.9961 16.4985 20.779 15.3515 22.5C15.2749 22.6154 15.1982 22.7308 15.1215 22.8463C14.9253 23.1413 14.7285 23.436 14.5312 23.7304C14.5506 23.7691 14.5699 23.8078 14.5898 23.8476C15.6782 23.3953 16.6304 22.8438 17.5019 22.0376C17.6233 21.9263 17.7479 21.8213 17.8747 21.7163C18.1655 21.4622 18.3954 21.1624 18.6328 20.8593C18.6793 20.8027 18.7258 20.746 18.7738 20.6877C19.5553 19.7157 20.0919 18.5931 20.5524 17.4411C21.1351 15.9836 21.8243 14.5972 22.6172 13.2421C22.6598 13.1691 22.6598 13.1691 22.7034 13.0947C23.1125 12.4 23.5619 11.7348 24.0234 11.0742C23.9106 11.0006 23.9106 11.0006 23.8019 11.0499Z" fill="#C9A581"/>
</g>
<defs>
<clipPath id="clip0_297_818">
<rect width="30" height="30" fill="white"/>
</clipPath>
</defs>
</svg>
