<?xml version="1.0" standalone="no"?>
<!DOCTYPE svg PUBLIC "-//W3C//DTD SVG 20010904//EN"
 "http://www.w3.org/TR/2001/REC-SVG-20010904/DTD/svg10.dtd">
<svg version="1.0" xmlns="http://www.w3.org/2000/svg"
 width="1580.000000pt" height="656.000000pt" viewBox="0 0 1580.000000 656.000000"
 preserveAspectRatio="xMidYMid meet">
<metadata>
Created by potrace 1.16, written by Peter Selinger 2001-2019
</metadata>
<circle cx="790" cy="255" r="159" fill="none" stroke="#FFFFFF" stroke-width="12" stroke-dasharray="72 28">
<animateTransform attributeName="transform" type="rotate" from="0 790 255" to="360 790 255" dur="20s" repeatCount="indefinite"/>
</circle>
<g transform="translate(0.000000,656.000000) scale(0.100000,-0.100000)"
fill="#FFFFFF" stroke="none">
<!-- <path d="M7660 5680 c-323 -58 -600 -197 -835 -422 -88 -84 -235 -253 -235
-270 0 -3 22 -23 48 -46 l49 -40 53 74 c71 100 255 276 360 346 111 73 248
141 362 179 94 32 267 69 318 69 l30 0 0 65 c0 76 11 73 -150 45z"/>
<path d="M8030 5635 l0 -65 34 0 c54 0 193 -29 296 -62 161 -52 306 -128 449
-235 l75 -56 38 43 c21 23 38 46 38 51 0 12 -151 123 -232 170 -200 117 -410
186 -645 214 l-53 6 0 -66z"/> -->
<path d="M8242 5225 c-132 -30 -290 -125 -388 -235 -98 -110 -99 -111 -96
-229 3 -120 -11 -187 -59 -289 -25 -51 -29 -69 -21 -87 9 -20 2 -28 -86 -96
-52 -41 -120 -96 -150 -124 l-55 -50 6 49 c4 27 7 72 7 101 l0 51 57 24 c143
59 231 229 221 425 -10 182 -118 308 -263 309 -76 0 -137 -28 -200 -92 -121
-123 -161 -343 -90 -500 28 -62 82 -122 132 -145 26 -11 26 -12 20 -102 -11
-170 -49 -266 -164 -420 -43 -57 -79 -102 -81 -100 -2 2 2 20 8 42 6 21 13 97
17 168 12 274 -67 487 -253 684 -67 72 -276 261 -288 261 -12 0 -68 -124 -101
-224 -79 -234 -50 -471 80 -665 24 -36 97 -123 163 -193 141 -151 180 -217
189 -323 5 -65 2 -81 -45 -220 -27 -82 -58 -194 -68 -248 l-18 -98 75 -75
c276 -281 649 -455 1019 -476 l55 -3 -3 95 c-3 113 -23 200 -67 295 -69 149
-184 267 -330 336 -118 57 -185 71 -316 67 l-111 -3 43 38 c53 47 204 121 277
136 100 21 143 15 206 -26 48 -32 69 -56 127 -148 80 -128 104 -157 179 -215
181 -141 454 -162 663 -53 155 81 257 225 313 438 25 94 41 126 105 207 12 14
19 33 16 42 -3 8 -32 28 -64 45 -32 16 -97 62 -145 102 -85 73 -189 142 -340
224 -42 23 -94 56 -115 74 -49 40 -90 41 -135 3 -62 -53 -93 -69 -166 -86 -97
-21 -188 -65 -250 -121 -37 -34 -65 -74 -112 -165 -81 -156 -101 -173 -220
-188 -164 -20 -331 -95 -453 -202 -26 -23 -47 -37 -47 -31 0 24 54 153 105
249 107 200 155 257 277 318 94 48 202 74 303 74 72 0 85 3 116 26 19 14 52
35 74 46 40 21 40 21 15 31 -65 25 -332 19 -407 -10 -57 -22 118 143 281 265
l79 59 46 -29 c128 -81 316 -82 491 -1 161 73 298 208 375 368 54 112 69 179
63 286 -8 152 -89 271 -216 320 -73 27 -195 34 -280 14z m183 -107 c14 -6 25
-14 25 -17 0 -3 -37 -13 -83 -22 -167 -33 -341 -122 -448 -229 -27 -27 -49
-46 -49 -42 0 15 75 117 115 158 98 98 239 163 352 164 34 0 74 -5 88 -12z
m145 -125 c-19 -60 -67 -128 -131 -188 -46 -42 -99 -74 -221 -135 -198 -98
-270 -151 -361 -265 -47 -59 -44 -39 8 71 61 126 165 215 346 294 125 55 218
117 297 199 37 37 69 67 70 65 2 -1 -1 -20 -8 -41z m-1155 -24 c17 -17 9 -76
-15 -112 -26 -39 -57 -57 -94 -57 -78 0 -46 145 39 180 21 9 54 4 70 -11z
m-758 -381 c134 -130 215 -260 255 -407 17 -62 21 -104 20 -226 0 -82 -5 -166
-10 -185 -11 -40 -8 -47 -36 105 -26 140 -62 235 -163 435 -88 172 -153 317
-153 340 0 19 12 10 87 -62z m1630 -687 c26 -16 78 -45 114 -64 196 -107 259
-305 136 -429 l-41 -43 -7 81 c-4 61 -14 98 -36 145 -29 62 -105 159 -124 159
-5 0 2 -22 16 -50 40 -79 58 -172 52 -273 -6 -118 -10 -121 -137 -125 -81 -3
-111 0 -164 18 -83 27 -151 73 -184 123 -23 35 -27 51 -27 116 0 128 53 200
215 292 41 23 86 50 99 60 30 24 31 24 88 -10z m-471 -216 c-37 -107 -25 -215
34 -300 148 -215 580 -232 758 -30 50 57 72 119 72 201 l0 63 63 -47 64 -47
-27 -35 c-15 -19 -40 -60 -56 -90 -36 -69 -123 -157 -192 -193 -29 -16 -93
-38 -142 -51 l-91 -22 41 -54 c22 -29 40 -55 40 -58 0 -6 -88 46 -140 83 -31
22 -70 37 -125 48 -158 33 -301 130 -354 241 -31 63 -38 150 -17 212 14 44 73
131 82 122 2 -2 -3 -22 -10 -43z m-522 -681 c190 -49 344 -190 411 -377 12
-34 25 -81 29 -105 l6 -42 -42 6 c-208 29 -427 120 -612 252 -82 58 -216 178
-216 192 0 13 98 58 160 74 73 20 188 20 264 0z"/>
<!-- <path d="M9073 5108 l-41 -43 35 -40 c97 -111 212 -320 268 -489 37 -110 75
-283 75 -339 0 -62 6 -67 72 -67 l60 0 -7 78 c-28 306 -143 597 -335 850 -36
47 -70 87 -75 89 -6 2 -29 -16 -52 -39z"/> -->
<g>
<animateTransform attributeName="transform" type="rotate" values="0 9000 4578;2 9000 4578;0 9000 4578;-2 9000 4578;0 9000 4578" dur="3s" repeatCount="indefinite"/>
<path d="M9003 4578 c-30 -14 -56 -73 -48 -106 4 -15 16 -37 28 -50 20 -21 20
-26 9 -90 -6 -37 -17 -85 -23 -107 l-11 -40 -23 45 c-16 31 -20 50 -14 62 37
69 -28 158 -106 144 -111 -21 -95 -196 18 -196 23 0 31 -7 47 -42 28 -63 26
-137 -7 -206 l-26 -56 -19 44 c-15 36 -17 49 -7 71 15 39 3 84 -33 114 -47 40
-109 29 -141 -25 -21 -36 -21 -64 0 -100 18 -31 51 -50 88 -50 21 0 27 -8 41
-56 14 -51 15 -60 1 -94 -14 -37 -14 -39 8 -60 l23 -22 37 40 c20 23 55 50 79
61 45 22 86 27 86 11 0 -15 55 -40 87 -40 48 1 93 51 93 104 0 14 -13 40 -29
58 -24 27 -36 33 -69 33 -43 0 -78 -23 -92 -61 -8 -19 -66 -42 -78 -30 -10 11
64 129 97 155 62 48 78 54 103 36 28 -19 87 -19 115 0 12 8 27 31 33 50 31 95
-89 167 -161 96 -16 -16 -29 -39 -29 -50 0 -13 -12 -27 -31 -37 -32 -16 -32
-16 -25 8 5 20 27 118 42 186 2 12 10 22 17 22 8 0 23 10 35 23 78 83 -12 205
-115 155z"/>
</g>
<!-- <path d="M6300 3980 c-1 -290 97 -619 258 -865 36 -55 47 -66 50 -50 3 11 13
46 23 78 l18 57 -54 108 c-66 130 -127 312 -150 447 -13 76 -23 108 -43 135
-15 19 -44 67 -64 105 l-37 70 -1 -85z"/> -->
<!-- <path d="M9415 3873 c-3 -21 -14 -87 -26 -148 -56 -306 -206 -590 -429 -815
-122 -123 -252 -216 -415 -296 -144 -70 -250 -104 -406 -130 l-104 -16 3 -60
4 -61 75 7 c153 14 395 91 543 173 413 229 708 604 827 1048 24 91 53 257 53
308 0 26 -1 27 -60 27 l-59 0 -6 -37z"/> -->
<path d="M4454 1986 c-72 -32 -86 -106 -30 -162 30 -30 40 -34 84 -34 86 0
141 69 112 140 -23 55 -106 83 -166 56z"/>
<path d="M4940 1923 c-25 -27 -63 -67 -85 -90 l-39 -43 76 0 c74 0 76 1 121
40 25 22 50 40 56 40 6 0 31 -18 55 -40 l44 -41 74 3 73 3 -84 88 -85 87 -81
0 -81 0 -44 -47z"/>
<path d="M8934 1875 l106 -86 75 3 75 3 -76 83 -76 82 -105 0 -105 0 106 -85z"/>
<path d="M8000 1515 l0 -435 95 0 95 0 0 183 c0 200 7 230 63 271 39 29 115
29 154 0 44 -33 52 -71 52 -271 l1 -183 96 0 95 0 -3 223 c-3 216 -4 224 -29
278 -54 116 -186 166 -326 124 -28 -8 -62 -24 -76 -35 l-26 -21 -3 148 -3 148
-92 3 -93 3 0 -436z"/>
<path d="M3592 1823 l3 -78 130 0 130 0 3 -332 2 -333 100 0 100 0 0 336 c0
210 4 333 10 329 5 -3 63 -3 130 1 l120 7 0 74 0 73 -365 0 -366 0 3 -77z"/>
<path d="M7070 1490 l0 -410 95 0 95 0 2 242 3 242 198 -242 198 -242 85 0 84
0 0 410 0 410 -100 0 -100 0 -2 -240 -3 -240 -195 240 -194 240 -83 0 -83 0 0
-410z"/>
<path d="M9860 1820 l0 -80 220 0 c202 1 224 -1 267 -20 63 -28 91 -55 119
-115 58 -123 15 -268 -99 -331 -48 -27 -61 -29 -179 -32 l-128 -4 0 226 c0
124 -2 226 -5 226 -14 0 -153 -75 -172 -93 -23 -20 -23 -24 -23 -269 l0 -248
225 0 c241 0 299 7 384 49 155 75 230 211 218 396 -11 180 -123 313 -302 360
-45 11 -115 15 -292 15 l-233 0 0 -80z"/>
<path d="M4977 1710 c-149 -38 -248 -156 -249 -299 -2 -123 44 -215 134 -275
140 -93 381 -84 476 17 l22 23 -49 53 -48 53 -45 -26 c-90 -53 -193 -43 -260
24 -21 21 -38 43 -38 49 0 8 70 11 241 11 l242 0 -6 78 c-8 124 -68 217 -172
268 -60 29 -181 41 -248 24z m153 -146 c41 -16 71 -50 84 -91 l7 -23 -150 0
c-142 0 -151 1 -151 19 0 27 47 81 85 97 41 18 77 17 125 -2z"/>
<path d="M5796 1706 c-22 -8 -52 -24 -67 -35 -37 -27 -39 -27 -39 9 l0 30 -90
0 -90 0 0 -315 0 -315 94 0 94 0 4 193 c3 169 5 196 23 224 51 85 173 81 208
-6 14 -33 17 -78 17 -226 l0 -185 94 0 94 0 4 197 c3 188 4 200 26 230 26 36
85 59 126 49 14 -3 37 -16 51 -29 34 -29 47 -120 43 -307 l-3 -140 98 0 99 0
-4 223 c-3 208 -5 225 -27 275 -30 67 -77 107 -148 128 -99 29 -204 8 -276
-55 -35 -31 -36 -31 -47 -12 -6 11 -30 32 -55 46 -56 33 -169 43 -229 21z"/>
<path d="M8944 1706 c-49 -11 -134 -46 -152 -61 -2 -2 11 -31 28 -65 25 -49
35 -60 48 -54 140 61 250 58 296 -8 9 -12 16 -32 16 -43 0 -20 -5 -21 -117
-22 -140 0 -213 -22 -262 -78 -87 -100 -22 -261 121 -295 98 -24 218 1 260 54
17 21 18 21 18 -16 l0 -38 91 0 91 0 -4 218 c-4 180 -8 225 -23 262 -41 101
-122 149 -264 156 -53 2 -109 -2 -147 -10z m243 -403 c-11 -70 -89 -114 -172
-99 -63 12 -86 78 -39 115 23 18 41 21 122 21 l95 0 -6 -37z"/>
<path d="M4410 1395 l0 -315 100 0 100 0 -2 313 -3 312 -97 3 -98 3 0 -316z"/>
<path d="M10802 1493 c5 -242 13 -281 71 -341 56 -59 101 -76 197 -77 89 0
128 13 178 58 l22 20 0 -36 0 -37 96 0 95 0 -3 313 -3 312 -97 3 -98 3 0 -186
c0 -164 -2 -190 -20 -224 -32 -64 -107 -87 -175 -55 -58 27 -65 57 -65 273 l0
191 -101 0 -101 0 4 -217z"/>
<path d="M11554 1633 c41 -95 178 -407 212 -482 30 -68 30 -96 -1 -126 -29
-30 -89 -34 -136 -9 -17 8 -33 14 -35 12 -2 -2 -17 -33 -33 -68 -28 -64 -29
-65 -9 -79 57 -40 161 -51 246 -26 61 18 104 52 136 109 27 45 316 725 316
741 0 3 -41 5 -91 5 l-90 0 -23 -52 c-13 -29 -52 -122 -86 -206 -35 -84 -64
-151 -66 -150 -1 2 -41 93 -87 203 l-84 200 -101 3 -102 3 34 -78z"/>
<path d="M5009 971 c-16 -16 -29 -39 -29 -50 0 -83 93 -120 152 -61 25 26 29
36 24 63 -14 74 -94 100 -147 48z"/>
</g>
</svg>
